<svg xmlns="http://www.w3.org/2000/svg" width="18" height="18" viewBox="0 0 18 18">
  <g id="Add_photo" transform="translate(-20 -657.5)">
    <rect id="Rectangle_18089" data-name="Rectangle 18089" width="18" height="18" transform="translate(20 657.5)" fill="none"/>
    <path id="Path_16529" data-name="Path 16529" d="M17.545,12.818v2.455H20v1.636H17.545v2.455H15.909V16.909H13.455V15.273h2.455V12.818ZM17.552,3a.812.812,0,0,1,.811.813v7.369H16.727V4.636H3.636V16.09l8.182-8.181,2.455,2.455v2.315l-2.455-2.455L5.949,16.091h5.869v1.636H2.811A.812.812,0,0,1,2,16.914V3.813A.818.818,0,0,1,2.811,3ZM6.909,6.273A1.636,1.636,0,1,1,5.273,7.909,1.636,1.636,0,0,1,6.909,6.273Z" transform="translate(18 655.318)" fill="#1c7d88"/>
  </g>
</svg>
