<svg xmlns="http://www.w3.org/2000/svg" width="34" height="34" viewBox="0 0 34 34">
  <g id="Customer_Home" data-name="Customer Home" transform="translate(-6854 -3037)">
    <rect id="Rectangle_18057" data-name="Rectangle 18057" width="34" height="34" rx="17" transform="translate(6854 3037)" fill="#002f35"/>
    <rect id="Rectangle_18123" data-name="Rectangle 18123" width="24" height="24" transform="translate(6859 3042)" fill="none"/>
    <path id="home" d="M10.8-13.2h2.4v-3.3h2.4v3.3H18v-5.7l-3.6-2.4-3.6,2.4ZM14.4-2.4a39.892,39.892,0,0,1-7.215-7.635A11.873,11.873,0,0,1,4.8-16.56a9.281,9.281,0,0,1,2.895-7.17,9.59,9.59,0,0,1,6.7-2.67,9.59,9.59,0,0,1,6.7,2.67A9.281,9.281,0,0,1,24-16.56a11.873,11.873,0,0,1-2.385,6.525A39.892,39.892,0,0,1,14.4-2.4Z" transform="translate(6856.6 3068.4)" fill="#fff"/>
  </g>
</svg>
