<svg id="map-pin-line" xmlns="http://www.w3.org/2000/svg" width="14.038" height="13.938" viewBox="0 0 14.038 13.938">
  <rect id="Rectangle_262" data-name="Rectangle 262" width="14" height="13.938" fill="none"/>
  <path id="Path_15488" data-name="Path 15488" d="M8.974,15.94a6.969,6.969,0,1,1,6.969-6.969A6.969,6.969,0,0,1,8.974,15.94Zm0-1.394A5.575,5.575,0,1,0,3.4,8.972,5.575,5.575,0,0,0,8.974,14.547ZM6.535,10.365h3.833a.348.348,0,1,0,0-.7H7.58a1.742,1.742,0,1,1,0-3.484h.7V4.79H9.671V6.184h1.742V7.578H7.58a.348.348,0,1,0,0,.7h2.788a1.742,1.742,0,1,1,0,3.484h-.7v1.394H8.277V11.759H6.535Z" transform="translate(-1.905 -2.003)" fill="#002f35"/>
</svg>
