<svg id="Apple" xmlns="http://www.w3.org/2000/svg" width="24" height="24" viewBox="0 0 24 24">
  <rect id="Rectangle_195" data-name="Rectangle 195" width="24" height="24" transform="translate(0 0)" fill="none"/>
  <g id="_104490_apple_icon" data-name="104490_apple_icon" transform="translate(2.228)">
    <path id="Path_469" data-name="Path 469" d="M20.38,14.887a5.437,5.437,0,0,1,2.591-4.572,5.607,5.607,0,0,0-4.389-2.377c-1.868-.19-3.647,1.1-4.6,1.1s-2.41-1.073-3.96-1.045A5.873,5.873,0,0,0,5.061,11C2.944,14.675,4.52,20.116,6.582,23.1c1.008,1.457,2.211,3.1,3.788,3.036,1.521-.06,2.094-.983,3.932-.983s2.354.983,3.963.953c1.635-.03,2.672-1.484,3.672-2.947A13.273,13.273,0,0,0,23.6,19.741,5.3,5.3,0,0,1,20.38,14.887Z" transform="translate(-4.056 -2.134)"/>
    <path id="Path_470" data-name="Path 470" d="M17.358,5.966a5.294,5.294,0,0,0,1.249-3.832,5.378,5.378,0,0,0-3.536,1.817A5.033,5.033,0,0,0,13.8,7.665,4.456,4.456,0,0,0,17.358,5.966Z" transform="translate(-4.056 -2.134)"/>
  </g>
</svg>
