<svg xmlns="http://www.w3.org/2000/svg" width="50" height="50" viewBox="0 0 50 50">
  <g id="bad_active" transform="translate(-0.192 -0.323)">
    <rect id="Rectangle_18076" data-name="Rectangle 18076" width="50" height="50" rx="25" transform="translate(0.192 0.323)" fill="#ffd48b"/>
    <path id="Path_16505" data-name="Path 16505" d="M109.76,247.862a.654.654,0,0,0,.361.464.9.9,0,0,0,1.041-.154c2.1-2.229,4.322-3.352,6.591-3.341,3.745.021,6.568,3.157,6.6,3.187a.891.891,0,0,0,1.037.174.673.673,0,0,0,.381-.463.586.586,0,0,0-.141-.5,12.069,12.069,0,0,0-2.166-1.837,10.356,10.356,0,0,0-5.677-1.88c-.08,0-.16,0-.24,0-2.7.056-5.265,1.349-7.619,3.843a.6.6,0,0,0-.163.51" transform="translate(-92.769 -214.741)" fill="#515151"/>
    <path id="Path_16506" data-name="Path 16506" d="M102.191,142.371a2.575,2.575,0,1,0-2.478,1.876,2.241,2.241,0,0,0,2.478-1.876" transform="translate(-81.355 -120.8)" fill="#515151"/>
    <path id="Path_16507" data-name="Path 16507" d="M247.945,141.748a2.575,2.575,0,1,1,2.478,1.876,2.241,2.241,0,0,1-2.478-1.876" transform="translate(-218.792 -120.232)" fill="#515151"/>
    <path id="Path_16508" data-name="Path 16508" d="M240.623,105.879h-6.1a.67.67,0,1,1,0-1.341h6.1a.67.67,0,1,1,0,1.341" transform="translate(-205.943 -88.009)" fill="#515151"/>
    <path id="Path_16509" data-name="Path 16509" d="M89.913,105.879h-6.1a.67.67,0,1,1,0-1.341h6.1a.67.67,0,1,1,0,1.341" transform="translate(-68.506 -88.009)" fill="#515151"/>
  </g>
</svg>
