<svg xmlns="http://www.w3.org/2000/svg" width="30" height="30" viewBox="0 0 30 30">
  <g id="cart" transform="translate(-1045 -3319)">
    <rect id="Rectangle_274" data-name="Rectangle 274" width="30" height="30" transform="translate(1045 3319)" fill="none"/>
    <path id="Path_683" data-name="Path 683" d="M29.142,23.613c-.17-1.7-.322-3.409-.478-5.113-.135-1.488-.26-2.978-.4-4.466-.157-1.736-.337-3.47-.475-5.207a3.017,3.017,0,0,0-2.98-2.821C23.234,6,21.655,6,20.077,6c-.45,0-.445,0-.451-.465a8.856,8.856,0,0,0-.06-1.367A5.021,5.021,0,0,0,9.981,3.093a5.677,5.677,0,0,0-.367,2.535c.017.308-.095.384-.389.382-1.6-.012-3.2-.01-4.8,0A2.919,2.919,0,0,0,1.512,8.456C1.356,9.47,1.3,10.5,1.2,11.521c-.116,1.239-.22,2.48-.332,3.72q-.208,2.294-.42,4.587c-.116,1.25-.234,2.5-.347,3.751a9.187,9.187,0,0,0-.071,1.958A5.049,5.049,0,0,0,5.08,30c3.178-.039,6.357-.01,9.536-.01,3.241,0,6.482.037,9.723-.014a4.792,4.792,0,0,0,4.45-2.939,6.154,6.154,0,0,0,.353-3.422M19.56,13.857a5.02,5.02,0,0,1-9.889.012,11.828,11.828,0,0,1-.061-1.547c0-.506-.006-.911,0-1.317a.987.987,0,0,1,1.032-1.011,1,1,0,0,1,1,1.014c.022.81-.042,1.619.052,2.428a2.961,2.961,0,0,0,5.888-.546c0-.613,0-1.226,0-1.839a1.017,1.017,0,1,1,2.033,0,19.55,19.55,0,0,1-.062,2.8m-7.3-10.608a2.976,2.976,0,0,1,3.165-1.067,2.935,2.935,0,0,1,2.124,2.505c.037.321.027.643.047.963.017.269-.066.364-.347.359C16.363,5.993,15.481,6,14.6,6s-1.765-.006-2.647,0c-.229,0-.305-.071-.308-.3a3.746,3.746,0,0,1,.614-2.456" transform="translate(1045.389 3319)" fill="#fff"/>
  </g>
</svg>
