<svg xmlns="http://www.w3.org/2000/svg" width="14" height="13.938" viewBox="0 0 14 13.938">
  <g id="coupon-2-line" transform="translate(-4.6 -4.91)">
    <rect id="Rectangle_262" data-name="Rectangle 262" width="14" height="13.938" transform="translate(4.6 4.91)" fill="none"/>
    <path id="Path_12461" data-name="Path 12461" d="M2,7.55V3.7A.7.7,0,0,1,2.7,3H15.3a.7.7,0,0,1,.7.7V7.55a1.75,1.75,0,0,0,0,3.5V14.9a.7.7,0,0,1-.7.7H2.7a.7.7,0,0,1-.7-.7V11.05a1.75,1.75,0,1,0,0-3.5ZM10.4,4.4h-7V6.477a3.151,3.151,0,0,1,0,5.645V14.2h7Zm1.4,0v9.8h2.8V12.123a3.151,3.151,0,0,1,0-5.645V4.4Z" transform="translate(2.595 2.579)" fill="#002f35"/>
  </g>
</svg>
