<svg xmlns="http://www.w3.org/2000/svg" width="14" height="13.938" viewBox="0 0 14 13.938">
  <g id="delivery_bike" transform="translate(-4.6 -4.91)">
    <rect id="Rectangle_262" data-name="Rectangle 262" width="14" height="13.938" transform="translate(4.6 4.91)" fill="none"/>
    <path id="Path_16527" data-name="Path 16527" d="M11.267,1a.662.662,0,0,1,.662.662v.662h3.31V6.3H13.9l1.817,4.993a2.648,2.648,0,1,1-5.031,1.626H7.874a2.648,2.648,0,0,1-5.162-.15A1.324,1.324,0,0,1,2,11.59V4.971a.662.662,0,0,1,.662-.662H7.3a.662.662,0,0,1,.662.662v3.31a.662.662,0,0,0,.662.662H9.943a.662.662,0,0,0,.662-.662V2.324H8.619V1ZM5.31,10.929a1.324,1.324,0,1,0,1.324,1.324A1.324,1.324,0,0,0,5.31,10.929Zm7.943,0A1.323,1.323,0,1,0,14.5,11.8l-.011-.029A1.324,1.324,0,0,0,13.252,10.928ZM12.493,6.3h-.565V8.281a1.986,1.986,0,0,1-1.986,1.986H8.619A1.986,1.986,0,0,1,6.633,8.281H3.324V10.5a2.648,2.648,0,0,1,4.55,1.089h2.814a2.651,2.651,0,0,1,3.024-1.947Zm-5.86-.662H3.324V6.957h3.31Zm7.281-1.986H11.929V4.971h1.986Z" transform="translate(2.65 3.91)"/>
  </g>
</svg>
