<svg xmlns="http://www.w3.org/2000/svg" width="235" height="235" viewBox="0 0 235 235">
  <g id="delivery_boy" transform="translate(-14086.87 -239.87)">
    <rect id="Rectangle_17568" data-name="Rectangle 17568" width="235" height="235" transform="translate(14086.87 239.87)" fill="none"/>
    <g id="Group_8794" data-name="Group 8794" transform="translate(14108.529 240.001)">
      <g id="Group_8664" data-name="Group 8664" transform="translate(0 20.611)">
        <circle id="Ellipse_253" data-name="Ellipse 253" cx="95.839" cy="95.839" r="95.839" transform="translate(0 0)" fill="rgba(240,187,98,0.12)"/>
      </g>
      <g id="Group_8665" data-name="Group 8665" transform="translate(54.152 227.053)">
        <path id="Path_12550" data-name="Path 12550" d="M224.1,546.267a7.844,7.844,0,0,0-6.645-2.434c-2.443.2-4.4,1.29-6.536,2.485-1.864,1.043-2.5,2.733-4.737,3.508l-1.867.546a11.256,11.256,0,0,0,1.444.639,83.581,83.581,0,0,0,15.288.2c1.4-.067,3.047-.276,3.733-1.5A3.178,3.178,0,0,0,224.1,546.267Z" transform="translate(-204.314 -543.779)" fill="#414042"/>
      </g>
      <g id="Group_8674" data-name="Group 8674" transform="translate(113.247 0)">
        <g id="Group_8672" data-name="Group 8672" transform="translate(0)">
          <g id="Group_8666" data-name="Group 8666">
            <circle id="Ellipse_254" data-name="Ellipse 254" cx="25.959" cy="25.959" r="25.959" transform="translate(0 50.587) rotate(-76.994)" fill="#1c7d88"/>
          </g>
          <g id="Group_8667" data-name="Group 8667" transform="translate(2.663 2.662)">
            <circle id="Ellipse_255" data-name="Ellipse 255" cx="23.591" cy="23.591" r="23.591" transform="translate(0 45.862) rotate(-76.412)" fill="#f1f0ee"/>
          </g>
          <g id="Group_8668" data-name="Group 8668" transform="translate(7.563 8.744)">
            <path id="Path_12551" data-name="Path 12551" d="M399.74,84.04a23.366,23.366,0,0,0,.782-2.733h-2.307V64.924a23.61,23.61,0,0,0-2.733-3.972V81.308H363.1V70.923h28.146V57.044a23.55,23.55,0,0,0-2.733-1.7V68.189H370.062V53.812a23.312,23.312,0,0,0-2.733,1.1V68.189h-6.969v8.745h-6.446a23.661,23.661,0,0,0,.237,2.733h6.208v12.75a23.788,23.788,0,0,0,2.733,2.471V84.04Z" transform="translate(-353.915 -53.812)" fill="#f0bb62"/>
          </g>
          <g id="Group_8671" data-name="Group 8671" transform="translate(21.095 12.068)">
            <g id="Group_8669" data-name="Group 8669" transform="translate(0 16.571)">
              <path id="Path_12552" data-name="Path 12552" d="M404.492,109.155l-10.1-10.694-10.1,10.694h3.088V119.6h14.033V109.155Z" transform="translate(-384.284 -98.461)" fill="#1c7d88"/>
            </g>
            <g id="Group_8670" data-name="Group 8670" transform="translate(5.195 0)">
              <path id="Path_12553" data-name="Path 12553" d="M405.579,66.093c0,2.661-4.819,7.281-4.819,7.281s-4.818-4.62-4.818-7.281a4.819,4.819,0,1,1,9.638,0Z" transform="translate(-395.942 -61.274)" fill="#1c7d88"/>
            </g>
          </g>
        </g>
        <g id="Group_8673" data-name="Group 8673" transform="translate(28.857 14.422)">
          <path id="Path_12554" data-name="Path 12554" d="M403.982,71.109a2.277,2.277,0,1,0-2.278-2.277,2.277,2.277,0,0,0,2.278,2.277Z" transform="translate(-401.704 -66.555)" fill="#ffc088"/>
        </g>
      </g>
      <g id="Group_8793" data-name="Group 8793" transform="translate(30.561 25.844)">
        <g id="Group_8675" data-name="Group 8675" transform="translate(13.052 34.884)">
          <path id="Path_12555" data-name="Path 12555" d="M219.068,174.067c.581-.394,1.165-.989,1.071-1.684-.118-.869-1.169-1.233-2.039-1.377a51.816,51.816,0,0,0-17.867.5,155.146,155.146,0,0,0-17.352,4.614c-.984.3-2.153.827-2.221,1.854a1.72,1.72,0,0,0,.9,1.5,4.506,4.506,0,0,0,1.759.5,45.208,45.208,0,0,0,11.015-.226,141.167,141.167,0,0,0,19.81-3.738,15.851,15.851,0,0,0,4.923-1.95Z" transform="translate(-180.66 -170.461)" fill="#414042"/>
        </g>
        <g id="Group_8688" data-name="Group 8688" transform="translate(79.61 30.236)">
          <g id="Group_8681" data-name="Group 8681" transform="translate(0 13.071)">
            <g id="Group_8680" data-name="Group 8680" transform="translate(0 0)">
              <g id="Group_8676" data-name="Group 8676">
                <path id="Path_12556" data-name="Path 12556" d="M358.907,214.667c-.3-4.887-.937-9.824-.116-14.65l-9.1-.995q-1.009,4.794-2.4,9.495c-.223-.459-.442-.921-.645-1.391-1.238-2.869-2.021-5.918-3.139-8.839a18.9,18.9,0,0,0-5.011-7.815,3.646,3.646,0,0,0-3.121-1.1,3.521,3.521,0,0,0-1.727,1.3,15.619,15.619,0,0,0-2.682,5.516,19.089,19.089,0,0,0-.568,9.746c1.478,6.183,6.889,10.536,10.1,16.024.876,1.5,1.754,2.613,2.579,4.141,1.457,2.824,1.3,3.391,2.1,4.646,1.5,2.4,5.163,3.066,7.925,2.46,2.521-.553,2.8-1.808,3.912-4.132C359.127,224.652,359.207,219.554,358.907,214.667Z" transform="translate(-330.016 -189.339)" fill="#a6bebd"/>
              </g>
              <g id="Group_8677" data-name="Group 8677" transform="translate(8.853 11.589)">
                <path id="Path_12557" data-name="Path 12557" d="M362.934,215.791a.273.273,0,1,0-.522-.153,91.684,91.684,0,0,0-3.613,22.431,12.606,12.606,0,0,0,.522,4.9c.07.184.147.367.224.55a3.836,3.836,0,0,1,.444,1.7,1.287,1.287,0,0,1-.649.992.686.686,0,0,1-.363.087,3.1,3.1,0,0,0,.31-1.142,1.446,1.446,0,0,0-.782-1.4,1.918,1.918,0,0,0-.546-.119,2.244,2.244,0,0,1-.295-.046c-.789-.2-1.062-1.266-1.255-2.249-.77-3.918-2.782-7.39-4.724-10.74l-1.638-2.826a6.525,6.525,0,0,1-.091.707.393.393,0,0,1-.054.133l1.31,2.26c1.921,3.316,3.912,6.743,4.661,10.572.174.887.466,2.371,1.656,2.673a2.729,2.729,0,0,0,.367.06,1.462,1.462,0,0,1,.395.08.914.914,0,0,1,.45.88,3.267,3.267,0,0,1-.384,1.2.273.273,0,0,0,.106.348,1.059,1.059,0,0,0,.555.156,1.239,1.239,0,0,0,.576-.15,1.838,1.838,0,0,0,.942-1.442,4.3,4.3,0,0,0-.486-1.947c-.076-.174-.15-.352-.216-.529a12.148,12.148,0,0,1-.488-4.69,91.158,91.158,0,0,1,3.59-22.3Z" transform="translate(-349.902 -215.417)" fill="#e8e8e8"/>
              </g>
              <g id="Group_8678" data-name="Group 8678" transform="translate(6.816 7.396)">
                <path id="Path_12558" data-name="Path 12558" d="M345.332,229.46a91.788,91.788,0,0,0,1.556-23.474,39.309,39.309,0,0,1,2.546,9.534A19.849,19.849,0,0,1,345.332,229.46Z" transform="translate(-345.332 -205.986)" fill="#414042"/>
              </g>
              <g id="Group_8679" data-name="Group 8679" transform="translate(19.473 6.532)">
                <path id="Path_12559" data-name="Path 12559" d="M374.532,210.79a5.692,5.692,0,0,0,2.9.977,7.582,7.582,0,0,0,3.7-.869,2.925,2.925,0,0,0,1.631-1.545,3.321,3.321,0,0,0-.014-1.565l-.412-2.422a1.608,1.608,0,0,0-.276-.775,1.53,1.53,0,0,0-1.009-.426,13.515,13.515,0,0,0-4.521.134,3.171,3.171,0,0,0-2.381,1.433,3.532,3.532,0,0,0-.251,1.3l-.14,2.154a2.05,2.05,0,0,0,.052.793,1.747,1.747,0,0,0,.723.815Z" transform="translate(-373.739 -204.036)" fill="#414042"/>
              </g>
            </g>
          </g>
          <g id="Group_8687" data-name="Group 8687" transform="translate(13.458)">
            <g id="Group_8682" data-name="Group 8682" transform="translate(9.283 5.02)">
              <path id="Path_12560" data-name="Path 12560" d="M381.645,177.149a.62.62,0,0,0,.435-.042l2.8-.989a25.856,25.856,0,0,0-3.807-4.8q.15,2.621.3,5.243C381.391,176.788,381.436,177.061,381.645,177.149Z" transform="translate(-381.075 -171.316)" fill="#ffc088"/>
            </g>
            <g id="Group_8685" data-name="Group 8685">
              <g id="Group_8683" data-name="Group 8683">
                <rect id="Rectangle_17566" data-name="Rectangle 17566" width="9.776" height="17.933" rx="1.932" fill="#a6bebd"/>
              </g>
              <g id="Group_8684" data-name="Group 8684" transform="translate(0.567 5.712)">
                <path id="Path_12561" data-name="Path 12561" d="M361.871,183.967c.225.429.8.5,1.283.512a52.367,52.367,0,0,0,5.564-.3A1.044,1.044,0,0,0,369.3,184a1.027,1.027,0,0,0,.289-.6,29.2,29.2,0,0,0,.53-9.709l-7.406-.713a.85.85,0,0,0-1.13,1.036l.191,9.318A1.4,1.4,0,0,0,361.871,183.967Z" transform="translate(-361.542 -172.92)" fill="#414042"/>
              </g>
            </g>
            <g id="Group_8686" data-name="Group 8686" transform="translate(0.531 6.292)">
              <path id="Path_12562" data-name="Path 12562" d="M374.746,187.621c-.025-2.509-.068-6.781-.091-9.1-.012-1.2-.941-1.751-1.991-2.023-.935-.243-10.917-2.3-10.914-2.326a1.89,1.89,0,0,0,.435,1.44,5.588,5.588,0,0,0,1.153,1.022,6.882,6.882,0,0,0-1.315,1.122,2.32,2.32,0,0,0-.6,1.582,1.415,1.415,0,0,0,.974,1.295,2.933,2.933,0,0,0-.742,1.478c-.044.558.377,1.188.935,1.142a7.331,7.331,0,0,0-.319,2.076,4.657,4.657,0,0,1,2.641,3.376.994.994,0,0,0,.814-.551c.012-.023.019-.047.03-.07a15.735,15.735,0,0,1,2.41,2.425,11.663,11.663,0,0,0,6.561-.838C374.756,188.984,374.753,188.3,374.746,187.621Z" transform="translate(-361.425 -174.169)" fill="#ffc088"/>
            </g>
          </g>
        </g>
        <g id="Group_8695" data-name="Group 8695" transform="translate(0 9.258)">
          <g id="Group_8689" data-name="Group 8689" transform="translate(0 26.153)">
            <path id="Path_12563" data-name="Path 12563" d="M156.506,182.1c-3.466,3.777-4.727,9.092-5.043,14.209-.465,7.457.793,14.919,2.492,22.194a64.061,64.061,0,0,0,5.332,15.553,27.988,27.988,0,0,0,11.144,11.824c7.374,3.931,16.333,3.285,24.5,1.485s16.191-4.657,24.548-4.836c2.829-.061,6.154-.032,7.837-2.308,1.146-1.551,1.08-3.651.956-5.579q-.669-10.248-1.69-20.47c-.669-6.694-1.461-13.418-3.439-19.847s-5.216-12.6-10.168-17.155a20.431,20.431,0,0,0-8.452-4.9c-3.316-.876-6.814-.639-10.229-.317q-11.061,1.043-21.984,3.167C166.546,176.233,160.468,177.78,156.506,182.1Z" transform="translate(-151.366 -171.658)" fill="#f0bb62"/>
          </g>
          <g id="Group_8692" data-name="Group 8692" transform="translate(0.596 0)">
            <g id="Group_8690" data-name="Group 8690" transform="translate(0)">
              <path id="Path_12564" data-name="Path 12564" d="M152.728,123.061l1.588,19.38a4.333,4.333,0,0,0,4.91,3.979l47.049-6.818a4.372,4.372,0,0,0,3.691-4.711l-1.478-17.91a4.336,4.336,0,0,0-4.782-3.993l-47.155,5.349A4.369,4.369,0,0,0,152.728,123.061Z" transform="translate(-152.711 -112.964)" fill="#002f35"/>
            </g>
            <g id="Group_8691" data-name="Group 8691" transform="translate(3.048 1.089)">
              <path id="Path_12565" data-name="Path 12565" d="M159.563,125.02l1.536,18.431a4.173,4.173,0,0,0,4.747,3.785l45.488-6.484a4.173,4.173,0,0,0,3.569-4.481l-1.433-17.035a4.173,4.173,0,0,0-4.621-3.8l-45.591,5.088a4.173,4.173,0,0,0-3.7,4.494Z" transform="translate(-159.548 -115.412)" fill="#002f35"/>
            </g>
          </g>
          <g id="Group_8693" data-name="Group 8693" transform="translate(22.426 32.786)">
            <path id="Path_12566" data-name="Path 12566" d="M233.484,186.617a146.333,146.333,0,0,0-31.132,5.229.9.9,0,0,0-.4,1.5,16.976,16.976,0,0,1,1.67,2.041c6.185,8.8,6.037,20.563,6.357,30.851.261,8.461-.038,16.926-.348,25.381-.041,1.114-.01,2.415.882,3.082a3.44,3.44,0,0,0,2.2.435,260.51,260.51,0,0,0,43.432-5.058c.748-19.677-.936-37.123-7.068-51.745-.818-1.951-6.53-9.469-8.329-10.583C238.632,186.432,235.972,186.472,233.484,186.617Z" transform="translate(-201.696 -186.548)" fill="#002f35"/>
          </g>
          <g id="Group_8694" data-name="Group 8694" transform="translate(3.397 35.588)">
            <path id="Path_12567" data-name="Path 12567" d="M178.709,203.412a27.332,27.332,0,0,0-3.7-6.521,10.31,10.31,0,0,0-5.755-3.878c-4.016-.869-8.237,1.647-10.259,5.222a10,10,0,0,1,9.519-1.633,15.225,15.225,0,0,1,7.71,6.228,32.787,32.787,0,0,1,3.941,9.254c4.216,14.752,4.036,30.4,2.812,45.688C185.3,239.447,185.421,220.626,178.709,203.412Z" transform="translate(-158.994 -192.84)" fill="#002f35"/>
          </g>
        </g>
        <g id="Group_8702" data-name="Group 8702" transform="translate(40.939 33.406)">
          <rect id="Rectangle_17567" data-name="Rectangle 17567" width="40.112" height="8.529" transform="translate(5.35 62.794)" fill="#414042"/>
          <g id="Group_8696" data-name="Group 8696" transform="translate(0 2.281)">
            <path id="Path_12568" data-name="Path 12568" d="M290.207,181.253a4.572,4.572,0,0,0-.978-2.053c-1.112-1.142-2.951-.926-4.534-1.11a10.483,10.483,0,0,1-7.129-4.782c-5.777,2.637-12.512,3.146-17.687-1.02a20.436,20.436,0,0,1-1.7,1.427,32.184,32.184,0,0,1-10.28,4.816,7.553,7.553,0,0,0-3.526,1.71c-1.59,1.694-1.148,4.377-.678,6.651a106.436,106.436,0,0,1-.348,44.544,4.347,4.347,0,0,0,3.485,5.2,100.119,100.119,0,0,0,44.074-1.8C286.489,217.421,294.922,198.6,290.207,181.253Z" transform="translate(-243.244 -172.289)" fill="#a6bebd"/>
          </g>
          <g id="Group_8697" data-name="Group 8697" transform="translate(16.089 18.894)">
            <path id="Path_12569" data-name="Path 12569" d="M289.3,213.61a25.334,25.334,0,0,1-9.93,1.11q0-1.94-.01-3.88,4.946-.411,9.84-1.275Q289.247,211.587,289.3,213.61Z" transform="translate(-279.357 -209.565)" fill="#fff"/>
          </g>
          <g id="Group_8700" data-name="Group 8700" transform="translate(25.947 5.731)">
            <g id="Group_8698" data-name="Group 8698" transform="translate(0 0)">
              <path id="Path_12570" data-name="Path 12570" d="M301.479,180.264c2.526,2.7,2.6,6.806,2.536,10.5q-.441,26.849.339,53.7l4.79-.409q-.568-25.217-1.136-50.434c-.1-4.57-.214-9.195-1.444-13.6Z" transform="translate(-301.479 -180.026)" fill="#414042"/>
            </g>
            <g id="Group_8699" data-name="Group 8699" transform="translate(2.995 0.604)">
              <path id="Path_12571" data-name="Path 12571" d="M310.694,223.021c-.441-9.216-.9-18.75-.183-28.2.39-5.174-.62-9.237-1.771-13.444-.179.041-.358.074-.538.106,1.142,4.173,2.148,8.2,1.763,13.3-.716,9.476-.261,19.029.183,28.263.143,2.97.29,6.041.4,9.077a66.109,66.109,0,0,1-.276,11.627.274.274,0,0,0,.232.31h.039a.274.274,0,0,0,.27-.236,66.613,66.613,0,0,0,.281-11.724C310.982,229.064,310.836,225.992,310.694,223.021Z" transform="translate(-308.202 -181.382)" fill="#a6bebd"/>
            </g>
          </g>
          <g id="Group_8701" data-name="Group 8701" transform="translate(15.057 0)">
            <path id="Path_12572" data-name="Path 12572" d="M277.042,170.712A18.808,18.808,0,0,0,298.294,172a6.032,6.032,0,0,1-1.739-2.5,18.344,18.344,0,0,1-8.8,1.753,10.628,10.628,0,0,1-7.773-4.086A8.9,8.9,0,0,1,277.042,170.712Z" transform="translate(-277.042 -167.162)" fill="#414042"/>
          </g>
        </g>
        <g id="Group_8706" data-name="Group 8706" transform="translate(50.799 146.045)">
          <g id="Group_8703" data-name="Group 8703" transform="translate(0)">
            <path id="Path_12573" data-name="Path 12573" d="M284,419.951h-5.651c-7.165,0-12.973,12.036-12.973,26.884s5.808,26.884,12.973,26.884H284c7.165,0,12.973-12.036,12.973-26.884S291.17,419.951,284,419.951Z" transform="translate(-265.378 -419.951)" fill="#002f35"/>
          </g>
          <g id="Group_8704" data-name="Group 8704" transform="translate(4.245 7.939)">
            <ellipse id="Ellipse_256" data-name="Ellipse 256" cx="6.053" cy="18.944" rx="6.053" ry="18.944" transform="translate(0 0)" fill="#a6bebd"/>
          </g>
          <g id="Group_8705" data-name="Group 8705" transform="translate(3.863 7.256)">
            <ellipse id="Ellipse_257" data-name="Ellipse 257" cx="5.069" cy="15.864" rx="5.069" ry="15.864" transform="translate(0 0)" fill="#414042"/>
          </g>
        </g>
        <g id="Group_8711" data-name="Group 8711" transform="translate(32.3 108.961)">
          <g id="Group_8707" data-name="Group 8707" transform="translate(20.582 0)">
            <path id="Path_12574" data-name="Path 12574" d="M323.516,349.6a33.943,33.943,0,0,0-46.3-6.556,17.208,17.208,0,0,0-6.075,6.848c-1.807,4.162-1,8.937-.163,13.4q3.32,17.677,6.64,35.353a9.345,9.345,0,0,0,1.364,3.912,8.469,8.469,0,0,0,4.677,2.673c13.08,3.754,27.038,1.049,40.372-1.672,2.7-.549,5.655-1.275,7.191-3.552a10.016,10.016,0,0,0,1.323-4.268,81.381,81.381,0,0,0,.014-22.712C331.38,364.635,328.779,356.236,323.516,349.6Z" transform="translate(-270.053 -336.74)" fill="#002f35"/>
          </g>
          <g id="Group_8708" data-name="Group 8708" transform="translate(0 14.063)">
            <path id="Path_12575" data-name="Path 12575" d="M253.559,380.885c-1.92-4.787-4.695-10.793-10.033-12.264-4.5-1.241-9.394,1.115-12.373,4.706s-4.393,8.205-5.483,12.742a65.715,65.715,0,0,0,1.871,36.977,187.892,187.892,0,0,0,30.814,1.381c.684-.029.736-12.361.713-13.549a93.014,93.014,0,0,0-1.279-13.677,78.947,78.947,0,0,0-4.1-15.99Z" transform="translate(-223.863 -368.287)" fill="#f0bb62"/>
          </g>
          <g id="Group_8709" data-name="Group 8709" transform="translate(16.887 26.089)">
            <path id="Path_12576" data-name="Path 12576" d="M274.437,399.064c2.387,5.941,2.327,12.639.98,18.9s-3.912,12.178-6.469,18.049c-.428.985-1.222,2.161-2.26,1.881-.771-.208-1.086-1.11-1.281-1.885a111.993,111.993,0,0,1-3.452-17.592,37.491,37.491,0,0,1,2.249-17.631,9.987,9.987,0,0,1,3.355-4.655,4.46,4.46,0,0,1,5.39.107Z" transform="translate(-261.763 -395.277)" fill="#002f35"/>
          </g>
          <g id="Group_8710" data-name="Group 8710" transform="translate(28.733 62.894)">
            <path id="Path_12577" data-name="Path 12577" d="M300.969,482.525c-4.532-.5-9.506-1.222-12.514-4.649a5.557,5.557,0,0,0,1.622,5.362,13.461,13.461,0,0,0,5.076,2.886c13.365,4.893,28.139,3.88,42.193,1.629.69-2.018-1.591.623-.9-1.391C324.059,489.99,313.8,483.944,300.969,482.525Z" transform="translate(-288.303 -477.876)" fill="#f0bb62"/>
          </g>
        </g>
        <g id="Group_8712" data-name="Group 8712" transform="translate(24.137 181.387)">
          <path id="Path_12578" data-name="Path 12578" d="M205.54,499.517c6.911,4.947,15.791,7.053,23.913,4.555C221.937,500.53,213.792,498.542,205.54,499.517Z" transform="translate(-205.54 -499.27)" fill="#414042"/>
        </g>
        <g id="Group_8713" data-name="Group 8713" transform="translate(27.97 180.44)">
          <path id="Path_12579" data-name="Path 12579" d="M229.381,509.887l1.118-11.824a69.566,69.566,0,0,1-14.826-.914,88.558,88.558,0,0,1-1.531,10.837Z" transform="translate(-214.142 -497.149)" fill="#fff"/>
        </g>
        <g id="Group_8714" data-name="Group 8714" transform="translate(100.694 84.221)">
          <path id="Path_12580" data-name="Path 12580" d="M405.947,332.564a87.419,87.419,0,0,1-5.846-22.977c-1.177-9.3-1.3-18.692-1.412-28.064a57.44,57.44,0,0,0-21.336,1.751c4.73,17.521,10.448,35.7,20.724,51.526C400.721,334.189,403.342,333.382,405.947,332.564Z" transform="translate(-377.353 -281.202)" fill="#ffc088"/>
        </g>
        <g id="Group_8715" data-name="Group 8715" transform="translate(23.89 187.069)">
          <path id="Path_12581" data-name="Path 12581" d="M219.041,512.145a7.2,7.2,0,0,1,4.378,2.332c1.865,2.232,1.759,5.469,1.391,8.354s-.869,5.978.447,8.573q-9.987-.036-19.945.905c-.688-4.695-.405-9.717,1.942-13.844S214.357,511.37,219.041,512.145Z" transform="translate(-204.984 -512.021)" fill="#1c7d88"/>
        </g>
        <g id="Group_8716" data-name="Group 8716" transform="translate(33.487 186.611)">
          <path id="Path_12582" data-name="Path 12582" d="M229.21,511.04a2.818,2.818,0,0,0-2.168,1.043,3.043,3.043,0,0,0-.366,1.273,20.823,20.823,0,0,0,.983,9.3,1.791,1.791,0,0,0,.806,1.141,1.979,1.979,0,0,0,.931.087,14.828,14.828,0,0,1,6.2.962,44.166,44.166,0,0,1,.323-9.313,3.67,3.67,0,0,0-.2-2.46,2.945,2.945,0,0,0-1.13-.956,9.241,9.241,0,0,0-5.375-1.08Z" transform="translate(-226.523 -510.991)" fill="#f0bb62"/>
        </g>
        <g id="Group_8717" data-name="Group 8717" transform="translate(24.108 193.48)">
          <path id="Path_12583" data-name="Path 12583" d="M208.44,527.355a2.109,2.109,0,0,1,1.779-.963,1.928,1.928,0,0,1,1.288,1.109,14.573,14.573,0,0,1,1,3.432,4.889,4.889,0,0,0,1.771,3.021,15.245,15.245,0,0,1-6.3,3.057,3.454,3.454,0,0,1-1.368.1,1.377,1.377,0,0,1-1.059-.789,2.092,2.092,0,0,1,0-1.13C206.067,532.42,206.644,529.521,208.44,527.355Z" transform="translate(-205.472 -526.392)" fill="#a6bebd"/>
        </g>
        <g id="Group_8718" data-name="Group 8718" transform="translate(22.83 197.003)">
          <path id="Path_12584" data-name="Path 12584" d="M224.481,541.083c-.1-2.112-.609-4.4-2.265-5.715-1.95-1.553-4.846-1.217-7.076-.1a49.749,49.749,0,0,0-4.782,3.121,9.966,9.966,0,0,1-5.3,1.913,2.856,2.856,0,0,0-1.757.293,2.337,2.337,0,0,0-.632,1.879,3.282,3.282,0,0,0,.463,2.2,3.177,3.177,0,0,0,2.217.875,90.826,90.826,0,0,0,15.624-.124,4.512,4.512,0,0,0,2.2-.528C224.352,544.126,224.545,542.488,224.481,541.083Z" transform="translate(-202.633 -534.315)" fill="#002f35"/>
        </g>
        <g id="Group_8734" data-name="Group 8734" transform="translate(51.87 0)">
          <g id="Group_8719" data-name="Group 8719" transform="translate(5.642 8.186)">
            <path id="Path_12585" data-name="Path 12585" d="M303.032,115.484a20.636,20.636,0,0,1-2.91,17.328,7.379,7.379,0,0,1-2.748,2.577c-2.127,1-4.622.2-6.829-.609-2.485-.906-5.066-1.874-6.88-3.8a12.786,12.786,0,0,1-2.956-6.75c-.493-2.934-.41-6.115,1.118-8.668,1.9-3.181,5.742-4.795,9.445-4.978s7.346.843,10.912,1.861Z" transform="translate(-280.441 -110.563)" fill="#414042"/>
          </g>
          <g id="Group_8727" data-name="Group 8727" transform="translate(5.997 7.263)">
            <g id="Group_8720" data-name="Group 8720" transform="translate(0.76 20.598)">
              <path id="Path_12586" data-name="Path 12586" d="M300.155,164.346a13.19,13.19,0,0,1-.782-1.086,31.63,31.63,0,0,1-3.391-8.544l-9.3.139a15.847,15.847,0,0,1-3.738,6.63C287.707,165.168,294.347,165.546,300.155,164.346Z" transform="translate(-282.946 -154.716)" fill="#ffc088"/>
            </g>
            <g id="Group_8721" data-name="Group 8721" transform="translate(0 0)">
              <path id="Path_12587" data-name="Path 12587" d="M302.555,121.056c-.021-.11-.043-.22-.067-.329a3.9,3.9,0,0,1-.135-2.6c.649-1.264.547-1.572-.3-4.186l-.91-2.034a11.65,11.65,0,0,0-8.443-3.417,22.638,22.638,0,0,0-9.052,2.121,3.723,3.723,0,0,0-2.312,1.946,3.77,3.77,0,0,0,0,1.755c.377,2.32.835,4.624,1.293,6.929a19.966,19.966,0,0,0,1.626,5.422A19.99,19.99,0,0,0,289,132.039a9.607,9.607,0,0,0,2.368,1.71,5.981,5.981,0,0,0,5.365-.495,10.89,10.89,0,0,0,3.751-4.071A18.742,18.742,0,0,0,302.6,123.6a6.608,6.608,0,0,0-.043-2.544Z" transform="translate(-281.236 -108.491)" fill="#ffc088"/>
            </g>
            <g id="Group_8726" data-name="Group 8726" transform="translate(7.405 8.082)">
              <g id="Group_8723" data-name="Group 8723" transform="translate(0 0)">
                <path id="Path_12588" data-name="Path 12588" d="M298.2,128.9a5.153,5.153,0,0,1,4.195-1.6,1.445,1.445,0,0,1,.348-.65,5.7,5.7,0,0,0-4.889,1.955A1.166,1.166,0,0,1,298.2,128.9Z" transform="translate(-297.858 -126.621)" fill="#0c4e5f"/>
                <g id="Group_8722" data-name="Group 8722" transform="translate(2.151 2.708)">
                  <path id="Path_12589" data-name="Path 12589" d="M303.512,134.792a.8.8,0,0,1-.484-.057.654.654,0,0,1-.261-.36,1.428,1.428,0,0,1-.024-.88,1.142,1.142,0,0,1,.516-.68.819.819,0,0,1,.832.011,1.264,1.264,0,0,1,.439.945,1.044,1.044,0,0,1-.03.5.753.753,0,0,1-.414.4,1.889,1.889,0,0,1-.574.126Z" transform="translate(-302.684 -132.707)" fill="#0c4e5f"/>
                  <path id="Path_12590" data-name="Path 12590" d="M304.995,134.4a.476.476,0,0,0-.462-.28c-.2.04-.3.265-.336.468a.907.907,0,0,0,.022.435.483.483,0,0,0,.285.309.475.475,0,0,0,.556-.274.741.741,0,0,0-.065-.657Z" transform="translate(-303.515 -133.486)" fill="#414042"/>
                  <path id="Path_12591" data-name="Path 12591" d="M303.837,134.508a.235.235,0,0,0,.183-.087.261.261,0,0,0,.009-.364.216.216,0,0,0-.23-.02.276.276,0,0,0-.137.192.229.229,0,0,0,.176.279Z" transform="translate(-303.223 -133.431)" fill="#fff"/>
                </g>
              </g>
              <g id="Group_8725" data-name="Group 8725" transform="translate(10.82 0.093)">
                <path id="Path_12592" data-name="Path 12592" d="M323,127.384a1.652,1.652,0,0,1,1.452.9c0,.005.008.01.01.016a.309.309,0,0,0,.183-.313.745.745,0,0,0-.228-.408,2.538,2.538,0,0,0-.77-.591,1.489,1.489,0,0,0-.951-.124.737.737,0,0,0-.512.355.444.444,0,0,0,.005.39A1.6,1.6,0,0,1,323,127.384Z" transform="translate(-322.141 -126.837)" fill="#0c4e5f"/>
                <g id="Group_8724" data-name="Group 8724" transform="translate(0.698 2.445)">
                  <path id="Path_12593" data-name="Path 12593" d="M323.7,133.29a.9.9,0,0,1,.174-.582.75.75,0,0,1,.73-.388.645.645,0,0,1,.423.386,1.765,1.765,0,0,1,.114.58.757.757,0,0,1-.174.665.626.626,0,0,1-.581.046A.929.929,0,0,1,323.7,133.29Z" transform="translate(-323.699 -132.317)" fill="#0c4e5f"/>
                  <path id="Path_12594" data-name="Path 12594" d="M325.348,133.554a.309.309,0,0,0-.312-.131.335.335,0,0,0-.174.206.782.782,0,0,0-.068.416.4.4,0,0,0,.249.319.381.381,0,0,0,.449-.27.6.6,0,0,0-.143-.54Z" transform="translate(-324.305 -132.928)" fill="#414042"/>
                  <path id="Path_12595" data-name="Path 12595" d="M324.825,133.544a.179.179,0,0,0,.139-.065.2.2,0,0,0,.007-.276.163.163,0,0,0-.174-.015.209.209,0,0,0-.1.146.174.174,0,0,0,.132.21Z" transform="translate(-324.25 -132.793)" fill="#fff"/>
                </g>
              </g>
            </g>
          </g>
          <g id="Group_8733" data-name="Group 8733" transform="translate(0)">
            <g id="Group_8728" data-name="Group 8728" transform="translate(5.996 7.264)">
              <path id="Path_12596" data-name="Path 12596" d="M286.724,117.817c2.528-2.027,10.868-1.548,16.01-1.935-.1-.508-.355-.935-.678-1.937l-.91-2.034a11.65,11.65,0,0,0-8.443-3.417,22.638,22.638,0,0,0-9.052,2.121,3.723,3.723,0,0,0-2.312,1.946,3.769,3.769,0,0,0,0,1.755c.376,2.32.835,4.624,1.293,6.929a19.968,19.968,0,0,0,1.626,5.422,11.624,11.624,0,0,0,1.2,1.826C284.769,124.3,284.193,120.349,286.724,117.817Z" transform="translate(-281.235 -108.492)" fill="#414042"/>
            </g>
            <g id="Group_8732" data-name="Group 8732">
              <g id="Group_8729" data-name="Group 8729">
                <path id="Path_12597" data-name="Path 12597" d="M278.954,92.881a14.9,14.9,0,0,0-7.751,4.77,16.74,16.74,0,0,0-3.237,8.757,19.955,19.955,0,0,0,.723,8.494,12.312,12.312,0,0,0,5.585,7,2.484,2.484,0,0,0,1.491.335c1.434-.19,1.718-1.658,1.769-2.882a34.352,34.352,0,0,0-.737-8.618,3.4,3.4,0,0,1,3.147-4.126c5.686-.266,11.331-.323,17.04-.731a1.21,1.21,0,0,0,.746-.224,1.154,1.154,0,0,0,.266-.877,12.573,12.573,0,0,0-6.452-10.589,16.752,16.752,0,0,0-12.592-1.31Z" transform="translate(-267.797 -92.211)" fill="#1c7d88"/>
              </g>
              <g id="Group_8730" data-name="Group 8730" transform="translate(6.507 12.517)">
                <path id="Path_12598" data-name="Path 12598" d="M283.4,137.907a1.379,1.379,0,0,1-.928-.337.273.273,0,0,1,.363-.408.85.85,0,0,0,.636.2,1.4,1.4,0,0,0,.933-.467,3.372,3.372,0,0,0,.624-1.9,16.981,16.981,0,0,0-.466-5.956c-.054-.205-.111-.413-.168-.622-.394-1.429-.8-2.907-.218-4.285a4.377,4.377,0,0,1,2.738-2.31,12.432,12.432,0,0,1,3.495-.465l12.482-.459a8.033,8.033,0,0,0,3.269-.581.273.273,0,1,1,.243.489,8.439,8.439,0,0,1-3.492.637l-12.482.459a12.026,12.026,0,0,0-3.343.435,3.835,3.835,0,0,0-2.407,2c-.509,1.2-.128,2.588.242,3.927l.174.629a17.513,17.513,0,0,1,.481,6.148,3.9,3.9,0,0,1-.755,2.207,1.934,1.934,0,0,1-1.311.655A.6.6,0,0,1,283.4,137.907Z" transform="translate(-282.384 -120.281)" fill="#a6bebd"/>
              </g>
              <g id="Group_8731" data-name="Group 8731" transform="translate(1.375 0.754)">
                <path id="Path_12599" data-name="Path 12599" d="M288.064,94.235A14.127,14.127,0,0,0,271.893,113.2a15.475,15.475,0,0,1,12.345-18.446Z" transform="translate(-270.913 -93.907)" fill="#fff"/>
              </g>
            </g>
          </g>
        </g>
        <g id="Group_8739" data-name="Group 8739" transform="translate(31.376 42.215)">
          <g id="Group_8735" data-name="Group 8735" transform="translate(7.697 4.103)">
            <path id="Path_12600" data-name="Path 12600" d="M247.707,196.365a2.007,2.007,0,0,1,2.2.215,4.774,4.774,0,0,1,1.362,1.893,22.287,22.287,0,0,1,1.468,12.346,66.474,66.474,0,0,1-3.247,12.151,110.924,110.924,0,0,0,15.852,8.052,40.051,40.051,0,0,1-26.289-3.384c5.157-8.66,6.024-19.1,7.6-29.055a3.051,3.051,0,0,1,1.046-2.217Z" transform="translate(-239.058 -196.131)" fill="#414042"/>
          </g>
          <g id="Group_8736" data-name="Group 8736" transform="translate(0.013 0)">
            <path id="Path_12601" data-name="Path 12601" d="M244.447,236.928c2.327.584,4.856,1.071,7.064.133a11.078,11.078,0,0,0,4.248-3.924c1.186-1.6,2.36-3.683,1.488-5.477-.788-1.618-2.813-2.1-4.566-2.5a46.7,46.7,0,0,1-15.342-6.571c.742-3.729,2.3-7.237,3.577-10.816s2.3-7.366,1.9-11.147-2.458-7.578-5.922-9.145a5.275,5.275,0,0,0-3.664-.408c-1.7.522-2.79,2.133-3.66,3.679-5.341,9.492-4.49,19.432-7.626,31.425a7.206,7.206,0,0,0,.947,5.318c1.036,1.755,2.97,2.748,4.827,3.59a99.033,99.033,0,0,0,16.726,5.841Z" transform="translate(-221.792 -186.916)" fill="#a6bebd"/>
          </g>
          <g id="Group_8737" data-name="Group 8737" transform="translate(29.039 40.869)">
            <path id="Path_12602" data-name="Path 12602" d="M287.1,284.1a3.635,3.635,0,0,0,.654,3.123,4.521,4.521,0,0,0,1.95,1.009,4.189,4.189,0,0,0,1.934.3,3.437,3.437,0,0,0,1.75-1.019,9.406,9.406,0,0,0,2.587-4.434,3.984,3.984,0,0,0-.143-2.859,3.241,3.241,0,0,0-2.238-1.521A5.136,5.136,0,0,0,289.234,280a7.079,7.079,0,0,0-2.134,4.1Z" transform="translate(-286.988 -278.632)" fill="#414042"/>
          </g>
          <g id="Group_8738" data-name="Group 8738" transform="translate(0 36.777)">
            <path id="Path_12603" data-name="Path 12603" d="M250.694,282.789a.273.273,0,0,1-.243-.148c-.294-.569-.656-.54-1.391-.426a3.441,3.441,0,0,1-1.739-.047A70.2,70.2,0,0,0,240,280.239a72.246,72.246,0,0,1-7.216-1.893c-4.472-1.509-8.9-3.584-10.977-8.5a.273.273,0,1,1,.5-.213c2,4.718,6.3,6.727,10.648,8.2a71.934,71.934,0,0,0,7.166,1.877,70.8,70.8,0,0,1,7.374,1.945,2.956,2.956,0,0,0,1.474.024c.689-.109,1.471-.23,1.957.716a.273.273,0,0,1-.243.4Z" transform="translate(-221.789 -269.465)" fill="#e8e8e8"/>
          </g>
        </g>
        <g id="Group_8740" data-name="Group 8740" transform="translate(31.716 190.71)">
          <path id="Path_12604" data-name="Path 12604" d="M223.868,521.741a12.246,12.246,0,0,1,5.262-1.529,7.321,7.321,0,0,1,5.107,1.688,2.552,2.552,0,0,1,.743,1.683.2.2,0,0,1-.337.142,7.662,7.662,0,0,0-5.581-2.229,10.369,10.369,0,0,0-6.121,2.477.963.963,0,0,1-.227-1.3,2.75,2.75,0,0,1,1.153-.933Z" transform="translate(-222.557 -520.199)" fill="#002f35"/>
        </g>
        <g id="Group_8741" data-name="Group 8741" transform="translate(31.825 192.606)">
          <path id="Path_12605" data-name="Path 12605" d="M224.1,526a12.247,12.247,0,0,1,5.262-1.529,7.321,7.321,0,0,1,5.107,1.688,2.553,2.553,0,0,1,.743,1.683.2.2,0,0,1-.337.142,7.661,7.661,0,0,0-5.581-2.228,10.369,10.369,0,0,0-6.119,2.476.963.963,0,0,1-.227-1.3A2.752,2.752,0,0,1,224.1,526Z" transform="translate(-222.794 -524.454)" fill="#002f35"/>
        </g>
        <g id="Group_8742" data-name="Group 8742" transform="translate(32.225 194.909)">
          <path id="Path_12606" data-name="Path 12606" d="M223.887,532.2a8.009,8.009,0,0,1,5.342-2.573,9.169,9.169,0,0,1,5.749,1.588,1.906,1.906,0,0,1,.766.813.749.749,0,0,1-.33.965,9.8,9.8,0,0,0-11.145-.284c-.148.1-.348.2-.487.094C223.6,532.67,223.732,532.375,223.887,532.2Z" transform="translate(-223.692 -529.612)" fill="#002f35"/>
        </g>
        <g id="Group_8747" data-name="Group 8747" transform="translate(24.082 102.425)">
          <g id="Group_8743" data-name="Group 8743" transform="translate(15.863 0)">
            <path id="Path_12607" data-name="Path 12607" d="M274.515,322.145H256.78c-3.664.614-8.415-1.175-11.1,1.13-4.22,3.615-5.129,12.346-4.459,17.521a4.629,4.629,0,0,0,1.019,2.629c1.363,1.482,3.874,1.4,6.028,1.41A32.306,32.306,0,0,1,259.828,347c2.165.842,4.468,1.946,6.754,1.42a9.019,9.019,0,0,0,4.184-2.828c2.753-2.782,5.529-5.629,7.216-9.016s2.139-7.452.215-10.736a11.284,11.284,0,0,0-3.681-3.693Z" transform="translate(-241.019 -322.056)" fill="#a6bebd"/>
          </g>
          <g id="Group_8744" data-name="Group 8744" transform="translate(0 3.304)">
            <path id="Path_12608" data-name="Path 12608" d="M251.326,332.265c-1.121-1.342-2.491-2.768-4.239-2.793a5.886,5.886,0,0,0-3.5,1.558c-7.186,5.548-12.366,13.264-16.888,21.136a204.348,204.348,0,0,0-21.279,53.216,157.645,157.645,0,0,1,23.939,4.592c5.857-20.289,11.806-40.8,22.286-59.132,2.044-3.575,4.34-7.477,3.632-11.53C254.8,336.625,253.072,334.356,251.326,332.265Z" transform="translate(-205.416 -329.472)" fill="#a6bebd"/>
          </g>
          <g id="Group_8745" data-name="Group 8745" transform="translate(16.912 16.023)">
            <path id="Path_12609" data-name="Path 12609" d="M243.37,363.1a4.77,4.77,0,0,0,4.58,1.677,7.847,7.847,0,0,0,4.351-2.541,23.359,23.359,0,0,0,2.9-4.221A17.681,17.681,0,0,1,243.37,363.1Z" transform="translate(-243.37 -358.016)" fill="#414042"/>
          </g>
          <g id="Group_8746" data-name="Group 8746" transform="translate(2.491 10.744)">
            <path id="Path_12610" data-name="Path 12610" d="M211.279,415.14a.293.293,0,0,1-.07-.009.273.273,0,0,1-.193-.335c3.995-14.954,10.153-30.629,18.827-47.918,2.19-4.366,4.675-8.827,8.811-11.2a.508.508,0,0,0,.261-.408.483.483,0,0,0-.186-.421l-.686-.541a1.233,1.233,0,0,1-.465-1.089,1.2,1.2,0,0,1,.639-.956,14.751,14.751,0,0,1,4.377-1.461,9.453,9.453,0,0,0-2.809-.174.66.66,0,0,1-.456-1.181,17.571,17.571,0,0,1,3.186-1.93l-9.665,1.841a13.854,13.854,0,0,1-4.695.348,4.51,4.51,0,0,1-3.714-2.537.274.274,0,0,1,.5-.214,4.015,4.015,0,0,0,3.293,2.21,13.483,13.483,0,0,0,4.507-.348l13.9-2.642a.273.273,0,1,1,.1.537,17.006,17.006,0,0,0-7.093,3.172.1.1,0,0,0-.034.129.1.1,0,0,0,.111.072,10.161,10.161,0,0,1,2.97.183.548.548,0,0,1-.024,1.078,14.259,14.259,0,0,0-4.215,1.407.644.644,0,0,0-.348.522.688.688,0,0,0,.261.609l.686.541a1.037,1.037,0,0,1,.393.89,1.062,1.062,0,0,1-.533.842c-4.005,2.3-6.442,6.682-8.595,10.974-8.657,17.255-14.8,32.895-18.788,47.817a.273.273,0,0,1-.262.194Z" transform="translate(-211.006 -346.169)" fill="#e8e8e8"/>
          </g>
        </g>
        <g id="Group_8791" data-name="Group 8791" transform="translate(59.23 49.922)">
          <g id="Group_8756" data-name="Group 8756" transform="translate(15.292 34.297)">
            <g id="Group_8753" data-name="Group 8753" transform="translate(0 3.571)">
              <g id="Group_8748" data-name="Group 8748" transform="translate(0 0)">
                <path id="Path_12611" data-name="Path 12611" d="M384.266,305.537c-1.228-3.966-2.553-8.1-5.477-11.041-3.924-3.944-9.891-4.936-15.449-5.194-10.908-.505-22.088,1.1-31.824,6.04a23.736,23.736,0,0,0-8.776,6.9c-2.786,3.871-3.637,8.795-3.954,13.554-1.1,16.542,3.285,32.9,5.15,49.369.556,4.912.735,10.381-2.365,14.231-.956,1.185-2.272,2.622-1.6,3.984.5,1,1.8,1.241,2.911,1.35,16.287,1.6,33.175,1.652,48.474-4.156,8.644-3.282,16.937-8.781,21.016-17.081,2.852-5.8,3.409-12.514,2.7-18.937s-2.636-12.643-4.547-18.817Z" transform="translate(-318.61 -289.213)" fill="#f0bb62"/>
              </g>
              <g id="Group_8749" data-name="Group 8749" transform="translate(25.883 49.291)">
                <path id="Path_12612" data-name="Path 12612" d="M418.885,411.439c-2.892-5.641-8.1-10.367-14.358-11.394-5.76-.946-11.757,1.374-16.067,5.31s-7.071,9.336-8.726,14.934-2.28,11.44-2.891,17.245c-.261,2.507-.364,5.449,1.555,7.084,1.714,1.462,4.266,1.187,6.476.75a94.543,94.543,0,0,0,21.69-7.1c5.968-2.791,12.093-6.751,14.084-13.032C422.09,420.7,421.056,415.672,418.885,411.439Z" transform="translate(-376.702 -399.835)" fill="#002f35"/>
              </g>
              <g id="Group_8750" data-name="Group 8750" transform="translate(4.566 13.328)">
                <path id="Path_12613" data-name="Path 12613" d="M337.545,320.164a2.114,2.114,0,0,0-3.238-.5,17.467,17.467,0,0,0-5.279,11.008c-.593,5.143.5,10.322,1.58,15.38l5.708-.92a33.69,33.69,0,0,1,.053-10.526,14.76,14.76,0,0,1,4.155-7.887,1.666,1.666,0,0,0,.1-2.339,26.368,26.368,0,0,1-3.075-4.22Z" transform="translate(-328.861 -319.124)" fill="#fff"/>
              </g>
              <g id="Group_8751" data-name="Group 8751" transform="translate(58.031 9.654)">
                <path id="Path_12614" data-name="Path 12614" d="M449.35,311.63a11.618,11.618,0,0,1-.425,2.347,1.652,1.652,0,0,0,.458,1.687,21.672,21.672,0,0,1,5.935,9.2,1.121,1.121,0,0,0,1.28-.826,3.248,3.248,0,0,0-.077-1.67,27.76,27.76,0,0,0-5.787-11.234.8.8,0,0,0-1.383.495Z" transform="translate(-448.854 -310.876)" fill="#fff"/>
              </g>
              <g id="Group_8752" data-name="Group 8752" transform="translate(1.266 6.408)">
                <path id="Path_12615" data-name="Path 12615" d="M326.689,367.192c.495-7.677-1.108-15.312-2.452-22.886s-2.434-15.376-.926-22.92,6.075-14.881,13.2-17.79c-7.5,2.3-12.1,8.891-13.963,16.512s-1.088,16.157.478,23.845S326.3,359.357,326.689,367.192Z" transform="translate(-321.455 -303.596)" fill="#002f35"/>
              </g>
            </g>
            <g id="Group_8755" data-name="Group 8755" transform="translate(24.17 0)">
              <path id="Path_12616" data-name="Path 12616" d="M396.281,287.946q-.056-3.2-.093-6.4a62.807,62.807,0,0,0-23.331,1.913q.678,2.511,1.391,5.038c1.965,10.165,11.8,49.149,11.8,49.149l9.8-2.347-12.787-44.886A68.141,68.141,0,0,0,396.281,287.946Z" transform="translate(-372.857 -281.2)" fill="#002f35"/>
              <g id="Group_8754" data-name="Group 8754" transform="translate(3.798 6.169)">
                <path id="Path_12617" data-name="Path 12617" d="M401.006,295.044a59.194,59.194,0,0,1-19.626,2.381c4.409,15.475,9.916,31.162,18.93,45.047,2.645-.609,5.265-1.416,7.871-2.235a87.417,87.417,0,0,1-5.846-22.977,205.418,205.418,0,0,1-1.328-22.216Z" transform="translate(-381.38 -295.044)" fill="#fff"/>
              </g>
            </g>
          </g>
          <g id="Group_8778" data-name="Group 8778" transform="translate(0 0)">
            <g id="Group_8759" data-name="Group 8759" transform="translate(77.707 25.106)">
              <g id="Group_8757" data-name="Group 8757" transform="translate(0 0)">
                <path id="Path_12618" data-name="Path 12618" d="M462.793,263.374c0,1.547-.917,2.8-2.05,2.8s-2.05-1.255-2.05-2.8.918-2.8,2.05-2.8S462.793,261.827,462.793,263.374Z" transform="translate(-458.693 -260.573)" fill="#414042"/>
              </g>
              <g id="Group_8758" data-name="Group 8758" transform="translate(0.362 1.374)">
                <path id="Path_12619" data-name="Path 12619" d="M469.411,266.371a1.565,1.565,0,0,1-1.154.847,4.607,4.607,0,0,1-1.478-.019l-7.279-.878.174-2.665,6.822.389a4.64,4.64,0,0,1,2.129.468,1.59,1.59,0,0,1,.786,1.858Z" transform="translate(-459.5 -263.656)" fill="#414042"/>
              </g>
            </g>
            <g id="Group_8762" data-name="Group 8762" transform="translate(20.098 17.226)">
              <g id="Group_8760" data-name="Group 8760" transform="translate(0 0)">
                <path id="Path_12620" data-name="Path 12620" d="M388.466,251a9.6,9.6,0,0,1-8.045-2.974c-1.385-1.338-2.449-3.043-4.086-4.051-2.7-1.652-6.123-1-9.265-.675-4.643.483-9.513.161-13.775,2.066-3.144,1.4-5.646,3.894-8.321,6.061A48.877,48.877,0,0,1,329.4,259.87a12.481,12.481,0,0,1,2.364,4.044,58.879,58.879,0,0,1,13.91-.85c7.224.274,14.474,1.155,21.658.348a22.372,22.372,0,0,0,8.52-2.419c2.094-1.175,3.869-2.846,5.912-4.111s3.884-1.888,6.181-1.189A3.436,3.436,0,0,0,388.466,251Z" transform="translate(-329.4 -242.89)" fill="#f0bb62"/>
              </g>
              <g id="Group_8761" data-name="Group 8761" transform="translate(13.441 7.345)">
                <path id="Path_12621" data-name="Path 12621" d="M362.669,263.493a2.087,2.087,0,0,0,.8-.329c1.169-.829.9-2.741,1.874-3.79l-5.775,4.408C360.5,263.309,361.641,263.7,362.669,263.493Z" transform="translate(-359.566 -259.375)" fill="#f2c0c0"/>
              </g>
            </g>
            <g id="Group_8763" data-name="Group 8763" transform="translate(11.52 32.687)">
              <path id="Path_12622" data-name="Path 12622" d="M325.681,286.909a1.3,1.3,0,0,0,.727-1.525,4.185,4.185,0,0,1-.116-1.67,13.9,13.9,0,0,0,.323-1.934,4.684,4.684,0,0,0-1.083-2.588,4.042,4.042,0,0,0-1.508-1.427,4.484,4.484,0,0,0-3.085.163c-.655.195-1.409.487-1.587,1.147a1.747,1.747,0,0,0,.071.935,6.217,6.217,0,0,0,2.092,3.1c.618.489,1.391.944,1.543,1.717a1.826,1.826,0,0,1-.566,1.57,6.231,6.231,0,0,1-1.428.977,36.068,36.068,0,0,0-10.4,9.451c-.075.1-.148.2-.216.3-.009.013-.021.023-.03.035a1.328,1.328,0,0,0-.277.822,1.232,1.232,0,0,0,1.013.976.84.84,0,0,0,.981-.308,1.194,1.194,0,0,0-.034-.755,3.2,3.2,0,0,1-.074-.751,39.534,39.534,0,0,1,13.651-10.243Z" transform="translate(-310.145 -277.565)" fill="#fff"/>
            </g>
            <g id="Group_8766" data-name="Group 8766" transform="translate(40.892 19.106)">
              <g id="Group_8764" data-name="Group 8764" transform="translate(0 0)">
                <path id="Path_12623" data-name="Path 12623" d="M403.123,259.545c1.186-1.89,1.054-4.3.668-6.5a5.7,5.7,0,0,0-6.1-5.758,37.471,37.471,0,0,0-14.005,1.273c-2.817.81-5.777,2.174-7.02,4.826a8.39,8.39,0,0,0,1.794,9.014c2.277,2.077,5.39,1.933,8.472,2a35.049,35.049,0,0,0,10.942-1.557C401.5,261.707,402.02,261.3,403.123,259.545Z" transform="translate(-376.056 -247.108)" fill="#fff"/>
              </g>
              <g id="Group_8765" data-name="Group 8765" transform="translate(22.916 0.942)">
                <path id="Path_12624" data-name="Path 12624" d="M427.5,249.283a11.175,11.175,0,0,1,2.8,5.625,33.322,33.322,0,0,1,.5,6.341,12.587,12.587,0,0,0,.007-9.563,4.887,4.887,0,0,0-1.217-1.869A2.24,2.24,0,0,0,427.5,249.283Z" transform="translate(-427.5 -249.212)" fill="#414042"/>
              </g>
            </g>
            <g id="Group_8767" data-name="Group 8767" transform="translate(77.425 25.071)">
              <path id="Path_12625" data-name="Path 12625" d="M460.154,267.515a4.043,4.043,0,0,0,1.161.039c3.019.15,5.5-.1,7.961,1.06-.156.075-.241.6-.143.744a.632.632,0,0,0,1-.292,1.028,1.028,0,0,0-.463-1.09,4.587,4.587,0,0,0-1.421-.637c-2.434-.451-4.634-.667-7.065-1.118-.641-.2-.843-1.031-.723-1.692a12.132,12.132,0,0,0,.457-1.954,2.194,2.194,0,0,0-2.055-2.08.369.369,0,0,0-.369.493,5.053,5.053,0,0,1-.363,4.277.481.481,0,0,0,.181.676C458.964,266.281,459.4,267.247,460.154,267.515Z" transform="translate(-458.06 -260.494)" fill="#fff"/>
            </g>
            <g id="Group_8770" data-name="Group 8770" transform="translate(71.392)">
              <g id="Group_8768" data-name="Group 8768" transform="translate(0)">
                <circle id="Ellipse_258" data-name="Ellipse 258" cx="6.149" cy="6.149" r="6.149" transform="matrix(0.925, -0.38, 0.38, 0.925, 0, 4.674)" fill="#fff"/>
              </g>
              <g id="Group_8769" data-name="Group 8769" transform="translate(5.773 8.886)">
                <path id="Path_12626" data-name="Path 12626" d="M459.3,242.274a.547.547,0,0,1-.539-.46l-1.217-7.591a5.716,5.716,0,0,1,.226-2.719l2.327-6.9a.547.547,0,1,1,1.035.348l-2.331,6.9a4.623,4.623,0,0,0-.183,2.2l1.217,7.59a.547.547,0,0,1-.453.627.528.528,0,0,1-.083.01Z" transform="translate(-457.471 -224.202)" fill="#fff"/>
              </g>
            </g>
            <g id="Group_8773" data-name="Group 8773" transform="translate(2.212 8.981)">
              <g id="Group_8771" data-name="Group 8771" transform="translate(0 0)">
                <circle id="Ellipse_259" data-name="Ellipse 259" cx="7.789" cy="7.789" r="7.789" fill="#fff"/>
              </g>
              <g id="Group_8772" data-name="Group 8772" transform="translate(8.336 7.494)">
                <path id="Path_12627" data-name="Path 12627" d="M321.453,259.651a.547.547,0,0,1-.531-.42l-2.38-9.979a3.765,3.765,0,0,0-1.856-2.427l-8.339-4.549a.547.547,0,1,1,.522-.956l8.339,4.549a4.857,4.857,0,0,1,2.4,3.13l2.38,9.979a.547.547,0,0,1-.4.658A.572.572,0,0,1,321.453,259.651Z" transform="translate(-308.018 -241.227)" fill="#fff"/>
              </g>
            </g>
            <g id="Group_8777" data-name="Group 8777" transform="translate(0 33.256)">
              <g id="Group_8774" data-name="Group 8774" transform="translate(2.074 1.418)">
                <path id="Path_12628" data-name="Path 12628" d="M288.951,288.413l1.258,3.085a138.811,138.811,0,0,1,18.21-6.234,11.344,11.344,0,0,0-1.641-3.217Z" transform="translate(-288.951 -282.046)" fill="#414042"/>
              </g>
              <g id="Group_8775" data-name="Group 8775" transform="translate(17.926 0)">
                <path id="Path_12629" data-name="Path 12629" d="M324.524,280.586a1.7,1.7,0,0,1,1.168-1.629,2.463,2.463,0,0,1,2.061.309,4.607,4.607,0,0,1,1.445,1.572,5.518,5.518,0,0,1,.85,2.509,2.91,2.91,0,0,1-.362,1.36,1.646,1.646,0,0,1-2.585.492,8.52,8.52,0,0,1-2.578-4.612Z" transform="translate(-324.524 -278.855)" fill="#414042"/>
              </g>
              <g id="Group_8776" data-name="Group 8776" transform="translate(0 7.433)">
                <path id="Path_12630" data-name="Path 12630" d="M288.74,297.209a2.341,2.341,0,1,1-3.344-1.448A2.607,2.607,0,0,1,288.74,297.209Z" transform="translate(-284.296 -295.545)" fill="#414042"/>
              </g>
            </g>
          </g>
          <g id="Group_8790" data-name="Group 8790" transform="translate(54.293 88.61)">
            <g id="Group_8781" data-name="Group 8781" transform="translate(2.5 7.951)">
              <g id="Group_8779" data-name="Group 8779" transform="translate(0 0)">
                <path id="Path_12631" data-name="Path 12631" d="M428.693,421l-6.147.805c-7.79,1.021-12.391,14.933-10.276,31.075s10.142,28.4,17.932,27.38l6.146-.805c7.79-1.021,12.391-14.933,10.277-31.075S436.485,419.975,428.693,421Z" transform="translate(-411.756 -420.937)" fill="#002f35"/>
              </g>
              <g id="Group_8780" data-name="Group 8780" transform="translate(2.073 9.947)">
                <ellipse id="Ellipse_260" data-name="Ellipse 260" cx="6.053" cy="20.045" rx="6.053" ry="20.045" transform="translate(0 1.572) rotate(-7.461)" fill="#a6bebd"/>
              </g>
            </g>
            <g id="Group_8784" data-name="Group 8784" transform="translate(0 0)">
              <g id="Group_8782" data-name="Group 8782">
                <path id="Path_12632" data-name="Path 12632" d="M437.732,412.236a23.047,23.047,0,0,0-9.015-7.725c-7.526-3.379-14.59-.544-18.194,6.652-2.516,5.025-4.674,11.722-4.347,17.388.363,6.33.5,13.464,1.887,19.648,12.008-1.406,29.241-4.244,39.774-8.172C446.342,430.544,443.344,420.019,437.732,412.236Z" transform="translate(-406.143 -403.092)" fill="#f0bb62"/>
              </g>
              <g id="Group_8783" data-name="Group 8783" transform="translate(4.955 2.845)">
                <path id="Path_12633" data-name="Path 12633" d="M421.879,410.153a9.78,9.78,0,0,0-4.614,5.528,3.892,3.892,0,0,1,4.117-.983,6.392,6.392,0,0,1,3.33,2.874,19.009,19.009,0,0,1,1.685,4.153l6.64,20.977a5.519,5.519,0,0,0,1.289,2.486c1.3,1.2,3.34.888,5.067.5a2.521,2.521,0,0,1-2.379-1.023,7.322,7.322,0,0,1-1.117-2.471q-4.347-14.1-7.771-28.462c-.362-1.521-.848-3.224-2.228-3.958a4.368,4.368,0,0,0-4.018.383Z" transform="translate(-417.265 -409.45)" fill="#fff"/>
              </g>
            </g>
            <g id="Group_8789" data-name="Group 8789" transform="translate(2.939 14.249)">
              <g id="Group_8785" data-name="Group 8785" transform="translate(0 0)">
                <path id="Path_12634" data-name="Path 12634" d="M412.838,441.063c-.659,8.2,2.194,16.21,4.136,24.2a14.245,14.245,0,0,0,1.659,4.6,3.943,3.943,0,0,0,7.491-1.561,13.018,13.018,0,0,0-.522-5.327L419.066,435.8c-1.205-1.229-3.425-.8-4.588.465A7.892,7.892,0,0,0,412.838,441.063Z" transform="translate(-412.742 -435.071)" fill="#414042"/>
              </g>
              <g id="Group_8786" data-name="Group 8786" transform="translate(3.738 21.042)">
                <path id="Path_12635" data-name="Path 12635" d="M425.638,488.852c0,3.623-1.009,6.559-2.254,6.559s-2.254-2.936-2.254-6.559,1.009-6.559,2.254-6.559S425.638,485.23,425.638,488.852Z" transform="translate(-421.129 -482.293)" fill="#a6bebd"/>
              </g>
              <g id="Group_8787" data-name="Group 8787" transform="translate(2.867 1.409)">
                <path id="Path_12636" data-name="Path 12636" d="M426.507,471.647a1.19,1.19,0,0,0,1.351.267,2.1,2.1,0,0,0,1.01-1.033c.7-1.391.4-3.052.052-4.569-1.96-8.506-4.982-16.764-6.482-25.363a4.713,4.713,0,0,0-.683-2.044,1.551,1.551,0,0,0-1.9-.573,1.523,1.523,0,0,0-.679,1.261,4.614,4.614,0,0,0,.249,1.467,125.382,125.382,0,0,1,3.312,15.406,4,4,0,0,1,2.3,2.359,17.324,17.324,0,0,1,1.354,11.094,2.047,2.047,0,0,0,.121,1.728Z" transform="translate(-419.172 -438.208)" fill="#a6bebd"/>
              </g>
              <g id="Group_8788" data-name="Group 8788" transform="translate(3.164 20.349)">
                <path id="Path_12637" data-name="Path 12637" d="M421.457,480.738a8.608,8.608,0,0,0-1.609,3.151,3.444,3.444,0,0,1,1.609-3.151Z" transform="translate(-419.84 -480.738)" fill="#a6bebd"/>
              </g>
            </g>
          </g>
        </g>
        <g id="Group_8792" data-name="Group 8792" transform="translate(62.897 84.86)">
          <path id="Path_12638" data-name="Path 12638" d="M307.6,288.153c-.381-1.124-1.038-4.016-2.1-4.555a10.718,10.718,0,0,0-4.3-.829,16.779,16.779,0,0,0-4.623.055,5,5,0,0,0-2.824,1.64,3.806,3.806,0,0,0-1.23,2.915c.047,1.247,2.1,3.419,3.349,3.465a.862.862,0,0,0-.336,1.063,2.513,2.513,0,0,0,.754.948l2.019,1.826a3.708,3.708,0,0,0,1.676,1.043,3.3,3.3,0,0,0,2.367-.734c1.262-.846,2.68-1.441,3.608-2.646C307.075,290.9,308.189,289.877,307.6,288.153Z" transform="translate(-292.526 -282.636)" fill="#ffc088"/>
        </g>
      </g>
    </g>
  </g>
</svg>
