<svg xmlns="http://www.w3.org/2000/svg" xmlns:xlink="http://www.w3.org/1999/xlink" width="244.302" height="244.302" viewBox="0 0 244.302 244.302">
  <defs>
    <clipPath id="clip-path">
      <path id="Path_15480" data-name="Path 15480" d="M448.856,353.78a4.884,4.884,0,0,0-2.482,1.746,4.218,4.218,0,0,0,5.494-1.374,5.225,5.225,0,0,0-2.109-.479,3.72,3.72,0,0,0-.9.107" transform="translate(-446.374 -353.673)" fill="none"/>
    </clipPath>
  </defs>
  <g id="order_success" transform="translate(-0.001 -0.001)">
    <g id="Group_8748" data-name="Group 8748" transform="translate(-0.348 -0.348)">
      <g id="Group_8843" data-name="Group 8843">
        <path id="Path_15422" data-name="Path 15422" d="M244.3,122.151A122.151,122.151,0,1,1,122.151,0,122.151,122.151,0,0,1,244.3,122.151" transform="translate(0.349 0.349)" fill="rgba(240,187,98,0.12)"/>
        <rect id="Rectangle_17772" data-name="Rectangle 17772" width="90.388" height="170.522" transform="translate(126.329 14.043)" fill="#ffdda5"/>
        <path id="Path_15423" data-name="Path 15423" d="M983.537,205.677H900.424a10.513,10.513,0,0,1-10.5-10.5V23.309a10.513,10.513,0,0,1,10.5-10.5h83.113a10.513,10.513,0,0,1,10.5,10.5V195.176a10.513,10.513,0,0,1-10.5,10.5M900.424,13.4a9.924,9.924,0,0,0-9.913,9.913V195.176a9.924,9.924,0,0,0,9.913,9.913h83.113a9.924,9.924,0,0,0,9.913-9.913V23.309a9.924,9.924,0,0,0-9.913-9.913Z" transform="translate(-770.771 -10.748)" fill="#363e44"/>
        <path id="Path_15424" data-name="Path 15424" d="M1024.531,132.543h-.143a5.005,5.005,0,0,1-5.006-5.006V102.58h10.154v24.957a5.005,5.005,0,0,1-5.006,5.006" transform="translate(-882.947 -88.537)" fill="#fff"/>
        <path id="Path_15425" data-name="Path 15425" d="M948.469,132.543h-.143a5.006,5.006,0,0,1-5.006-5.006V102.58h10.154v24.957a5.005,5.005,0,0,1-5.005,5.006" transform="translate(-817.039 -88.537)" fill="#f0bb62"/>
        <path id="Path_15426" data-name="Path 15426" d="M1099.575,132.543h-.143a5.006,5.006,0,0,1-5.006-5.006V102.58h10.154v24.957a5.006,5.006,0,0,1-5.006,5.006" transform="translate(-947.973 -88.537)" fill="#f0bb62"/>
        <path id="Path_15427" data-name="Path 15427" d="M1174.618,132.543h-.143a5.005,5.005,0,0,1-5.006-5.006V102.58h10.154v24.957a5.006,5.006,0,0,1-5.006,5.006" transform="translate(-1012.998 -88.537)" fill="#fff"/>
        <path id="Path_15428" data-name="Path 15428" d="M1249.662,132.543h-.143a5.005,5.005,0,0,1-5.006-5.006V102.58h10.154v24.957a5.006,5.006,0,0,1-5.005,5.006" transform="translate(-1078.024 -88.537)" fill="#f0bb62"/>
        <path id="Path_15429" data-name="Path 15429" d="M1324.706,132.543h-.143a5.006,5.006,0,0,1-5.005-5.006V102.58h10.154v24.957a5.005,5.005,0,0,1-5.005,5.006" transform="translate(-1143.049 -88.537)" fill="#fff"/>
        <path id="Path_15430" data-name="Path 15430" d="M1399.749,132.543h-.143a5.006,5.006,0,0,1-5.006-5.006V102.58h10.154v24.957a5.005,5.005,0,0,1-5.005,5.006" transform="translate(-1208.074 -88.537)" fill="#f0bb62"/>
        <path id="Path_15431" data-name="Path 15431" d="M1474.793,132.543h-.143a5.006,5.006,0,0,1-5.006-5.006V102.58H1479.8v24.957a5.006,5.006,0,0,1-5.006,5.006" transform="translate(-1273.1 -88.537)" fill="#fff"/>
        <path id="Path_15432" data-name="Path 15432" d="M1549.837,132.543h-.143a5.006,5.006,0,0,1-5.006-5.006V102.58h10.154v24.957a5.006,5.006,0,0,1-5.006,5.006" transform="translate(-1338.126 -88.537)" fill="#f0bb62"/>
        <path id="Path_15433" data-name="Path 15433" d="M1032.573,100.963H942.216a.294.294,0,0,1,0-.589h90.356a.294.294,0,0,1,0,.589" transform="translate(-815.828 -86.625)" fill="#f0bb62"/>
        <path id="Path_15434" data-name="Path 15434" d="M1130.973,915.45h-53.89a.3.3,0,0,1-.294-.294V861.29a.3.3,0,0,1,.294-.294h53.89a.294.294,0,0,1,.294.294v53.866a.294.294,0,0,1-.294.294m-53.6-.589h53.3V861.585h-53.3Z" transform="translate(-932.69 -745.705)" fill="#1c7d88"/>
        <path id="Path_15435" data-name="Path 15435" d="M1149.666,961.779l-16.872-15.34,5.212-6.425,10.7,8.549L1165.49,924.2l6.829,4.7Z" transform="translate(-981.219 -800.472)" fill="#1c7d88"/>
        <path id="Path_15436" data-name="Path 15436" d="M1064.622,484.423a.3.3,0,0,1-.287-.229l-7.041-30.8-8.714.083a.287.287,0,0,1-.3-.291.294.294,0,0,1,.291-.3l8.951-.085h0a.294.294,0,0,1,.287.229l7.037,30.785,31.749-2.671L1096.585,461l-9.586.008h0a.294.294,0,0,1,0-.589l9.88-.008h0a.294.294,0,0,1,.294.294l.017,20.708a.294.294,0,0,1-.27.294l-32.274,2.715h-.025" transform="translate(-907.99 -392.003)" fill="#363e44"/>
        <path id="Path_15437" data-name="Path 15437" d="M1157.947,531.961a.3.3,0,0,1-.293-.274l-1.491-21.118-27.449.008a.294.294,0,0,1,0-.589l27.724-.008a.294.294,0,0,1,.294.274l1.51,21.391a.3.3,0,0,1-.273.314h-.021" transform="translate(-977.428 -441.55)" fill="#363e44"/>
        <path id="Path_15438" data-name="Path 15438" d="M1114.19,724.827a5.506,5.506,0,0,1,0-11.012h0a5.506,5.506,0,0,1,0,11.012Zm0-10.423h0a4.917,4.917,0,0,0,0,9.835h0a4.917,4.917,0,0,0,0-9.835" transform="translate(-960.328 -618.173)" fill="#363e44"/>
        <path id="Path_15439" data-name="Path 15439" d="M1396.157,724.6a5.506,5.506,0,0,1,0-11.012h0a5.506,5.506,0,0,1,0,11.012Zm0-10.423h0a4.917,4.917,0,0,0,0,9.834h0a4.917,4.917,0,0,0,0-9.834" transform="translate(-1204.652 -617.974)" fill="#363e44"/>
        <path id="Path_15440" data-name="Path 15440" d="M1187.054,752.995a.294.294,0,0,1,0-.589l27.178-.022h0a.294.294,0,0,1,0,.589l-27.178.022Z" transform="translate(-1027.981 -651.593)" fill="#363e44"/>
        <path id="Path_15441" data-name="Path 15441" d="M1159.443,689.9a.295.295,0,0,1-.281-.381l1.245-4.038a.294.294,0,1,1,.562.174l-1.245,4.038a.294.294,0,0,1-.281.208" transform="translate(-1004.055 -593.439)" fill="#363e44"/>
        <path id="Path_15442" data-name="Path 15442" d="M1268.816,533.425a.3.3,0,0,1-.291-.253l-3.086-21.929a.294.294,0,0,1,.583-.082l3.086,21.929a.3.3,0,0,1-.251.333l-.041,0" transform="translate(-1096.154 -442.353)" fill="#363e44"/>
        <path id="Path_15443" data-name="Path 15443" d="M1198.8,533.33a.3.3,0,0,1-.289-.241l-4.164-22.76a.294.294,0,0,1,.579-.106l4.164,22.76a.3.3,0,0,1-.237.343.306.306,0,0,1-.053,0" transform="translate(-1034.549 -441.55)" fill="#363e44"/>
        <path id="Path_15444" data-name="Path 15444" d="M1149.806,592.318a.294.294,0,0,1-.014-.588l34.8-1.63a.294.294,0,0,1,.028.588l-34.8,1.63h-.014" transform="translate(-995.705 -510.973)" fill="#363e44"/>
        <path id="Path_15445" data-name="Path 15445" d="M1253.627,1393.7h72.989l-11.384-63.036h-47.4Z" transform="translate(-1085.921 -1152.677)" fill="#1c7d88"/>
        <path id="Path_15446" data-name="Path 15446" d="M1397.661,1398.653a.294.294,0,0,1-.286-.226c-2.191-9.188-13.112-55.065-12.96-55.892a.294.294,0,0,1,.583.078c.054,1.306,8.489,36.968,12.949,55.677a.294.294,0,0,1-.218.354.3.3,0,0,1-.069.008" transform="translate(-1199.248 -1162.751)" fill="#f7f1eb"/>
        <path id="Path_15447" data-name="Path 15447" d="M1276.57,1410.967a.294.294,0,0,1-.146-.55l12.126-6.883v-49.926a.294.294,0,1,1,.589,0v50.1a.294.294,0,0,1-.149.256l-12.275,6.967a.294.294,0,0,1-.145.038" transform="translate(-1105.545 -1172.3)" fill="#f7f1eb"/>
        <path id="Path_15448" data-name="Path 15448" d="M1443.332,1233.438a.829.829,0,0,0,.829-.83v-12a5.093,5.093,0,0,1,5.087-5.087h10.063a5.093,5.093,0,0,1,5.087,5.087v12a.829.829,0,1,0,1.659,0v-12a6.754,6.754,0,0,0-6.746-6.746h-10.063a6.754,6.754,0,0,0-6.746,6.746v12a.829.829,0,0,0,.829.83" transform="translate(-1249.582 -1051.466)" fill="#1c7d88"/>
        <path id="Path_15449" data-name="Path 15449" d="M691.751,1660a29.869,29.869,0,0,0-3.25,19.719h35.381a19.707,19.707,0,0,0-1.139-4.224c-4.674-11.85-19.63-15.431-23.025-16.164l-7.966.669" transform="translate(-595.835 -1437.468)" fill="#1c7d88"/>
        <path id="Path_15450" data-name="Path 15450" d="M684.134,1566.684l2.693,12.487a4.938,4.938,0,0,0,5.576,3.786q.219-.038.445-.092a4.97,4.97,0,0,0,3.771-5.206l-1.165-12.219Z" transform="translate(-592.454 -1356.109)" fill="#ffd8c8"/>
        <path id="Path_15451" data-name="Path 15451" d="M154.595,1636.566s-5.9,11.393-4.846,23.427h23.739a48.566,48.566,0,0,0-11.275-21.376Z" transform="translate(-129.3 -1417.738)" fill="#1c7d88"/>
        <path id="Path_15452" data-name="Path 15452" d="M178.5,1540.277c-.168-4.159-.148-11.831,1.745-18.006l13.8,4.075a45.585,45.585,0,0,0-5.96,14.576,4.636,4.636,0,0,1-4.858,3.833,9.343,9.343,0,0,1-.966-.123,4.606,4.606,0,0,1-3.762-4.354" transform="translate(-154.263 -1318.701)" fill="#ffd8c8"/>
        <path id="Path_15453" data-name="Path 15453" d="M187.725,703.942s-25.93,40.5-26.254,118.606h18.936s22.708-67.5,37.662-84.326l-5.532-37.673Z" transform="translate(-139.566 -606.678)" fill="#f0bb62"/>
        <path id="Path_15454" data-name="Path 15454" d="M447.314,735.293s23.972,39.508,29.525,75.918h17.667s1.535-88.02-30.686-123.746l-15.684,3.11Z" transform="translate(-387.249 -595.341)" fill="#f0bb62"/>
        <path id="Path_15455" data-name="Path 15455" d="M504.616,954.861a.294.294,0,0,1-.267-.417l10.04-21.8a.294.294,0,0,1,.534.246l-10.039,21.8a.294.294,0,0,1-.268.171" transform="translate(-436.647 -807.639)" fill="#363e44"/>
        <path id="Path_15456" data-name="Path 15456" d="M527.789,441.679s20.024,14.384,36.769-1.681l3.557-7.218s4.107,11.2,1.205,22.106S554.489,468,538.127,464.666Z" transform="translate(-456.981 -374.656)" fill="#ffd8c8"/>
        <path id="Path_15457" data-name="Path 15457" d="M178.24,499.837c10.244-6.439,31.684-18.736,46.833-19.3,0,0,1.732-13.334-13.32-25.372,0,0-17.39-11.077-40.35-1.137,0,0-15.936,26.579-8.3,41.649a10.633,10.633,0,0,0,15.142,4.159" transform="translate(-139.183 -389.48)" fill="#1c7d88"/>
        <path id="Path_15458" data-name="Path 15458" d="M119.48,478.994c0,7.459.362,13.8.991,24.576.724,12.376,1.054,18.4-3.534,20.23-25.377,10.133-18.621-33.643,2.542-44.806" transform="translate(-86.807 -414.7)" fill="#ffd8c8"/>
        <path id="Path_15459" data-name="Path 15459" d="M204.714,584.344s15.238-6.2,23.547-8.923c8.727-2.855,22.027-5.8,22.415-3.934.221,1.063-1.51,1.839-6.274,3.608a2.24,2.24,0,0,1,1.244,1.792,2.151,2.151,0,0,1-1.213,2.064c.116.042,1.355.533,1.569,1.535a2.368,2.368,0,0,1-1,2.522,2.457,2.457,0,0,1,1.471,1.61,2.205,2.205,0,0,1-1.362,2.485c-1.853.576-7.393,2.183-9.994,3.293-5.118,2.185-22.252,12.385-30.484,13.589,1.376-7.068.079-19.641.079-19.641" transform="translate(-176.968 -494.338)" fill="#ffd8c8"/>
        <path id="Path_15460" data-name="Path 15460" d="M486.578,677.373a.3.3,0,0,1-.29-.243L486,675.514a.294.294,0,1,1,.58-.1l.286,1.615a.3.3,0,0,1-.239.341.306.306,0,0,1-.051,0" transform="translate(-420.769 -584.686)" fill="#363e44"/>
        <path id="Path_15461" data-name="Path 15461" d="M481.015,646.854a.294.294,0,0,1-.291-.253l-.265-1.836a.294.294,0,1,1,.583-.084l.265,1.836a.294.294,0,0,1-.249.333.313.313,0,0,1-.043,0" transform="translate(-415.967 -558.05)" fill="#363e44"/>
        <path id="Path_15462" data-name="Path 15462" d="M476.952,616.824a.294.294,0,0,1-.289-.243c-.054-.3-.1-.579-.148-.855s-.092-.539-.144-.837a.294.294,0,0,1,.58-.1c.053.3.1.571.145.841s.093.547.147.85a.294.294,0,0,1-.238.341.3.3,0,0,1-.052,0" transform="translate(-412.423 -532.154)" fill="#363e44"/>
        <path id="Path_15463" data-name="Path 15463" d="M470.6,592.422a.3.3,0,0,1-.285-.222l-.4-1.578a.294.294,0,1,1,.571-.145l.4,1.578a.294.294,0,0,1-.213.358.3.3,0,0,1-.073.009" transform="translate(-406.821 -511.107)" fill="#363e44"/>
        <path id="Path_15464" data-name="Path 15464" d="M682.908,422.57H667.733l10.008-23.413h15.176Z" transform="translate(-578.243 -345.521)" fill="#d87355"/>
        <path id="Path_15465" data-name="Path 15465" d="M755.1,413.66a1.026,1.026,0,1,1-1.026-1.026,1.026,1.026,0,0,1,1.026,1.026" transform="translate(-652.173 -357.199)" fill="#efbc73"/>
        <path id="Path_15466" data-name="Path 15466" d="M791.047,441.039c0,1.537-.13,2.782-2.791,2.782s-6.847-1.246-6.847-2.782,4.185-2.782,6.847-2.782,2.791,1.246,2.791,2.782" transform="translate(-676.743 -379.401)" fill="#84524d"/>
        <path id="Path_15467" data-name="Path 15467" d="M770.823,471.666c0-1.537,4.185-2.782,6.847-2.782s2.791,1.246,2.791,2.782Z" transform="translate(-667.57 -405.94)" fill="#84524d"/>
        <path id="Path_15468" data-name="Path 15468" d="M780.461,489.725c0,1.537-.129,2.782-2.791,2.782s-6.847-1.246-6.847-2.782Z" transform="translate(-667.57 -423.999)" fill="#84524d"/>
        <path id="Path_15469" data-name="Path 15469" d="M760.236,502.294c0-1.537,4.185-2.782,6.847-2.782s2.791,1.246,2.791,2.782Z" transform="translate(-658.397 -432.479)" fill="#84524d"/>
        <path id="Path_15470" data-name="Path 15470" d="M769.873,520.353c0,1.537-.13,2.782-2.791,2.782s-6.847-1.246-6.847-2.782Z" transform="translate(-658.396 -450.538)" fill="#84524d"/>
        <path id="Path_15471" data-name="Path 15471" d="M764.457,532.351c0-1.221,3.327-2.211,5.442-2.211s2.218.99,2.218,2.211Z" transform="translate(-662.054 -459.018)" fill="#84524d"/>
        <path id="Path_15472" data-name="Path 15472" d="M772.118,546.705c0,1.221-.1,2.212-2.218,2.212s-5.442-.99-5.442-2.212Z" transform="translate(-662.054 -473.372)" fill="#84524d"/>
        <path id="Path_15473" data-name="Path 15473" d="M349.057,276.175a9.793,9.793,0,1,1-9.793-9.793,9.793,9.793,0,0,1,9.793,9.793" transform="translate(-285.137 -230.471)" fill="#363e44"/>
        <path id="Path_15474" data-name="Path 15474" d="M374.588,365.309c-1.239-.685-3.363-2.513-4.047-1.274l-8.034,12.848c-.685,1.239,3.425.808,4.664,1.493a2.564,2.564,0,0,0,3.484-1l4.938-8.579a2.564,2.564,0,0,0-1-3.484" transform="translate(-313.697 -314.724)" fill="#ffd8c8"/>
        <path id="Path_15475" data-name="Path 15475" d="M356.62,456.9c0,1.152-3.1,2.086-6.928,2.086s-6.928-.934-6.928-2.086,3.1-2.086,6.928-2.086,6.928.934,6.928,2.086" transform="translate(-296.656 -393.752)" fill="#ffd8c8"/>
        <path id="Path_15476" data-name="Path 15476" d="M411.581,325.316c-1.112,2.08-7.628,1.186-7.628,1.186l-5.682-4.431a6.008,6.008,0,1,1,10.754-5.361s3.689,6.488,2.556,8.607" transform="translate(-344.205 -271.196)" fill="#ffd8c8"/>
        <path id="Path_15477" data-name="Path 15477" d="M483.581,351.212s2.3.828,2.424,1.285c.152.546-1.376,1.687-1.376,1.687s-1.006-2.989-1.048-2.972" transform="translate(-418.675 -303.976)" fill="#b55b52"/>
        <path id="Path_15478" data-name="Path 15478" d="M446.374,358.014a5.216,5.216,0,0,1,1.744-1.474c.231-.115.716,1.95.445,1.954a5.226,5.226,0,0,1-2.189-.48" transform="translate(-386.435 -308.589)" fill="#fff"/>
      </g>
    </g>
    <g id="Group_8750" data-name="Group 8750" transform="translate(59.597 47.218)">
      <g id="Group_8749" data-name="Group 8749" clip-path="url(#clip-path)">
        <path id="Path_15479" data-name="Path 15479" d="M458.911,346.934a2.045,2.045,0,1,1,1.291,2.588,2.045,2.045,0,0,1-1.291-2.588" transform="translate(-457.152 -346.619)" fill="#363e44"/>
      </g>
    </g>
    <g id="Group_8752" data-name="Group 8752" transform="translate(-0.348 -0.348)">
      <g id="Group_8842" data-name="Group 8842">
        <path id="Path_15481" data-name="Path 15481" d="M475.071,380.829a1.135,1.135,0,0,1-1.069-.755.294.294,0,0,1,.554-.2.547.547,0,0,0,.988.1.294.294,0,0,1,.506.3,1.142,1.142,0,0,1-.979.558" transform="translate(-410.359 -328.644)" fill="#363e44"/>
        <path id="Path_15482" data-name="Path 15482" d="M350.781,289.07A16.513,16.513,0,0,0,364.563,281c5.339-8.443-9.312-7.946-15.4-5.091-3.9,1.829,1.614,13.161,1.614,13.161" transform="translate(-300.997 -237.102)" fill="#002f35"/>
        <path id="Path_15483" data-name="Path 15483" d="M381.289,328.833a3.18,3.18,0,0,1-.477-.031.294.294,0,1,1,.095-.581,3.221,3.221,0,0,0,2.287-.6,3.66,3.66,0,0,0,1.171-2.771c.111-1.892-1.232-2.947-2.214-3.717-.628-.493-1.082-.849-.985-1.321.09-.439.619-.735,1.951-1.091,4.554-1.218,7.21-6.591,7.236-6.645a.294.294,0,0,1,.53.257c-.112.231-2.8,5.668-7.614,6.957-1.443.386-1.522.616-1.526.641-.01.126.479.511.772.74,1.022.8,2.567,2.015,2.438,4.215a4.208,4.208,0,0,1-1.4,3.2,3.64,3.64,0,0,1-2.267.746" transform="translate(-329.411 -269.922)" fill="#fff"/>
        <path id="Path_15484" data-name="Path 15484" d="M274.154,124.146s-8.366,18.465,11.12,26.977c0,0-8.7-15.2,5.89-27.614Z" transform="translate(-235.658 -106.673)" fill="#002f35"/>
      </g>
    </g>
  </g>
</svg>
