<svg xmlns="http://www.w3.org/2000/svg" width="24" height="24" viewBox="0 0 24 24">
  <g id="food_menu_inactive" transform="translate(-903 -3466)">
    <rect id="Rectangle_273" data-name="Rectangle 273" width="24" height="24" transform="translate(903 3466)" fill="none"/>
    <path id="Path_663" data-name="Path 663" d="M19.2,2.441A2.379,2.379,0,0,0,16.778,0Q9.6,0,2.427,0a2.319,2.319,0,0,0-.446.033A2.385,2.385,0,0,0,0,2.442Q0,7.221,0,12t0,9.534A2.384,2.384,0,0,0,2.454,24q7.15,0,14.3,0a2.382,2.382,0,0,0,2.45-2.441q0-9.558,0-19.118m-1.628,18.9c0,.746-.279,1.025-1.027,1.025H2.648c-.731,0-1.017-.283-1.017-1.009q0-4.68,0-9.359t0-9.335c0-.763.273-1.037,1.038-1.037H16.546c.75,0,1.031.277,1.031,1.021Z" transform="translate(905.397 3466)" fill="#7c7c7c"/>
    <path id="Path_664" data-name="Path 664" d="M60.607,67.5a.838.838,0,0,0-.67-.211c-.19.012-.277-.06-.265-.257.01-.174,0-.35,0-.524a4.775,4.775,0,0,0-3.287-4.563.385.385,0,0,1-.32-.394,1.594,1.594,0,0,0-3.174-.022.419.419,0,0,1-.349.426,4.71,4.71,0,0,0-2.788,2.457,5.073,5.073,0,0,0-.476,2.523c.015.346,0,.35-.339.353a.789.789,0,0,0-.792.5.8.8,0,0,0,.814,1.1q2.759.005,5.516,0h5.39a2.208,2.208,0,0,0,.274-.006.8.8,0,0,0,.463-1.384M57.762,67.3c-1.1-.01-2.2,0-3.293,0-.99,0-1.979,0-2.969,0-.71,0-.605.094-.616-.628a3.255,3.255,0,0,1,.5-1.874,3.023,3.023,0,0,1,2.255-1.441,4.9,4.9,0,0,1,2.459.2,3.222,3.222,0,0,1,1.97,2.857c0,.191-.011.383,0,.573.019.237-.07.32-.312.318" transform="translate(860.522 3409.907)" fill="#7c7c7c"/>
    <path id="Path_665" data-name="Path 665" d="M81.136,229.054a.77.77,0,0,1-.447.132q-4,0-8.005,0a.794.794,0,0,1-.8-.81.784.784,0,0,1,.819-.815c1.338,0,2.677,0,4.015,0,1.322,0,2.644,0,3.965,0a.8.8,0,0,1,.787.575.819.819,0,0,1-.331.921" transform="translate(838.311 3253.623)" fill="#7c7c7c"/>
    <path id="Path_666" data-name="Path 666" d="M81.156,276.945a.759.759,0,0,1-.466.147q-4,0-8.005,0a.794.794,0,0,1-.8-.81.784.784,0,0,1,.819-.814c1.339,0,2.677,0,4.015,0,1.322,0,2.644,0,3.966,0a.8.8,0,0,1,.786.576.814.814,0,0,1-.312.905" transform="translate(838.311 3208.912)" fill="#7c7c7c"/>
  </g>
</svg>
