<svg xmlns="http://www.w3.org/2000/svg" width="24" height="24" viewBox="0 0 24 24">
  <g id="food_menu_active" transform="translate(-903 -3466)">
    <rect id="Rectangle_273" data-name="Rectangle 273" width="24" height="24" transform="translate(903 3466)" fill="none"/>
    <path id="Path_667" data-name="Path 667" d="M82.3,126.132a12.93,12.93,0,0,0-12.692,10.4c-.029.144-.055.289-.079.436a13,13,0,0,0-.17,2.1q0,.512.039,1.015H81.284c.747,0,1.027-.279,1.027-1.025V126.132Z" transform="translate(840.663 3348.282)" fill="#f0bb62"/>
    <path id="Path_668" data-name="Path 668" d="M19.206,8.516q0-3.039,0-6.076A2.379,2.379,0,0,0,16.779,0Q9.6,0,2.427,0a2.319,2.319,0,0,0-.446.033A2.385,2.385,0,0,0,0,2.441Q0,7.22,0,12t0,9.534A2.384,2.384,0,0,0,2.454,24H4.9q5.928,0,11.857,0a2.382,2.382,0,0,0,2.45-2.441q0-3.778,0-7.556c0-.241,0-.482,0-.724q0-2.38,0-4.761m-1.63,12.829c0,.746-.279,1.025-1.027,1.025H2.648c-.731,0-1.017-.283-1.017-1.009q0-4.68,0-9.359t0-9.335c0-.763.273-1.037,1.038-1.037H16.546c.75,0,1.031.277,1.031,1.021Z" transform="translate(905.397 3466)" fill="#002f35"/>
    <path id="Path_669" data-name="Path 669" d="M60.607,67.5a.838.838,0,0,0-.67-.211c-.19.012-.277-.06-.265-.257.01-.174,0-.35,0-.524,0-.077,0-.153-.005-.229a4.9,4.9,0,0,0-.277-1.413,4.771,4.771,0,0,0-3-2.92.385.385,0,0,1-.32-.394,1.594,1.594,0,0,0-3.174-.022.419.419,0,0,1-.349.426,4.71,4.71,0,0,0-2.788,2.457,5.073,5.073,0,0,0-.476,2.523c.015.346,0,.35-.339.353a.789.789,0,0,0-.792.5.8.8,0,0,0,.814,1.1q1.884,0,3.768,0H59.87a2.207,2.207,0,0,0,.274-.006.8.8,0,0,0,.463-1.384M57.762,67.3h-.181c-1.037-.008-2.075,0-3.112,0h-.048c-.974,0-1.947,0-2.921,0-.71,0-.605.094-.616-.628a3.254,3.254,0,0,1,.5-1.874,3.023,3.023,0,0,1,2.255-1.441,4.9,4.9,0,0,1,2.459.2,3.216,3.216,0,0,1,1.752,1.8A3.031,3.031,0,0,1,58.07,66.4c0,.191-.011.383,0,.573,0,.015,0,.029,0,.042.005.205-.087.277-.314.275" transform="translate(860.522 3409.908)" fill="#002f35"/>
    <path id="Path_670" data-name="Path 670" d="M81.136,229.053a.77.77,0,0,1-.447.132q-3.341,0-6.682,0H72.684a.813.813,0,0,1,.016-1.625h.578q.94,0,1.88,0h1.557c1.322,0,2.644,0,3.965,0a.8.8,0,0,1,.787.575.819.819,0,0,1-.331.921" transform="translate(838.311 3253.624)" fill="#002f35"/>
    <path id="Path_671" data-name="Path 671" d="M81.156,276.945a.759.759,0,0,1-.466.147q-4,0-8.005,0a.871.871,0,0,1-.2-.023.792.792,0,0,1-.6-.726c0-.02,0-.04,0-.061a.864.864,0,0,1,.081-.375.786.786,0,0,1,.738-.44h.449q1.783,0,3.566,0c1.322,0,2.644,0,3.966,0a.8.8,0,0,1,.786.576.814.814,0,0,1-.312.905" transform="translate(838.311 3208.913)" fill="#002f35"/>
  </g>
</svg>
