<svg xmlns="http://www.w3.org/2000/svg" width="50" height="50" viewBox="0 0 50 50">
  <g id="good_active" transform="translate(1.074 0.677)">
    <rect id="Rectangle_18080" data-name="Rectangle 18080" width="50" height="50" rx="25" transform="translate(-1.074 -0.677)" fill="#ffd48b"/>
    <path id="Path_16516" data-name="Path 16516" d="M99.836,128.823a2.478,2.478,0,1,0-2.478,2.478,2.478,2.478,0,0,0,2.478-2.478" transform="translate(-79.598 -107.896)" fill="#515151"/>
    <path id="Path_16517" data-name="Path 16517" d="M255.255,129.27a2.478,2.478,0,1,0-2.478,2.478,2.478,2.478,0,0,0,2.478-2.478" transform="translate(-221.33 -108.303)" fill="#515151"/>
    <path id="Path_16518" data-name="Path 16518" d="M87.394,92.259a.667.667,0,0,1-.352-.1,3.977,3.977,0,0,0-4.7-.063.67.67,0,1,1-.878-1.013,4.682,4.682,0,0,1,1.817-.886,5.648,5.648,0,0,1,4.463.823.67.67,0,0,1-.353,1.24" transform="translate(-67.157 -74.787)" fill="#515151"/>
    <path id="Path_16519" data-name="Path 16519" d="M248.843,92.707a.666.666,0,0,1-.352-.1,3.977,3.977,0,0,0-4.7-.063.67.67,0,1,1-.878-1.013,4.684,4.684,0,0,1,1.817-.886,5.648,5.648,0,0,1,4.463.823.67.67,0,0,1-.353,1.24" transform="translate(-214.387 -75.196)" fill="#515151"/>
    <path id="Path_16520" data-name="Path 16520" d="M114.2,257.435a.755.755,0,0,0-.405-.544,1.043,1.043,0,0,0-1.205.153c-2.482,2.522-3.936,3.61-7.686,3.7-4.322.1-7.5-3.8-7.535-3.836a1.029,1.029,0,0,0-1.193-.225.777.777,0,0,0-.45.525.678.678,0,0,0,.15.585,13.933,13.933,0,0,0,2.456,2.172,11.955,11.955,0,0,0,6.506,2.306c.093,0,.185,0,.277,0,3.119,0,6.108-1.431,8.885-4.252a.687.687,0,0,0,.2-.584" transform="translate(-80.359 -226.664)" fill="#515151"/>
  </g>
</svg>
