<svg id="Gmail" xmlns="http://www.w3.org/2000/svg" width="23.522" height="24" viewBox="0 0 23.522 24">
  <g id="_7123025_logo_google_g_icon" data-name="7123025_logo_google_g_icon">
    <path id="Path_465" data-name="Path 465" d="M31.372,19.9a15.009,15.009,0,0,0-.209-2.431H19.843v4.627h6.484a5.454,5.454,0,0,1-2.405,3.634l3.869,3.006A11.8,11.8,0,0,0,31.372,19.9Z" transform="translate(-7.85 -7.607)" fill="#4280ef"/>
    <path id="Path_466" data-name="Path 466" d="M19.843,31.607a11.48,11.48,0,0,0,7.948-2.9l-3.869-2.98A7.279,7.279,0,0,1,13.1,21.934L9.124,24.993A11.988,11.988,0,0,0,19.843,31.607Z" transform="translate(-7.85 -7.607)" fill="#34a353"/>
    <path id="Path_467" data-name="Path 467" d="M13.1,21.908a7.29,7.29,0,0,1,0-4.6L9.124,14.222a12.016,12.016,0,0,0,0,10.771Z" transform="translate(-7.85 -7.607)" fill="#f6b704"/>
    <path id="Path_468" data-name="Path 468" d="M19.843,12.366a6.547,6.547,0,0,1,4.6,1.8l3.425-3.451a11.548,11.548,0,0,0-8.026-3.111A11.988,11.988,0,0,0,9.124,14.222L13.1,17.307A7.178,7.178,0,0,1,19.843,12.366Z" transform="translate(-7.85 -7.607)" fill="#e54335"/>
  </g>
</svg>
