<svg xmlns="http://www.w3.org/2000/svg" width="50" height="50" viewBox="0 0 50 50">
  <g id="great_inactive" transform="translate(-0.794 -0.322)">
    <rect id="Rectangle_18082" data-name="Rectangle 18082" width="50" height="50" rx="25" transform="translate(0.794 0.322)" fill="#ededed"/>
    <path id="Path_16521" data-name="Path 16521" d="M101.558,130.352a2.478,2.478,0,1,0-2.478,2.478,2.478,2.478,0,0,0,2.478-2.478" transform="translate(-80.301 -109.29)" fill="#515151"/>
    <path id="Path_16522" data-name="Path 16522" d="M256.977,130.8a2.478,2.478,0,1,0-2.478,2.478,2.478,2.478,0,0,0,2.478-2.478" transform="translate(-222.033 -109.699)" fill="#515151"/>
    <path id="Path_16523" data-name="Path 16523" d="M76.091,80.226a.667.667,0,0,1-.366.005,3.977,3.977,0,0,0-4.516,1.29.67.67,0,1,1-1.132-.718,4.683,4.683,0,0,1,1.485-1.371,5.648,5.648,0,0,1,4.511-.5.671.671,0,0,1,.018,1.29" transform="translate(-56.016 -64.439)" fill="#515151"/>
    <path id="Path_16524" data-name="Path 16524" d="M262.521,80.605a.667.667,0,0,1-.306-.2,3.977,3.977,0,0,0-4.46-1.469.67.67,0,1,1-.534-1.23,4.683,4.683,0,0,1,2-.3,5.648,5.648,0,0,1,4.011,2.123.67.67,0,0,1-.709,1.077" transform="translate(-226.407 -63.259)" fill="#515151"/>
    <path id="Path_16525" data-name="Path 16525" d="M127.53,248.569c0,4.939-3.5,8.943-7.825,8.943s-7.824-4-7.824-8.943Z" transform="translate(-94.234 -219.356)" fill="#515151"/>
  </g>
</svg>
