<svg id="hand-coin-line" xmlns="http://www.w3.org/2000/svg" width="14" height="13.938" viewBox="0 0 14 13.938">
  <rect id="Rectangle_262" data-name="Rectangle 262" width="14" height="13.938" transform="translate(0)" fill="none"/>
  <path id="Path_12462" data-name="Path 12462" d="M3.492,6.355a.622.622,0,0,1,.622.622,4.334,4.334,0,0,1,2.692.932H8.155a2.791,2.791,0,0,1,2.085.933H12.2A3.109,3.109,0,0,1,15,10.615a8.179,8.179,0,0,1-6.539,3.2,8.987,8.987,0,0,1-4.39-1.031.621.621,0,0,1-.584.409H1.627A.622.622,0,0,1,1,12.573v-5.6a.622.622,0,0,1,.622-.622Zm.622,1.865v3.123l.028.02a7.393,7.393,0,0,0,4.324,1.21,6.985,6.985,0,0,0,4.872-1.946l.083-.083-.074-.062a1.861,1.861,0,0,0-1.022-.391l-.127,0H10.884a2.806,2.806,0,0,1,.069.622v.622h-5.6V10.086H9.579l-.021-.049a1.555,1.555,0,0,0-1.3-.88l-.1,0H6.334A3.1,3.1,0,0,0,4.114,8.221ZM2.87,7.6H2.248v4.352H2.87Zm8.7-3.731A1.865,1.865,0,1,1,9.71,5.734,1.865,1.865,0,0,1,11.575,3.868Zm0,1.244a.622.622,0,1,0,.622.622A.622.622,0,0,0,11.575,5.112ZM7.223,2A1.865,1.865,0,1,1,5.357,3.868,1.865,1.865,0,0,1,7.223,2Zm0,1.244a.622.622,0,1,0,.622.622A.622.622,0,0,0,7.223,3.246Z" transform="translate(-1.005 -1.003)" fill="#002f35"/>
</svg>
