<svg xmlns="http://www.w3.org/2000/svg" width="24" height="24" viewBox="0 0 24 24">
  <g id="home_inactive" transform="translate(-903 -3466)">
    <rect id="Rectangle_273" data-name="Rectangle 273" width="24" height="24" transform="translate(903 3466)" fill="none"/>
    <path id="Path_658" data-name="Path 658" d="M23.3,10.487a5.606,5.606,0,0,0-1.9-3.222q-.8-.711-1.6-1.425Q17.183,3.493,14.57,1.136A4.2,4.2,0,0,0,11.746,0,4.331,4.331,0,0,0,8.7,1.229Q5.373,4.24,2.022,7.22A5.4,5.4,0,0,0,.093,12.47c.382,2.246.76,4.494,1.116,6.745a5.6,5.6,0,0,0,1.437,3.1A5.357,5.357,0,0,0,6.678,24h5c1.675,0,3.351,0,5.026,0a6.54,6.54,0,0,0,.835-.052,5.349,5.349,0,0,0,4.585-4.508c.339-2.156.71-4.308,1.076-6.46a7.019,7.019,0,0,0,.1-2.489m-1.747,1.842q-.593,3.393-1.136,6.794a3.614,3.614,0,0,1-3.641,3.133H6.672a3.608,3.608,0,0,1-3.722-3.19c-.373-2.318-.773-4.632-1.155-6.949A3.52,3.52,0,0,1,2.938,8.736Q6.472,5.55,10.023,2.381a2.424,2.424,0,0,1,3.333,0Q15.62,4.4,17.869,6.426l1,.9c.461.413.911.838,1.384,1.237a3.738,3.738,0,0,1,1.3,3.771" transform="translate(903.313 3466)" fill="#7c7c7c"/>
    <path id="Path_659" data-name="Path 659" d="M112.213,143.155a4.2,4.2,0,0,0-5.058,4.129,4.206,4.206,0,1,0,5.058-4.129m-.843,6.595a2.509,2.509,0,0,1-2.186-1.266,2.424,2.424,0,0,1-.317-1.184,2.5,2.5,0,0,1,2.025-2.448,2.425,2.425,0,0,1,.47-.045,2.471,2.471,0,1,1,.008,4.942" transform="translate(803.638 3332.921)" fill="#7c7c7c"/>
  </g>
</svg>
