<svg xmlns="http://www.w3.org/2000/svg" width="20" height="20" viewBox="0 0 20 20">
  <g id="home-smile-line" transform="translate(-5 -5)">
    <rect id="Rectangle_261" data-name="Rectangle 261" width="20" height="20" transform="translate(5 5)" fill="none"/>
    <path id="Path_638" data-name="Path 638" d="M5.545,17.4H16.455V8.448L11,3.489,5.545,8.448Zm11.818,1.818H4.636a.909.909,0,0,1-.909-.909V10.123H1l9.388-8.535a.909.909,0,0,1,1.223,0L21,10.123H18.273V18.3A.909.909,0,0,1,17.364,19.214ZM6.909,11.941H8.727a2.273,2.273,0,1,0,4.545,0h1.818a4.091,4.091,0,0,1-8.182,0Z" transform="translate(4 4.807)" fill="#1c7d88"/>
  </g>
</svg>
