<svg xmlns="http://www.w3.org/2000/svg" width="18" height="18" viewBox="0 0 18 18">
  <g id="ic_invoice" transform="translate(-2085.792 -2126.792)">
    <rect id="Rectangle_18054" data-name="Rectangle 18054" width="18" height="18" transform="translate(2085.792 2126.792)" fill="none"/>
    <path id="receipt_FILL0_wght300_GRAD0_opsz24" d="M4.461,23.936V6.362q.029,0,.1.007a.318.318,0,0,1,.167.106l.765.783a.379.379,0,0,0,.264.118.346.346,0,0,0,.264-.109l.8-.8a.365.365,0,0,1,.528,0l.8.8a.365.365,0,0,0,.528,0l.8-.8a.365.365,0,0,1,.528,0l.8.8a.365.365,0,0,0,.528,0l.8-.8a.364.364,0,0,1,.528,0l.8.8a.365.365,0,0,0,.528,0l.8-.8a.365.365,0,0,1,.528,0l.8.8a.365.365,0,0,0,.528,0l.8-.8a.365.365,0,0,1,.528,0l.8.8a.346.346,0,0,0,.264.109.379.379,0,0,0,.264-.118l.765-.783a.318.318,0,0,1,.167-.106q.068-.007.1-.007V23.936a.666.666,0,0,1-.1-.012.355.355,0,0,1-.167-.11l-.765-.783a.379.379,0,0,0-.264-.118.346.346,0,0,0-.264.109l-.8.8a.365.365,0,0,1-.528,0l-.8-.8a.365.365,0,0,0-.528,0l-.8.8a.365.365,0,0,1-.528,0l-.8-.8a.365.365,0,0,0-.528,0l-.8.8a.364.364,0,0,1-.528,0l-.8-.8a.365.365,0,0,0-.528,0l-.8.8a.365.365,0,0,1-.528,0l-.8-.8a.365.365,0,0,0-.528,0l-.8.8a.365.365,0,0,1-.528,0l-.8-.8a.346.346,0,0,0-.264-.109.379.379,0,0,0-.264.118l-.765.783a.355.355,0,0,1-.167.11.666.666,0,0,1-.1.012Zm3.268-4.644h9.338a.7.7,0,1,0,0-1.4H7.729a.7.7,0,1,0,0,1.4Zm0-3.448h9.338a.7.7,0,1,0,0-1.4H7.729a.7.7,0,1,0,0,1.4Zm0-3.448h9.338a.7.7,0,1,0,0-1.4H7.729a.7.7,0,1,0,0,1.4ZM5.861,21.774H18.934V8.515H5.861Zm0-13.259v0Z" transform="translate(2082.394 2120.647)" fill="#ed4040"/>
  </g>
</svg>
