<svg xmlns="http://www.w3.org/2000/svg" xmlns:xlink="http://www.w3.org/1999/xlink" width="343" height="261.145" viewBox="0 0 343 261.145">
  <defs>
    <clipPath id="clip-path">
      <rect id="Rectangle_32" data-name="Rectangle 32" width="1.805" height="7.664" fill="none"/>
    </clipPath>
    <clipPath id="clip-path-2">
      <rect id="Rectangle_33" data-name="Rectangle 33" width="2.071" height="17.878" fill="none"/>
    </clipPath>
    <clipPath id="clip-path-3">
      <rect id="Rectangle_34" data-name="Rectangle 34" width="2.065" height="7.651" fill="none"/>
    </clipPath>
    <clipPath id="clip-path-4">
      <rect id="Rectangle_35" data-name="Rectangle 35" width="2.772" height="17.845" fill="none"/>
    </clipPath>
    <clipPath id="clip-path-5">
      <rect id="Rectangle_37" data-name="Rectangle 37" width="5.887" height="19.532" fill="#ffdda5"/>
    </clipPath>
    <clipPath id="clip-path-6">
      <rect id="Rectangle_40" data-name="Rectangle 40" width="4.903" height="8.151" fill="none"/>
    </clipPath>
    <clipPath id="clip-path-7">
      <rect id="Rectangle_41" data-name="Rectangle 41" width="6.126" height="6.189" fill="none"/>
    </clipPath>
    <clipPath id="clip-path-8">
      <rect id="Rectangle_42" data-name="Rectangle 42" width="47.183" height="50.647" fill="#ffdda5"/>
    </clipPath>
    <clipPath id="clip-path-9">
      <rect id="Rectangle_44" data-name="Rectangle 44" width="6.97" height="7.284" fill="none"/>
    </clipPath>
    <clipPath id="clip-path-10">
      <rect id="Rectangle_45" data-name="Rectangle 45" width="2.29" height="2.736" fill="none"/>
    </clipPath>
    <clipPath id="clip-path-11">
      <rect id="Rectangle_46" data-name="Rectangle 46" width="12.586" height="21.276" fill="none"/>
    </clipPath>
    <clipPath id="clip-path-12">
      <rect id="Rectangle_47" data-name="Rectangle 47" width="3.946" height="7.579" fill="none"/>
    </clipPath>
    <clipPath id="clip-path-13">
      <rect id="Rectangle_48" data-name="Rectangle 48" width="3.137" height="18.802" fill="none"/>
    </clipPath>
    <clipPath id="clip-path-14">
      <rect id="Rectangle_49" data-name="Rectangle 49" width="3.011" height="7.189" fill="none"/>
    </clipPath>
    <clipPath id="clip-path-15">
      <rect id="Rectangle_50" data-name="Rectangle 50" width="10.908" height="10.162" fill="none"/>
    </clipPath>
    <clipPath id="clip-path-16">
      <rect id="Rectangle_51" data-name="Rectangle 51" width="6.688" height="2.645" fill="none"/>
    </clipPath>
    <clipPath id="clip-path-17">
      <rect id="Rectangle_52" data-name="Rectangle 52" width="11.378" height="2.645" fill="none"/>
    </clipPath>
    <clipPath id="clip-path-18">
      <rect id="Rectangle_53" data-name="Rectangle 53" width="1.612" height="4.074" fill="none"/>
    </clipPath>
  </defs>
  <g id="onboarding_2" transform="translate(-910 -206)">
    <rect id="Rectangle_31" data-name="Rectangle 31" width="343" height="261" transform="translate(910 206)" fill="none"/>
    <g id="Group_116" data-name="Group 116" transform="translate(926.257 206.544)">
      <g id="Group_117" data-name="Group 117">
        <g id="Group_114" data-name="Group 114">
          <g id="Group_118" data-name="Group 118">
            <path id="Path_410" data-name="Path 410" d="M586.731,3048.35a33.661,33.661,0,0,1-1.47,9.845l-43.366-.1c-.151-.138-.31-.277-.462-.416a33.885,33.885,0,0,1-1.313-9.437c.023-15.63,10.5-28.324,23.348-28.3s23.286,12.768,23.263,28.4" transform="translate(-304.639 -2798.772)" fill="#1c7d88"/>
            <path id="Path_194" data-name="Path 194" d="M602.711,3080.493a22.945,22.945,0,0,1-1.3,7.643H562.616c-.136-.107-.278-.214-.414-.322a23.06,23.06,0,0,1-1.187-7.321c0-12.13,9.352-22,20.847-22s20.847,9.868,20.847,22" transform="translate(-511.505 -2827.534)" fill="#ffdda5"/>
            <path id="Path_197" data-name="Path 197" d="M2866.049,1059.2l17.111,16.035,33.37,3.271.406,11.946-44.7,13.394-24.746-38.113" transform="translate(-2633.387 -979.56)" fill="#ffd8c8"/>
            <path id="Path_198" data-name="Path 198" d="M2870.265,1102.038a.159.159,0,0,1-.134-.073l-24.746-38.113a.16.16,0,1,1,.268-.174l24.681,38.012,44.47-13.324-.4-11.682-33.23-3.257a.16.16,0,0,1-.094-.042l-17.111-16.036a.16.16,0,0,1,.219-.234l17.071,16,33.316,3.265a.16.16,0,0,1,.145.154l.406,11.946a.16.16,0,0,1-.114.158l-44.7,13.394a.153.153,0,0,1-.046.007" transform="translate(-2631.419 -977.592)"/>
            <path id="Path_199" data-name="Path 199" d="M2863.242,913.281a96.265,96.265,0,0,1,18.743,9.815l-19.837,12.128Z" transform="translate(-2646.946 -844.612)" fill="#064f57"/>
            <path id="Path_200" data-name="Path 200" d="M2860.182,933.414a.16.16,0,0,1-.16-.168l1.094-21.943a.16.16,0,0,1,.072-.126.157.157,0,0,1,.144-.016,97.208,97.208,0,0,1,18.779,9.833.16.16,0,0,1-.009.268l-19.837,12.128a.159.159,0,0,1-.083.024m1.243-21.875-1.068,21.42,19.37-11.843a97,97,0,0,0-18.3-9.577" transform="translate(-2644.979 -842.642)"/>
            <path id="Path_201" data-name="Path 201" d="M2916.164,3051.569v11.354h-6.134v5.468H2895.6c-1.1-.235-1.924-1.617-2.7-2.53l.5-5.535.927-10.361.036-.409,1.183.11Z" transform="translate(-2675.383 -2820.262)" fill="#ffd8c8"/>
            <path id="Path_202" data-name="Path 202" d="M2922.257,3052.923v6.6l-22.772,2.153.927-10.361,1.219-.3Z" transform="translate(-2681.475 -2821.617)" fill="#002f35"/>
            <path id="Path_203" data-name="Path 203" d="M2910.04,3227.334v5.468h-14.428c-1.1-.234-1.925-1.617-2.7-2.53l15.3-.506Z" transform="translate(-2675.393 -2984.674)" fill="#002f35"/>
            <path id="Path_204" data-name="Path 204" d="M2892.323,3244h-40.656a1.269,1.269,0,0,1-1.271-1.271v-2.357a1.348,1.348,0,0,1,.234-.741c.6-.852,2.16-3.283,1.506-4.974-.814-2.074-1.432-4.58-.074-5.16.53-.234,1.024.173,1.53.778.778.914,1.6,2.3,2.7,2.53h14.428v-5.468h8.022v5.011l7.59,2.925a9.351,9.351,0,0,1,5.986,8.726" transform="translate(-2636.077 -2984.675)" fill="#fff"/>
            <path id="Path_205" data-name="Path 205" d="M2892.323,3305.631h-40.656a1.269,1.269,0,0,1-1.271-1.271v-1.543c8.433,1.211,20.686-6.628,20.686-6.628-.58-2.135,7.665-2.209,7.665-2.209l7.59,2.925a9.351,9.351,0,0,1,5.986,8.726" transform="translate(-2636.077 -3046.309)" fill="#f0bb62"/>
            <path id="Path_206" data-name="Path 206" d="M3274.459,3346.238a.24.24,0,0,1-.222-.147,3.575,3.575,0,0,1,.047-3.538c1.376-1.99,5.168-1.882,5.326-1.879a.24.24,0,0,1,.232.248.235.235,0,0,1-.248.232c-.035,0-3.69-.1-4.915,1.673a3.133,3.133,0,0,0,0,3.079.24.24,0,0,1-.222.333" transform="translate(-3027.646 -3089.49)" fill="#100000"/>
            <path id="Path_207" data-name="Path 207" d="M2889.371,3241.285h-40.656a1.513,1.513,0,0,1-1.511-1.512v-2.357a1.577,1.577,0,0,1,.275-.874c.507-.714,2.1-3.152,1.482-4.753-1.2-3.049-1.178-4.939.056-5.467.708-.313,1.312.251,1.809.844.167.2.337.415.512.639.6.771,1.279,1.644,2.057,1.811l14.138-.005v-5.228a.24.24,0,0,1,.24-.24h8.022a.24.24,0,0,1,.24.24v4.846l7.437,2.866a9.538,9.538,0,0,1,6.14,8.95.24.24,0,0,1-.24.24m-39.951-14.569a.518.518,0,0,0-.212.046c-1.271.543-.42,3.273.2,4.852.688,1.777-.843,4.229-1.533,5.2a1.1,1.1,0,0,0-.19.6v2.357a1.032,1.032,0,0,0,1.031,1.031h40.413a9.058,9.058,0,0,0-5.83-8.262l-7.59-2.925a.239.239,0,0,1-.154-.224v-4.771h-7.542v5.228a.24.24,0,0,1-.24.24h-14.428a4.685,4.685,0,0,1-2.386-1.99c-.17-.219-.336-.432-.5-.625-.437-.522-.756-.76-1.038-.76" transform="translate(-2633.125 -2981.722)" fill="#100000"/>
            <path id="Path_208" data-name="Path 208" d="M2889.372,3302.9h-40.656a1.513,1.513,0,0,1-1.511-1.511v-1.543a.24.24,0,0,1,.083-.181.251.251,0,0,1,.191-.056c7.779,1.114,19.028-5.666,20.387-6.508a.992.992,0,0,1,.21-.7c1.157-1.527,7.049-1.624,7.718-1.63a.159.159,0,0,1,.088.016l7.591,2.925a9.538,9.538,0,0,1,6.14,8.95.24.24,0,0,1-.24.24m-41.687-2.78v1.269a1.032,1.032,0,0,0,1.031,1.031h40.413a9.058,9.058,0,0,0-5.83-8.262l-7.547-2.909c-1.785.021-6.442.315-7.294,1.439a.5.5,0,0,0-.1.467.24.24,0,0,1-.1.265c-.466.3-10.723,6.793-18.927,6.794a13.85,13.85,0,0,1-1.648-.1" transform="translate(-2633.126 -3043.336)" fill="#100000"/>
            <path id="Path_209" data-name="Path 209" d="M2888.912,3408.8h-41.468a.24.24,0,0,1,0-.48h41.468a.24.24,0,1,1,0,.48" transform="translate(-2633.125 -3152.051)" fill="#100000"/>
            <path id="Path_210" data-name="Path 210" d="M3134.117,3324.365a.242.242,0,0,1-.074-.011l-11.556-3.71a.24.24,0,0,1,.147-.457l11.556,3.71a.24.24,0,0,1-.073.469" transform="translate(-2887.557 -3070.533)" fill="#100000"/>
            <path id="Path_211" data-name="Path 211" d="M2634.446,1791.493l1.711,9.04,17.04,90.061,5.133-.467,23.046-2.1-13.792-100.316c-2.9-.014-33.137,3.786-33.137,3.786" transform="translate(-2436.365 -1653.292)" fill="#f0bb62"/>
            <path id="Path_212" data-name="Path 212" d="M2657.216,1869.9l17.039,90.061,5.131-.471a65.569,65.569,0,0,0-.753-14.181q-3.561-28.2-7.116-56.4c-.534-4.227-1.062-8.523-.32-12.718.641-3.6,2-8.648,2.079-12.661a12.463,12.463,0,0,0-11.637,1.526,15.9,15.9,0,0,0-4.422,4.842" transform="translate(-2457.422 -1722.658)" fill="#ffdda5"/>
            <path id="Path_213" data-name="Path 213" d="M2662.938,1860.113a2.06,2.06,0,0,0,1.676.39,5.2,5.2,0,0,0,2.925-2.138,115.633,115.633,0,0,0,10.1-14.1,6.5,6.5,0,0,0-4.116-9.811q-.261-.05-.527-.081a4.581,4.581,0,0,0-3.824,1.055,6.14,6.14,0,0,0-1.269,2.682q-2.676,9.336-5.351,18.678c-.324,1.136-.617,2.5.386,3.331" transform="translate(-2462.075 -1696.401)" fill="#002f35"/>
            <path id="Path_214" data-name="Path 214" d="M2651.251,1888.777a.16.16,0,0,1-.157-.13l-18.749-99.1a.161.161,0,0,1,.028-.124.159.159,0,0,1,.109-.065c1.233-.155,30.178-3.787,33.142-3.787a.168.168,0,0,1,.173.138l13.79,100.318a.16.16,0,0,1-.144.181l-28.178,2.568h-.014m-18.56-99.123,18.69,98.79,27.866-2.54L2665.5,1785.893c-3.425.088-30.4,3.46-32.808,3.761" transform="translate(-2434.42 -1651.316)"/>
            <path id="Path_215" data-name="Path 215" d="M2477.24,3051.569v11.354h-6.134v5.468h-14.43c-1.1-.235-1.924-1.617-2.7-2.53l.5-5.535.927-10.361.036-.409,1.183.11Z" transform="translate(-2269.461 -2820.262)" fill="#ffd8c8"/>
            <path id="Path_216" data-name="Path 216" d="M2483.333,3052.923v6.6l-22.772,2.153.927-10.361,1.219-.3Z" transform="translate(-2275.554 -2821.617)" fill="#002f35"/>
            <path id="Path_217" data-name="Path 217" d="M2471.117,3227.334v5.468h-14.428c-1.1-.234-1.925-1.617-2.7-2.53l15.3-.506Z" transform="translate(-2269.472 -2984.674)" fill="#002f35"/>
            <path id="Path_218" data-name="Path 218" d="M2453.4,3244h-40.656a1.269,1.269,0,0,1-1.271-1.271v-2.357a1.346,1.346,0,0,1,.235-.741c.6-.852,2.16-3.283,1.506-4.974-.814-2.074-1.432-4.58-.074-5.16.531-.234,1.024.173,1.53.778.778.914,1.6,2.3,2.7,2.53H2431.8v-5.468h8.022v5.011l7.591,2.925A9.351,9.351,0,0,1,2453.4,3244" transform="translate(-2230.156 -2984.675)" fill="#fff"/>
            <path id="Path_219" data-name="Path 219" d="M2453.4,3305.631h-40.656a1.269,1.269,0,0,1-1.271-1.271v-1.543c8.433,1.211,20.686-6.628,20.686-6.628-.58-2.135,7.665-2.209,7.665-2.209l7.591,2.925a9.351,9.351,0,0,1,5.986,8.726" transform="translate(-2230.156 -3046.309)" fill="#f0bb62"/>
            <path id="Path_220" data-name="Path 220" d="M2450.447,3241.285h-40.656a1.513,1.513,0,0,1-1.511-1.512v-2.357a1.577,1.577,0,0,1,.275-.874c.507-.714,2.1-3.152,1.482-4.753-1.2-3.049-1.178-4.939.056-5.467.708-.313,1.312.251,1.809.844.167.2.337.415.512.639.6.771,1.279,1.644,2.057,1.811l14.138-.005v-5.228a.24.24,0,0,1,.24-.24h8.023a.24.24,0,0,1,.24.24v4.846l7.437,2.866a9.538,9.538,0,0,1,6.14,8.95.24.24,0,0,1-.24.24m-39.951-14.569a.518.518,0,0,0-.212.046c-1.271.543-.42,3.273.2,4.852.688,1.777-.843,4.229-1.533,5.2a1.1,1.1,0,0,0-.19.6v2.357a1.032,1.032,0,0,0,1.031,1.031H2450.2a9.058,9.058,0,0,0-5.83-8.262l-7.59-2.925a.239.239,0,0,1-.154-.224v-4.771h-7.542v5.228a.24.24,0,0,1-.24.24H2414.42a4.685,4.685,0,0,1-2.386-1.99c-.17-.219-.336-.432-.5-.625-.437-.522-.756-.76-1.038-.76" transform="translate(-2227.204 -2981.722)" fill="#100000"/>
            <path id="Path_221" data-name="Path 221" d="M2450.448,3302.9h-40.656a1.513,1.513,0,0,1-1.511-1.511v-1.543a.241.241,0,0,1,.083-.181.25.25,0,0,1,.191-.056c7.78,1.114,19.028-5.666,20.387-6.508a.994.994,0,0,1,.21-.7c1.157-1.527,7.049-1.624,7.718-1.63a.171.171,0,0,1,.088.016l7.59,2.925a9.538,9.538,0,0,1,6.14,8.95.24.24,0,0,1-.24.24m-41.687-2.78v1.269a1.032,1.032,0,0,0,1.031,1.031h40.413a9.058,9.058,0,0,0-5.83-8.262l-7.547-2.909c-1.785.021-6.442.315-7.294,1.439a.5.5,0,0,0-.1.467.24.24,0,0,1-.1.265c-.466.3-10.723,6.793-18.927,6.794a13.85,13.85,0,0,1-1.648-.1" transform="translate(-2227.205 -3043.336)" fill="#100000"/>
            <path id="Path_222" data-name="Path 222" d="M2449.988,3408.8H2408.52a.24.24,0,0,1,0-.48h41.468a.24.24,0,0,1,0,.48" transform="translate(-2227.204 -3152.051)" fill="#100000"/>
            <path id="Path_223" data-name="Path 223" d="M2834.8,3346.238a.241.241,0,0,1-.222-.147,3.574,3.574,0,0,1,.047-3.538c1.375-1.99,5.168-1.882,5.326-1.879a.24.24,0,0,1,.232.248.232.232,0,0,1-.248.232c-.036,0-3.69-.1-4.915,1.673a3.134,3.134,0,0,0,0,3.079.24.24,0,0,1-.221.333" transform="translate(-2621.044 -3089.49)" fill="#100000"/>
            <path id="Path_224" data-name="Path 224" d="M2695.193,3324.365a.24.24,0,0,1-.073-.011l-11.555-3.71a.24.24,0,1,1,.147-.457l11.555,3.71a.24.24,0,0,1-.073.469" transform="translate(-2481.635 -3070.533)" fill="#100000"/>
            <path id="Path_225" data-name="Path 225" d="M2447.406,1798.084l-2.508,99.4h27l-.167-90.2c4.5-3.667,6.586-6.709,7.106-12.122Z" transform="translate(-2261.068 -1660.182)" fill="#008dc4"/>
            <path id="Path_226" data-name="Path 226" d="M2471.913,1897.518l-.167-90.2c4.495-3.667,6.58-6.709,7.1-12.119l-7.953.735-5.313.495-17.46,1.628-.708.065-.009.573-1.345,53.282-.967,38.194-.185,7.352Z" transform="translate(-2261.079 -1660.215)" fill="#f0bb62"/>
            <path id="Path_227" data-name="Path 227" d="M2460.222,1861.015q2.566-15.315,5.128-30.629c.509-3.052,1.336-6.548,4.115-7.912,3.084-1.512,7.074.439,10.108-1.175,1.974-1.054,2.927-3.292,4.088-5.207,1.059-1.757,2.6-2.469,4-3.829,1.535-1.484.606-2.59-.425-4.138-.712-1.064-1.434-2.113-2.178-3.154l-5.313.495-17.46,1.628-.708.065-.009.573Z" transform="translate(-2275.24 -1669.258)" fill="#ffdda5"/>
            <path id="Path_228" data-name="Path 228" d="M2469.931,1895.681h-27a.16.16,0,0,1-.16-.164l2.508-99.4a.16.16,0,0,1,.146-.155l31.433-2.926a.166.166,0,0,1,.174.145.16.16,0,0,1-.145.174l-31.292,2.913-2.5,99.093h26.678l-.167-90.043a.162.162,0,0,1,.059-.125,21.324,21.324,0,0,0,5.009-5.365.16.16,0,1,1,.273.166,21.494,21.494,0,0,1-5.021,5.4l.167,90.127a.162.162,0,0,1-.047.114.16.16,0,0,1-.113.047" transform="translate(-2259.099 -1658.219)"/>
            <g id="Group_58" data-name="Group 58" transform="translate(200.477 207.042)" opacity="0.4">
              <g id="Group_57" data-name="Group 57">
                <g id="Group_56" data-name="Group 56" clip-path="url(#clip-path)">
                  <path id="Path_229" data-name="Path 229" d="M2667.6,2761.136a.823.823,0,0,0,.355-.656l.157-6.016a.824.824,0,1,0-1.647-.043l-.157,6.016a.824.824,0,0,0,1.292.7" transform="translate(-2666.31 -2753.618)" fill="#fff"/>
                </g>
              </g>
            </g>
            <g id="Group_61" data-name="Group 61" transform="translate(200.74 186.778)" opacity="0.4">
              <g id="Group_60" data-name="Group 60">
                <g id="Group_59" data-name="Group 59" clip-path="url(#clip-path-2)">
                  <path id="Path_230" data-name="Path 230" d="M2671.091,2501.849a.824.824,0,0,0,.355-.656l.423-16.23a.824.824,0,0,0-1.647-.043l-.423,16.23a.824.824,0,0,0,1.292.7" transform="translate(-2669.798 -2484.117)" fill="#fff"/>
                </g>
              </g>
            </g>
            <g id="Group_64" data-name="Group 64" transform="translate(232.623 208.901)" opacity="0.4">
              <g id="Group_63" data-name="Group 63">
                <g id="Group_62" data-name="Group 62" clip-path="url(#clip-path-3)">
                  <path id="Path_231" data-name="Path 231" d="M3095.609,2785.8a.822.822,0,0,0,.291-.687l-.417-6a.824.824,0,1,0-1.644.114l.417,6a.824.824,0,0,0,1.354.573" transform="translate(-3093.838 -2778.342)" fill="#fff"/>
                </g>
              </g>
            </g>
            <g id="Group_67" data-name="Group 67" transform="translate(231.219 188.679)" opacity="0.4">
              <g id="Group_66" data-name="Group 66">
                <g id="Group_65" data-name="Group 65" clip-path="url(#clip-path-4)">
                  <path id="Path_232" data-name="Path 232" d="M3077.649,2527.047a.823.823,0,0,0,.291-.687l-1.124-16.2a.824.824,0,0,0-1.644.114l1.124,16.2a.824.824,0,0,0,1.353.573" transform="translate(-3075.17 -2509.396)" fill="#fff"/>
                </g>
              </g>
            </g>
            <path id="Path_233" data-name="Path 233" d="M2454.938,954.663c-1.281,2.189-45.3,6.811-50.076,2.56-1.621-6.943-4.255-60.829,2.467-69.632,6.578-8.616,29.786-7.031,37.851.207,8.2,7.355,11.324,53.663,9.758,66.865" transform="translate(-2222.289 -815.434)" fill="#1c7d88"/>
            <path id="Path_234" data-name="Path 234" d="M2414.8,957.3c-6.15,0-11.015-.492-12.474-1.792a.162.162,0,0,1-.05-.083c-1.71-7.328-4.286-60.882,2.5-69.766,5.6-7.334,23.7-7.479,34.034-2.449a.16.16,0,0,1-.14.288c-10.234-4.978-28.125-4.868-33.64,2.356-6.516,8.535-4.125,62.068-2.449,69.449,3.693,3.117,29.688,1.272,42.688-.784,5.948-.94,6.932-1.551,7.09-1.747,1.28-10.908-.657-44.789-6.043-60.066a.16.16,0,1,1,.3-.106c5.406,15.332,7.346,49.357,6.054,60.248a.161.161,0,0,1-.021.062c-.327.56-2.795,1.207-7.333,1.925A225.693,225.693,0,0,1,2414.8,957.3m37.709-4.471h0Z" transform="translate(-2219.858 -813.601)"/>
            <path id="Path_235" data-name="Path 235" d="M2493.979,1193.125a24.29,24.29,0,0,0,13.735,13.974,8.671,8.671,0,0,0,3.881.747,3.855,3.855,0,0,0,3.2-2.066,4.1,4.1,0,0,0-.321-3.5,10.214,10.214,0,0,0-4.126-3.869c-1.658-.955-3.429-1.708-5.012-2.782a8.131,8.131,0,0,1-3.486-4.4,9.129,9.129,0,0,1,.484-5.213,33.791,33.791,0,0,0,1.608-5.056,6.037,6.037,0,0,0-1.093-5.018l-.54.879a32.461,32.461,0,0,0-5.451,3.573,11.031,11.031,0,0,0-3.6,5.338,12.313,12.313,0,0,0,.716,7.386" transform="translate(-2305.52 -1087.53)" fill="#002f35"/>
            <path id="Path_236" data-name="Path 236" d="M2851.3,1548.365s5.613-4.1,4.922-5.448-5.149.986-8.731-.747" transform="translate(-2633.386 -1426.217)" fill="#ffd8c8"/>
            <path id="Path_237" data-name="Path 237" d="M2849.9,1545.922a.16.16,0,0,1-.091-.292c1.9-1.311,4.756-3.722,4.3-4.613-.258-.506-1.3-.375-2.616-.208-1.7.214-4.022.51-6.042-.468a.16.16,0,1,1,.139-.288c1.935.936,4.114.66,5.862.438,1.5-.19,2.582-.327,2.942.38.733,1.432-3.875,4.659-4.4,5.022a.161.161,0,0,1-.091.028" transform="translate(-2631.418 -1424.244)"/>
            <rect id="Rectangle_36" data-name="Rectangle 36" width="55.365" height="53.717" transform="translate(229.416 84.471)" fill="#f0bb62"/>
            <g id="Group_70" data-name="Group 70" transform="translate(274.225 90.721)" opacity="0.3">
              <g id="Group_69" data-name="Group 69">
                <g id="Group_68" data-name="Group 68" clip-path="url(#clip-path-5)">
                  <path id="Path_238" data-name="Path 238" d="M3647.15,1220.742a7.962,7.962,0,0,0,.468,3.569,2.818,2.818,0,0,0,2.877,1.755c1.581-.307,2.212-2.214,2.386-3.816a25.115,25.115,0,0,0-.37-7.719c-.455-2.231-1.179-5.576-2.739-7.325-2.259-2.533-2.014,3.238-2.122,4.505q-.382,4.507-.5,9.031" transform="translate(-3647.138 -1206.57)" fill="#ffdda5"/>
                </g>
              </g>
            </g>
            <rect id="Rectangle_38" data-name="Rectangle 38" width="11.95" height="53.722" transform="translate(217.463 84.465)" fill="#ffdda5"/>
            <path id="Path_239" data-name="Path 239" d="M3104.591,1175.35h-55.365a.16.16,0,0,1-.16-.16v-53.717a.16.16,0,0,1,.16-.16h55.365a.16.16,0,0,1,.16.16v53.717a.16.16,0,0,1-.16.16m-55.205-.32h55.045v-53.4h-55.045Z" transform="translate(-2819.81 -1037.003)"/>
            <path id="Path_240" data-name="Path 240" d="M2902.2,1175.285h-11.95a.16.16,0,0,1-.16-.16V1121.4a.16.16,0,0,1,.16-.16h11.95a.16.16,0,0,1,.16.16v53.723a.16.16,0,0,1-.16.16m-11.79-.32h11.63v-53.4h-11.63Z" transform="translate(-2672.788 -1036.937)"/>
            <rect id="Rectangle_39" data-name="Rectangle 39" width="3.705" height="10.541" transform="translate(221.898 84.459)" fill="#002f35"/>
            <path id="Path_241" data-name="Path 241" d="M2256.386,1241.544c2.073,3.542,7.957,6.042,14.049,7.738a112.326,112.326,0,0,0,16.9,3.14c1.055,1.049,9.8,6.293,14.847,7.021,1.922.289,2.4-.772,2.4-.772,2.091.9,3.1-1.331,3.121-1.388a1.81,1.81,0,0,0,2.349-1.451.7.7,0,0,1,.119.013,1.6,1.6,0,0,0,1.853-.823,1.811,1.811,0,0,0-.992-2.412c-5.307-2.248-8.792-8.918-8.792-8.918l-2.129-2.745a6.581,6.581,0,0,0-4.271-.145l-17.729-9.86.691-5.163,1.118-8.334.132-.986-1.7.226-18.986,2.537s-5.815,17.466-2.977,22.321" transform="translate(-2086.009 -1124.995)" fill="#ffd8c8"/>
            <path id="Path_242" data-name="Path 242" d="M2256.386,1244.324c2.073,3.542,7.957,6.042,14.049,7.737-.866-.86-1.878-1.564-2.813-2.349a23.03,23.03,0,0,1-8.183-18.628c.069-1.35.4-2.9,1.6-3.523,1.256-.641,2.745.075,4.044.641a18.134,18.134,0,0,0,7.235,1.469,25.288,25.288,0,0,0,6.274-1.068,1.179,1.179,0,0,1,.214-.044l1.118-8.334c-.308-.163-.622-.314-.923-.458-.213-.1-.427-.2-.647-.3L2259.363,1222s-5.815,17.466-2.977,22.321" transform="translate(-2086.009 -1127.775)" fill="#ff8e7b"/>
            <path id="Path_243" data-name="Path 243" d="M2300.8,1257.677a4.412,4.412,0,0,1-.658-.052c-4.985-.72-13.6-5.822-14.894-7.026-1.677-.166-26.21-2.734-31.017-10.95-2.843-4.862,2.725-21.736,2.963-22.452a.16.16,0,0,1,.131-.108l20.688-2.763a.154.154,0,0,1,.135.045.159.159,0,0,1,.045.134l-1.926,14.374,17.579,9.776a7,7,0,0,1,4.1.074.16.16,0,0,1-.12.3,6.747,6.747,0,0,0-3.96-.045.16.16,0,0,1-.117-.015l-17.73-9.86a.159.159,0,0,1-.081-.161l1.913-14.275-20.381,2.722c-.454,1.394-5.622,17.54-2.959,22.095,4.79,8.188,30.567,10.774,30.827,10.8a.163.163,0,0,1,.1.046c1.118,1.111,9.771,6.256,14.757,6.976,1.765.266,2.212-.642,2.231-.681a.159.159,0,0,1,.208-.08c1.942.833,2.873-1.218,2.912-1.306a.162.162,0,0,1,.185-.091,1.732,1.732,0,0,0,1.4-.15,1.956,1.956,0,0,0,.748-1.174.16.16,0,0,1,.157-.132.87.87,0,0,1,.146.015,1.457,1.457,0,0,0,1.682-.734.16.16,0,1,1,.289.138,1.758,1.758,0,0,1-1.993.916,2.188,2.188,0,0,1-.852,1.239,1.981,1.981,0,0,1-1.53.223,2.5,2.5,0,0,1-3.144,1.4,2.09,2.09,0,0,1-1.831.784" transform="translate(-2083.995 -1123.02)"/>
            <path id="Path_244" data-name="Path 244" d="M2793,1535.068a.159.159,0,0,1-.069-.016,6.531,6.531,0,0,0-4.165-.135.16.16,0,1,1-.079-.31,6.839,6.839,0,0,1,4.381.156.16.16,0,0,1-.069.3" transform="translate(-2578.899 -1418.954)"/>
            <path id="Path_245" data-name="Path 245" d="M2928.982,1710a.164.164,0,0,1-.077-.019c-.023-.013-2.333-1.272-3.973-2.3a.16.16,0,1,1,.17-.271c1.633,1.026,3.934,2.28,3.957,2.293a.16.16,0,0,1-.077.3" transform="translate(-2704.94 -1579.009)"/>
            <path id="Path_246" data-name="Path 246" d="M2902.458,1729.013a.158.158,0,0,1-.078-.02,30.273,30.273,0,0,1-3.6-2.345.16.16,0,0,1,.2-.248,29.857,29.857,0,0,0,3.553,2.314.16.16,0,0,1-.077.3" transform="translate(-2680.769 -1596.56)"/>
            <path id="Path_247" data-name="Path 247" d="M2877.662,1753.837a.157.157,0,0,1-.1-.032c-.012-.009-1.214-.907-2.239-1.816a.16.16,0,0,1,.213-.24c1.014.9,2.206,1.79,2.218,1.8a.16.16,0,0,1-.1.289" transform="translate(-2659.085 -1620)"/>
            <path id="Path_248" data-name="Path 248" d="M2283.736,946.511c-.327,1.083-.552,1.755-.552,1.755-2.76,1.547-18.241.331-25.013-2.225,2.633-11.848,8.093-18.785,12.5-22.637a23.608,23.608,0,0,1,6.632-4.293s8.244,9.447,8.907,13.422c.556,3.321-1.461,10.624-2.477,13.978" transform="translate(-2088.381 -850.005)" fill="#064f57"/>
            <path id="Path_249" data-name="Path 249" d="M2283.736,999.313c-.327,1.083-.552,1.755-.552,1.755-2.76,1.547-18.241.331-25.013-2.224,2.633-11.848,8.093-18.785,12.5-22.637a3.963,3.963,0,0,1,1.614,4.128c-.745,3.188-2.7,5.951-2.249,9.375a7.637,7.637,0,0,0,5.382,6.208,36.379,36.379,0,0,0,4.19.593,5.474,5.474,0,0,1,3.666,1.893,3.253,3.253,0,0,1,.46.91" transform="translate(-2088.381 -902.807)" fill="#1c7d88"/>
            <path id="Path_250" data-name="Path 250" d="M2275.838,947.1c-6.033,0-15.138-1.2-19.7-2.92a.16.16,0,0,1-.1-.184c4.79-21.545,19.1-26.994,19.239-27.046a.16.16,0,0,1,.11.3c-.142.052-14.227,5.429-19.006,26.679,6.949,2.57,21.933,3.64,24.691,2.217a85.92,85.92,0,0,0,2.731-10.63.163.163,0,0,1,.184-.131.16.16,0,0,1,.131.184,86.885,86.885,0,0,1-2.763,10.738.159.159,0,0,1-.073.089c-.867.487-2.88.7-5.449.7" transform="translate(-2086.41 -847.998)"/>
            <path id="Path_251" data-name="Path 251" d="M2625.716,1497.841l6.083,3.487a.707.707,0,0,1-.713,1.22l-6.083-3.487a.707.707,0,0,1,.713-1.22" transform="translate(-2427.314 -1385.128)" fill="#fff"/>
            <path id="Path_252" data-name="Path 252" d="M2570.218,1466.027l1.749,1a.707.707,0,0,1-.713,1.22l-1.749-1a.707.707,0,0,1,.713-1.22" transform="translate(-2375.989 -1355.706)" fill="#fff"/>
            <g id="Group_73" data-name="Group 73" transform="translate(187.395 79.909)" opacity="0.3">
              <g id="Group_72" data-name="Group 72">
                <g id="Group_71" data-name="Group 71" clip-path="url(#clip-path-6)">
                  <path id="Path_253" data-name="Path 253" d="M2496.394,1069.119a3.855,3.855,0,0,1-.586,1.184,1.421,1.421,0,0,1-2.309.078,3.629,3.629,0,0,1-.656-1.173,6.654,6.654,0,0,1-.484-3.2c.21-1.614,2.1-4.1,3.97-2.91,1.688,1.077.552,4.595.065,6.022" transform="translate(-2492.318 -1062.784)" fill="#fff"/>
                </g>
              </g>
            </g>
            <path id="Path_254" data-name="Path 254" d="M2582.979,701.925v15.217c0,1.061,1.57,1.777,3.68,2.135.433.075.885.132,1.357.176,4.189.4,9.471-.371,9.471-2.311v-10.8l-12.963-3.743-.854-.251-.195-.056-.352-.1c-.05-.088-.094-.176-.145-.264" transform="translate(-2388.767 -649.148)" fill="#ffd8c8"/>
            <path id="Path_255" data-name="Path 255" d="M2582.979,714.518c0,1.061,1.57,1.777,3.68,2.135.433.075.885.132,1.357.176-.615-.528-1.238-1.043-1.8-1.627a6.308,6.308,0,0,1-1.658-4.107q-.028-2.826-.057-5.652a16.388,16.388,0,0,0-.584-5.074c-.031-.1-.069-.2-.107-.3v-.006q-.2-.226-.339-.4c-.308-.364-.471-.578-.471-.578Z" transform="translate(-2388.767 -646.523)" fill="#ff8e7b"/>
            <path id="Path_256" data-name="Path 256" d="M2688.6,777.255c-.075.867,1.08,1.193,1.7,1.47.546.239,1.1.459,1.639.716a5.765,5.765,0,0,1,3.033,2.694c.069.163.132.333.188.5v-4.183a33.546,33.546,0,0,0-4.553-1.74c-.622-.188-1.935-.44-2.01.546" transform="translate(-2486.442 -718.147)"/>
            <path id="Path_257" data-name="Path 257" d="M2588.253,706.24a18.556,18.556,0,0,1-5.034-.61c-1.558-.461-2.382-1.141-2.382-1.965V688.45a.16.16,0,1,1,.32,0v15.215c0,1.48,3.57,2.255,7.1,2.255s7.1-.775,7.1-2.255V692.974l-14.077-5.313a.16.16,0,1,1,.113-.3l14.181,5.352a.16.16,0,0,1,.1.15v10.8c0,1.779-3.724,2.575-7.416,2.575" transform="translate(-2386.786 -635.67)" fill="#19040f"/>
            <path id="Path_258" data-name="Path 258" d="M2507.368,408.88a8.7,8.7,0,0,1-2.516.8c-3.681.583-7.24-1.351-9.91-3.463a29.559,29.559,0,0,1-3.758-3.578v-.006c-.134-.147-.25-.282-.339-.391-.307-.365-.474-.583-.474-.583s-8.009.256-7.535-5.576c.269-3.534,5.576-1.8,5.576-1.8l2.823-10.8,1.568-6s12.272,1.613,15.377,4.116l.006.006a18.192,18.192,0,0,1,1.812,4.18,46.552,46.552,0,0,1,2.215,9.282v.006c.678,5.646-.058,11.44-4.846,13.808" transform="translate(-2296.135 -349.098)" fill="#ffd8c8"/>
            <path id="Path_259" data-name="Path 259" d="M2490.37,444.141s.163.213.471.578q.141.17.339.4c-.05-.113-.094-.226-.144-.339a5.3,5.3,0,0,0-3.078-3.008,15.171,15.171,0,0,1-2.4-.653c-.735-.383-1.46-2.015-.958-2.675a3.083,3.083,0,0,1,2.125-.484,2.75,2.75,0,0,1,1.218.779c.628.628.51,2.11,1.182,2.7s2.9-.055,2.984-1.186a45.849,45.849,0,0,1,1.173-8.228,5.516,5.516,0,0,1,3.523-3.806c1.652-.509,3.429-.075,5.144.188a24.366,24.366,0,0,0,8.045-.138,18.434,18.434,0,0,0-1.809-4.183l-.006-.006c-.333-.088-.672-.163-1.011-.226a26.12,26.12,0,0,0-15.94,2.117l-2.82,10.8s-5.307-1.733-5.577,1.8c-.471,5.828,7.536,5.577,7.536,5.577" transform="translate(-2296.133 -391.577)" fill="#ff8e7b"/>
            <path id="Path_260" data-name="Path 260" d="M2501.509,408.013a12.035,12.035,0,0,1-5.814-1.685.16.16,0,0,1,.155-.28c3.432,1.9,6.611,2.155,9.448.75,2.766-1.369,4.4-4.034,4.85-7.921.958-8.236-3.6-18.716-4.054-19.089-2.847-2.3-13.8-3.876-15.165-4.065l-4.357,16.661a.157.157,0,0,1-.078.1.162.162,0,0,1-.126.012c-.03-.01-3-.964-4.512.045a2.014,2.014,0,0,0-.858,1.615,4.19,4.19,0,0,0,1.085,3.371c2.04,2.142,6.249,2.04,6.292,2.038h0a.16.16,0,0,1,.005.32c-.177.006-4.393.111-6.534-2.136a4.5,4.5,0,0,1-1.173-3.618,2.316,2.316,0,0,1,1-1.856c1.442-.963,3.959-.327,4.626-.133l4.351-16.637a.156.156,0,0,1,.176-.118c.5.066,12.371,1.65,15.464,4.153.653.531,5.084,11.22,4.178,19.3-.453,4.04-2.147,6.814-5.034,8.243a8.759,8.759,0,0,1-3.931.928" transform="translate(-2294.14 -347.16)"/>
            <path id="Path_261" data-name="Path 261" d="M2471.919,374.748s-8.008.25-7.542-5.581c.272-3.536,5.58-1.8,5.58-1.8s1.007,4.844,2.379,4.317,1.106-9.983,1.106-9.983,2.693-1.448,2.678-4.087c0,0,15.923,3.884,17.534-4.085,1.163-5.754-21.461-6.888-27.051-2.386-2.734,2.2-4.138,12.6-3.646,16.156.026.187,1.17,9.338,8.963,7.449" transform="translate(-2277.679 -322.183)"/>
            <path id="Path_262" data-name="Path 262" d="M2467.882,372.846a5.974,5.974,0,0,1-3.448-1.028c-2.936-2.007-3.592-6.322-3.657-6.807-.518-3.752.935-14.081,3.7-16.311,4.765-3.837,20.391-3.566,25.554-.428,1.391.846,1.981,1.845,1.754,2.97a5.371,5.371,0,0,1-2.49,3.574c-4.58,2.91-13.567,1.018-15.044.68a5.274,5.274,0,0,1-2.672,3.978c.035,1.346.191,9.518-1.212,10.042a.747.747,0,0,1-.646-.053c-1.066-.583-1.8-3.7-1.926-4.289-.5-.149-3.062-.84-4.425.072a2.012,2.012,0,0,0-.858,1.615,4.19,4.19,0,0,0,1.085,3.371c2.04,2.142,6.25,2.04,6.292,2.038a.175.175,0,0,1,.163.138.16.16,0,0,1-.121.177,8.718,8.718,0,0,1-2.053.261m-4.262-2.148a5.707,5.707,0,0,0,4.723,1.813,8.622,8.622,0,0,1-4.723-1.813m13.666-24.467c-5.156,0-10.291.855-12.6,2.719-2.6,2.093-4.1,12.3-3.588,16.009a12.574,12.574,0,0,0,1.494,4.352,4.887,4.887,0,0,1-.391-2.475,2.315,2.315,0,0,1,1-1.856c1.638-1.094,4.661-.125,4.789-.083a.16.16,0,0,1,.107.12c.208,1,.935,3.7,1.786,4.166a.43.43,0,0,0,.379.034c.926-.346,1.107-6.213,1-9.83a.161.161,0,0,1,.084-.146c.026-.014,2.608-1.436,2.594-3.945a.16.16,0,0,1,.2-.156c.1.024,10.213,2.441,14.991-.594a5.061,5.061,0,0,0,2.347-3.367c.2-.979-.342-1.865-1.606-2.633-2.459-1.495-7.531-2.315-12.583-2.315" transform="translate(-2275.657 -319.865)"/>
            <path id="Path_263" data-name="Path 263" d="M2765.68,538.892c-.12,0-.239,0-.357-.006a.16.16,0,0,1-.156-.164.17.17,0,0,1,.164-.156,3.986,3.986,0,0,0,1.191-.089,1.238,1.238,0,0,0,.832-.664,2.054,2.054,0,0,0-.23-1.482,26.707,26.707,0,0,1-1.931-8.208.16.16,0,0,1,.148-.171.168.168,0,0,1,.171.148,26.385,26.385,0,0,0,1.908,8.11,2.317,2.317,0,0,1,.231,1.724,1.537,1.537,0,0,1-1.041.851,3.351,3.351,0,0,1-.929.107" transform="translate(-2557.257 -488.255)"/>
            <path id="Path_264" data-name="Path 264" d="M2684.838,571.78a1.336,1.336,0,1,0,1.024-1.588,1.336,1.336,0,0,0-1.024,1.588" transform="translate(-2482.939 -527.291)"/>
            <path id="Path_265" data-name="Path 265" d="M2667.594,539.144a.725.725,0,0,0,.893.393,9.509,9.509,0,0,1,1.877-.406.726.726,0,0,0,.651-.727.617.617,0,0,0-.24-.464.77.77,0,0,0-.561-.152,10.87,10.87,0,0,0-2.144.464.686.686,0,0,0-.475.892" transform="translate(-2466.977 -497.348)"/>
            <path id="Path_266" data-name="Path 266" d="M2799.594,546.973a1.336,1.336,0,1,0,1.024-1.588,1.336,1.336,0,0,0-1.024,1.588" transform="translate(-2589.067 -504.35)"/>
            <path id="Path_267" data-name="Path 267" d="M2782.349,514.338a.726.726,0,0,0,.893.393,9.511,9.511,0,0,1,1.877-.406.726.726,0,0,0,.651-.727.617.617,0,0,0-.24-.464.769.769,0,0,0-.561-.152,10.876,10.876,0,0,0-2.144.464.687.687,0,0,0-.475.892" transform="translate(-2573.104 -474.407)"/>
            <path id="Path_269" data-name="Path 269" d="M3694.158,1352.349c4.478-2.075,3.91-11.736.517-14.779-2.1-1.884-7.2-1.372-8.3,1.474-.822,2.127,4.552,2.04,4.552,2.04s-4.313.208-3.8,2.074c.332,1.233,2.3,1.731,2.9,1.8-.606.047-3.065.26-2.814,1.864.4,2.553,3.195,1.72,3.465,1.552-.332.287-2.281,2.041-.752,3.5,1.666,1.6,4.239.474,4.239.474" transform="translate(-3409.117 -1235.969)" fill="#ffd8c8"/>
            <path id="Path_270" data-name="Path 270" d="M3690.24,1350.932a3.374,3.374,0,0,1-2.406-.908,1.83,1.83,0,0,1-.627-1.4,3.087,3.087,0,0,1,.9-1.873,3.119,3.119,0,0,1-1.852-.143,2.12,2.12,0,0,1-1.186-1.732,1.315,1.315,0,0,1,.26-1.061,2.914,2.914,0,0,1,1.8-.873c-.828-.26-1.9-.787-2.146-1.711a1.126,1.126,0,0,1,.173-1,3.618,3.618,0,0,1,2.086-1.04c-1.108-.122-2.433-.412-2.909-1.1a1.094,1.094,0,0,1-.094-1.075c.717-1.844,3-2.68,4.948-2.691h0a.16.16,0,0,1,0,.32c-1.837.01-3.988.784-4.651,2.487a.782.782,0,0,0,.058.776c.632.9,3.345,1.059,4.342,1.045h0a.16.16,0,0,1,.008.32c-.028,0-2.812.148-3.533,1.142a.81.81,0,0,0-.123.731c.313,1.166,2.291,1.628,2.763,1.68a.16.16,0,0,1,0,.318c-1.575.124-2.214.54-2.472.868a.993.993,0,0,0-.2.812,1.819,1.819,0,0,0,1,1.491,3.1,3.1,0,0,0,2.219-.049.16.16,0,0,1,.189.257,3.454,3.454,0,0,0-1.274,2.107,1.524,1.524,0,0,0,.529,1.16c1.568,1.5,4.04.453,4.064.443a5.272,5.272,0,0,0,2.635-3.418,13.324,13.324,0,0,0-1.056-9.708.16.16,0,0,1,.275-.163,13.471,13.471,0,0,1,1.086,9.967,5.579,5.579,0,0,1-2.809,3.615,5.5,5.5,0,0,1-2.011.4" transform="translate(-3407.143 -1234.002)"/>
            <path id="Path_271" data-name="Path 271" d="M3742.647,1487.22a.16.16,0,0,1-.027-.318l2.718-.48a.16.16,0,1,1,.056.315l-2.718.48a.145.145,0,0,1-.028,0" transform="translate(-3461.093 -1374.657)"/>
            <path id="Path_272" data-name="Path 272" d="M3733.983,1444.426a.16.16,0,0,1-.013-.319l3.144-.266a.162.162,0,0,1,.173.146.16.16,0,0,1-.146.173l-3.144.266h-.014" transform="translate(-3453.081 -1335.279)"/>
            <path id="Path_273" data-name="Path 273" d="M3747.905,1396.291h-.007l-1.922-.081a.161.161,0,0,1-.153-.167.155.155,0,0,1,.167-.153l1.922.081a.16.16,0,0,1-.007.32" transform="translate(-3464.178 -1290.934)"/>
            <path id="Path_274" data-name="Path 274" d="M3440.831,1281.192l-.732,18.833a2.25,2.25,0,1,0,4.5.089v-.089l-.732-18.833c2.313-.721,4-3.1,4-6.407,0-4.011-2.469-9.064-5.514-9.064s-5.52,5.054-5.52,9.064c0,3.312,1.687,5.686,4,6.407" transform="translate(-3178.419 -1170.552)" fill="#fff"/>
            <path id="Path_275" data-name="Path 275" d="M3224.634,1253.054l.51,10.213a5.445,5.445,0,0,0,3.9,4.948l-.721,19.255a2.25,2.25,0,1,0,4.5.089v-.089l-.721-19.266a5.609,5.609,0,0,0,3.911-5.115l.5-10.035a.87.87,0,0,0-.865-.91h-.105a.867.867,0,0,0-.866.865v7.539a.79.79,0,0,1-1.581,0v-7.539a.865.865,0,1,0-1.731,0v7.539a.791.791,0,0,1-.788.788h-.006a.791.791,0,0,1-.788-.788v-7.539a.865.865,0,1,0-1.731,0v7.539a.791.791,0,0,1-1.581,0v-7.539a.866.866,0,0,0-.865-.865h-.105a.87.87,0,0,0-.865.91" transform="translate(-2982.176 -1157.997)" fill="#fff"/>
            <path id="Path_280" data-name="Path 280" d="M2585.6,702.652a.163.163,0,0,1-.081-.022c-4.254-2.494-4.656-4.515-4.671-4.6a.16.16,0,0,1,.315-.057c.005.028.424,1.98,4.518,4.38a.16.16,0,0,1-.081.3" transform="translate(-2386.799 -645.372)"/>
            <path id="Path_283" data-name="Path 283" d="M2720.438,728.041a19.507,19.507,0,0,1-3.838-.376.16.16,0,1,1,.063-.314,19.486,19.486,0,0,0,8.9-.314.16.16,0,0,1,.086.308,19.56,19.56,0,0,1-5.208.7" transform="translate(-2512.223 -672.367)"/>
            <path id="Path_284" data-name="Path 284" d="M2479.548,284.685a67.959,67.959,0,0,0-27.374,9.845c-1.725,1.07-3.4,2.231-5.049,3.45-3.393-8.983-.713-18.69,9.88-23.244a16.324,16.324,0,0,1,12.8-.012c.437.184.851.38,1.265.6.2.092.38.2.564.3a17.83,17.83,0,0,1,7.913,9.063" transform="translate(-2261.849 -252.865)" fill="#ffdda5"/>
            <path id="Path_285" data-name="Path 285" d="M2469.807,274.724a27.414,27.414,0,0,0-9.144.092,12.366,12.366,0,0,0-7.9,5.026,14.442,14.442,0,0,0-1.932,7.867,14.639,14.639,0,0,0,1.345,6.82c-1.725,1.07-3.4,2.231-5.049,3.45-3.393-8.983-.713-18.69,9.88-23.244a16.324,16.324,0,0,1,12.8-.012" transform="translate(-2261.849 -252.864)" fill="#f0bb62"/>
            <path id="Path_286" data-name="Path 286" d="M2444.814,296.132a.156.156,0,0,1-.045-.007.159.159,0,0,1-.1-.1c-3.783-10.015.129-19.218,9.966-23.448a16.442,16.442,0,0,1,12.926-.012c.444.187.862.384,1.278.6.192.09.38.2.568.3a18.013,18.013,0,0,1,7.983,9.144.161.161,0,0,1-.128.217,67.96,67.96,0,0,0-27.309,9.822c-1.616,1-3.264,2.128-5.039,3.443a.159.159,0,0,1-.1.032m16.248-24.561a15.893,15.893,0,0,0-6.3,1.3c-9.6,4.129-13.458,13.079-9.868,22.842,1.717-1.267,3.318-2.357,4.889-3.331a68.267,68.267,0,0,1,27.233-9.841,17.691,17.691,0,0,0-7.766-8.792c-.181-.1-.362-.2-.554-.294-.415-.219-.825-.413-1.259-.6a16.561,16.561,0,0,0-6.371-1.292" transform="translate(-2259.537 -250.856)"/>
            <path id="Path_287" data-name="Path 287" d="M2783.189,298.988c-.012.011-.023.034-.035.046l-.529-.345c.2.092.38.2.564.3" transform="translate(-2573.402 -276.231)" fill="#4776f8"/>
            <path id="Path_288" data-name="Path 288" d="M2650.336,393.759s4.135-8.059,17.022-7.923c0,0,9.445,1.817,11.447,3.017,0,0-5.713-.188-8.245,1.6-3.682,2.6-6.128,4.371-12.047,4.162a71.511,71.511,0,0,1-8.177-.858" transform="translate(-2451.06 -356.824)" fill="#ffdda5"/>
            <path id="Path_289" data-name="Path 289" d="M2657.479,392.822q-.456,0-.942-.017a72.236,72.236,0,0,1-8.2-.86.16.16,0,0,1-.131-.185.162.162,0,0,1,.185-.131,71.83,71.83,0,0,0,8.156.855c5.816.209,8.212-1.492,11.848-4.062l.1-.071c2.036-1.439,6-1.624,7.625-1.636-2.812-1.157-10.678-2.678-10.765-2.694a25.646,25.646,0,0,0-6.111.637.159.159,0,0,1-.192-.12.16.16,0,0,1,.12-.192,26.059,26.059,0,0,1,6.216-.642c.416.077,9.524,1.839,11.527,3.04a.16.16,0,0,1,.071.183.149.149,0,0,1-.159.115c-.056,0-5.688-.166-8.147,1.571l-.1.071c-3.487,2.464-5.855,4.137-11.1,4.137" transform="translate(-2449.089 -354.852)"/>
            <g id="Group_76" data-name="Group 76" transform="translate(194.292 25.994)" opacity="0.3">
              <g id="Group_75" data-name="Group 75">
                <g id="Group_74" data-name="Group 74" clip-path="url(#clip-path-7)">
                  <path id="Path_290" data-name="Path 290" d="M2584.138,349.82a1.8,1.8,0,0,0,.364,1.823,1.951,1.951,0,0,0,2.155-.173,8.506,8.506,0,0,0,3.108-3.157,2.4,2.4,0,0,0,.4-1.458c-.268-1.978-2.354-.89-3.349-.35a5.219,5.219,0,0,0-2.677,3.315" transform="translate(-2584.052 -345.717)" fill="#fff"/>
                </g>
              </g>
            </g>
            <path id="Path_291" data-name="Path 291" d="M456.3,2772.017c0,14.906-10.059,26.977-22.476,26.977s-22.5-12.071-22.5-26.977,10.08-26.977,22.5-26.977,22.476,12.071,22.476,26.977" transform="translate(-380.396 -2538.643)" fill="#002f35"/>
            <path id="Path_292" data-name="Path 292" d="M515.842,2883.806c0,9.884-5.647,17.888-12.618,17.888s-12.63-8-12.63-17.888,5.659-17.888,12.63-17.888,12.618,8,12.618,17.888" transform="translate(-453.707 -2650.432)" fill="#fff"/>
            <path id="Path_293" data-name="Path 293" d="M507.984,2900.327a9.385,9.385,0,0,1-4.863,1.384c-6.957,0-12.63-8-12.63-17.9,0-9.878,5.674-17.882,12.63-17.882a11.543,11.543,0,0,1,1.52.118c-4.559,2.7-7.767,9.084-7.767,16.514,0,9.169,4.863,16.7,11.111,17.764" transform="translate(-453.611 -2650.444)" fill="#ecf2fb"/>
            <path id="Path_294" data-name="Path 294" d="M432.838,2798.089c-12.45,0-22.578-12.138-22.578-27.057s10.128-27.057,22.578-27.057,22.556,12.138,22.556,27.057-10.119,27.057-22.556,27.057m0-53.954c-12.361,0-22.418,12.065-22.418,26.9s10.057,26.9,22.418,26.9,22.4-12.066,22.4-26.9-10.047-26.9-22.4-26.9" transform="translate(-379.413 -2537.658)" fill="#000712"/>
            <path id="Path_295" data-name="Path 295" d="M502.238,2900.792c-7.008,0-12.71-8.061-12.71-17.968s5.7-17.968,12.71-17.968,12.7,8.06,12.7,17.968-5.7,17.968-12.7,17.968m0-35.776c-6.92,0-12.55,7.988-12.55,17.807s5.63,17.808,12.55,17.808,12.538-7.989,12.538-17.808-5.625-17.807-12.538-17.807" transform="translate(-452.721 -2649.45)" fill="#000712"/>
            <path id="Path_296" data-name="Path 296" d="M840.761,2905.655l-4.313,16.146a8.289,8.289,0,0,1-7.991,6.136H805.328a8.255,8.255,0,0,1-7.975-6.136l-4.313-16.146Z" transform="translate(-733.412 -2687.182)" fill="#5d7a95"/>
            <path id="Path_297" data-name="Path 297" d="M827.473,2927.033H804.344a8.343,8.343,0,0,1-8.052-6.2l-4.313-16.146a.08.08,0,0,1,.077-.1h47.721a.08.08,0,0,1,.077.1l-4.313,16.146a8.383,8.383,0,0,1-8.069,6.2m-35.312-22.282,4.286,16.045a8.183,8.183,0,0,0,7.9,6.076h23.128a8.222,8.222,0,0,0,7.914-6.077l4.286-16.045Z" transform="translate(-732.428 -2686.198)" fill="#000712"/>
            <path id="Path_298" data-name="Path 298" d="M542.525,2905.655l-4.313,16.146a8.289,8.289,0,0,1-7.992,6.136H507.092a8.255,8.255,0,0,1-7.975-6.136l-4.313-16.146Z" transform="translate(-457.6 -2687.182)" fill="#8aa7bb"/>
            <path id="Path_299" data-name="Path 299" d="M529.237,2927.033H506.108a8.343,8.343,0,0,1-8.052-6.2l-4.313-16.146a.08.08,0,0,1,.077-.1h47.721a.08.08,0,0,1,.077.1l-4.313,16.146a8.383,8.383,0,0,1-8.069,6.2m-35.312-22.282,4.286,16.045a8.183,8.183,0,0,0,7.9,6.076h23.128a8.222,8.222,0,0,0,7.914-6.077l4.286-16.045Z" transform="translate(-456.616 -2686.198)" fill="#000712"/>
            <path id="Path_300" data-name="Path 300" d="M382.871,1729.966v44.258H340.041a6.351,6.351,0,0,1-6.355-6.351v-37.932a6.367,6.367,0,0,1,6.365-6.365h36.425a6.391,6.391,0,0,1,6.395,6.39" transform="translate(-308.596 -1593.982)" fill="#f0bb62"/>
            <g id="Group_79" data-name="Group 79" transform="translate(27.092 129.594)" opacity="0.6">
              <g id="Group_78" data-name="Group 78">
                <g id="Group_77" data-name="Group 77" clip-path="url(#clip-path-8)">
                  <path id="Path_301" data-name="Path 301" d="M407.5,1729.972v44.258H364.669a6.357,6.357,0,0,1-4.353-1.723,7.663,7.663,0,0,1,4.746-3.288c2.557-.638,5.246-.363,7.882-.53,10.2-.633,19.145-8.073,23.626-17.26,4.167-8.544,4.957-18.35,4.108-27.846h.427a6.391,6.391,0,0,1,6.395,6.39" transform="translate(-360.316 -1723.582)" fill="#ffdda5"/>
                </g>
              </g>
            </g>
            <path id="Path_302" data-name="Path 302" d="M197.208,1774.222H185.595a6.343,6.343,0,0,1-6.353-6.353V1729.94a6.355,6.355,0,0,1,6.353-6.366h11.613a6.355,6.355,0,0,0-6.353,6.366v37.929a6.343,6.343,0,0,0,6.353,6.353" transform="translate(-165.765 -1593.98)" fill="#ffdda5"/>
            <rect id="Rectangle_43" data-name="Rectangle 43" width="60.796" height="2.664" transform="translate(13.477 138.514)" fill="#002f35"/>
            <path id="Path_303" data-name="Path 303" d="M381.894,1773.316h-42.83a6.44,6.44,0,0,1-6.433-6.433v-37.929a6.453,6.453,0,0,1,6.446-6.446H375.5a6.479,6.479,0,0,1,6.472,6.472v44.256a.08.08,0,0,1-.08.08m-42.817-50.648a6.293,6.293,0,0,0-6.286,6.286v37.929a6.28,6.28,0,0,0,6.273,6.273h42.75V1728.98a6.319,6.319,0,0,0-6.312-6.312Z" transform="translate(-307.621 -1592.994)" fill="#000712"/>
            <path id="Path_304" data-name="Path 304" d="M196.226,1773.316H184.613a6.44,6.44,0,0,1-6.433-6.433v-37.929a6.447,6.447,0,0,1,6.433-6.446h11.613a.08.08,0,0,1,0,.16,6.286,6.286,0,0,0-6.273,6.286v37.929a6.28,6.28,0,0,0,6.273,6.273.08.08,0,0,1,0,.16m-11.613-50.648a6.286,6.286,0,0,0-6.273,6.286v37.929a6.28,6.28,0,0,0,6.273,6.273H194.8a6.444,6.444,0,0,1-5-6.273v-37.929a6.455,6.455,0,0,1,5-6.286Z" transform="translate(-164.783 -1592.994)" fill="#000712"/>
            <path id="Path_305" data-name="Path 305" d="M239.059,1843.978h-60.8a.08.08,0,0,1-.08-.08v-2.663a.08.08,0,0,1,.08-.08h60.8a.08.08,0,0,1,.08.08v2.663a.08.08,0,0,1-.08.08m-60.716-.16h60.636v-2.5H178.343Z" transform="translate(-164.786 -1702.719)" fill="#000712"/>
            <path id="Path_306" data-name="Path 306" d="M1564.34,2761.45c-.167,15.2-10.261,27.52-22.929,27.52s-22.95-12.314-22.95-27.52,10.283-27.413,22.95-27.519c12.807-.108,23.1,12.184,22.929,27.519" transform="translate(-1404.289 -2528.368)" fill="#002f35"/>
            <path id="Path_307" data-name="Path 307" d="M1625.081,2872.163c0,10.083-5.76,18.248-12.872,18.248s-12.884-8.165-12.884-18.248,5.773-18.248,12.884-18.248,12.872,8.165,12.872,18.248" transform="translate(-1479.073 -2639.332)" fill="#fff"/>
            <path id="Path_308" data-name="Path 308" d="M1731.556,3025.717c0,3.8-2.174,6.886-4.857,6.886s-4.862-3.081-4.862-6.886,2.178-6.886,4.862-6.886,4.857,3.081,4.857,6.886" transform="translate(-1592.374 -2791.848)" fill="#003144"/>
            <path id="Path_309" data-name="Path 309" d="M1617.064,2889.015a9.573,9.573,0,0,1-4.961,1.412c-7.1,0-12.885-8.165-12.885-18.259,0-10.077,5.788-18.241,12.885-18.241a11.717,11.717,0,0,1,1.551.121c-4.651,2.756-7.924,9.267-7.924,16.846,0,9.353,4.961,17.036,11.334,18.121" transform="translate(-1478.975 -2639.343)" fill="#ecf2fb"/>
            <path id="Path_310" data-name="Path 310" d="M1540.426,2784.739c-12.7,0-23.031-12.381-23.031-27.6s10.332-27.6,23.031-27.6,23.009,12.381,23.009,27.6-10.321,27.6-23.009,27.6m0-55.039c-12.611,0-22.87,12.309-22.87,27.439s10.26,27.44,22.87,27.44,22.849-12.31,22.849-27.44-10.25-27.439-22.849-27.439" transform="translate(-1403.304 -2524.308)" fill="#000712"/>
            <path id="Path_311" data-name="Path 311" d="M1611.223,2889.506c-7.148,0-12.964-8.222-12.964-18.328s5.816-18.328,12.964-18.328,12.952,8.222,12.952,18.328-5.81,18.328-12.952,18.328m0-36.5c-7.06,0-12.8,8.15-12.8,18.168s5.744,18.168,12.8,18.168,12.792-8.15,12.792-18.168-5.738-18.168-12.792-18.168" transform="translate(-1478.087 -2638.347)" fill="#000712"/>
            <path id="Path_312" data-name="Path 312" d="M1513.336,2767.679c-.5-.5-1.986-.1-3.32.9-1.188.9-1.855,1.953-1.644,2.523l-15.446-22.656,5.013-3.4Z" transform="translate(-1380.674 -2538.643)" fill="#8aa7bb"/>
            <path id="Path_313" data-name="Path 313" d="M1701.324,3046.174c-1.335,1.009-2.832,1.416-3.32.911a.9.9,0,0,1-.1-.13c0-.016-.016-.032-.032-.065-.211-.57.456-1.628,1.644-2.523,1.335-.993,2.816-1.4,3.32-.9a.353.353,0,0,1,.065.081c.358.521-.309,1.677-1.579,2.62" transform="translate(-1570.176 -2814.435)" fill="#5d7a95"/>
            <path id="Path_314" data-name="Path 314" d="M1507.389,2770.194a.081.081,0,0,1-.066-.035l-15.446-22.656a.08.08,0,0,1-.012-.06.078.078,0,0,1,.033-.051l5.013-3.4a.081.081,0,0,1,.111.021l15.4,22.639a.08.08,0,0,1-.123.1c-.47-.47-1.913-.066-3.216.9-1.122.845-1.817,1.891-1.617,2.431a.08.08,0,0,1-.039.1.078.078,0,0,1-.036.009m-15.335-22.715,15.22,22.326a3.973,3.973,0,0,1,1.71-2.277,4.2,4.2,0,0,1,3.108-1.072l-15.158-22.289Z" transform="translate(-1379.691 -2537.659)" fill="#000712"/>
            <path id="Path_315" data-name="Path 315" d="M1697.716,3046.423a.8.8,0,0,1-.817-.379.079.079,0,0,1-.013-.044c-.009,0-.017-.014-.024-.03-.231-.622.471-1.721,1.667-2.622,1.388-1.032,2.893-1.42,3.425-.888a.416.416,0,0,1,.08.1c.388.563-.314,1.761-1.6,2.72a5.063,5.063,0,0,1-2.715,1.141m-.676-.455a.756.756,0,0,0,.079.1c.458.474,1.931.053,3.216-.918h0c1.2-.892,1.9-2.018,1.561-2.511a.325.325,0,0,0-.056-.07c-.47-.47-1.913-.066-3.216.9-1.122.845-1.817,1.89-1.617,2.431l.011.017a.173.173,0,0,1,.022.045" transform="translate(-1569.235 -2813.48)" fill="#000712"/>
            <path id="Path_316" data-name="Path 316" d="M1726.709,3066.4a1.947,1.947,0,0,1-2.962-2.347l-1.718-2.227a.908.908,0,1,1,1.438-1.11l1.732,2.233a1.916,1.916,0,0,1,1.872.715,1.945,1.945,0,0,1-.361,2.735" transform="translate(-1592.374 -2830.254)" fill="#8aa7bb"/>
            <path id="Path_317" data-name="Path 317" d="M1724.533,3065.914a2.025,2.025,0,0,1-1.866-2.82l-1.689-2.189a.989.989,0,0,1-.2-.738.956.956,0,0,1,.362-.645,1,1,0,0,1,1.4.175l1.7,2.2a2.01,2.01,0,0,1,2.308,2.235,2.037,2.037,0,0,1-.782,1.365h0a2.022,2.022,0,0,1-1.238.421m-2.782-6.442a.83.83,0,0,0-.514.177.8.8,0,0,0-.3.538.829.829,0,0,0,.168.619l1.719,2.227a.081.081,0,0,1,.009.082,1.869,1.869,0,1,0,3.561.992,1.85,1.85,0,0,0-2.169-2.05.079.079,0,0,1-.077-.03l-1.732-2.233a.843.843,0,0,0-.665-.323m3.97,5.958h0Z" transform="translate(-1591.387 -2829.284)" fill="#000712"/>
            <path id="Path_318" data-name="Path 318" d="M1896.745,1764.435l-10.55-.719V1759.7l10.935.757a2,2,0,0,1-.386,3.977" transform="translate(-1744.374 -1627.391)" fill="#043844"/>
            <path id="Path_319" data-name="Path 319" d="M1895.95,1763.538c-.066,0-.132,0-.2-.01l-10.548-.719a.08.08,0,0,1-.075-.08v-4.015a.079.079,0,0,1,.025-.058.08.08,0,0,1,.06-.021l10.936.757a2.078,2.078,0,0,1-.2,4.146m-10.661-.883,10.475.714h0a1.918,1.918,0,0,0,.37-3.818l-10.848-.751Z" transform="translate(-1743.388 -1626.404)" fill="#000712"/>
            <path id="Path_320" data-name="Path 320" d="M1819.259,1731.578c0,2.461-1.478,4.457-3.3,4.457s-3.3-2-3.3-4.457,1.478-4.457,3.3-4.457,3.3,2,3.3,4.457" transform="translate(-1676.366 -1597.26)" fill="#fff"/>
            <path id="Path_321" data-name="Path 321" d="M1814.975,1735.133c-1.864,0-3.38-2.035-3.38-4.537s1.516-4.537,3.38-4.537,3.38,2.035,3.38,4.537-1.516,4.537-3.38,4.537m0-8.914c-1.776,0-3.22,1.963-3.22,4.377s1.444,4.377,3.22,4.377,3.22-1.963,3.22-4.377-1.444-4.377-3.22-4.377" transform="translate(-1675.383 -1596.278)" fill="#000712"/>
            <path id="Path_322" data-name="Path 322" d="M156.29,2397.183v38.23H61.748a6.374,6.374,0,0,1-6.334-7.161l1.565-12.5a21.195,21.195,0,0,1,21.028-18.569Z" transform="translate(-51.202 -2216.941)" fill="#1c7d88"/>
            <path id="Path_323" data-name="Path 323" d="M672.033,2402.546V2433.3c-.516.726-1.068,1.433-1.637,2.117H613.039c6.729-1.218,13.873-.731,20.35-3.011,7.809-2.747,13.807-9.3,17.633-16.638,3.041-5.83,4.876-12.182,6.448-18.581h12.505q1.026,2.681,2.057,5.362" transform="translate(-566.945 -2216.942)" fill="#064f57"/>
            <path id="Path_324" data-name="Path 324" d="M99.821,2495.315v17.969H61.752a6.372,6.372,0,0,1-6.331-7.162l1.562-12.5a21.036,21.036,0,0,1,5.924-12.239H85.889a13.937,13.937,0,0,1,13.932,13.932" transform="translate(-51.208 -2294.81)" fill="#1c7d88"/>
            <path id="Path_325" data-name="Path 325" d="M481.354,2495.315v17.969h-6.169v-17.969a13.937,13.937,0,0,0-13.932-13.932h6.169a13.937,13.937,0,0,1,13.932,13.932" transform="translate(-426.572 -2294.81)" fill="#064f57"/>
            <path id="Path_326" data-name="Path 326" d="M55.5,2802.268l-.076.612a6.372,6.372,0,0,0,6.331,7.161H99.822v-7.773Z" transform="translate(-51.209 -2591.568)" fill="#064f57"/>
            <path id="Path_327" data-name="Path 327" d="M155.326,2434.5H60.78a6.452,6.452,0,0,1-6.41-7.251l1.563-12.5a21.279,21.279,0,0,1,21.108-18.641h78.287a.08.08,0,0,1,.08.08v38.232a.08.08,0,0,1-.08.08m-78.287-38.232a21.119,21.119,0,0,0-20.949,18.5l-1.563,12.5a6.292,6.292,0,0,0,6.252,7.072h94.466v-38.072Z" transform="translate(-50.236 -2215.95)" fill="#000712"/>
            <path id="Path_328" data-name="Path 328" d="M98.849,2512.379H60.78a6.452,6.452,0,0,1-6.41-7.251l1.563-12.5a21.01,21.01,0,0,1,5.947-12.286.081.081,0,0,1,.057-.024H84.917a14.028,14.028,0,0,1,14.012,14.012V2512.3a.08.08,0,0,1-.08.08m-36.88-31.9a20.85,20.85,0,0,0-5.878,12.169l-1.563,12.5a6.292,6.292,0,0,0,6.252,7.072H98.769V2494.33a13.868,13.868,0,0,0-13.852-13.852Z" transform="translate(-50.236 -2293.825)" fill="#000712"/>
            <path id="Path_329" data-name="Path 329" d="M480.371,2512.379H474.2a.08.08,0,0,1-.08-.08V2494.33a13.868,13.868,0,0,0-13.852-13.852.08.08,0,0,1,0-.16h6.169a14.028,14.028,0,0,1,14.012,14.012V2512.3a.08.08,0,0,1-.08.08m-6.089-.16h6.009V2494.33a13.868,13.868,0,0,0-13.852-13.852H462.39a14.035,14.035,0,0,1,11.892,13.852Z" transform="translate(-425.589 -2293.825)" fill="#000712"/>
            <path id="Path_330" data-name="Path 330" d="M98.849,2809.138H60.78a6.452,6.452,0,0,1-6.41-7.251l.077-.612a.08.08,0,0,1,.079-.07H98.849a.08.08,0,0,1,.08.08v7.774a.08.08,0,0,1-.08.08M54.6,2801.364l-.068.542a6.292,6.292,0,0,0,6.252,7.072H98.769v-7.614Z" transform="translate(-50.236 -2590.584)" fill="#000712"/>
            <path id="Path_331" data-name="Path 331" d="M764.739,2818.523l-.613,6.78-1.926,3.666-3.828,2.164-4.391,1.489h-8.319l-13.3-.488-4.291-3.29-5.879-6.88-1.051-2.026s8.832-11.171,42.456-7.043Z" transform="translate(-666.922 -2600.549)" fill="#002f35"/>
            <path id="Path_332" data-name="Path 332" d="M593.077,2224.115h-49.1a3.748,3.748,0,0,0-3.748,3.748v9.271h52.85Z" transform="translate(-499.608 -2056.886)" fill="#002f35"/>
            <path id="Path_333" data-name="Path 333" d="M592.092,2236.231h-52.85a.08.08,0,0,1-.08-.08v-9.271a3.832,3.832,0,0,1,3.828-3.828h49.1a.08.08,0,0,1,.08.08v13.019a.08.08,0,0,1-.08.08m-52.77-.16h52.69v-12.859H542.99a3.672,3.672,0,0,0-3.668,3.667Z" transform="translate(-498.623 -2055.903)" fill="#000712"/>
            <path id="Path_334" data-name="Path 334" d="M1208.756,1995.548l-13.045-.036-21.256-.066c-1.068,4.894-2.327,10.4-3.383,15.258-1.3,5.962-2.285,10.952-2.225,12.631l-28.375-1.115a12.361,12.361,0,0,0,9.422-4.139,11.264,11.264,0,0,0,2.333-4.33,13.307,13.307,0,0,0,.264-5.65c-1.673-10.982-19.349-73.113,18.407-72.063a31.637,31.637,0,0,1,10.34,1.961c27.434,10.316,27.518,57.548,27.518,57.548" transform="translate(-1054.721 -1790.457)" fill="#e8effa"/>
            <path id="Path_335" data-name="Path 335" d="M1152.227,2932.289a119.91,119.91,0,0,0,18.845-3.047c-1.3,5.962-2.285,10.952-2.225,12.631l-28.375-1.115a12.361,12.361,0,0,0,9.422-4.139,11.268,11.268,0,0,0,2.333-4.33" transform="translate(-1054.72 -2708.995)" fill="#d8e1ef"/>
            <path id="Path_336" data-name="Path 336" d="M1700.224,2011.027c2.669-8.727.672-18.347-3.473-26.474a67.524,67.524,0,0,0-6.016-9.524c-1.931-2.6-4-5.086-6.112-7.527-1.11-1.283-4.156-3.688-3.407-5.218,27.434,10.316,27.518,57.548,27.518,57.548l-13.045-.036a28.229,28.229,0,0,0,4.534-8.769" transform="translate(-1554.7 -1814.741)" fill="#d8e1ef"/>
            <path id="Path_337" data-name="Path 337" d="M753,2831.826h-8.319l-13.3-.488a.08.08,0,0,1-.046-.016l-4.291-3.29-5.892-6.892-1.061-2.042a.08.08,0,0,1,.008-.087c.022-.028,2.3-2.837,8.655-5.095,5.857-2.08,16.49-4.111,33.874-1.977a.08.08,0,0,1,.069.063l1.138,5.629a.079.079,0,0,1,0,.023l-.613,6.78a.084.084,0,0,1-.009.03l-1.926,3.666a.079.079,0,0,1-.032.032l-3.828,2.164-4.4,1.494a.07.07,0,0,1-.026,0m-21.588-.647,13.272.487h8.3l4.378-1.484,3.794-2.146,1.908-3.63.611-6.752-1.125-5.561c-17.32-2.12-27.909-.1-33.744,1.976-5.907,2.1-8.253,4.658-8.55,5l1.026,1.979,5.869,6.865Z" transform="translate(-665.938 -2599.674)" fill="#000712"/>
            <path id="Path_338" data-name="Path 338" d="M1167.878,2022.425h0l-28.371-1.117a.08.08,0,0,1,0-.16,12.242,12.242,0,0,0,9.363-4.11,11.831,11.831,0,0,0,2.574-9.918c-.188-1.237-.579-3.119-1.074-5.5-1.44-6.933-3.85-18.537-4.4-29.949-.659-13.768,1.56-23.8,6.6-29.817,4-4.778,9.848-7.086,17.363-6.886a30.3,30.3,0,0,1,21.9,9.765c4.715,4.988,8.5,11.865,11.263,20.439a109.866,109.866,0,0,1,4.776,29.388.08.08,0,0,1-.08.08h0l-34.24-.1c-.513,2.349-1.078,4.877-1.625,7.322-1.992,8.9-4.052,18.113-3.968,20.487a.081.081,0,0,1-.023.059.08.08,0,0,1-.057.023m-26.745-1.213,26.664,1.049c-.035-2.522,2-11.63,3.974-20.441.552-2.467,1.123-5.017,1.639-7.384a.08.08,0,0,1,.078-.063h0l34.224.1a109.78,109.78,0,0,0-4.768-29.262c-4.322-13.429-13.558-29.55-33.014-30.089-7.467-.2-13.27,2.091-17.236,6.829-5.009,5.985-7.216,15.98-6.559,29.706.546,11.4,2.954,23,4.393,29.925.495,2.385.886,4.269,1.075,5.51a11.984,11.984,0,0,1-2.611,10.046,12.183,12.183,0,0,1-7.859,4.069" transform="translate(-1053.754 -1789.467)" fill="#000712"/>
            <path id="Path_339" data-name="Path 339" d="M739.719,2015.48c-4.641,0-9.487-.135-10.891-.655-3.141-1.162-8.476-7.756-11.1-11.639a.61.61,0,0,1,1.011-.684c2.729,4.036,7.795,10.172,10.514,11.179,2.181.806,15.281.58,20.146.424a11.72,11.72,0,0,0,8.979-3.924,11.316,11.316,0,0,0,2.453-9.492c-.186-1.222-.575-3.1-1.068-5.472-3.1-14.941-9.559-46.031,2.313-60.216,4.109-4.91,10.125-7.271,17.784-7.076a.61.61,0,0,1-.017,1.221h-.018c-7.237-.2-12.957,2.031-16.813,6.639-11.493,13.731-4.878,45.583-2.054,59.184.5,2.392.888,4.282,1.081,5.536a12.5,12.5,0,0,1-2.734,10.471,12.926,12.926,0,0,1-9.886,4.35c-.358.011-4.918.154-9.7.154" transform="translate(-663.664 -1782.955)" fill="#003144"/>
            <path id="Path_340" data-name="Path 340" d="M738.743,2014.572c-6.063,0-9.737-.222-10.919-.66-3.157-1.168-8.509-7.778-11.141-11.67a.691.691,0,0,1,.185-.958.685.685,0,0,1,.958.186c2.723,4.027,7.774,10.149,10.475,11.148,2.172.8,15.257.575,20.116.42a11.651,11.651,0,0,0,8.921-3.9,11.237,11.237,0,0,0,2.434-9.427c-.185-1.215-.572-3.079-1.061-5.438l-.006-.03c-3.105-14.954-9.567-46.07,2.33-60.283,4.11-4.912,10.117-7.3,17.848-7.1a.691.691,0,0,1-.02,1.381c-7.291-.2-12.931,2.025-16.769,6.61-11.467,13.7-4.859,45.524-2.037,59.114l.016.075c.489,2.36.876,4.224,1.067,5.467a12.573,12.573,0,0,1-2.752,10.536,13,13,0,0,1-9.947,4.378c-.815.026-5.127.154-9.7.154m-21.488-13.248a.516.516,0,0,0-.3.093.531.531,0,0,0-.143.736c2.621,3.875,7.942,10.454,11.064,11.609,1.147.425,4.9.65,10.863.65,4.567,0,8.877-.129,9.695-.154a12.848,12.848,0,0,0,9.828-4.323,12.42,12.42,0,0,0,2.715-10.407c-.19-1.239-.576-3.1-1.065-5.459L759.9,1994c-2.827-13.615-9.447-45.492,2.071-59.251,3.871-4.626,9.555-6.873,16.876-6.668a.53.53,0,0,0,.4-.895.526.526,0,0,0-.37-.166c-7.691-.2-13.643,2.175-17.721,7.047-11.847,14.155-5.4,45.219-2.3,60.148l.006.03c.49,2.362.877,4.227,1.063,5.446a11.39,11.39,0,0,1-2.471,9.556,11.808,11.808,0,0,1-9.04,3.952c-4.865.155-17.977.382-20.174-.429-2.734-1.011-7.817-7.163-10.552-11.209a.524.524,0,0,0-.34-.226.541.541,0,0,0-.1-.009" transform="translate(-662.687 -1781.967)" fill="#000712"/>
            <path id="Path_341" data-name="Path 341" d="M1308.339,1710.89s-.4,2.291-7.617,3.353c-3.719.552-9.23.774-17.429.21a17.167,17.167,0,0,0-4.75.33,16.94,16.94,0,0,0-11.174,7.7,22.673,22.673,0,0,0-3.653,10.922s-7.377-21.568,7.209-34.787c-2.969-24.4-5.68-49.487-13.789-59.93,0,0-7.251-2.315-13.135-1.367l-.948-5.8s10.142-1.277,12.721-2.7,4.24-7.1,11.2-6.19c6.939.876,10.268,7.665,10.268,7.665l10.772.774c2.009,0,2.909,2.129,2.711,4.042-.162,1.571-1.068,3-2.711,3l-9.344.51-4.906.264-1.289.072s-1.661,2.819.816,6.532c9.758,14.209,11.846,48.288,11.846,48.288.048.012.09.012.138.024a.191.191,0,0,1,.078.012,1.552,1.552,0,0,1,.234.024A35.391,35.391,0,0,1,1295.63,1697c4.948,2.435,10.3,6.658,12.709,13.891" transform="translate(-1149.59 -1500.534)" fill="#8aa7bb"/>
            <path id="Path_342" data-name="Path 342" d="M1667.445,1779.32c-.162,1.572-1.068,3-2.711,3l-9.344.51-4.906.264a4.642,4.642,0,0,1,.324-2.753c1.068-2.387,3.143-2.153,5.2-1.2a13.9,13.9,0,0,0,4.954,1.415,12.855,12.855,0,0,0,6.484-1.241" transform="translate(-1526.311 -1644.745)" fill="#5d7a95"/>
            <path id="Path_343" data-name="Path 343" d="M1491.886,1765.475a22.9,22.9,0,0,1-4.186,8.979c-1.368,1.715-3.533,3.3-5.608,2.579-1.9-.666-2.693-2.9-3.029-4.888-.708-4.222-.468-8.541-.5-12.829,0-.48-.012-.966-.018-1.445a101.379,101.379,0,0,0-4.756-28.447,89.743,89.743,0,0,0-4.972-12.985c-1.691-3.371-6.406-3.785-9.291-5.74a9.726,9.726,0,0,1-2.123-14.125c2.075,1.943,5.956,3.557,8.031,5.5a19.656,19.656,0,0,0,5.05,3.8c1.4.648-.051.8,1.472,1.092l-3.224.473s-1.661,2.819.816,6.531c9.758,14.209,11.846,48.288,11.846,48.288.048.012.09.012.138.024a.187.187,0,0,1,.078.012,1.521,1.521,0,0,1,.234.024,35.383,35.383,0,0,1,10.046,3.161" transform="translate(-1345.845 -1569.009)" fill="#5d7a95"/>
            <path id="Path_344" data-name="Path 344" d="M1651.136,2585.066s-.4,2.289-7.618,3.353a64.556,64.556,0,0,1-10.483.513c-1.914-.025-4.015-.113-6.367-.263l-.575-.038a16.674,16.674,0,0,0-2.5.013,7.72,7.72,0,0,0-.776.075,1.767,1.767,0,0,0-.35.038c-.213.038-.425.063-.625.113a2.341,2.341,0,0,0-.5.087l-5.391-7.856-2.227-8.306s5.679-6.117,14.21-4.841c.05.012.088.012.138.025.1.012.2.025.313.037,2.84.413,18.151,3.24,22.754,17.05" transform="translate(-1492.387 -2374.71)" fill="#064f57"/>
            <path id="Path_345" data-name="Path 345" d="M1262.727,1732.481a.08.08,0,0,1-.076-.054,43.348,43.348,0,0,1-1.871-12.461c-.02-6.434,1.538-15.537,9.068-22.384l-.388-3.2c-2.772-22.935-5.639-46.651-13.361-56.629-.461-.143-7.448-2.264-13.074-1.353a.081.081,0,0,1-.092-.066l-.951-5.8a.08.08,0,0,1,.069-.092c.1-.013,10.159-1.29,12.693-2.693a9.032,9.032,0,0,0,2.169-2.062c1.838-2.13,4.121-4.78,9.076-4.139,6.622.835,10.014,7.1,10.311,7.671l10.725.773c1.931,0,2.814,1.866,2.814,3.6s-.883,3.6-2.82,3.6l-15.487.848c-.179.341-1.437,3.007.831,6.408,9.46,13.778,11.746,46.605,11.856,48.263h0a.68.68,0,0,1,.077.014.142.142,0,0,1,.072.01,1.7,1.7,0,0,1,.234.026c3,.437,18.22,3.314,22.817,17.1a.087.087,0,0,1,0,.039c-.017.1-.493,2.359-7.685,3.418a85.147,85.147,0,0,1-17.442.214,17.141,17.141,0,0,0-4.731.323,16.926,16.926,0,0,0-11.119,7.669,22.271,22.271,0,0,0-3.641,10.881.08.08,0,0,1-.068.077h-.012m-16.656-96.47a38.393,38.393,0,0,1,10.1,1.594.079.079,0,0,1,.039.027c7.761,10,10.632,33.755,13.409,56.727l.393,3.244a.079.079,0,0,1-.026.069c-7.511,6.809-9.065,15.878-9.046,22.288a44.141,44.141,0,0,0,1.726,11.981,22.8,22.8,0,0,1,3.646-10.5,17.557,17.557,0,0,1,16-8.069,85.1,85.1,0,0,0,17.408-.212c6.716-.989,7.485-3.058,7.547-3.27-4.576-13.68-19.7-16.539-22.683-16.974a1.5,1.5,0,0,0-.226-.024.077.077,0,0,1-.036-.008.1.1,0,0,0-.04,0l-.08-.013a.65.65,0,0,1-.077-.014.08.08,0,0,1-.061-.073c-.021-.341-2.2-34.216-11.832-48.245-2.477-3.715-.833-6.587-.816-6.616a.08.08,0,0,1,.064-.04l15.536-.85c1.831,0,2.664-1.784,2.664-3.441s-.832-3.441-2.66-3.441l-10.776-.776a.08.08,0,0,1-.066-.044c-.033-.067-3.39-6.764-10.208-7.624-4.867-.631-7.122,1.984-8.935,4.085a9.142,9.142,0,0,1-2.212,2.1c-2.467,1.365-11.63,2.568-12.668,2.7l.924,5.644a19.463,19.463,0,0,1,2.992-.216" transform="translate(-1148.598 -1499.528)" fill="#000712"/>
            <path id="Path_346" data-name="Path 346" d="M1620.354,2588.079a.08.08,0,0,1-.066-.035l-5.392-7.856a.076.076,0,0,1-.011-.025l-2.227-8.306a.08.08,0,0,1,.019-.075c.057-.062,5.806-6.133,14.281-4.866.03.007.049.01.068.013a.635.635,0,0,1,.077.014l.3.036c3.007.437,18.225,3.314,22.821,17.1a.084.084,0,0,1,0,.039c-.017.1-.493,2.358-7.685,3.418a65.257,65.257,0,0,1-10.5.514c-1.906-.025-3.99-.111-6.37-.263l-.575-.037a16.721,16.721,0,0,0-2.491.012c-.267.013-.525.038-.77.074a1.767,1.767,0,0,0-.347.037l-.2.034c-.146.023-.283.045-.417.078a2.269,2.269,0,0,0-.5.087.1.1,0,0,1-.024,0m3.621-.527c.388,0,.766.014,1.139.042l.561.037c2.391.152,4.473.238,6.376.263a65.122,65.122,0,0,0,10.47-.512c6.716-.99,7.485-3.058,7.546-3.27-4.576-13.681-19.7-16.54-22.683-16.974-.11-.012-.211-.024-.311-.037-.032-.007-.051-.01-.07-.013a.632.632,0,0,1-.077-.014c-8.068-1.206-13.643,4.313-14.1,4.786l2.211,8.25,5.351,7.8a2.434,2.434,0,0,1,.461-.075c.127-.033.275-.056.417-.079l.2-.033a1.813,1.813,0,0,1,.364-.039,7.486,7.486,0,0,1,.772-.075c.475-.036.931-.054,1.373-.054" transform="translate(-1491.402 -2373.752)" fill="#000712"/>
            <path id="Path_347" data-name="Path 347" d="M1521.445,2650.164c-1.914-.025-4.016-.113-6.367-.263l-.575-.038a16.674,16.674,0,0,0-2.5.013c-.25.012-.513.037-.776.075a1.749,1.749,0,0,0-.35.038,4.991,4.991,0,0,0-.625.112,2.346,2.346,0,0,0-.5.088,16.931,16.931,0,0,0-11.171,7.705,22.629,22.629,0,0,0-3.653,10.921s-7.38-21.566,7.205-34.788c.5-.307,17.061.931,19.314,16.137" transform="translate(-1380.797 -2435.942)" fill="#1c7d88"/>
            <path id="Path_348" data-name="Path 348" d="M1493.939,2668.037a.08.08,0,0,1-.076-.054,43.344,43.344,0,0,1-1.871-12.461c-.02-6.443,1.542-15.562,9.1-22.412.286-.179,4.413.065,8.753,2.08a17.961,17.961,0,0,1,10.694,14.1.08.08,0,0,1-.079.092h0c-1.907-.025-3.991-.111-6.371-.263l-.575-.037a16.587,16.587,0,0,0-2.491.012c-.255.013-.514.038-.77.074a1.746,1.746,0,0,0-.346.037,4.991,4.991,0,0,0-.622.112,2.287,2.287,0,0,0-.5.087,16.931,16.931,0,0,0-11.126,7.671,22.269,22.269,0,0,0-3.641,10.881.08.08,0,0,1-.068.077h-.012m7.551-34.825a1,1,0,0,0-.3.026c-7.5,6.8-9.053,15.873-9.033,22.283a44.132,44.132,0,0,0,1.726,11.977,22.8,22.8,0,0,1,3.645-10.5,17.085,17.085,0,0,1,11.223-7.742,2.3,2.3,0,0,1,.51-.089,4.862,4.862,0,0,1,.622-.112,1.79,1.79,0,0,1,.36-.038c.25-.037.514-.062.771-.075a16.671,16.671,0,0,1,2.512-.012l.561.036c2.352.15,4.4.236,6.282.262a17.693,17.693,0,0,0-9.615-13.408,22.939,22.939,0,0,0-9.26-2.6" transform="translate(-1379.81 -2435.084)" fill="#000712"/>
            <path id="Path_349" data-name="Path 349" d="M1510.966,1634.927c0,5.452-3.646,9.863-8.154,9.863-4.492,0-8.154-4.411-8.154-9.863s3.662-9.879,8.154-9.879c4.508,0,8.154,4.427,8.154,9.879" transform="translate(-1382.276 -1502.862)" fill="#fff"/>
            <path id="Path_350" data-name="Path 350" d="M1534.805,1666.337c0,4.042-2.7,7.311-6.045,7.311s-6.045-3.27-6.045-7.311,2.715-7.323,6.045-7.323,6.045,3.282,6.045,7.323" transform="translate(-1408.224 -1534.274)" fill="#8aa7bb"/>
            <path id="Path_351" data-name="Path 351" d="M1558.864,1670.6c0,4.042-2.705,7.311-6.046,7.311a5.476,5.476,0,0,1-4.091-1.937,4.939,4.939,0,0,0,1.847.354c3.341,0,6.046-3.269,6.046-7.311a8.082,8.082,0,0,0-1.955-5.392c2.435.948,4.2,3.712,4.2,6.975" transform="translate(-1432.281 -1538.542)" fill="#5d7a95"/>
            <path id="Path_352" data-name="Path 352" d="M1476.387,1644.79a9.88,9.88,0,1,1,0-19.742c-4.492,0-8.154,4.427-8.154,9.879s3.662,9.863,8.154,9.863" transform="translate(-1355.85 -1502.862)" fill="#043844"/>
            <path id="Path_353" data-name="Path 353" d="M1501.829,1643.886c-4.54,0-8.234-4.46-8.234-9.943s3.694-9.959,8.234-9.959,8.234,4.468,8.234,9.959-3.694,9.943-8.234,9.943m0-19.742c-4.452,0-8.074,4.4-8.074,9.8s3.622,9.783,8.074,9.783,8.074-4.389,8.074-9.783-3.622-9.8-8.074-9.8" transform="translate(-1381.293 -1501.878)" fill="#000712"/>
            <path id="Path_354" data-name="Path 354" d="M1527.777,1672.744c-3.377,0-6.125-3.316-6.125-7.391s2.747-7.4,6.125-7.4,6.125,3.321,6.125,7.4-2.748,7.391-6.125,7.391m0-14.635c-3.289,0-5.964,3.249-5.964,7.243s2.676,7.231,5.964,7.231,5.965-3.244,5.965-7.231-2.676-7.243-5.965-7.243" transform="translate(-1407.241 -1533.29)" fill="#000712"/>
            <path id="Path_355" data-name="Path 355" d="M1475.4,1643.887a9.96,9.96,0,1,1,0-19.9.08.08,0,1,1,0,.16c-4.452,0-8.074,4.4-8.074,9.8s3.622,9.783,8.074,9.783a.08.08,0,0,1,0,.16m-2.41-19.467a9.7,9.7,0,0,0,0,19.032c-3.367-1.248-5.823-5.038-5.823-9.508s2.456-8.275,5.824-9.524" transform="translate(-1354.865 -1501.879)" fill="#000712"/>
            <path id="Path_356" data-name="Path 356" d="M1553.083,1691.891c0,2.827-1.849,4.99-4.676,4.99a5.118,5.118,0,0,1,0-10.236c2.827,0,4.676,2.419,4.676,5.246" transform="translate(-1427.25 -1559.828)" fill="#fdd621"/>
            <g id="Group_82" data-name="Group 82" transform="translate(117.451 128.294)" opacity="0.3">
              <g id="Group_81" data-name="Group 81">
                <g id="Group_80" data-name="Group 80" clip-path="url(#clip-path-9)">
                  <path id="Path_357" data-name="Path 357" d="M1569.044,1710.01a3.309,3.309,0,0,1-3.327,3.551,3.642,3.642,0,0,1,0-7.284,3.466,3.466,0,0,1,3.327,3.733" transform="translate(-1562.075 -1706.277)" fill="#fff"/>
                </g>
              </g>
            </g>
            <path id="Path_358" data-name="Path 358" d="M1547.425,1695.977a5.2,5.2,0,0,1,0-10.4c2.712,0,4.756,2.29,4.756,5.326,0,2.986-1.956,5.071-4.756,5.071m0-10.237a5.038,5.038,0,0,0,0,10.077c2.706,0,4.6-2.019,4.6-4.911,0-2.945-1.976-5.166-4.6-5.166" transform="translate(-1426.268 -1558.843)" fill="#000712"/>
            <g id="Group_85" data-name="Group 85" transform="translate(117.863 129.002)" opacity="0.3">
              <g id="Group_84" data-name="Group 84">
                <g id="Group_83" data-name="Group 83" clip-path="url(#clip-path-10)">
                  <path id="Path_359" data-name="Path 359" d="M1567.565,1717.131a1.391,1.391,0,0,0,.321,1.042,1,1,0,0,0,.948.222,1.393,1.393,0,0,0,.785-.612,1.334,1.334,0,0,0-.675-2.032c-.859-.293-1.36.654-1.379,1.381" transform="translate(-1567.564 -1715.696)" fill="#fff"/>
                </g>
              </g>
            </g>
            <path id="Path_360" data-name="Path 360" d="M1211.91,1730.457c.282,2.322-.868,4.371-2.568,4.578s-3.307-1.508-3.589-3.83.868-4.371,2.568-4.578,3.307,1.508,3.589,3.83" transform="translate(-1115.055 -1596.788)" fill="#fff"/>
            <path id="Path_361" data-name="Path 361" d="M1210.129,1748.554c.193,1.588-.594,2.99-1.756,3.131s-2.262-1.032-2.455-2.62.594-2.99,1.756-3.131,2.261,1.031,2.454,2.619" transform="translate(-1115.22 -1614.648)" fill="#edf2fb"/>
            <path id="Path_362" data-name="Path 362" d="M1208.078,1734.144c-1.632,0-3.121-1.685-3.392-3.917a5.167,5.167,0,0,1,.55-3.13,2.638,2.638,0,0,1,4.482-.544,5.471,5.471,0,0,1,.733,6.039,2.817,2.817,0,0,1-2.087,1.536,2.376,2.376,0,0,1-.286.017m-.465-8.441a2.251,2.251,0,0,0-.27.016,2.662,2.662,0,0,0-1.967,1.455,5.008,5.008,0,0,0-.531,3.033c.276,2.274,1.846,3.967,3.5,3.76a2.662,2.662,0,0,0,1.967-1.455,5.31,5.31,0,0,0-.71-5.851,2.748,2.748,0,0,0-1.988-.958" transform="translate(-1114.067 -1595.801)" fill="#000712"/>
            <path id="Path_363" data-name="Path 363" d="M1207.2,1750.794c-1.129,0-2.158-1.162-2.345-2.7-.2-1.629.621-3.073,1.826-3.22a1.952,1.952,0,0,1,1.659.686,3.562,3.562,0,0,1,.885,2c.2,1.629-.621,3.074-1.826,3.22a1.645,1.645,0,0,1-.2.012m-.318-5.773a1.511,1.511,0,0,0-.182.011c-1.117.135-1.874,1.5-1.687,3.041s1.249,2.688,2.365,2.55,1.874-1.5,1.687-3.042a3.4,3.4,0,0,0-.843-1.913,1.855,1.855,0,0,0-1.341-.648" transform="translate(-1114.238 -1613.667)" fill="#000712"/>
            <path id="Path_364" data-name="Path 364" d="M1067.251,1764.109a1.863,1.863,0,0,1-1.777,1.861l-11.3.728c-2.2,0-2.2-3.729,0-3.729l11.125-.72A1.863,1.863,0,0,1,1067.251,1764.109Z" transform="translate(-973.389 -1629.745)" fill="#043844"/>
            <path id="Path_365" data-name="Path 365" d="M1053.2,1765.793a1.957,1.957,0,0,1,0-3.889l11.12-.72a1.942,1.942,0,0,1,2.033,1.94,1.94,1.94,0,0,1-1.854,1.941Zm11.209-4.451-.084,0-11.124.72a1.8,1.8,0,0,0-.005,3.57l11.291-.728a1.783,1.783,0,0,0-.078-3.563" transform="translate(-972.404 -1628.76)" fill="#000712"/>
            <g id="Group_88" data-name="Group 88" transform="translate(144.756 231.636)" opacity="0.4">
              <g id="Group_87" data-name="Group 87">
                <g id="Group_86" data-name="Group 86" clip-path="url(#clip-path-11)">
                  <path id="Path_366" data-name="Path 366" d="M1926.122,3102a.932.932,0,0,1-.689-.294.767.767,0,0,1,.115-1.15,26.526,26.526,0,0,0,9.813-14.64,24.157,24.157,0,0,0,.66-4.417.869.869,0,0,1,.94-.774.849.849,0,0,1,.849.857,25.668,25.668,0,0,1-.7,4.692,28.155,28.155,0,0,1-10.415,15.537.948.948,0,0,1-.573.189" transform="translate(-1925.226 -3080.719)" fill="#fff"/>
                </g>
              </g>
            </g>
            <g id="Group_91" data-name="Group 91" transform="translate(152.797 218.612)" opacity="0.4">
              <g id="Group_90" data-name="Group 90">
                <g id="Group_89" data-name="Group 89" clip-path="url(#clip-path-12)">
                  <path id="Path_367" data-name="Path 367" d="M2035.22,2915.076a.88.88,0,0,1-.876-.651,24.9,24.9,0,0,0-2.089-5.768.787.787,0,0,1,.435-1.084.934.934,0,0,1,1.19.4,26.4,26.4,0,0,1,2.218,6.124.821.821,0,0,1-.7.965.952.952,0,0,1-.183.018" transform="translate(-2032.171 -2907.497)" fill="#fff"/>
                </g>
              </g>
            </g>
            <path id="Path_368" data-name="Path 368" d="M1328.559,2188.643c.5,1.536,1.405,3.287,3.014,3.409s2.8-1.51,3.386-3.024a16.553,16.553,0,0,0,.1-11.638c-.765-2.068-2.121-3.709-4.5-3.412a3.921,3.921,0,0,0-3.344,2.293c-1.489,3.5.255,9.033,1.334,12.373" transform="translate(-1226.899 -2010.485)" fill="#fff"/>
            <g id="Group_94" data-name="Group 94" transform="translate(119.666 166.638)" opacity="0.4">
              <g id="Group_93" data-name="Group 93">
                <g id="Group_92" data-name="Group 92" clip-path="url(#clip-path-13)">
                  <path id="Path_369" data-name="Path 369" d="M1594.07,2235.054a.6.6,0,0,1-.6-.6,86.315,86.315,0,0,0-1.923-17.48.6.6,0,1,1,1.172-.252,87.508,87.508,0,0,1,1.95,17.724.6.6,0,0,1-.6.6Z" transform="translate(-1591.533 -2216.253)" fill="#fff"/>
                </g>
              </g>
            </g>
            <g id="Group_97" data-name="Group 97" transform="translate(116.987 157.007)" opacity="0.4">
              <g id="Group_96" data-name="Group 96">
                <g id="Group_95" data-name="Group 95" clip-path="url(#clip-path-14)">
                  <path id="Path_370" data-name="Path 370" d="M1558.321,2095.352a.6.6,0,0,1-.58-.448c-.525-2.006-1.13-4.007-1.8-5.946a.6.6,0,1,1,1.135-.39c.677,1.968,1.29,4,1.823,6.032a.6.6,0,0,1-.58.752" transform="translate(-1555.911 -2088.163)" fill="#fff"/>
                </g>
              </g>
            </g>
            <g id="Group_100" data-name="Group 100" transform="translate(139.302 199.449)" opacity="0.3">
              <g id="Group_99" data-name="Group 99">
                <g id="Group_98" data-name="Group 98" clip-path="url(#clip-path-15)">
                  <path id="Path_371" data-name="Path 371" d="M1858.333,2661.025a6.2,6.2,0,0,0,2.319,1.636,2.151,2.151,0,0,0,2.942-1.734,5.841,5.841,0,0,0-1.809-3.824c-1.7-1.921-6.083-5.608-8.475-4.138-2.512,1.544,3.337,6.4,5.023,8.06" transform="translate(-1852.692 -2652.627)" fill="#fff"/>
                </g>
              </g>
            </g>
            <g id="Group_103" data-name="Group 103" transform="translate(25.918 191.492)" opacity="0.3">
              <g id="Group_102" data-name="Group 102">
                <g id="Group_101" data-name="Group 101" clip-path="url(#clip-path-16)">
                  <path id="Path_372" data-name="Path 372" d="M351.389,2548.133a1.325,1.325,0,0,1-1.326,1.319h-4.036a1.323,1.323,0,1,1,0-2.645h4.036a1.331,1.331,0,0,1,1.326,1.326" transform="translate(-344.701 -2546.807)" fill="#fff"/>
                </g>
              </g>
            </g>
            <g id="Group_106" data-name="Group 106" transform="translate(11.097 191.492)" opacity="0.3">
              <g id="Group_105" data-name="Group 105">
                <g id="Group_104" data-name="Group 104" clip-path="url(#clip-path-17)">
                  <path id="Path_373" data-name="Path 373" d="M158.581,2547.2a1.319,1.319,0,0,1-.936,2.255h-8.727a1.319,1.319,0,0,1-.936-.39,1.305,1.305,0,0,1-.39-.93,1.326,1.326,0,0,1,1.325-1.326h8.727a1.319,1.319,0,0,1,.936.39" transform="translate(-147.593 -2546.807)" fill="#fff"/>
                </g>
              </g>
            </g>
            <g id="Group_109" data-name="Group 109" transform="translate(304.746 252.338)" opacity="0.3">
              <g id="Group_108" data-name="Group 108">
                <g id="Group_107" data-name="Group 107" clip-path="url(#clip-path-18)">
                  <path id="Path_383" data-name="Path 383" d="M4053.993,3360.115a.676.676,0,0,1-.66-.532,12.519,12.519,0,0,1-.273-2.877.688.688,0,0,1,.688-.665.676.676,0,0,1,.665.688,11.151,11.151,0,0,0,.242,2.565.677.677,0,0,1-.661.821" transform="translate(-4053.057 -3356.041)" fill="#fff"/>
                </g>
              </g>
            </g>
            <path id="Path_385" data-name="Path 385" d="M3475.257,597.4l9.958,20.12a1.213,1.213,0,0,1-.548,1.625l-7.21,3.568a1.211,1.211,0,0,0-.61.7l-2.229,6.6a1.213,1.213,0,0,1-1.538.761l-6.6-2.229a1.212,1.212,0,0,0-.926.062l-7.213,3.57a1.212,1.212,0,0,1-1.624-.549l-9.958-20.12a1.213,1.213,0,0,1,.549-1.625l26.323-13.029a1.213,1.213,0,0,1,1.625.549" transform="translate(-3419.014 -578.684)" fill="#fff"/>
            <path id="Path_386" data-name="Path 386" d="M3454.266,611.926l-6.756-2.341-.844-.293a1.421,1.421,0,0,0-.912-.089c-.58.225-1.084.511-1.63.763l-3.216,1.561-1.605.787-.8.394a1.5,1.5,0,0,1-.787.241,1.1,1.1,0,0,1-.722-.309,2.592,2.592,0,0,1-.431-.728l-.789-1.6-3.155-6.417-3.154-6.416-1.577-3.208-.789-1.6a7.683,7.683,0,0,1-.36-.777,1.038,1.038,0,0,1,.081-.734,1.08,1.08,0,0,1,.563-.5l.8-.394,1.6-.789,3.208-1.577,6.417-3.154,12.8-6.377,1.592-.79a1.035,1.035,0,0,1,1.311.446l1.593,3.191,3.189,6.4,3.189,6.4,1.594,3.2.4.8a1.5,1.5,0,0,1,.245.787,1.113,1.113,0,0,1-.308.728,2.678,2.678,0,0,1-.728.438l-6.383,3.222a2.646,2.646,0,0,0-.77.476,1.935,1.935,0,0,0-.392.815l-.559,1.7-1.118,3.4,1.17-3.378.586-1.689a1.844,1.844,0,0,1,.384-.775,2.562,2.562,0,0,1,.749-.443l6.432-3.122a2.725,2.725,0,0,0,.8-.477,1.344,1.344,0,0,0,.377-.88,1.735,1.735,0,0,0-.265-.9l-.395-.8-1.577-3.208-3.154-6.417-3.155-6.416-1.583-3.214a1.4,1.4,0,0,0-1.772-.612l-1.615.79-12.833,6.31-6.4,3.189-3.2,1.594-1.6.8-.8.4a1.469,1.469,0,0,0-.73.677,1.415,1.415,0,0,0-.1,1,7.32,7.32,0,0,0,.39.843l.8,1.6,1.594,3.2,3.188,6.4,3.189,6.4.8,1.6a2.786,2.786,0,0,0,.485.795,1.352,1.352,0,0,0,.887.374,1.738,1.738,0,0,0,.9-.271l.8-.4,1.6-.8,3.192-1.611c.53-.256,1.067-.564,1.592-.778a1.285,1.285,0,0,1,.836.073l.849.28Z" transform="translate(-3399.237 -559.587)" fill="#100000"/>
            <path id="Path_387" data-name="Path 387" d="M3549.119,672.557c2.38,5.591,10.035,7.338,10.035,7.338s4.042-6.728,1.661-12.319a6.356,6.356,0,0,0-11.7,4.98" transform="translate(-3508.346 -636.902)" fill="#1c7d88"/>
            <path id="Path_388" data-name="Path 388" d="M3583.157,696.229a3.042,3.042,0,1,0,1.607-3.991,3.042,3.042,0,0,0-1.607,3.991" transform="translate(-3539.455 -662.155)" fill="#fff"/>
            <path id="Path_389" data-name="Path 389" d="M1653.115,395.892a20.978,20.978,0,0,0,20.971,20.971c.5,0,.984-.014,1.469-.054a106.753,106.753,0,0,0,16.834,3.5s-3.167-6.564-.458-13.4a20.973,20.973,0,1,0-38.816-11.025" transform="translate(-1528.819 -346.73)" fill="#fff"/>
            <path id="Path_390" data-name="Path 390" d="M1695.09,423.347a19.707,19.707,0,0,1-1.188-3.585,21.048,21.048,0,0,1-.523-3.743c-.048-.63-.02-1.262-.013-1.893.06-.628.074-1.263.2-1.884a17.835,17.835,0,0,1,.964-3.66l.005-.01a22.965,22.965,0,1,0-41.474-5.164,22.883,22.883,0,0,0,15.909,15.246,24.937,24.937,0,0,0,3.762.716l1.915.1c.639.032,1.278-.027,1.917-.036h0l.015,0q5.847,1.734,11.848,2.9-6-1.12-11.878-2.8l.019,0a23.29,23.29,0,0,1-14.641-3.909,23.622,23.622,0,0,1-9.088-12.155,23.182,23.182,0,1,1,45.124-9.625,23,23,0,0,1-3.326,14.785l0-.01a17.713,17.713,0,0,0-.988,3.629c-.127.617-.146,1.248-.211,1.873-.012.629-.045,1.258,0,1.886a21.026,21.026,0,0,0,.491,3.739,19.7,19.7,0,0,0,1.157,3.592" transform="translate(-1527.576 -345.205)"/>
            <path id="Path_391" data-name="Path 391" d="M1792.556,480.134a3.27,3.27,0,0,1-.794-2.936,20.112,20.112,0,0,0,.542-4.1s.584-3.611,4.071-.926a2.315,2.315,0,0,0,3.872-.424s1.727-3.95,4.106-1.006a3.065,3.065,0,0,1,.512.928c.3.88,1.254,2.927,3.322,1.881,0,0,4.534-3.234,4.58,2.178a2.469,2.469,0,0,0,2.446,3.223s4.937-.362,2.942,3.613a2.891,2.891,0,0,1-.386.567c-.462.546-1.462,2.1.59,3.585,0,0,5.393,2.514.77,4.877,0,0-3.512.728-.833,4.317,0,0,3.679,4.192-5.734,4.315a3.265,3.265,0,0,1-2.432-1.057Z" transform="translate(-1656.969 -434.335)" fill="#71e9ee"/>
            <path id="Path_392" data-name="Path 392" d="M1764.462,538.88a2.4,2.4,0,0,0,3.281-.18,3.694,3.694,0,0,0,1.016-2.016,4.653,4.653,0,0,1,1.446-2.624,2.819,2.819,0,0,0,1.019-2.895,5.614,5.614,0,0,1,0-2.536,4.677,4.677,0,0,1,.495-1.189,1.359,1.359,0,0,0,.2-.547,2.69,2.69,0,0,0-.664-2.191,1.52,1.52,0,0,1-.357-.52,5.035,5.035,0,0,1-.24-2.884,1.5,1.5,0,0,0,.031-.718,2.918,2.918,0,0,0-1.5-1.991,1.392,1.392,0,0,1-.351-.246,4.808,4.808,0,0,1-1.284-2.623s-.044-1.485-2.548-2.173a1.189,1.189,0,0,1-.242-.094,5.205,5.205,0,0,1-1.833-1.756,2.679,2.679,0,0,0-3.164-1.306,1.389,1.389,0,0,1-.627,0,4.931,4.931,0,0,1-2.185-1.072,1.7,1.7,0,0,0-.558-.406,3.8,3.8,0,0,0-2.991.294,1.38,1.38,0,0,1-.494.12,5.978,5.978,0,0,1-2.146-.219,2.1,2.1,0,0,0-1.214-.106,4.9,4.9,0,0,0-2.342,1.324,1.4,1.4,0,0,1-.561.328,8.866,8.866,0,0,1-1.512.308,4.434,4.434,0,0,0-2.266,1.014,2.028,2.028,0,0,0-.206,2.956Z" transform="translate(-1611.136 -470.486)" fill="#ee4857"/>
            <path id="Path_393" data-name="Path 393" d="M1762.9,556.07l-21.039-22.782a1.757,1.757,0,0,1,.263-2.61,17.364,17.364,0,0,1,23.393,25.331,1.756,1.756,0,0,1-2.617.061" transform="translate(-1610.468 -487.734)" fill="#fdd621"/>
            <path id="Path_394" data-name="Path 394" d="M1743.708,532.428a1.757,1.757,0,0,0-.263,2.61l-1.58-1.711a1.757,1.757,0,0,1,.263-2.61,17.358,17.358,0,0,1,23.686,3.178,17.353,17.353,0,0,0-22.107-1.467" transform="translate(-1610.468 -487.773)" fill="#fc9c04"/>
            <path id="Path_395" data-name="Path 395" d="M1762.91,555.4a1.842,1.842,0,0,1-1.354-.589l-21.039-22.782a1.862,1.862,0,0,1,.279-2.764,17.468,17.468,0,0,1,23.533,25.483,1.865,1.865,0,0,1-1.382.652h-.037m-11.893-29.242a17.167,17.167,0,0,0-10.1,3.275,1.654,1.654,0,0,0-.248,2.456l21.039,22.782a1.652,1.652,0,0,0,2.462-.058,17.263,17.263,0,0,0-13.153-28.455" transform="translate(-1609.197 -486.406)"/>
            <path id="Path_396" data-name="Path 396" d="M1915.958,574.442l.9.036a.48.48,0,0,0,.038-.959l-.9-.036a.48.48,0,0,0-.038.96" transform="translate(-1771.473 -530.362)" fill="#fc9c04"/>
            <path id="Path_397" data-name="Path 397" d="M2072.9,723.344l.9.036a.48.48,0,0,0,.038-.96l-.9-.036a.48.48,0,1,0-.038.96" transform="translate(-1916.612 -668.068)" fill="#fc9c04"/>
            <path id="Path_398" data-name="Path 398" d="M1950.918,755.424l.04-1a.532.532,0,1,1,1.063.042l-.04,1a.532.532,0,0,1-1.063-.042" transform="translate(-1804.23 -697.224)" fill="#fc9c04"/>
            <path id="Path_399" data-name="Path 399" d="M2015.986,742.035l-.194-.984a.532.532,0,0,1,1.044-.206l.194.984a.532.532,0,1,1-1.044.206" transform="translate(-1864.217 -684.745)" fill="#fc9c04"/>
            <path id="Path_400" data-name="Path 400" d="M1880.959,701.5a.53.53,0,0,0,.37.171l1,.04a.532.532,0,1,0,.042-1.063l-1-.04a.532.532,0,0,0-.412.893" transform="translate(-1739.401 -647.929)" fill="#fc9c04"/>
            <path id="Path_401" data-name="Path 401" d="M2031.523,851.077a.562.562,0,0,0,.392.181l1.064.042a.564.564,0,0,0,.045-1.128l-1.063-.042a.564.564,0,0,0-.437.947" transform="translate(-1878.636 -786.209)" fill="#fc9c04"/>
            <path id="Path_402" data-name="Path 402" d="M1986.793,595.256l.435-.7a.438.438,0,1,1,.745.462l-.435.7a.438.438,0,1,1-.745-.462" transform="translate(-1837.348 -549.657)" fill="#fc9c04"/>
            <path id="Path_403" data-name="Path 403" d="M1953.423,690.518l-.54-.626a.438.438,0,1,1,.664-.572l.54.626a.438.438,0,1,1-.664.572" transform="translate(-1805.949 -637.35)" fill="#fc9c04"/>
            <path id="Path_404" data-name="Path 404" d="M1933.562,629.394l.731.385a.438.438,0,0,1-.408.776l-.731-.385a.438.438,0,1,1,.408-.776" transform="translate(-1787.585 -582.024)" fill="#fc9c04"/>
            <path id="Path_405" data-name="Path 405" d="M1830.885,622.91l.545.885a.551.551,0,0,1-.938.578l-.545-.885a.551.551,0,1,1,.938-.578" transform="translate(-1692.279 -575.832)" fill="#fc9c04"/>
            <path id="Path_406" data-name="Path 406" d="M2043.086,640.1l.038-.948a.5.5,0,1,1,1.005.04l-.038.948a.5.5,0,0,1-1.005-.04" transform="translate(-1889.468 -590.644)" fill="#fc9c04"/>
            <path id="Path_409" data-name="Path 409" d="M42.182,127.564s-19.9-21.86,0-33.351S95.823,82.835,73.165,60.178s-42.8,34.811-11.809,40.042,31.554-63.71,63.631-82.23S221.764,1.808,241.252,21.3s19.354,62.268,19.354,62.268" fill="none" stroke="#1c7d88" stroke-width="0.8" stroke-dasharray="5 5"/>
            <path id="Path_411" data-name="Path 411" d="M563.3,2951.027c-1.14-3.129.05-6.745,2.237-9.256s5.225-4.108,8.267-5.464a19.14,19.14,0,0,0,5.69-3.266c1.586-1.524,2.554-3.933,1.717-5.966-.7-1.693-2.9-2.678-4.723-2.834a8.949,8.949,0,0,0-5.276,1.57,20.1,20.1,0,0,0-7.913,25.216" transform="translate(-275.307 -2709.686)" fill="#f0bb62"/>
            <path id="Path_412" data-name="Path 412" d="M593.037,3149.375s.147-6.361,3.486-7.578,4.409,2.212,4.409,2.212a6.829,6.829,0,0,0-5.6,5.366Z" transform="translate(-304.05 -2908.501)" fill="#45b2bf"/>
            <path id="Path_413" data-name="Path 413" d="M594.944,3149.819a.162.162,0,0,1-.05-.007.18.18,0,0,1-.122-.222c.074-.254,1.854-6.255,5.69-7.751a.179.179,0,0,1,.13.333c-3.672,1.434-5.458,7.458-5.476,7.519a.179.179,0,0,1-.172.129" transform="translate(-305.631 -2908.766)" fill="#000712"/>
            <path id="Path_414" data-name="Path 414" d="M584.814,3108.735a4.454,4.454,0,0,1,6.4.268c.829.933,1.234,2.174,2.015,3.147a4.514,4.514,0,0,0,3.507,1.726,3.666,3.666,0,0,0,3.243-2.048,4.806,4.806,0,0,0-.692-4.476,8.457,8.457,0,0,0-11.547-2.546,5.636,5.636,0,0,0-2.93,3.929" transform="translate(-296.527 -2873.733)" fill="#f0bb62"/>
            <path id="Path_415" data-name="Path 415" d="M594.753,3154.842a4.671,4.671,0,0,1-3.582-1.793,10.367,10.367,0,0,1-.95-1.512,8.854,8.854,0,0,0-1.059-1.628,4.275,4.275,0,0,0-6.146-.257.179.179,0,0,1-.246-.259,4.633,4.633,0,0,1,6.659.278,9.078,9.078,0,0,1,1.1,1.695,10.09,10.09,0,0,0,.916,1.46,4.369,4.369,0,0,0,3.306,1.659.192.192,0,0,1,.062,0,.179.179,0,0,1,0,.358h-.068" transform="translate(-294.606 -2914.52)" fill="#000712"/>
            <path id="Path_416" data-name="Path 416" d="M384.1,3097.945h-4.356a13.3,13.3,0,0,0-8.121-6.968,15.842,15.842,0,0,0-3.14-.772l-1.952-1.688-.375-.326a4.834,4.834,0,0,1,3.613-2.668,12.076,12.076,0,0,1,5.773.354,9.687,9.687,0,0,1,3.05,1.4c4.96,3.446,5.509,10.663,5.509,10.663" transform="translate(-96.482 -2857.071)" fill="#f0bb62"/>
            <path id="Path_417" data-name="Path 417" d="M382.621,3087.281a2.284,2.284,0,0,1-.861.2,10.164,10.164,0,0,0-3.793,1.445,9.924,9.924,0,0,0-1.806,1.472c-.181.188-.347.383-.507.577a15.845,15.845,0,0,0-3.14-.771l-1.952-1.688a6.914,6.914,0,0,1,3.237-2.994,12.072,12.072,0,0,1,5.773.354,9.686,9.686,0,0,1,3.05,1.4" transform="translate(-100.514 -2857.07)"/>
            <path id="Path_418" data-name="Path 418" d="M465.928,3116.7a.179.179,0,0,1-.17-.125c-.03-.094-3.054-9.415-8.577-10.6a.179.179,0,0,1-.137-.212.182.182,0,0,1,.212-.137c5.727,1.227,8.718,10.447,8.842,10.839a.178.178,0,0,1-.116.224.163.163,0,0,1-.054.009" transform="translate(-179.631 -2875.646)" fill="#000712"/>
            <path id="Path_419" data-name="Path 419" d="M328.566,3037.565s-6.911-13.934-17.21-9.011c-7.233,3.457-4.2,10.6-1.287,10.591,3.957-.013,12.8-11.009,18.5-1.58" transform="translate(-42.253 -2804.174)" fill="#f0bb62"/>
            <path id="Path_420" data-name="Path 420" d="M316.09,3104.547a3.231,3.231,0,0,1-2.6-1.845.178.178,0,0,1,.309-.179,2.932,2.932,0,0,0,2.289,1.667h.006c1.144,0,2.746-.985,4.6-2.122,2.832-1.734,6.356-3.891,9.563-3.111a7.384,7.384,0,0,1,4.486,3.738.179.179,0,0,1-.306.186,7.054,7.054,0,0,0-4.265-3.577c-3.066-.744-6.372,1.281-9.292,3.069-1.9,1.165-3.543,2.17-4.787,2.174Z" transform="translate(-48.282 -2869.396)" fill="#000712"/>
            <path id="Path_421" data-name="Path 421" d="M573.573,2986.724a.178.178,0,0,1-.172-.131c-.022-.083-2.22-8.352,2.266-15.1,3.07-4.617,8.488-7.46,16.1-8.449a.179.179,0,1,1,.046.354c-7.506.975-12.838,3.764-15.849,8.291-4.4,6.607-2.243,14.726-2.221,14.808a.178.178,0,0,1-.125.219.191.191,0,0,1-.048.006" transform="translate(-285.576 -2745.205)" fill="#000712"/>
            <path id="Path_422" data-name="Path 422" d="M336.823,3068.013a.176.176,0,0,1-.051-.008.179.179,0,0,1-.12-.223,9.424,9.424,0,0,1,4.916-6.258c4.446-2.069,9.92.254,9.975.278a.179.179,0,0,1-.142.328c-.054-.024-5.385-2.284-9.684-.281a9.086,9.086,0,0,0-4.723,6.035.179.179,0,0,1-.171.127" transform="translate(-69.485 -2834.518)" fill="#000712"/>
            <path id="Path_423" data-name="Path 423" d="M653.509,3103.178l-.123,0a.179.179,0,0,1-.172-.186.188.188,0,0,1,.186-.172,4.178,4.178,0,0,0,3.2-1.593,4.392,4.392,0,0,0,1.027-3.729c-1.294-6.27-9.129-5.573-10.687-5.369a.178.178,0,1,1-.046-.354c1.612-.211,9.725-.929,11.083,5.65a4.75,4.75,0,0,1-1.1,4.033,4.616,4.616,0,0,1-3.364,1.722" transform="translate(-353.18 -2862.855)" fill="#000712"/>
            <path id="Path_424" data-name="Path 424" d="M620.325,3125.92a.178.178,0,0,1-.17-.125c-.017-.054-1.725-5.41-5.336-7.073a5.66,5.66,0,0,0-4.759.067.179.179,0,0,1-.141-.329,6.007,6.007,0,0,1,5.051-.062c3.755,1.731,5.455,7.064,5.525,7.29a.179.179,0,0,1-.117.224.173.173,0,0,1-.053.008" transform="translate(-319.396 -2886.851)" fill="#000712"/>
            <path id="Path_425" data-name="Path 425" d="M323.438,2934.978a.179.179,0,0,1-.168-.118c-1.064-2.924-.174-6.627,2.271-9.434,2.248-2.583,5.332-4.175,8.329-5.51l.519-.229a17.238,17.238,0,0,0,5.121-3c1.445-1.387,2.523-3.709,1.675-5.769a6.784,6.784,0,0,0-3.492-3.628c-1.908-.783-4.221-.535-6.871.739-9.559,4.591-8.9,18.673-8.89,18.814a.179.179,0,0,1-.331.1c-.078-.128-7.866-12.791-14.17-11.778-3.586.581-6.134,2.372-7.175,5.044a7.076,7.076,0,0,0,1.069,6.913.179.179,0,0,1-.281.221,7.434,7.434,0,0,1-1.121-7.264c1.089-2.795,3.734-4.665,7.451-5.267,5.866-.952,12.588,8.906,14.189,11.4,0-2.865.533-14.389,9.1-18.507,2.748-1.32,5.159-1.571,7.166-.746a7.023,7.023,0,0,1,3.686,3.83c.909,2.208-.229,4.684-1.762,6.155a17.467,17.467,0,0,1-5.223,3.071l-.518.23c-2.96,1.319-6,2.888-8.205,5.418-2.36,2.71-3.225,6.273-2.2,9.077a.179.179,0,0,1-.107.229.181.181,0,0,1-.061.011" transform="translate(-35.441 -2693.458)" fill="#000712"/>
            <path id="Path_426" data-name="Path 426" d="M503.035,2970.21a.179.179,0,0,1-.169-.12l-5.257-15.223a.179.179,0,1,1,.338-.117l5.257,15.223a.179.179,0,0,1-.11.227.176.176,0,0,1-.059.01" transform="translate(-216.737 -2737.507)" fill="#000712"/>
            <path id="Path_427" data-name="Path 427" d="M447.893,2890.251a3.324,3.324,0,1,1-3.324-3.324,3.333,3.333,0,0,1,3.324,3.324" transform="translate(-165.181 -2675.568)" fill="#1c7d88"/>
            <path id="Path_428" data-name="Path 428" d="M531.792,2951.572a1.5,1.5,0,1,1-1.5-1.5,1.5,1.5,0,0,1,1.5,1.5" transform="translate(-245.274 -2733.337)" fill="#fff"/>
            <rect id="Rectangle_54" data-name="Rectangle 54" width="24.366" height="3.204" transform="translate(275.433 240.874)" fill="#fff"/>
            <path id="Path_429" data-name="Path 429" d="M481.193,3271.25H461.545l3.128,15.047h13.393Z" transform="translate(-183.753 -3027.173)" fill="#fff"/>
            <path id="Path_430" data-name="Path 430" d="M456.282,3235.082H431.916a.179.179,0,0,1-.179-.179v-3.2a.179.179,0,0,1,.179-.179h24.366a.179.179,0,0,1,.179.179v3.2a.179.179,0,0,1-.179.179m-24.187-.357H456.1v-2.847H432.094Z" transform="translate(-156.482 -2990.825)" fill="#000712"/>
            <path id="Path_431" data-name="Path 431" d="M476.148,3284.554H462.755a.18.18,0,0,1-.175-.143l-3.127-15.046a.182.182,0,0,1,.036-.149.179.179,0,0,1,.139-.066h19.648a.178.178,0,0,1,.139.066.182.182,0,0,1,.036.149l-3.127,15.046a.18.18,0,0,1-.175.143M462.9,3284.2H476l3.052-14.689H459.847Z" transform="translate(-181.835 -3025.252)" fill="#000712"/>
            <path id="Path_432" data-name="Path 432" d="M480.26,3275.743,461.8,3272.48l-.256-1.23h19.648Z" transform="translate(-183.753 -3027.173)"/>
          </g>
        </g>
      </g>
    </g>
  </g>
</svg>
