<svg id="onboarding_3" xmlns="http://www.w3.org/2000/svg" width="343" height="261" viewBox="0 0 343 261">
  <rect id="Rectangle_31" data-name="Rectangle 31" width="343" height="260.851" fill="#fff" opacity="0"/>
  <rect id="Rectangle_55" data-name="Rectangle 55" width="4.417" height="67.271" transform="translate(143.867 193.185)"/>
  <path id="Path_438" data-name="Path 438" d="M1806.224,2465.546h-4.753v-67.607h4.753Zm-4.417-.335h4.082v-66.936h-4.082Z" transform="translate(-1657.772 -2204.922)"/>
  <path id="Path_439" data-name="Path 439" d="M1047.559,2278.021a5.063,5.063,0,0,0,5.068,5.065h56.151a5.065,5.065,0,1,0,0-10.131h-56.151a5.067,5.067,0,0,0-5.068,5.065" transform="translate(-963.998 -2089.902)" fill="#002f35"/>
  <path id="Path_440" data-name="Path 440" d="M1106.844,2281.317h-56.151a5.233,5.233,0,1,1,0-10.466h56.151a5.233,5.233,0,1,1,0,10.466m-56.151-10.131a4.9,4.9,0,1,0,0,9.8h56.151a4.9,4.9,0,1,0,0-9.8Z" transform="translate(-962.064 -2087.966)"/>
  <path id="Path_441" data-name="Path 441" d="M2107.953,2813.624l.339,3.27.181,1.744.574,5.511,1.345,12.959,19.263-1.741,2.185-5.811,2.663-7.1-1.63-8.823,0-.011Z" transform="translate(-1939.807 -2587.467)" fill="#ffbfac"/>
  <path id="Path_442" data-name="Path 442" d="M2107.953,2813.624l.339,3.27.181,1.744a22.7,22.7,0,0,0,11.568.647,30.672,30.672,0,0,0,9.013-3.4,24.7,24.7,0,0,0,3.819-2.249l0-.011Z" transform="translate(-1939.807 -2587.467)" fill="#002f35"/>
  <path id="Path_443" data-name="Path 443" d="M2123,2958.6l19.267-1.741,2.183-5.812a38.454,38.454,0,0,1-19.821-3.053,5.179,5.179,0,0,1-2.886-2.35l-.087-.006Z" transform="translate(-1952.42 -2708.956)" fill="#002f35"/>
  <path id="Path_444" data-name="Path 444" d="M2116.114,2870.308l-.044-.241c-.869-4.778-1.339-9.87-1.792-14.794l-.143-1.545.5-.046.143,1.545c.446,4.831.905,9.823,1.744,14.51,2.29-.338,4.678-.493,6.99-.643a52.565,52.565,0,0,0,11.809-1.673c.6-1.76,1.353-3.456,2.086-5.1a38.121,38.121,0,0,0,2.666-7.229,12.381,12.381,0,0,0-.65-3.236,17.423,17.423,0,0,1-.581-2.4l.5-.071a17.088,17.088,0,0,0,.566,2.325,12.458,12.458,0,0,1,.665,3.432,38.617,38.617,0,0,1-2.7,7.379c-.745,1.669-1.516,3.394-2.109,5.175l-.041.123-.124.038a52.314,52.314,0,0,1-12.048,1.732c-2.383.155-4.848.315-7.189.675Z" transform="translate(-1945.496 -2620.385)" fill="#19040f"/>
  <path id="Path_445" data-name="Path 445" d="M2088.156,2905.568c-.3,2.423-.6,4.405-.6,4.405l54.63.211a10.689,10.689,0,0,0-.414-4.413h0a11.153,11.153,0,0,0-3.62-5.394,14.663,14.663,0,0,0-3.29-2.045c-7.652-3.523-12.953-2.693-14.934-6.7a7.356,7.356,0,0,1-.6-1.8c-1.256-6.1-3.085-9.478-7.252-8.78-4.005.674-4.268,4.89-4.1,7.19a4.65,4.65,0,0,1-1.946,4.121c-1.756,1.245-4.906,2.442-10.5,2.323a4.77,4.77,0,0,1-3.822-2.083c-.928-1.353-2.308-2.843-3.662-2.38-2.359.811.186,4.606.585,7.372a42.719,42.719,0,0,1-.475,7.972Z" transform="translate(-1920.576 -2649.436)" fill="#1c7d88"/>
  <path id="Path_446" data-name="Path 446" d="M2447.715,3020.314c1.531,1.695,18.152,6.158,19.9,5.451,1.215-.494,2.053-1.171,2.179-2.209a14.669,14.669,0,0,0-3.29-2.045c-7.652-3.523-12.953-2.693-14.934-6.7,0,0-5.379,3.81-3.851,5.5" transform="translate(-2252.216 -2772.614)" fill="#f0bb62"/>
  <path id="Path_447" data-name="Path 447" d="M2359.219,3007.026c-13.03-2.716-14.752-16.032-14.768-16.167l.5-.059c.016.13,1.7,13.092,14.37,15.733Z" transform="translate(-2157.441 -2750.518)" fill="#19040f"/>
  <path id="Path_448" data-name="Path 448" d="M2268.656,3050.2l-.337-.373c4.465-4.024,2.031-11.728,2.006-11.805l.479-.155c.026.08,2.561,8.091-2.148,12.333" transform="translate(-2087.381 -2793.832)" fill="#19040f"/>
  <path id="Path_449" data-name="Path 449" d="M2139.5,2907.55h-.214l-54.923-.212.044-.289c0-.02.306-2.006.6-4.4h0a40,40,0,0,0,.474-7.909,15.949,15.949,0,0,0-.788-2.758c-.555-1.592-1.08-3.1-.605-4.072a1.608,1.608,0,0,1,.975-.815c1.193-.407,2.56.447,3.952,2.476a4.532,4.532,0,0,0,3.619,1.975c5.73.126,8.791-1.171,10.35-2.277a4.415,4.415,0,0,0,1.841-3.9c-.181-2.483.138-6.754,4.31-7.456,4.842-.81,6.481,3.836,7.54,8.977a7.076,7.076,0,0,0,.577,1.74c1.151,2.329,3.434,2.943,6.89,3.873a47.414,47.414,0,0,1,7.924,2.711,14.987,14.987,0,0,1,3.345,2.081,11.4,11.4,0,0,1,3.644,5.335h0l.057.179a10.851,10.851,0,0,1,.422,4.526Zm-54.552-.714,54.115.209a10.859,10.859,0,0,0-.4-3.971l-.037-.115a10.9,10.9,0,0,0-3.541-5.273,14.487,14.487,0,0,0-3.233-2.01,46.369,46.369,0,0,0-7.845-2.683c-3.459-.93-5.958-1.6-7.21-4.135a7.541,7.541,0,0,1-.619-1.861c-1.4-6.782-3.35-9.184-6.964-8.583-3.778.636-4.059,4.611-3.891,6.924a4.921,4.921,0,0,1-2.052,4.344c-2.358,1.672-5.945,2.471-10.652,2.369a5.037,5.037,0,0,1-4.024-2.193c-.872-1.269-2.156-2.7-3.373-2.284a1.11,1.11,0,0,0-.685.559c-.383.789.131,2.262.627,3.687a16.247,16.247,0,0,1,.811,2.851,43.233,43.233,0,0,1-.474,8.039v0c-.227,1.866-.461,3.487-.555,4.124" transform="translate(-1917.671 -2646.55)" fill="#19040f"/>
  <path id="Path_450" data-name="Path 450" d="M2464.137,3021.744c-3.649,0-18.106-4.04-19.515-5.6h0a1.311,1.311,0,0,1-.328-1.066c.217-1.957,4.057-4.7,4.22-4.813l.241-.17.13.264c1.151,2.329,3.434,2.943,6.89,3.873a47.409,47.409,0,0,1,7.925,2.711,14.974,14.974,0,0,1,3.345,2.081l.1.088-.016.135c-.125,1.036-.889,1.825-2.333,2.412a1.927,1.927,0,0,1-.664.084M2445,3015.808c1.4,1.551,17.892,6.085,19.615,5.386,1.21-.491,1.851-1.089,2-1.873a14.565,14.565,0,0,0-3.124-1.919,46.314,46.314,0,0,0-7.845-2.683c-3.336-.9-5.78-1.555-7.072-3.873-1.188.881-3.63,2.946-3.779,4.289a.82.82,0,0,0,.2.673" transform="translate(-2249.311 -2768.277)" fill="#19040f"/>
  <path id="Path_451" data-name="Path 451" d="M2093.364,3193.988l54.631.211a10.686,10.686,0,0,0-.415-4.412l-53.618-.207v0c-.3,2.423-.6,4.406-.6,4.406" transform="translate(-1926.382 -2933.451)" fill="#f0bb62"/>
  <path id="Path_452" data-name="Path 452" d="M2144.831,3191.218h-.214l-54.923-.212.044-.289c0-.02.305-2.006.6-4.4v-.252l.25.028,53.805.208.054.178a10.851,10.851,0,0,1,.422,4.526Zm-54.552-.714,54.116.209a10.855,10.855,0,0,0-.381-3.909l-53.208-.206c-.218,1.784-.436,3.3-.526,3.906" transform="translate(-1923.005 -2930.218)" fill="#19040f"/>
  <path id="Path_453" data-name="Path 453" d="M2489.015,3049.537l-.479-.151a9.23,9.23,0,0,1,3.5-4.412l.272.423a8.888,8.888,0,0,0-3.295,4.14" transform="translate(-2290.031 -2800.374)" fill="#19040f"/>
  <path id="Path_454" data-name="Path 454" d="M2540.6,3065.38l-.5-.062a7.119,7.119,0,0,1,3.126-4.74l.265.428a6.732,6.732,0,0,0-2.892,4.375" transform="translate(-2337.487 -2814.733)" fill="#19040f"/>
  <path id="Path_455" data-name="Path 455" d="M2620.675,3091.046l-.476-.163a7.234,7.234,0,0,1,3.426-4.3l.207.459a6.874,6.874,0,0,0-3.156,4.007" transform="translate(-2411.192 -2838.662)" fill="#19040f"/>
  <path id="Path_456" data-name="Path 456" d="M1966.458,1973.081l.354,4.1,5.568,64.031h32.577l-10.416-56.586a14.1,14.1,0,0,0-13.872-11.542Z" transform="translate(-1809.599 -1813.934)" fill="#f0bb62"/>
  <path id="Path_457" data-name="Path 457" d="M1970.9,1977.179l5.568,64.031h15.872c-.073-.266-.15-.532-.223-.8a141.054,141.054,0,0,1-5.075-43.842c.224-5.28.725-10.718-.967-15.729a14.424,14.424,0,0,0-6.146-7.76h-5.988a21.617,21.617,0,0,0-3.04,4.1" transform="translate(-1813.688 -1813.934)" fill="#ffdda5"/>
  <path id="Path_458" data-name="Path 458" d="M2003.019,2039.42H1970.44a.168.168,0,0,1-.167-.153l-5.923-68.13a.168.168,0,0,1,.153-.181.165.165,0,0,1,.182.153l5.91,67.977h32.223l-10.382-56.388a13.932,13.932,0,0,0-13.7-11.406h-13.365a.168.168,0,1,1,0-.336h13.365a14.268,14.268,0,0,1,14.035,11.681l10.418,56.586a.168.168,0,0,1-.165.2" transform="translate(-1807.658 -1811.978)"/>
  <path id="Path_459" data-name="Path 459" d="M1761.92,2813.646l.339,3.27.543,5.214.212,2.038,1.341,12.963,19.267-1.741,2.185-5.811,2.663-7.1-1.445-7.81-.189-1.021Z" transform="translate(-1621.376 -2587.487)" fill="#ffbfac"/>
  <path id="Path_460" data-name="Path 460" d="M1761.92,2813.646l.339,3.27.543,5.214c1.136-.011,2.273-.073,3.406-.173a45.4,45.4,0,0,0,17.876-5.5q1.5-.838,2.94-1.791l-.189-1.021Z" transform="translate(-1621.376 -2587.487)" fill="#002f35"/>
  <path id="Path_461" data-name="Path 461" d="M1776.963,2958.6l19.267-1.741,2.183-5.812a38.452,38.452,0,0,1-19.821-3.053,5.177,5.177,0,0,1-2.886-2.35l-.088-.006Z" transform="translate(-1633.982 -2708.956)" fill="#002f35"/>
  <path id="Path_462" data-name="Path 462" d="M1770.076,2870.308l-.044-.241c-.869-4.777-1.338-9.869-1.792-14.792l-.143-1.547.5-.046.144,1.547c.445,4.83.905,9.822,1.742,14.509,2.29-.338,4.679-.493,6.991-.643a52.513,52.513,0,0,0,11.809-1.673c.6-1.76,1.353-3.456,2.086-5.1a38.086,38.086,0,0,0,2.666-7.228,12.353,12.353,0,0,0-.65-3.234,17.474,17.474,0,0,1-.581-2.4l.5-.071a17.136,17.136,0,0,0,.566,2.327,12.428,12.428,0,0,1,.665,3.429,38.6,38.6,0,0,1-2.7,7.378c-.745,1.669-1.516,3.394-2.109,5.175l-.041.123-.124.038a52.316,52.316,0,0,1-12.048,1.732c-2.384.155-4.848.315-7.19.675Z" transform="translate(-1627.061 -2620.385)" fill="#19040f"/>
  <path id="Path_463" data-name="Path 463" d="M1742.115,2905.568c-.3,2.423-.6,4.405-.6,4.405l54.631.211a10.685,10.685,0,0,0-.415-4.413h0a11.152,11.152,0,0,0-3.62-5.394,14.652,14.652,0,0,0-3.29-2.045c-7.652-3.523-12.953-2.693-14.934-6.7a7.346,7.346,0,0,1-.6-1.8c-1.256-6.1-3.085-9.478-7.251-8.78-4.006.674-4.268,4.89-4.1,7.19a4.65,4.65,0,0,1-1.946,4.121c-1.755,1.245-4.906,2.442-10.5,2.323a4.77,4.77,0,0,1-3.822-2.083c-.928-1.353-2.308-2.843-3.662-2.38-2.359.811.186,4.606.585,7.372a42.761,42.761,0,0,1-.475,7.972Z" transform="translate(-1602.138 -2649.436)" fill="#1c7d88"/>
  <path id="Path_464" data-name="Path 464" d="M2101.675,3020.314c1.531,1.695,18.152,6.158,19.9,5.451,1.215-.494,2.053-1.171,2.179-2.209a14.669,14.669,0,0,0-3.29-2.045c-7.652-3.523-12.953-2.693-14.934-6.7,0,0-5.379,3.81-3.851,5.5" transform="translate(-1933.778 -2772.614)" fill="#f0bb62"/>
  <path id="Path_465" data-name="Path 465" d="M2013.182,3007.026c-13.03-2.716-14.752-16.032-14.768-16.167l.5-.059c.016.13,1.7,13.092,14.37,15.733Z" transform="translate(-1839.006 -2750.518)" fill="#19040f"/>
  <path id="Path_466" data-name="Path 466" d="M1922.609,3050.2l-.337-.373c4.469-4.027,2.032-11.728,2.007-11.805l.479-.155c.026.08,2.561,8.091-2.148,12.333" transform="translate(-1768.938 -2793.832)" fill="#19040f"/>
  <path id="Path_467" data-name="Path 467" d="M1793.459,2907.55h-.214l-54.923-.212.044-.289c0-.02.306-2.006.6-4.4h0a40,40,0,0,0,.474-7.909,15.929,15.929,0,0,0-.788-2.758c-.555-1.592-1.08-3.1-.6-4.072a1.607,1.607,0,0,1,.975-.815c1.194-.407,2.56.447,3.952,2.476a4.53,4.53,0,0,0,3.619,1.975c5.73.126,8.791-1.171,10.351-2.277a4.418,4.418,0,0,0,1.841-3.9c-.181-2.482.138-6.753,4.31-7.455,4.838-.81,6.481,3.836,7.54,8.977a7.04,7.04,0,0,0,.577,1.74c1.151,2.329,3.434,2.943,6.89,3.872a47.391,47.391,0,0,1,7.924,2.712,15.006,15.006,0,0,1,3.346,2.081,11.4,11.4,0,0,1,3.644,5.335h0l.057.179a10.851,10.851,0,0,1,.422,4.526Zm-54.552-.714,54.116.209a10.867,10.867,0,0,0-.4-3.971l-.037-.115a10.9,10.9,0,0,0-3.542-5.273,14.5,14.5,0,0,0-3.234-2.01,46.364,46.364,0,0,0-7.844-2.683c-3.459-.93-5.958-1.6-7.21-4.135a7.55,7.55,0,0,1-.619-1.861c-1.4-6.78-3.341-9.185-6.964-8.583-3.778.636-4.059,4.611-3.891,6.924a4.923,4.923,0,0,1-2.052,4.344c-2.357,1.672-5.941,2.471-10.652,2.369a5.035,5.035,0,0,1-4.024-2.193c-.872-1.27-2.162-2.7-3.374-2.284a1.11,1.11,0,0,0-.685.559c-.383.789.131,2.262.627,3.687a16.224,16.224,0,0,1,.811,2.851,43.187,43.187,0,0,1-.474,8.039v0c-.227,1.866-.461,3.487-.556,4.124" transform="translate(-1599.235 -2646.55)" fill="#19040f"/>
  <path id="Path_468" data-name="Path 468" d="M2118.1,3021.744c-3.649,0-18.106-4.04-19.514-5.6h0a1.308,1.308,0,0,1-.329-1.066c.217-1.957,4.057-4.7,4.22-4.813l.241-.17.13.264c1.151,2.329,3.435,2.943,6.89,3.872a47.423,47.423,0,0,1,7.924,2.712,15.008,15.008,0,0,1,3.346,2.081l.1.088-.016.135c-.125,1.036-.889,1.825-2.334,2.412a1.927,1.927,0,0,1-.664.084m-19.14-5.937c1.4,1.552,17.9,6.084,19.615,5.386,1.209-.491,1.851-1.089,2-1.873a14.579,14.579,0,0,0-3.125-1.919,46.316,46.316,0,0,0-7.844-2.683c-3.336-.9-5.78-1.555-7.072-3.873-1.188.881-3.63,2.946-3.779,4.289a.817.817,0,0,0,.2.673" transform="translate(-1930.874 -2768.277)" fill="#19040f"/>
  <path id="Path_469" data-name="Path 469" d="M1745.493,3193.988l54.631.211a10.689,10.689,0,0,0-.415-4.412l-53.618-.207v0c-.3,2.423-.6,4.406-.6,4.406" transform="translate(-1606.26 -2933.451)" fill="#f0bb62"/>
  <path id="Path_470" data-name="Path 470" d="M1798.785,3191.218h-.214l-54.923-.212.044-.289c0-.02.306-2.006.6-4.4v-.252l.25.028,53.8.208.054.178a10.856,10.856,0,0,1,.422,4.526Zm-54.552-.714,54.116.209a10.849,10.849,0,0,0-.381-3.909l-53.208-.206c-.219,1.784-.437,3.3-.527,3.906" transform="translate(-1604.562 -2930.218)" fill="#19040f"/>
  <path id="Path_471" data-name="Path 471" d="M2142.977,3049.537l-.48-.151a9.231,9.231,0,0,1,3.5-4.412l.273.423a8.884,8.884,0,0,0-3.295,4.14" transform="translate(-1971.596 -2800.374)" fill="#19040f"/>
  <path id="Path_472" data-name="Path 472" d="M2194.567,3065.38l-.5-.062a7.119,7.119,0,0,1,3.126-4.74l.265.427a6.733,6.733,0,0,0-2.891,4.375" transform="translate(-2019.052 -2814.733)" fill="#19040f"/>
  <path id="Path_473" data-name="Path 473" d="M2274.637,3091.046l-.476-.163a7.236,7.236,0,0,1,3.426-4.3l.207.459a6.874,6.874,0,0,0-3.156,4.007" transform="translate(-2092.757 -2838.662)" fill="#19040f"/>
  <path id="Path_474" data-name="Path 474" d="M1132.414,1957.381v12.182a12.98,12.98,0,0,0,12.982,12.979h35.448l-1.372,18.775-1.942,26.643h35.109l-1.672-58.269a11.394,11.394,0,0,0-11.175-11.057l-14.628-.273Z" transform="translate(-1042.084 -1799.486)" fill="#f0bb62"/>
  <path id="Path_475" data-name="Path 475" d="M1698.008,2516.586h33.8a5.056,5.056,0,0,0-.805-.181,14.629,14.629,0,0,1-3.969-.613c-1.229-.543-2.135-2.172-1.322-3.246-.709-2.392-.027-4.941.332-7.414s.247-5.319-1.588-7.013a6.828,6.828,0,0,0-5.037-1.444c-1.792.1-3.545.554-5.337.662a14.2,14.2,0,0,1-13.784-9l-.347,1.606Z" transform="translate(-1562.563 -2288.114)" fill="#ffdda5"/>
  <path id="Path_476" data-name="Path 476" d="M1132.414,1957.381v12.182a12.98,12.98,0,0,0,12.982,12.979H1174.1a11.593,11.593,0,0,0-5.117-6.077c-8.828-5.268-21.236.085-29.937-5.388-1.152-.728-2.312-2.026-1.8-3.285.551-1.355,2.443-1.359,3.9-1.171a73.293,73.293,0,0,0,44.018-8.261Z" transform="translate(-1042.084 -1799.486)" fill="#ffdda5"/>
  <path id="Path_477" data-name="Path 477" d="M1210.7,2026.194h-35.109a.168.168,0,0,1-.167-.18l3.3-45.238h-35.265a13.163,13.163,0,0,1-13.151-13.144v-12.182a.167.167,0,0,1,.05-.12.134.134,0,0,1,.121-.048l67.378,1.249a11.547,11.547,0,0,1,11.338,11.223l1.675,58.267a.167.167,0,0,1-.168.173m-34.929-.335h34.757l-1.67-58.094a11.213,11.213,0,0,0-11.009-10.9l-67.207-1.245v12.011a12.827,12.827,0,0,0,12.816,12.809H1178.9a.167.167,0,0,1,.167.18Z" transform="translate(-1040.142 -1797.554)"/>
  <path id="Path_478" data-name="Path 478" d="M2077.882,1112.931c-.321,1.033-.622,2.048-.916,3.024-1.014,3.412-1.8,6.355-2.177,7.84-.171.657-.262,1.024-.262,1.024l.781.493,7.7,4.931,2.22-3.244s2.4-1.309,5.645-3.174c6.773-3.907,17.215-10.255,17-12.22-.3-2.852-4.633-.707-4.822-.609.194-.145,6.119-4.458,4.73-6.525-1.322-1.962-5.671,1.3-6.261,1.757.629-.527,5.625-4.877,3.51-6.433-2.216-1.635-7.5,2.586-7.648,2.71.106-.14,4.519-6.146,2.176-7.262a.892.892,0,0,0-.2-.079c-2.727-.856-12.465,9.474-13,10.037" transform="translate(-1909.048 -1005.958)" fill="#ffd8c8"/>
  <path id="Path_479" data-name="Path 479" d="M2078.33,1331l7.7,4.931,2.22-3.244s2.4-1.309,5.645-3.173a32.754,32.754,0,0,1-10.282-7.242,14.9,14.9,0,0,1-2.706-3.652c-1.442,4.622-2.6,8.958-3.092,10.864a13.057,13.057,0,0,0,.519,1.516" transform="translate(-1912.069 -1211.647)" fill="#002f35"/>
  <path id="Path_480" data-name="Path 480" d="M2081.091,1128.531a.166.166,0,0,1-.091-.026l-8.472-5.427a.168.168,0,1,1,.181-.282l8.335,5.339,2.133-3.116a.169.169,0,0,1,.058-.053c6.358-3.458,22.807-12.934,22.559-15.228a1.331,1.331,0,0,0-.651-1.122c-.99-.541-2.937.151-3.932.645a.168.168,0,0,1-.173-.286c.06-.044,6-4.354,4.69-6.3a1.191,1.191,0,0,0-.844-.524c-1.314-.214-3.612,1.12-5.174,2.326a.168.168,0,0,1-.212-.26c.413-.351,4.032-3.482,3.969-5.332a1.032,1.032,0,0,0-.448-.839c-1.679-1.239-5.6,1.225-7.442,2.7a.168.168,0,0,1-.24-.23c1.248-1.7,3.23-4.965,2.755-6.42a.985.985,0,0,0-.694-.657c-2.089-.659-9.054,5.978-12.837,10l-.131-.107-.115-.123c1.057-1.126,10.4-10.973,13.183-10.095a1.318,1.318,0,0,1,.913.873c.491,1.5-1.225,4.389-2.2,5.858,1.659-1.188,5.208-3.4,7.01-2.074a1.365,1.365,0,0,1,.584,1.1c.043,1.24-1.318,2.909-2.5,4.12a6.359,6.359,0,0,1,3.639-1.174,1.526,1.526,0,0,1,1.068.668c1.128,1.677-2.062,4.6-3.774,5.986a4.2,4.2,0,0,1,3.073-.155,1.664,1.664,0,0,1,.824,1.38c.315,2.92-20.174,14.165-22.7,15.539l-2.2,3.217a.166.166,0,0,1-.138.073m3.338-25.19h0Z" transform="translate(-1907.137 -1004.077)"/>
  <path id="Path_481" data-name="Path 481" d="M1509.4,1258.176s11.879,22.23,29.447,21.383c9.9-.478,31.287-27.618,31.287-27.618l-9.714-12.8-2.47-3.254-14.251,12.8c.168-.335-19.971-17.752-23.6-18.322a1.737,1.737,0,0,0-1.6.664v.007c-3.343,3.744-9.093,27.137-9.093,27.137" transform="translate(-1388.998 -1130.414)" fill="#1c7d88"/>
  <path id="Path_482" data-name="Path 482" d="M1623.389,1231.033v.007a4.964,4.964,0,0,0,2.383,2.355,23.041,23.041,0,0,1,2.994,1.053,23.8,23.8,0,0,1,3.739,2.59,43.07,43.07,0,0,1,3.732,3.529c2.893,3.033,5.592,6.3,8.962,8.8,1.732,1.281,3.806,2.388,5.941,2.08a9.525,9.525,0,0,0,4.645-2.63,100.4,100.4,0,0,0,7.27-6.971,22.193,22.193,0,0,0,2.262-2.7l-2.47-3.254-14.251,12.8c.168-.335-19.971-17.752-23.6-18.322a1.737,1.737,0,0,0-1.6.664" transform="translate(-1493.896 -1130.414)" fill="#064f57"/>
  <path id="Path_483" data-name="Path 483" d="M1535.943,1277.81c-16.943,0-28.51-21.275-28.627-21.495a.167.167,0,0,1-.015-.119c.235-.955,5.775-23.383,9.109-27.184a.163.163,0,0,1,.021-.03,1.9,1.9,0,0,1,1.755-.718.16.16,0,0,1,.039.011c2.1.878,9.816,6.915,13.038,9.47,4.037,3.2,9.589,7.749,10.523,8.76l14.116-12.679a.161.161,0,0,1,.128-.042.166.166,0,0,1,.118.066l12.184,16.05a.168.168,0,0,1,0,.205c-.875,1.11-21.551,27.206-31.412,27.682-.326.016-.653.024-.976.024m-28.3-21.6c.683,1.239,12.421,22.036,29.26,21.238,9.406-.454,29.634-25.634,31.083-27.453l-12-15.8-14.116,12.679a.168.168,0,0,1-.275-.085c-.663-.932-20.1-16.751-23.485-18.2a1.558,1.558,0,0,0-1.413.591.151.151,0,0,1-.02.029c-3.193,3.575-8.7,25.648-9.04,27" transform="translate(-1387.063 -1128.475)"/>
  <path id="Path_484" data-name="Path 484" d="M2075.766,1547.206a.671.671,0,0,0,.463-.185l1.8-1.714a.671.671,0,0,0-.926-.972l-1.8,1.714a.671.671,0,0,0,.463,1.157" transform="translate(-1909.57 -1419.2)" fill="#fff"/>
  <path id="Path_485" data-name="Path 485" d="M2125.894,1472.939a.672.672,0,0,0,.463-.185l4.224-4.016a.671.671,0,0,0-.926-.972l-4.224,4.016a.671.671,0,0,0,.462,1.157" transform="translate(-1955.699 -1348.734)" fill="#fff"/>
  <path id="Path_486" data-name="Path 486" d="M1152.635,1252.916c-.236-2.552-1.172-47.441-12.8-59.32-8.239-8.411-38.8-5.6-43.019,1.424-5.958,9.927-1.477,52.7.038,58.742.027,3.731,55.808,2.884,55.781-.846" transform="translate(-1006.56 -1091.82)" fill="#1c7d88"/>
  <path id="Path_487" data-name="Path 487" d="M1117.833,1254.341c-5.966,0-11.374-.179-15.415-.515-7.153-.594-7.986-1.461-7.991-2.062-1.669-6.632-5.979-48.893-.014-58.83,1.213-2.02,4.643-3.818,9.66-5.063,9.855-2.445,24.307-2.4,31.434,1.907a.167.167,0,1,1-.173.287c-7.053-4.261-21.391-4.3-31.18-1.868-4.929,1.223-8.286,2.966-9.452,4.909-5.793,9.65-1.557,52.186.056,58.615.007.3.567,1.179,7.688,1.77,4.533.376,10.8.557,17.63.505,16.627-.122,30.145-1.5,30.133-3.079-.022-.228-.05-.838-.092-1.76-.947-20.45-3.206-36.064-6.714-46.409a.167.167,0,1,1,.317-.108c3.518,10.375,5.783,26.02,6.731,46.5.043.918.071,1.524.093,1.759.019,2.54-19.92,3.354-30.466,3.432-.755.006-1.505.008-2.245.008" transform="translate(-1004.301 -1089.822)"/>
  <path id="Path_488" data-name="Path 488" d="M1621.1,1250.14a27.1,27.1,0,0,1,3.2,3.831.777.777,0,0,0,.638.329.759.759,0,0,0,.436-.134.773.773,0,0,0,.195-1.073,29.323,29.323,0,0,0-3.376-4.046.771.771,0,1,0-1.088,1.094" transform="translate(-1491.582 -1147.415)" fill="#fff"/>
  <path id="Path_489" data-name="Path 489" d="M2046.449,2152.4a.693.693,0,0,1-.083-.005.671.671,0,0,1-.583-.748c.115-.926.234-1.884.291-2.835a.661.661,0,0,1,.71-.63.671.671,0,0,1,.63.709c-.059.994-.18,1.973-.3,2.92a.671.671,0,0,1-.666.588" transform="translate(-1882.591 -1975.072)" fill="#fff"/>
  <path id="Path_490" data-name="Path 490" d="M1935.792,2037.706a.671.671,0,0,1-.665-.582,6.861,6.861,0,0,0-2.329-4.569c-1.81-1.423-4.361-1.466-6.814-1.39a.661.661,0,0,1-.691-.65.671.671,0,0,1,.649-.692c2.587-.081,5.522-.025,7.686,1.677a8.181,8.181,0,0,1,2.83,5.444.671.671,0,0,1-.576.754.7.7,0,0,1-.09.006" transform="translate(-1771.716 -1866.133)" fill="#fff"/>
  <path id="Path_491" data-name="Path 491" d="M2066.869,2605.469a.77.77,0,0,0,.77-.759s.017-1.162.04-2.956a.771.771,0,0,0-.761-.78h-.01a.771.771,0,0,0-.771.761c-.022,1.791-.04,2.951-.04,2.952a.771.771,0,0,0,.76.781Z" transform="translate(-1901.291 -2391.771)" fill="#fff"/>
  <path id="Path_492" data-name="Path 492" d="M2066.946,2377.842a.771.771,0,0,1-.763-.778c.126-12.407.011-14.639-.049-15.006a.771.771,0,0,1,1.432-.56c.123.263.31.661.158,15.582a.771.771,0,0,1-.771.763Zm-.775-15.693h0" transform="translate(-1901.29 -2170.977)" fill="#fff"/>
  <path id="Path_493" data-name="Path 493" d="M2376.7,2715.771a.77.77,0,0,0,.623-.884s-.189-1.147-.486-2.917a.77.77,0,0,0-.887-.632h-.01a.77.77,0,0,0-.623.886c.3,1.766.485,2.912.485,2.912a.771.771,0,0,0,.886.635l.011,0" transform="translate(-2185.838 -2493.327)" fill="#fff"/>
  <path id="Path_494" data-name="Path 494" d="M2335.958,2491.826a.772.772,0,0,1-.889-.63c-2.077-12.233-2.587-14.41-2.711-14.76a.77.77,0,0,1,1.31-.805c.168.237.422.6,2.921,15.307a.77.77,0,0,1-.623.887h-.008m-3.548-15.306h0" transform="translate(-2146.229 -2276.12)" fill="#fff"/>
  <rect id="Rectangle_61" data-name="Rectangle 61" width="4.417" height="67.271" transform="translate(91.999 193.185)" fill="#002f35"/>
  <path id="Path_495" data-name="Path 495" d="M1155.988,2465.546h-4.753v-67.607h4.753Zm-4.417-.335h4.082v-66.936h-4.082Z" transform="translate(-1059.404 -2204.922)"/>
  <rect id="Rectangle_62" data-name="Rectangle 62" width="240.96" height="8.972" transform="translate(30.502 157.408)" fill="#fff"/>
  <path id="Path_496" data-name="Path 496" d="M660.026,1956.247a.168.168,0,0,1-.168-.168V1949.5H418.793a.168.168,0,1,1,0-.336H660.026a.168.168,0,0,1,.168.168v6.744a.168.168,0,0,1-.168.168" transform="translate(-385.232 -1791.927)" fill="#000712"/>
  <path id="Path_497" data-name="Path 497" d="M581.507,2001.036H338.7a.168.168,0,0,1-.168-.168v-5.285a.168.168,0,0,1,.336,0v5.118H581.507a.168.168,0,1,1,0,.335" transform="translate(-311.527 -1834.489)" fill="#000712"/>
  <path id="Path_498" data-name="Path 498" d="M3129.6,2122.462a.167.167,0,0,1-.161-.12l-17.77-60.414a.171.171,0,0,1,.027-.148.168.168,0,0,1,.134-.067h5.9a.167.167,0,0,1,.161.121l7,23.806a.168.168,0,1,1-.322.094l-6.967-23.685h-5.549l17.707,60.2a.169.169,0,0,1-.114.208.174.174,0,0,1-.047.007" transform="translate(-2863.451 -1895.5)" fill="#000712"/>
  <path id="Path_499" data-name="Path 499" d="M3336.068,2573.253h-5.9a.168.168,0,0,1-.161-.12l-6.646-22.6a.168.168,0,0,1,.322-.094l6.611,22.477h5.55l-16.93-57.557a.168.168,0,0,1,.323-.094l16.992,57.772a.167.167,0,0,1-.161.215" transform="translate(-3054.167 -2312.784)" fill="#000712"/>
  <path id="Path_500" data-name="Path 500" d="M447.1,2122.462a.175.175,0,0,1-.047-.007.168.168,0,0,1-.114-.208l17.707-60.2H459.1l-6.966,23.685a.168.168,0,0,1-.323-.094l7-23.806a.168.168,0,0,1,.161-.121h5.9a.168.168,0,0,1,.134.067.17.17,0,0,1,.027.148l-17.77,60.414a.168.168,0,0,1-.161.12" transform="translate(-411.285 -1895.5)" fill="#000712"/>
  <path id="Path_501" data-name="Path 501" d="M255.5,2573.256h-5.9a.167.167,0,0,1-.134-.067.17.17,0,0,1-.027-.148l16.993-57.772a.168.168,0,0,1,.322.094l-16.93,57.557h5.55l6.611-22.478a.168.168,0,0,1,.323.095l-6.647,22.6a.168.168,0,0,1-.161.121" transform="translate(-229.532 -2312.787)" fill="#000712"/>
  <path id="Path_502" data-name="Path 502" d="M1252.02,2011.222h-6.083a.168.168,0,1,1,0-.335h6.083a.168.168,0,1,1,0,.335" transform="translate(-1146.397 -1848.726)" fill="#000712"/>
  <path id="Path_503" data-name="Path 503" d="M884.165,2011.222H860.78a.168.168,0,1,1,0-.335h23.385a.168.168,0,1,1,0,.335" transform="translate(-791.963 -1848.726)" fill="#000712"/>
  <path id="Path_504" data-name="Path 504" d="M2962.4,2006.37h-7.069a.168.168,0,1,1,0-.335h7.069a.168.168,0,1,1,0,.335" transform="translate(-2719.435 -1844.26)" fill="#000712"/>
  <path id="Path_505" data-name="Path 505" d="M2534.913,2006.37h-27.177a.168.168,0,1,1,0-.335h27.177a.168.168,0,1,1,0,.335" transform="translate(-2307.547 -1844.26)" fill="#000712"/>
  <path id="Path_506" data-name="Path 506" d="M1660.892,1490.59h-10.236a4.214,4.214,0,0,1-4.211-4.208v-1.9a75.559,75.559,0,0,0-1.657-13.584c-.41-2.227-.834-4.53-1.148-6.816-.454-3.293-.006-13.318,0-13.419a.168.168,0,0,1,.336.015c0,.1-.451,10.1,0,13.358.313,2.278.736,4.578,1.145,6.8a75.779,75.779,0,0,1,1.663,13.645v1.9a3.878,3.878,0,0,0,3.875,3.873h10.236a3.878,3.878,0,0,0,3.875-3.873v-1.9a75.78,75.78,0,0,1,1.663-13.645c.409-2.223.833-4.523,1.145-6.8.45-3.263,0-13.257,0-13.358a.168.168,0,0,1,.16-.175.159.159,0,0,1,.176.16c0,.1.452,10.126,0,13.419-.315,2.286-.738,4.589-1.149,6.816a75.559,75.559,0,0,0-1.657,13.584v1.9a4.214,4.214,0,0,1-4.211,4.208" transform="translate(-1512.345 -1333.015)"/>
  <path id="Path_507" data-name="Path 507" d="M1672,1422.447c0,1.445-5.359,2.618-11.968,2.618s-11.968-1.172-11.968-2.618,5.355-2.613,11.968-2.613,11.968,1.172,11.968,2.613" transform="translate(-1516.604 -1304.793)" fill="#fff"/>
  <path id="Path_508" data-name="Path 508" d="M1658.1,1423.3c-.548,0-1.092-.009-1.618-.027-5.065-.147-10.518-1.073-10.518-2.759s5.453-2.607,10.519-2.754c.894-.03,1.854-.035,2.766-.013,5.459.113,10.986,1.1,10.986,2.767s-5.527,2.66-10.986,2.772c-.376.009-.763.014-1.149.014m0-5.231c-.544,0-1.084.009-1.606.027-6.3.183-10.194,1.4-10.194,2.418,0,1.046,3.813,2.238,10.193,2.423.892.031,1.845.036,2.749.014,6.583-.136,10.658-1.37,10.658-2.437s-4.075-2.3-10.657-2.432c-.375-.009-.759-.013-1.142-.013" transform="translate(-1514.672 -1302.86)"/>
  <path id="Path_509" data-name="Path 509" d="M1780.654,1358.147v10.135c-.376.009-.761.013-1.146.013-.546,0-1.088-.009-1.612-.027v-10.122Z" transform="translate(-1636.078 -1248.024)" fill="#fdd621"/>
  <path id="Path_510" data-name="Path 510" d="M1778.716,1366.514a.168.168,0,0,1-.168-.167v-9.968h-2.422v9.954a.168.168,0,1,1-.336,0v-10.122a.168.168,0,0,1,.168-.168h2.758a.168.168,0,0,1,.168.168v10.135a.168.168,0,0,1-.168.167" transform="translate(-1634.14 -1246.087)"/>
  <path id="Path_511" data-name="Path 511" d="M1669.661,1466c-.94,6.837-2.807,13.523-2.807,20.423v1.9a4.046,4.046,0,0,1-4.043,4.041h-10.235a4.046,4.046,0,0,1-4.043-4.041v-1.9c0-6.9-1.867-13.586-2.807-20.423-.457-3.316,0-13.388,0-13.388,0,1.445,5.355,2.618,11.968,2.618s11.968-1.172,11.968-2.618c0,0,.457,10.073,0,13.388" transform="translate(-1514.263 -1334.959)" fill="#fff"/>
  <path id="Path_512" data-name="Path 512" d="M1693.663,1623.876c-.23,1.385-.483,2.769-.733,4.125a77.287,77.287,0,0,0-1.693,13.985v1.9a1.994,1.994,0,0,1-1.992,1.991h-10.232a1.994,1.994,0,0,1-1.992-1.991v-1.9a77.253,77.253,0,0,0-1.692-13.982c-.384-2.085-.776-4.235-1.078-6.355Z" transform="translate(-1540.699 -1490.519)" fill="#ff7e53"/>
  <path id="Path_513" data-name="Path 513" d="M1687.313,1644.107h-10.232a2.162,2.162,0,0,1-2.16-2.158v-1.9a77.133,77.133,0,0,0-1.689-13.951c-.36-1.96-.77-4.182-1.079-6.362a.168.168,0,0,1,.185-.19l19.412,2.227a.169.169,0,0,1,.147.194c-.229,1.381-.478,2.741-.734,4.128a77.162,77.162,0,0,0-1.691,13.954v1.9a2.162,2.162,0,0,1-2.159,2.158m-14.8-24.2c.3,2.1.7,4.241,1.046,6.133a77.4,77.4,0,0,1,1.695,14.012v1.9a1.826,1.826,0,0,0,1.824,1.823h10.232a1.826,1.826,0,0,0,1.824-1.823v-1.9a77.281,77.281,0,0,1,1.693-13.995c.248-1.347.486-2.65.707-3.969Z" transform="translate(-1538.768 -1488.583)"/>
  <path id="Path_514" data-name="Path 514" d="M1693.654,1614.951c-.1.832-4.5.911-9.857.34s-9.653-1.729-9.555-2.561,4.558-1.023,9.91-.452,9.6,1.841,9.5,2.673" transform="translate(-1540.69 -1481.594)" fill="#d04e41"/>
  <path id="Path_515" data-name="Path 515" d="M1681.381,1613.511h-.019c-4.7-.538-8.44-1.495-9.1-2.327a.492.492,0,0,1-.122-.367c.145-1.215,6.116-1.024,10.094-.6,4.7.5,8.794,1.567,9.521,2.478a.508.508,0,0,1,.129.381.409.409,0,0,1-.052.157.168.168,0,1,1-.291-.166.191.191,0,0,0-.049-.163c-.572-.716-4.287-1.819-9.294-2.354-5.928-.633-9.661-.249-9.726.3a.189.189,0,0,0,.052.12c.5.632,3.781,1.618,8.874,2.2a.168.168,0,0,1-.019.334" transform="translate(-1538.756 -1479.699)"/>
  <path id="Path_516" data-name="Path 516" d="M1780.654,1485.125v12.682l-2.758-.547v-12.149c.524.018,1.066.027,1.612.027.385,0,.77,0,1.146-.013" transform="translate(-1636.078 -1364.867)" fill="#fdd621"/>
  <path id="Path_517" data-name="Path 517" d="M1778.715,1496.039a.15.15,0,0,1-.033,0l-2.758-.547a.168.168,0,0,1-.135-.165v-12.149a.167.167,0,0,1,.168-.168h0l2.758.013a.168.168,0,0,1,.167.168v12.682a.168.168,0,0,1-.168.168m-2.59-.852,2.422.48v-12.311l-2.422-.012Z" transform="translate(-1634.139 -1362.931)"/>
  <path id="Path_518" data-name="Path 518" d="M1749.658,1787.537a1.485,1.485,0,1,1-1.485-1.484,1.485,1.485,0,0,1,1.485,1.484" transform="translate(-1607.358 -1641.815)" fill="#fff"/>
  <path id="Path_519" data-name="Path 519" d="M1770.293,1847.155a1.2,1.2,0,1,1,.954-1.4,1.2,1.2,0,0,1-.954,1.4" transform="translate(-1627.768 -1695.857)" fill="#fff"/>
  <path id="Path_520" data-name="Path 520" d="M1848.225,1796.736a.685.685,0,1,1,.544-.8.688.688,0,0,1-.544.8" transform="translate(-1700.046 -1650.397)" fill="#fff"/>
  <path id="Path_521" data-name="Path 521" d="M1761.08,1715.017a.685.685,0,1,1,.544-.8.688.688,0,0,1-.544.8" transform="translate(-1619.853 -1575.193)" fill="#fff"/>
  <path id="Path_522" data-name="Path 522" d="M1669.661,1466c-.94,6.837-2.807,13.523-2.807,20.423v1.9a4.046,4.046,0,0,1-4.043,4.041h-10.235a4.046,4.046,0,0,1-4.043-4.041v-1.9c0-6.9-1.867-13.586-2.807-20.423-.457-3.316,0-13.388,0-13.388,0,1.445,5.355,2.618,11.968,2.618s11.968-1.172,11.968-2.618c0,0,.457,10.073,0,13.388" transform="translate(-1514.263 -1334.959)" fill="#fff"/>
  <path id="Path_523" data-name="Path 523" d="M1413.334,1653.843s2.876.119,2.745-1.97c-.244-3.868-11.266-.971-11.266-.971s4.816-3.076,3.077-5.555-15.329,5.232-17.03,5.615v14.7c7.722-.719,21.513,2.237,23.03.986,1.8-1.486-3.636-4.662-3.636-4.662s4.316,2.563,5.76.608c1.271-1.72-2.721-4.295-3.7-4.888.9.519,4.425,2.4,5.539.546,1.28-2.129-4.521-4.411-4.521-4.411" transform="translate(-1279.915 -1511.877)" fill="#ffd8c8"/>
  <path id="Path_524" data-name="Path 524" d="M1410.091,1665.205c-1.531,0-3.875-.239-7.03-.577-4.775-.511-10.187-1.091-14.119-.725a.172.172,0,0,1-.129-.043.165.165,0,0,1-.055-.124v-14.7a.167.167,0,0,1,.131-.163,31.065,31.065,0,0,0,3.387-1.514c6.3-3.022,12.561-5.823,13.817-4.035a2.174,2.174,0,0,1,.361,1.731c-.289,1.461-1.835,2.836-2.77,3.552,2.157-.492,7.768-1.578,9.836-.085a1.817,1.817,0,0,1,.791,1.413,1.721,1.721,0,0,1-.472,1.372,2.974,2.974,0,0,1-1.72.735c1.189.54,3.6,1.782,4.07,3.167a1.38,1.38,0,0,1-.126,1.2c-.746,1.242-2.434.961-3.842.433a5.8,5.8,0,0,1,2.242,2.774,1.405,1.405,0,0,1-.249,1.148c-.865,1.169-2.625.859-4.016.355,1.062.8,2.214,1.877,2.287,2.783a1.067,1.067,0,0,1-.423.946,3.473,3.473,0,0,1-1.972.354m-18.371-1.753a113.355,113.355,0,0,1,11.377.843c4.148.444,8.067.865,8.752.3a.74.74,0,0,0,.3-.66c-.1-1.228-2.805-3.073-3.884-3.708l-.034-.02a.168.168,0,0,1,.17-.289l.01.006c.221.129,4.223,2.417,5.53.647a1.065,1.065,0,0,0,.189-.883c-.235-1.2-2.138-2.728-3.839-3.761a.168.168,0,0,1,.171-.289c.7.406,4.262,2.349,5.311.6a1.044,1.044,0,0,0,.095-.923c-.567-1.669-4.494-3.23-4.534-3.246a.168.168,0,0,1,.062-.324.743.743,0,0,0,.077,0,3.268,3.268,0,0,0,2.124-.677,1.4,1.4,0,0,0,.377-1.116,1.478,1.478,0,0,0-.654-1.162c-2.4-1.733-10.323.322-10.4.343a.168.168,0,0,1-.133-.3c.03-.019,2.955-1.909,3.337-3.844a1.849,1.849,0,0,0-.307-1.473c-1.193-1.7-9.132,2.1-13.4,4.145-1.592.764-2.779,1.333-3.327,1.5v14.39c.821-.069,1.7-.1,2.625-.1" transform="translate(-1277.981 -1509.949)"/>
  <path id="Path_525" data-name="Path 525" d="M1584.79,1738.439a.166.166,0,0,1-.079-.02,12.7,12.7,0,0,0-7.4-1.4.168.168,0,0,1-.039-.334,13.061,13.061,0,0,1,7.6,1.442.168.168,0,0,1-.079.316" transform="translate(-1451.319 -1596.303)"/>
  <path id="Path_526" data-name="Path 526" d="M1573.495,1783.1a.166.166,0,0,1-.067-.014c-.047-.021-4.733-2.026-6.991-1.633a.163.163,0,0,1-.194-.136.167.167,0,0,1,.136-.194c2.357-.413,6.985,1.57,7.182,1.655a.168.168,0,0,1-.067.322" transform="translate(-1441.306 -1637.23)"/>
  <path id="Path_527" data-name="Path 527" d="M1571.643,1843.006a.167.167,0,0,1-.083-.022c-.028-.016-2.834-1.582-5.127-1.22a.165.165,0,0,1-.192-.14.167.167,0,0,1,.14-.192c2.41-.379,5.225,1.193,5.345,1.259a.168.168,0,0,1-.083.314" transform="translate(-1441.305 -1692.727)"/>
  <path id="Path_528" data-name="Path 528" d="M1233.432,1773.466a5.822,5.822,0,0,0,2.554.167,10.8,10.8,0,0,0,3.855-1.245,4.421,4.421,0,0,0,1.75-1.522,2.061,2.061,0,0,0,.01-2.215c-.618-.841-1.851-.869-2.887-.741a25.387,25.387,0,0,0-6.307,1.695c-2.117.85-.567,3.331,1.026,3.863" transform="translate(-1133.151 -1625.066)" fill="#fff"/>
  <path id="Path_529" data-name="Path 529" d="M872.322,1248.823c-11.5,5.966-23.512,31.831-24.292,40.777-.7,8.059,3.635,15.492,11.725,15.215l35.2-1.579-.513-20.157-17.422,1.014s11.3-17.524,5.36-26.17" transform="translate(-780.317 -1147.415)" fill="#1c7d88"/>
  <path id="Path_530" data-name="Path 530" d="M857.367,1303.052a10.482,10.482,0,0,1-7.813-3.277c-2.739-2.885-4.068-7.306-3.647-12.128.806-9.247,13.121-35.069,24.382-40.911a.168.168,0,1,1,.155.3c-11.177,5.8-23.4,31.454-24.2,40.643-.406,4.657.923,9.094,3.556,11.868a10.194,10.194,0,0,0,8,3.165l35.034-1.572-.5-19.82-17.249,1a.159.159,0,0,1-.155-.083.167.167,0,0,1,0-.175c.112-.174,11.172-17.529,5.362-25.984a.168.168,0,0,1,.277-.19c5.6,8.146-3.712,23.725-5.181,26.078l17.1-.995a.16.16,0,0,1,.123.044.169.169,0,0,1,.055.119l.513,20.157a.168.168,0,0,1-.161.172l-35.2,1.579q-.22.008-.439.008" transform="translate(-778.36 -1145.477)"/>
  <path id="Path_531" data-name="Path 531" d="M1430.621,742.524s6.584,29.548,6.512,31.323c-.245,6.023-18.045,4.774-18.653,1.809l-1.8-14.488,5.111-10,6.059-9.78Z" transform="translate(-1303.672 -680.434)" fill="#002f35"/>
  <path id="Path_532" data-name="Path 532" d="M1425.85,776.434c-4.4,0-9.1-1.041-9.469-2.685l-1.805-14.5a.173.173,0,0,1,.017-.1l5.111-10,6.066-9.792a.166.166,0,0,1,.206-.067l2.774,1.136a.168.168,0,0,1,.1.119c.268,1.207,6.544,29.587,6.516,31.362-.038,2.377-2.52,3.94-6.99,4.4a24.733,24.733,0,0,1-2.526.124m-10.935-17.18,1.8,14.437c.36,1.585,6.556,2.813,11.631,2.285,4.216-.437,6.654-1.923,6.688-4.076.027-1.689-6.1-29.434-6.489-31.2l-2.561-1.049L1420,749.314Z" transform="translate(-1301.737 -678.491)"/>
  <path id="Path_533" data-name="Path 533" d="M1209.173,733.5l.715,14.074.1,1.775s1.812.65,4.174,1.286c3.657.994,8.635,1.953,10.206.415,1.99-1.934-1.018-11.05-1.018-11.05l1.289-.048a9.4,9.4,0,0,0,8.946-10.553l-1.595-12.814-.094-.758-.676-5.42-20.522,5.148-.308,2.617-.927,7.735s-7.421-3.837-7.594,1.978,7.31,5.615,7.31,5.615" transform="translate(-1105.991 -651.92)" fill="#ffd8c8"/>
  <path id="Path_534" data-name="Path 534" d="M1209.173,733.5l.715,14.074.1,1.775s1.812.65,4.174,1.286c-1.656-4.363-3.58-9.49-3.477-9.986a29.982,29.982,0,0,0,.621-4.945,5.35,5.35,0,0,0-.331-2.463c-.643-1.395-2.259-2.039-3.764-2.323a8.337,8.337,0,0,1-1.688-.4,2.1,2.1,0,0,1-1.234-1.155,1.885,1.885,0,0,1,1.149-2.248,3.121,3.121,0,0,1,2.679.327c.484.272.923.639,1.412.9a2.163,2.163,0,0,0,1.609.286,2.03,2.03,0,0,0,1.31-1.749,7.438,7.438,0,0,0-.214-2.3,19.3,19.3,0,0,1-.285-3.049c-.006-.572-.208-1.975.3-2.373.257-.189.8-.189,1.111-.315a4.284,4.284,0,0,0,1.008-.559c.333-.243,1.534-1.273,1.409-1.767a2,2,0,0,0,1.265,1.224,5.334,5.334,0,0,0,1.813.242,56.307,56.307,0,0,0,13.134-1.4l-.094-.758-.676-5.42-20.522,5.148-.308,2.617-.927,7.735s-7.421-3.837-7.594,1.978,7.31,5.615,7.31,5.615" transform="translate(-1105.991 -651.92)" fill="#ff8f7a"/>
  <path id="Path_535" data-name="Path 535" d="M1219.4,750.082c-4.35,0-11.057-2.381-11.426-2.513a.169.169,0,0,1-.111-.149l-.8-15.69c-.775-.006-4.033-.147-5.944-2.064a4.862,4.862,0,0,1-1.373-3.729,3.256,3.256,0,0,1,1.414-2.942c1.966-1.158,5.322.3,6.212.719l1.206-10.122a.168.168,0,0,1,.126-.143l20.521-5.146a.172.172,0,0,1,.136.025.167.167,0,0,1,.071.118l2.367,18.994a9.566,9.566,0,0,1-9.106,10.738l-1.068.043c.452,1.419,2.8,9.171.911,11.013a4.552,4.552,0,0,1-3.133.85M1208.2,747.29c1.173.409,11.744,4,14.106,1.7,1.891-1.842-1.033-10.789-1.063-10.879a.168.168,0,0,1,.153-.22l1.289-.051a9.229,9.229,0,0,0,8.786-10.361l-2.343-18.805-20.225,5.072-1.22,10.242a.167.167,0,0,1-.088.128.168.168,0,0,1-.156,0c-.04-.021-4.029-2.054-6.1-.834a2.947,2.947,0,0,0-1.248,2.662,4.538,4.538,0,0,0,1.275,3.482c2.032,2.038,5.823,1.962,5.861,1.964h0a.168.168,0,0,1,.168.159Z" transform="translate(-1104.044 -649.982)"/>
  <path id="Path_536" data-name="Path 536" d="M1064.866,605.238c3.451-3.818-.719-20.568-.719-20.568s-7.478.192-7.308-5.619,7.6-1.973,7.6-1.973,0,2.147,1.777,1.467-.853-9.2-.853-9.2l3.45-.982,1.175-1.653,1.967,1.364s10.681.151,14.916-1.076a3.414,3.414,0,0,0,1.5-.734c1.879-2.013.957-15.188-10.662-17.282s-13.961,7.622-13.961,7.622c-18.045-3.049-12.331,15.845-14.825,18.36s-6.96,20.158-3.208,25.664c3.838,5.632,15.855,8.266,19.157,4.613" transform="translate(-960.968 -503.092)" fill="#002f35"/>
  <path id="Path_537" data-name="Path 537" d="M1057.846,605.18q-.533,0-1.1-.039c-4.52-.31-10.431-2.584-12.985-6.332-3.794-5.567.713-23.342,3.228-25.876.617-.622.7-2.485.8-4.642.179-3.917.424-9.282,3.952-12.126,2.265-1.826,5.651-2.386,10.071-1.664.368-1.235,3.265-9.555,14.112-7.6a13.541,13.541,0,0,1,10.749,9.42c1.2,3.593.968,7.111.006,8.142a3.494,3.494,0,0,1-1.576.781c-4.21,1.219-14.855,1.083-14.965,1.082a.167.167,0,0,1-.093-.03l-1.831-1.269-1.078,1.518a.167.167,0,0,1-.091.064l-3.285.935c.43,1.423,2.488,8.562.7,9.245a1.4,1.4,0,0,1-1.344-.048,1.987,1.987,0,0,1-.657-1.47c-.6-.291-4.114-1.91-6.017-.79a2.947,2.947,0,0,0-1.248,2.662,4.538,4.538,0,0,0,1.274,3.481c2.032,2.039,5.823,1.967,5.862,1.965h0a.167.167,0,0,1,.162.127c.171.688,4.152,16.881.681,20.72-1.026,1.135-2.9,1.74-5.335,1.74m.473-50.649a9.881,9.881,0,0,0-6.367,1.895c-3.41,2.749-3.651,8.027-3.827,11.881-.106,2.318-.189,4.149-.9,4.863-2.475,2.494-6.918,19.979-3.189,25.451,2.493,3.659,8.292,5.882,12.73,6.186,2.873.2,5.059-.369,6.163-1.591,3.2-3.535-.351-18.726-.726-20.287-.721,0-4.036-.123-5.971-2.064a4.862,4.862,0,0,1-1.373-3.729,3.256,3.256,0,0,1,1.414-2.942c2.232-1.315,6.257.737,6.428.825a.168.168,0,0,1,.09.149c0,.009.006.948.517,1.3a1.092,1.092,0,0,0,1.032.011c1.188-.455.045-5.76-.954-9a.168.168,0,0,1,.115-.211l3.392-.966,1.141-1.605a.168.168,0,0,1,.233-.041l1.925,1.334c.808.008,10.8.092,14.816-1.07a3.263,3.263,0,0,0,1.424-.687c.878-.941,1.062-4.378-.079-7.807a13.215,13.215,0,0,0-10.49-9.2c-11.332-2.047-13.746,7.4-13.769,7.5a.163.163,0,0,1-.192.126,21.608,21.608,0,0,0-3.585-.326m4.738,48.8h0Z" transform="translate(-959.158 -501.181)"/>
  <path id="Path_538" data-name="Path 538" d="M1469.526,839.026a6.025,6.025,0,0,1-.864-.083.168.168,0,0,1-.142-.19.165.165,0,0,1,.19-.142,3.941,3.941,0,0,0,1.163.054,1.2,1.2,0,0,0,.878-.541,2,2,0,0,0-.05-1.457,26.1,26.1,0,0,1-.908-8.2.174.174,0,0,1,.176-.159.168.168,0,0,1,.16.176,25.732,25.732,0,0,0,.9,8.09,2.277,2.277,0,0,1,.02,1.709,1.517,1.517,0,0,1-1.119.709,2.571,2.571,0,0,1-.4.03" transform="translate(-1351.379 -760.428)"/>
  <path id="Path_539" data-name="Path 539" d="M1389.407,1057.02s-4.715-.653-7.09-2.131l8.171,6.412Z" transform="translate(-1272.053 -968.942)" fill="#002f35"/>
  <path id="Path_540" data-name="Path 540" d="M1388.549,1059.535a.168.168,0,0,1-.1-.036l-8.171-6.412a.168.168,0,0,1-.034-.228.169.169,0,0,1,.226-.046c2.318,1.443,6.978,2.1,7.025,2.108a.167.167,0,0,1,.14.125l1.081,4.281a.168.168,0,0,1-.163.209m-6.8-5.719,6.519,5.116-.933-3.7a27.884,27.884,0,0,1-5.587-1.42" transform="translate(-1270.113 -967.008)"/>
  <path id="Path_541" data-name="Path 541" d="M1410.368,852.852a1.428,1.428,0,1,0,1.291-1.553,1.428,1.428,0,0,0-1.291,1.553" transform="translate(-1297.861 -781.577)"/>
  <path id="Path_542" data-name="Path 542" d="M1397.452,820.247a.775.775,0,0,0,.9.532,10.163,10.163,0,0,1,2.044-.189.775.775,0,0,0,.784-.687.659.659,0,0,0-.2-.523.822.822,0,0,0-.575-.233,11.634,11.634,0,0,0-2.335.215.734.734,0,0,0-.619.885" transform="translate(-1285.959 -751.993)"/>
  <path id="Path_543" data-name="Path 543" d="M1528.159,841.977a1.428,1.428,0,1,0,1.291-1.552,1.428,1.428,0,0,0-1.291,1.552" transform="translate(-1406.256 -771.569)"/>
  <path id="Path_544" data-name="Path 544" d="M1515.244,809.371a.776.776,0,0,0,.9.532,10.173,10.173,0,0,1,2.044-.189.776.776,0,0,0,.784-.687.659.659,0,0,0-.2-.523.822.822,0,0,0-.575-.234,11.629,11.629,0,0,0-2.335.215.734.734,0,0,0-.619.885" transform="translate(-1394.354 -741.984)"/>
  <path id="Path_545" data-name="Path 545" d="M1438.185,1006.519a3.321,3.321,0,0,1-.646-.062,3.075,3.075,0,0,1-1.785-1.068.168.168,0,0,1,.26-.212,2.779,2.779,0,0,0,1.59.951,5.657,5.657,0,0,0,3.316-.736.168.168,0,1,1,.136.307,7.279,7.279,0,0,1-2.871.82" transform="translate(-1321.192 -923.137)"/>
  <path id="Path_546" data-name="Path 546" d="M1227.535,924.647c-.1,0-.2,0-.3-.008a3.222,3.222,0,0,1-1.463-.343,1.453,1.453,0,0,1-.773-1.333,1.669,1.669,0,0,1,.649-1.065,3.775,3.775,0,0,1,3.709-.672.168.168,0,0,1-.115.315,3.48,3.48,0,0,0-3.375.611,1.355,1.355,0,0,0-.534.845,1.116,1.116,0,0,0,.606,1.009,2.932,2.932,0,0,0,1.312.3,2.519,2.519,0,0,0,1.168-.15.934.934,0,0,0,.582-.821.841.841,0,0,0-.648-.711,1.474,1.474,0,0,0-1.065.2.168.168,0,0,1-.171-.289,1.763,1.763,0,0,1,1.318-.238,1.171,1.171,0,0,1,.9,1.019,1.257,1.257,0,0,1-.778,1.143,2.436,2.436,0,0,1-1.027.188" transform="translate(-1127.281 -845.73)"/>
  <path id="Path_547" data-name="Path 547" d="M2222.3,905.77a5.289,5.289,0,0,1-1.285-4.75,32.5,32.5,0,0,0,.876-6.642s.946-5.843,6.59-1.5c0,0,3.442,3.679,6.268-.686,0,0,2.8-6.39,6.648-1.628a4.954,4.954,0,0,1,.83,1.5c.49,1.424,2.03,4.736,5.378,3.044,0,0,7.34-5.232,7.415,3.525,0,0-1.266,4.939,3.96,5.214,0,0,7.992-.586,4.763,5.846a4.673,4.673,0,0,1-.625.918c-.748.883-2.367,3.4.956,5.8,0,0,8.731,4.067,1.246,7.89,0,0-5.686,1.177-1.348,6.985,0,0,5.955,6.783-9.283,6.981a5.285,5.285,0,0,1-3.937-1.71Z" transform="translate(-2043.732 -816.097)" fill="#71e9ee"/>
  <path id="Path_548" data-name="Path 548" d="M2181.425,997.223a3.9,3.9,0,0,0,5.312-.292,5.976,5.976,0,0,0,1.645-3.263,7.527,7.527,0,0,1,2.341-4.245,4.56,4.56,0,0,0,1.649-4.683,9.077,9.077,0,0,1,0-4.1,7.569,7.569,0,0,1,.8-1.924,2.194,2.194,0,0,0,.327-.884,4.351,4.351,0,0,0-1.074-3.545,2.455,2.455,0,0,1-.577-.841,8.141,8.141,0,0,1-.389-4.667,2.42,2.42,0,0,0,.051-1.161,4.723,4.723,0,0,0-2.432-3.221,2.255,2.255,0,0,1-.568-.4,7.779,7.779,0,0,1-2.079-4.244s-.071-2.4-4.125-3.515a1.906,1.906,0,0,1-.392-.152,8.429,8.429,0,0,1-2.968-2.841,4.338,4.338,0,0,0-5.122-2.113,2.249,2.249,0,0,1-1.016.008,7.981,7.981,0,0,1-3.538-1.735,2.747,2.747,0,0,0-.9-.656c-.812-.329-2.392-.6-4.842.475a2.242,2.242,0,0,1-.8.195,9.68,9.68,0,0,1-3.474-.354,3.4,3.4,0,0,0-1.966-.171,7.93,7.93,0,0,0-3.792,2.142,2.269,2.269,0,0,1-.907.53,14.359,14.359,0,0,1-2.448.5,7.182,7.182,0,0,0-3.669,1.641,3.281,3.281,0,0,0-.334,4.782Z" transform="translate(-1974.14 -870.991)" fill="#ee4857"/>
  <path id="Path_549" data-name="Path 549" d="M2178.968,1023.321l-34.059-36.861a2.842,2.842,0,0,1,.426-4.223,28.1,28.1,0,0,1,37.87,40.985,2.844,2.844,0,0,1-4.237.1" transform="translate(-1973.126 -897.183)" fill="#fdd621"/>
  <path id="Path_550" data-name="Path 550" d="M2147.892,985.064a2.842,2.842,0,0,0-.426,4.223l-2.557-2.768a2.842,2.842,0,0,1,.426-4.223,28.112,28.112,0,0,1,38.346,5.142,28.1,28.1,0,0,0-35.788-2.374" transform="translate(-1973.126 -897.242)" fill="#fc9c04"/>
  <path id="Path_551" data-name="Path 551" d="M2179.107,1022.37a2.982,2.982,0,0,1-2.192-.953l-34.06-36.861a3.011,3.011,0,0,1,.451-4.472,28.27,28.27,0,0,1,38.1,41.23,3.019,3.019,0,0,1-2.237,1.056h-.059m-19.252-47.313a27.8,27.8,0,0,0-16.351,5.3,2.676,2.676,0,0,0-.4,3.973l34.059,36.861a2.677,2.677,0,0,0,3.987-.093,27.931,27.931,0,0,0-21.293-46.04" transform="translate(-1971.196 -895.166)"/>
  <path id="Path_552" data-name="Path 552" d="M2410.572,1048.8l1.465.058a.777.777,0,1,0,.062-1.552l-1.465-.058a.777.777,0,1,0-.062,1.552" transform="translate(-2217.6 -961.913)" fill="#fc9c04"/>
  <path id="Path_553" data-name="Path 553" d="M2650.059,1276.025l1.465.058a.777.777,0,1,0,.062-1.552l-1.465-.058a.777.777,0,1,0-.062,1.552" transform="translate(-2437.983 -1171.02)" fill="#fc9c04"/>
  <path id="Path_554" data-name="Path 554" d="M2463.876,1325.029l.064-1.622a.861.861,0,0,1,1.721.068l-.064,1.622a.861.861,0,0,1-1.721-.068" transform="translate(-2267.339 -1215.292)" fill="#fc9c04"/>
  <path id="Path_555" data-name="Path 555" d="M2563.186,1304.608l-.314-1.592a.861.861,0,0,1,1.69-.333l.314,1.593a.861.861,0,0,1-1.69.333" transform="translate(-2358.423 -1196.342)" fill="#fc9c04"/>
  <path id="Path_556" data-name="Path 556" d="M2357.134,1242.688a.859.859,0,0,0,.6.276l1.623.065a.861.861,0,1,0,.069-1.72l-1.623-.065a.861.861,0,0,0-.667,1.444" transform="translate(-2168.901 -1140.439)" fill="#fc9c04"/>
  <path id="Path_557" data-name="Path 557" d="M2586.891,1470.942a.911.911,0,0,0,.635.293l1.722.068a.913.913,0,1,0,.073-1.825l-1.722-.068a.913.913,0,0,0-.708,1.532" transform="translate(-2380.318 -1350.416)" fill="#fc9c04"/>
  <path id="Path_558" data-name="Path 558" d="M2518.627,1080.561l.7-1.137a.709.709,0,0,1,1.206.747l-.705,1.137a.709.709,0,0,1-1.206-.747" transform="translate(-2317.624 -991.212)" fill="#fc9c04"/>
  <path id="Path_559" data-name="Path 559" d="M2467.758,1225.97l-.874-1.013a.709.709,0,0,1,1.074-.926l.874,1.013a.709.709,0,0,1-1.074.926" transform="translate(-2269.948 -1124.374)" fill="#fc9c04"/>
  <path id="Path_560" data-name="Path 560" d="M2437.452,1132.577l1.184.622a.709.709,0,1,1-.66,1.255l-1.184-.622a.709.709,0,1,1,.661-1.255" transform="translate(-2242.065 -1040.362)" fill="#fc9c04"/>
  <path id="Path_561" data-name="Path 561" d="M2280.8,1122.7l.883,1.432a.892.892,0,0,1-1.519.936l-.883-1.432a.892.892,0,0,1,1.519-.936" transform="translate(-2097.35 -1030.96)" fill="#fc9c04"/>
  <path id="Path_562" data-name="Path 562" d="M2604.523,1149.035l.061-1.534a.815.815,0,0,1,1.628.065l-.061,1.534a.815.815,0,0,1-1.628-.065" transform="translate(-2396.767 -1053.451)" fill="#fc9c04"/>
  <path id="Path_563" data-name="Path 563" d="M2125.054,1132.231c.2-.5,2.9-7.06-.877-7.732-2.162-.38-5.254,7.914-7.6,15.464" transform="translate(-1947.741 -1032.991)" fill="#ffd8c8"/>
  <path id="Path_564" data-name="Path 564" d="M2072.62,1150.127a.183.183,0,0,1-.041,0,.167.167,0,0,1-.122-.2c.722-2.886,7.155-28.183,11.145-27.472a2.33,2.33,0,0,1,1.736,1.2c1.156,2.127-.551,6.311-.75,6.781a.172.172,0,0,1-.221.092.165.165,0,0,1-.091-.217c.195-.461,1.848-4.508.767-6.5a1.984,1.984,0,0,0-1.5-1.026.716.716,0,0,0-.127-.011c-3.125,0-8.717,19.58-10.634,27.234a.167.167,0,0,1-.163.127" transform="translate(-1907.139 -1031.1)"/>
  <path id="Path_565" data-name="Path 565" d="M2089.474,439.792l-5.894,11.9a.717.717,0,0,0,.325.961l4.267,2.111a.717.717,0,0,1,.362.413l1.319,3.9a.717.717,0,0,0,.909.45l3.905-1.319a.718.718,0,0,1,.548.037l4.269,2.111a.718.718,0,0,0,.962-.325l5.894-11.9a.717.717,0,0,0-.325-.961l-15.579-7.706a.718.718,0,0,0-.962.325" transform="translate(-1917.31 -402.514)" fill="#fff"/>
  <path id="Path_566" data-name="Path 566" d="M2071.7,443l4.508-1.615.564-.2a1.01,1.01,0,0,1,.644-.065c.413.156.735.339,1.107.506l3.78,1.807c.337.169.621.233.888-.033.038-.037,6.76-13.811,6.739-13.769a.519.519,0,0,0-.305-.711c-6.842-3.357-17.753-8.781-17.685-8.752a.516.516,0,0,0-.654.221c-.035.07-6.287,12.508-6.735,13.339-.178.341-.247.624.018.9a.694.694,0,0,0,.193.141l4.524,2.327a1.824,1.824,0,0,1,.527.333,1.329,1.329,0,0,1,.268.564l.365,1.14.719,2.283-.814-2.251-.4-1.127a1.2,1.2,0,0,0-.251-.5,1.684,1.684,0,0,0-.49-.283l-4.595-2.184a1.012,1.012,0,0,1-.39-1.509c1.427-3.379,6.5-13.386,6.543-13.465a1.117,1.117,0,0,1,1.411-.487c3.993,1.907,17.626,8.709,17.721,8.757a1.126,1.126,0,0,1,.579,1.522c-.034.068-6.733,13.524-7.016,13.787a1.044,1.044,0,0,1-1.319.081c-2.927-1.486-2.266-1.159-3.73-1.908-.349-.173-.724-.388-1.051-.525a.8.8,0,0,0-.526.043l-.57.183Z" transform="translate(-1899.401 -384.232)" fill="#100000"/>
  <path id="Path_567" data-name="Path 567" d="M2171.419,508.614c-1.408,2.572,1.252,7.779,1.252,7.779s6.1-.414,7.512-2.986a5.264,5.264,0,0,0-8.764-4.793" transform="translate(-1997.832 -464.622)" fill="#ee4857"/>
  <path id="Path_568" data-name="Path 568" d="M514.63,683.946l7.378,14.9a.9.9,0,0,1-.407,1.2l-5.341,2.642a.9.9,0,0,0-.453.517l-1.651,4.886a.9.9,0,0,1-1.139.563l-4.888-1.651a.9.9,0,0,0-.686.046l-5.344,2.643a.9.9,0,0,1-1.2-.407l-7.378-14.9a.9.9,0,0,1,.407-1.2l19.5-9.647a.9.9,0,0,1,1.2.406" transform="translate(-454.064 -627.111)" fill="#fff"/>
  <path id="Path_569" data-name="Path 569" d="M485.219,688.84l-6.42-2.065a1.028,1.028,0,0,0-.674-.057c-.255.106-5.929,2.995-6,3.031a1.538,1.538,0,0,1-.795.239,1.22,1.22,0,0,1-.8-.334,1.278,1.278,0,0,1-.26-.354l-3.544-7.02c-3.063-6.108-1.648-3.263-4.944-9.883a1.333,1.333,0,0,1,.69-1.8c23.972-11.933.71-.357,20.818-10.3l1.361-.665a1.324,1.324,0,0,1,1.671.576c.037.075,7.8,15.92,8.215,16.84a1.536,1.536,0,0,1,.227.795,1.2,1.2,0,0,1-.341.786,1.249,1.249,0,0,1-.351.249l-5.743,2.752a2.13,2.13,0,0,0-.619.36,1.517,1.517,0,0,0-.316.634l-.5,1.413-1.007,2.822.911-2.854.461-1.425a1.655,1.655,0,0,1,.334-.7,2.259,2.259,0,0,1,.655-.41l5.672-2.895a.9.9,0,0,0,.254-.185.852.852,0,0,0,.233-.561,1.184,1.184,0,0,0-.2-.62c-1.564-2.812-8.374-16.646-8.408-16.714a.722.722,0,0,0-.914-.31l-1.327.658-20.816,10.3a.731.731,0,0,0-.462.869.82.82,0,0,0,.046.124c4.088,8.315.39.776,4.859,9.916,1.508,3.138,3.482,7.2,3.612,7.323a.837.837,0,0,0,.546.237,1.175,1.175,0,0,0,.62-.19c.37-.18,5.608-2.721,6.1-2.911a1.238,1.238,0,0,1,.791.079l6.357,2.25" transform="translate(-424.827 -605.098)" fill="#100000"/>
  <path id="Path_570" data-name="Path 570" d="M604.463,770.1c1.763,3.22-1.567,9.738-1.567,9.738s-7.641-.518-9.4-3.738a6.59,6.59,0,0,1,10.971-6" transform="translate(-545.678 -704.862)" fill="#ee4857"/>
  <path id="Path_411" data-name="Path 411" d="M563.3,2951.027c-1.14-3.129.05-6.745,2.237-9.256s5.225-4.108,8.267-5.464a19.14,19.14,0,0,0,5.69-3.266c1.586-1.524,2.554-3.933,1.717-5.966-.7-1.693-2.9-2.678-4.723-2.834a8.949,8.949,0,0,0-5.276,1.57,20.1,20.1,0,0,0-7.913,25.216" transform="translate(-259.05 -2708.437)" fill="#f0bb62"/>
  <path id="Path_412" data-name="Path 412" d="M593.037,3149.375s.147-6.361,3.486-7.578,4.409,2.212,4.409,2.212a6.829,6.829,0,0,0-5.6,5.366Z" transform="translate(-287.793 -2907.252)" fill="#45b2bf"/>
  <path id="Path_413" data-name="Path 413" d="M594.944,3149.819a.162.162,0,0,1-.05-.007.18.18,0,0,1-.122-.222c.074-.254,1.854-6.255,5.69-7.751a.179.179,0,0,1,.13.333c-3.672,1.434-5.458,7.458-5.476,7.519a.179.179,0,0,1-.172.129" transform="translate(-289.375 -2907.517)" fill="#000712"/>
  <path id="Path_414" data-name="Path 414" d="M584.814,3108.735a4.454,4.454,0,0,1,6.4.268c.829.933,1.234,2.174,2.015,3.147a4.514,4.514,0,0,0,3.507,1.726,3.666,3.666,0,0,0,3.243-2.048,4.806,4.806,0,0,0-.692-4.476,8.457,8.457,0,0,0-11.547-2.546,5.636,5.636,0,0,0-2.93,3.929" transform="translate(-280.271 -2872.484)" fill="#f0bb62"/>
  <path id="Path_415" data-name="Path 415" d="M594.753,3154.842a4.671,4.671,0,0,1-3.582-1.793,10.367,10.367,0,0,1-.95-1.512,8.854,8.854,0,0,0-1.059-1.628,4.275,4.275,0,0,0-6.146-.257.179.179,0,0,1-.246-.259,4.633,4.633,0,0,1,6.659.278,9.078,9.078,0,0,1,1.1,1.695,10.09,10.09,0,0,0,.916,1.46,4.369,4.369,0,0,0,3.306,1.659.192.192,0,0,1,.062,0,.179.179,0,0,1,0,.358h-.068" transform="translate(-278.349 -2913.271)" fill="#000712"/>
  <path id="Path_416" data-name="Path 416" d="M384.1,3097.945h-4.356a13.3,13.3,0,0,0-8.121-6.968,15.842,15.842,0,0,0-3.14-.772l-1.952-1.688-.375-.326a4.834,4.834,0,0,1,3.613-2.668,12.076,12.076,0,0,1,5.773.354,9.687,9.687,0,0,1,3.05,1.4c4.96,3.446,5.509,10.663,5.509,10.663" transform="translate(-80.226 -2855.822)" fill="#f0bb62"/>
  <path id="Path_417" data-name="Path 417" d="M382.621,3087.281a2.284,2.284,0,0,1-.861.2,10.164,10.164,0,0,0-3.793,1.445,9.924,9.924,0,0,0-1.806,1.472c-.181.188-.347.383-.507.577a15.845,15.845,0,0,0-3.14-.771l-1.952-1.688a6.914,6.914,0,0,1,3.237-2.994,12.072,12.072,0,0,1,5.773.354,9.686,9.686,0,0,1,3.05,1.4" transform="translate(-84.258 -2855.821)"/>
  <path id="Path_418" data-name="Path 418" d="M465.928,3116.7a.179.179,0,0,1-.17-.125c-.03-.094-3.054-9.415-8.577-10.6a.179.179,0,0,1-.137-.212.182.182,0,0,1,.212-.137c5.727,1.227,8.718,10.447,8.842,10.839a.178.178,0,0,1-.116.224.163.163,0,0,1-.054.009" transform="translate(-163.374 -2874.397)" fill="#000712"/>
  <path id="Path_419" data-name="Path 419" d="M328.566,3037.565s-6.911-13.934-17.21-9.011c-7.233,3.457-4.2,10.6-1.287,10.591,3.957-.013,12.8-11.009,18.5-1.58" transform="translate(-25.996 -2802.925)" fill="#f0bb62"/>
  <path id="Path_420" data-name="Path 420" d="M316.09,3104.547a3.231,3.231,0,0,1-2.6-1.845.178.178,0,0,1,.309-.179,2.932,2.932,0,0,0,2.289,1.667h.006c1.144,0,2.746-.985,4.6-2.122,2.832-1.734,6.356-3.891,9.563-3.111a7.384,7.384,0,0,1,4.486,3.738.179.179,0,0,1-.306.186,7.054,7.054,0,0,0-4.265-3.577c-3.066-.744-6.372,1.281-9.292,3.069-1.9,1.165-3.543,2.17-4.787,2.174Z" transform="translate(-32.024 -2868.147)" fill="#000712"/>
  <path id="Path_421" data-name="Path 421" d="M573.573,2986.724a.178.178,0,0,1-.172-.131c-.022-.083-2.22-8.352,2.266-15.1,3.07-4.617,8.488-7.46,16.1-8.449a.179.179,0,1,1,.046.354c-7.506.975-12.838,3.764-15.849,8.291-4.4,6.607-2.243,14.726-2.221,14.808a.178.178,0,0,1-.125.219.191.191,0,0,1-.048.006" transform="translate(-269.319 -2743.956)" fill="#000712"/>
  <path id="Path_422" data-name="Path 422" d="M336.823,3068.013a.176.176,0,0,1-.051-.008.179.179,0,0,1-.12-.223,9.424,9.424,0,0,1,4.916-6.258c4.446-2.069,9.92.254,9.975.278a.179.179,0,0,1-.142.328c-.054-.024-5.385-2.284-9.684-.281a9.086,9.086,0,0,0-4.723,6.035.179.179,0,0,1-.171.127" transform="translate(-53.229 -2833.269)" fill="#000712"/>
  <path id="Path_423" data-name="Path 423" d="M653.509,3103.178l-.123,0a.179.179,0,0,1-.172-.186.188.188,0,0,1,.186-.172,4.178,4.178,0,0,0,3.2-1.593,4.392,4.392,0,0,0,1.027-3.729c-1.294-6.27-9.129-5.573-10.687-5.369a.178.178,0,1,1-.046-.354c1.612-.211,9.725-.929,11.083,5.65a4.75,4.75,0,0,1-1.1,4.033,4.616,4.616,0,0,1-3.364,1.722" transform="translate(-336.923 -2861.606)" fill="#000712"/>
  <path id="Path_424" data-name="Path 424" d="M620.325,3125.92a.178.178,0,0,1-.17-.125c-.017-.054-1.725-5.41-5.336-7.073a5.66,5.66,0,0,0-4.759.067.179.179,0,0,1-.141-.329,6.007,6.007,0,0,1,5.051-.062c3.755,1.731,5.455,7.064,5.525,7.29a.179.179,0,0,1-.117.224.173.173,0,0,1-.053.008" transform="translate(-303.14 -2885.602)" fill="#000712"/>
  <path id="Path_425" data-name="Path 425" d="M323.438,2934.978a.179.179,0,0,1-.168-.118c-1.064-2.924-.174-6.627,2.271-9.434,2.248-2.583,5.332-4.175,8.329-5.51l.519-.229a17.238,17.238,0,0,0,5.121-3c1.445-1.387,2.523-3.709,1.675-5.769a6.784,6.784,0,0,0-3.492-3.628c-1.908-.783-4.221-.535-6.871.739-9.559,4.591-8.9,18.673-8.89,18.814a.179.179,0,0,1-.331.1c-.078-.128-7.866-12.791-14.17-11.778-3.586.581-6.134,2.372-7.175,5.044a7.076,7.076,0,0,0,1.069,6.913.179.179,0,0,1-.281.221,7.434,7.434,0,0,1-1.121-7.264c1.089-2.795,3.734-4.665,7.451-5.267,5.866-.952,12.588,8.906,14.189,11.4,0-2.865.533-14.389,9.1-18.507,2.748-1.32,5.159-1.571,7.166-.746a7.023,7.023,0,0,1,3.686,3.83c.909,2.208-.229,4.684-1.762,6.155a17.467,17.467,0,0,1-5.223,3.071l-.518.23c-2.96,1.319-6,2.888-8.205,5.418-2.36,2.71-3.225,6.273-2.2,9.077a.179.179,0,0,1-.107.229.181.181,0,0,1-.061.011" transform="translate(-19.184 -2692.209)" fill="#000712"/>
  <path id="Path_426" data-name="Path 426" d="M503.035,2970.21a.179.179,0,0,1-.169-.12l-5.257-15.223a.179.179,0,1,1,.338-.117l5.257,15.223a.179.179,0,0,1-.11.227.176.176,0,0,1-.059.01" transform="translate(-200.48 -2736.258)" fill="#000712"/>
  <path id="Path_427" data-name="Path 427" d="M447.893,2890.251a3.324,3.324,0,1,1-3.324-3.324,3.333,3.333,0,0,1,3.324,3.324" transform="translate(-148.924 -2674.319)" fill="#1c7d88"/>
  <path id="Path_428" data-name="Path 428" d="M531.792,2951.572a1.5,1.5,0,1,1-1.5-1.5,1.5,1.5,0,0,1,1.5,1.5" transform="translate(-229.017 -2732.088)" fill="#fff"/>
  <rect id="Rectangle_54" data-name="Rectangle 54" width="24.366" height="3.204" transform="translate(291.69 242.123)" fill="#fff"/>
  <path id="Path_429" data-name="Path 429" d="M481.193,3271.25H461.545l3.128,15.047h13.393Z" transform="translate(-167.496 -3025.924)" fill="#fff"/>
  <path id="Path_430" data-name="Path 430" d="M456.282,3235.082H431.916a.179.179,0,0,1-.179-.179v-3.2a.179.179,0,0,1,.179-.179h24.366a.179.179,0,0,1,.179.179v3.2a.179.179,0,0,1-.179.179m-24.187-.357H456.1v-2.847H432.094Z" transform="translate(-140.226 -2989.576)" fill="#000712"/>
  <path id="Path_431" data-name="Path 431" d="M476.148,3284.554H462.755a.18.18,0,0,1-.175-.143l-3.127-15.046a.182.182,0,0,1,.036-.149.179.179,0,0,1,.139-.066h19.648a.178.178,0,0,1,.139.066.182.182,0,0,1,.036.149l-3.127,15.046a.18.18,0,0,1-.175.143M462.9,3284.2H476l3.052-14.689H459.847Z" transform="translate(-165.578 -3024.003)" fill="#000712"/>
  <path id="Path_432" data-name="Path 432" d="M480.26,3275.743,461.8,3272.48l-.256-1.23h19.648Z" transform="translate(-167.496 -3025.924)"/>
</svg>
