<svg xmlns="http://www.w3.org/2000/svg" xmlns:xlink="http://www.w3.org/1999/xlink" width="343" height="261" viewBox="0 0 343 261">
  <defs>
    <clipPath id="clip-path">
      <rect id="Rectangle_13" data-name="Rectangle 13" width="11.674" height="22.16" fill="none"/>
    </clipPath>
    <clipPath id="clip-path-2">
      <rect id="Rectangle_14" data-name="Rectangle 14" width="1.683" height="4.789" fill="none"/>
    </clipPath>
    <clipPath id="clip-path-3">
      <rect id="Rectangle_15" data-name="Rectangle 15" width="1.792" height="17.887" fill="none"/>
    </clipPath>
    <clipPath id="clip-path-4">
      <rect id="Rectangle_16" data-name="Rectangle 16" width="2.159" height="4.747" fill="none"/>
    </clipPath>
    <clipPath id="clip-path-5">
      <rect id="Rectangle_17" data-name="Rectangle 17" width="4.613" height="17.613" fill="none"/>
    </clipPath>
    <clipPath id="clip-path-6">
      <rect id="Rectangle_19" data-name="Rectangle 19" width="7.37" height="13.41" fill="none"/>
    </clipPath>
    <clipPath id="clip-path-7">
      <rect id="Rectangle_21" data-name="Rectangle 21" width="11.483" height="15.583" fill="none"/>
    </clipPath>
    <clipPath id="clip-path-8">
      <rect id="Rectangle_22" data-name="Rectangle 22" width="5.916" height="4.981" fill="none"/>
    </clipPath>
    <clipPath id="clip-path-9">
      <rect id="Rectangle_23" data-name="Rectangle 23" width="1.613" height="6.089" fill="none"/>
    </clipPath>
    <clipPath id="clip-path-10">
      <rect id="Rectangle_24" data-name="Rectangle 24" width="1.328" height="2.791" fill="none"/>
    </clipPath>
    <clipPath id="clip-path-11">
      <rect id="Rectangle_25" data-name="Rectangle 25" width="10.337" height="3.109" fill="none"/>
    </clipPath>
    <clipPath id="clip-path-12">
      <rect id="Rectangle_26" data-name="Rectangle 26" width="3.061" height="6.954" fill="none"/>
    </clipPath>
    <clipPath id="clip-path-13">
      <rect id="Rectangle_27" data-name="Rectangle 27" width="8.039" height="19.924" fill="none"/>
    </clipPath>
    <clipPath id="clip-path-14">
      <rect id="Rectangle_28" data-name="Rectangle 28" width="1.819" height="6.863" fill="none"/>
    </clipPath>
    <clipPath id="clip-path-15">
      <rect id="Rectangle_29" data-name="Rectangle 29" width="1.497" height="3.145" fill="none"/>
    </clipPath>
  </defs>
  <g id="onboarding_1" transform="translate(-910 -206)">
    <rect id="Rectangle_31" data-name="Rectangle 31" width="343" height="261" transform="translate(910 206)" fill="none"/>
    <g id="Group_50" data-name="Group 50" transform="translate(906.776 173.863)">
      <g id="Group_51" data-name="Group 51" transform="translate(3.224 32.418)">
        <g id="Group_48" data-name="Group 48" transform="translate(0 0)">
          <g id="Group_52" data-name="Group 52" transform="translate(0 0)">
            <path id="Path_1" data-name="Path 1" d="M3211.215,841.368c-8.315,0-15.079,8.228-15.079,18.342s6.764,18.342,15.079,18.342,15.08-8.228,15.08-18.342-6.764-18.342-15.08-18.342m0,28.174c-4.465,0-8.084-4.4-8.084-9.832s3.619-9.832,8.084-9.832,8.083,4.4,8.083,9.832-3.619,9.832-8.083,9.832" transform="translate(-2926.509 -804.643)" fill="#f0bb62"/>
            <path id="Path_2" data-name="Path 2" d="M376.349,1552.925c-11.447,0-20.76,11.327-20.76,25.251s9.313,25.25,20.76,25.25,20.759-11.327,20.759-25.25-9.313-25.251-20.759-25.251m0,38.459c-6,0-10.859-5.914-10.859-13.208s4.862-13.209,10.859-13.209,10.859,5.914,10.859,13.209-4.862,13.208-10.859,13.208" transform="translate(-328.788 -1455.624)" fill="#f0bb62"/>
            <path id="Path_3" data-name="Path 3" d="M3044.569,2685.555c-6.9,0-12.509,6.825-12.509,15.215s5.611,15.215,12.509,15.215,12.509-6.825,12.509-15.215-5.611-15.215-12.509-15.215m0,23.519c-3.77,0-6.827-3.718-6.827-8.3s3.056-8.3,6.827-8.3,6.827,3.718,6.827,8.3-3.057,8.3-6.827,8.3" transform="translate(-2776.599 -2491.828)" fill="#f0bb62"/>
            <path id="Path_5" data-name="Path 5" d="M586.731,3048.35a33.661,33.661,0,0,1-1.47,9.845l-43.366-.1c-.151-.138-.31-.277-.462-.416a33.885,33.885,0,0,1-1.313-9.437c.023-15.63,10.5-28.324,23.348-28.3s23.286,12.768,23.263,28.4" transform="translate(-497.61 -2797.757)" fill="#1c7d88"/>
            <path id="Path_8" data-name="Path 8" d="M2450.129,2495.461a5.392,5.392,0,0,0,5.4,5.4h59.788a5.4,5.4,0,1,0,0-10.793h-59.788a5.4,5.4,0,0,0-5.4,5.4" transform="translate(-2244.257 -2312.981)" fill="#1c7d88"/>
            <path id="Path_9" data-name="Path 9" d="M2513.393,2499.115h-59.788a5.575,5.575,0,0,1,0-11.15h59.788a5.575,5.575,0,1,1,0,11.15m-59.788-10.792a5.218,5.218,0,1,0,0,10.435h59.788a5.218,5.218,0,1,0,0-10.435Z" transform="translate(-2242.336 -2311.06)"/>
            <rect id="Rectangle_10" data-name="Rectangle 10" width="4.703" height="71.67" transform="translate(264.225 187.878)" fill="#002f35"/>
            <rect id="Rectangle_11" data-name="Rectangle 11" width="4.703" height="71.67" transform="translate(213.297 187.878)" fill="#002f35"/>
            <path id="Path_10" data-name="Path 10" d="M2541.779,2686.785h-5.061v-72.027h5.061Zm-4.7-.357h4.345v-71.312h-4.345Z" transform="translate(-2323.599 -2427.058)"/>
            <rect id="Rectangle_12" data-name="Rectangle 12" width="4.703" height="71.67" transform="translate(132.391 187.878)"/>
            <path id="Path_11" data-name="Path 11" d="M1594.244,2686.785h-5.061v-72.027h5.061Zm-4.7-.357h4.346v-71.312h-4.346Z" transform="translate(-1456.971 -2427.058)"/>
            <path id="Path_12" data-name="Path 12" d="M837.034,2495.461a5.393,5.393,0,0,0,5.4,5.4h59.787a5.4,5.4,0,1,0,0-10.793H842.43a5.4,5.4,0,0,0-5.4,5.4" transform="translate(-768.996 -2312.981)" fill="#1c7d88"/>
            <path id="Path_13" data-name="Path 13" d="M900.294,2499.115H840.507a5.575,5.575,0,1,1,0-11.15h59.787a5.575,5.575,0,0,1,0,11.15m-59.787-10.792a5.218,5.218,0,1,0,0,10.435h59.787a5.218,5.218,0,1,0,0-10.435Z" transform="translate(-767.073 -2311.06)"/>
            <path id="Path_14" data-name="Path 14" d="M1894.943,3025.826l.361,3.483.193,1.859.611,5.871,1.432,13.807,20.511-1.855,2.326-6.191,2.835-7.562-1.736-9.4,0-.012Z" transform="translate(-1736.589 -2803.132)" fill="#ffbfac"/>
            <path id="Path_15" data-name="Path 15" d="M1894.944,3025.827l.361,3.483.193,1.858a24.158,24.158,0,0,0,12.317.69,32.639,32.639,0,0,0,9.6-3.623,26.357,26.357,0,0,0,4.066-2.4l0-.012Z" transform="translate(-1736.592 -2803.132)" fill="#002f35"/>
            <path id="Path_16" data-name="Path 16" d="M1910.05,3171.34l20.515-1.855,2.324-6.192a40.924,40.924,0,0,1-21.1-3.253,5.516,5.516,0,0,1-3.073-2.5l-.093-.006Z" transform="translate(-1749.102 -2923.623)" fill="#002f35"/>
            <path id="Path_17" data-name="Path 17" d="M1903.213,3083.793l-.046-.257c-.926-5.095-1.426-10.524-1.91-15.774l-.151-1.633.533-.05.151,1.633c.475,5.151.965,10.475,1.858,15.472,2.438-.36,4.981-.525,7.443-.685a55.928,55.928,0,0,0,12.575-1.782c.634-1.876,1.441-3.682,2.221-5.431a40.614,40.614,0,0,0,2.839-7.7,13.185,13.185,0,0,0-.692-3.444,18.64,18.64,0,0,1-.619-2.554l.531-.075a18.2,18.2,0,0,0,.6,2.479,13.246,13.246,0,0,1,.708,3.654,41.164,41.164,0,0,1-2.879,7.86c-.793,1.779-1.614,3.617-2.246,5.514l-.043.131-.132.041a55.683,55.683,0,0,1-12.829,1.846c-2.537.165-5.161.335-7.655.719Z" transform="translate(-1742.225 -2835.777)" fill="#19040f"/>
            <path id="Path_18" data-name="Path 18" d="M1875.266,3119.222c-.314,2.581-.636,4.693-.636,4.693l58.169.225a11.389,11.389,0,0,0-.441-4.7h0a11.883,11.883,0,0,0-3.855-5.747,15.618,15.618,0,0,0-3.5-2.179c-8.147-3.753-13.792-2.869-15.9-7.139a7.842,7.842,0,0,1-.636-1.918c-1.337-6.494-3.285-10.1-7.721-9.353-4.265.718-4.545,5.208-4.366,7.659a4.955,4.955,0,0,1-2.072,4.39c-1.869,1.326-5.224,2.6-11.181,2.475a5.077,5.077,0,0,1-4.069-2.22c-.988-1.441-2.458-3.029-3.9-2.536-2.511.865.2,4.907.623,7.854a45.6,45.6,0,0,1-.505,8.493Z" transform="translate(-1717.466 -2864.592)" fill="#1c7d88"/>
            <path id="Path_19" data-name="Path 19" d="M2233.929,3232.406c1.631,1.806,19.328,6.561,21.185,5.807,1.293-.526,2.186-1.247,2.32-2.354a15.623,15.623,0,0,0-3.5-2.179c-8.148-3.753-13.792-2.869-15.9-7.139,0,0-5.728,4.058-4.1,5.864" transform="translate(-2046.366 -2986.759)" fill="#f0bb62"/>
            <path id="Path_20" data-name="Path 20" d="M2146.609,3219.873c-13.875-2.893-15.708-17.081-15.725-17.224l.532-.063c.016.139,1.811,13.948,15.3,16.762Z" transform="translate(-1952.401 -2964.843)" fill="#19040f"/>
            <path id="Path_21" data-name="Path 21" d="M2055.287,3262.686l-.359-.4c4.759-4.291,2.163-12.494,2.136-12.577l.509-.165c.028.085,2.728,8.619-2.287,13.14" transform="translate(-1882.95 -3007.806)" fill="#19040f"/>
            <path id="Path_22" data-name="Path 22" d="M1930.147,3121.548h-.227l-58.481-.225.047-.307c0-.022.325-2.138.636-4.686h0a42.631,42.631,0,0,0,.5-8.427,17.007,17.007,0,0,0-.839-2.938c-.591-1.7-1.15-3.3-.644-4.338a1.712,1.712,0,0,1,1.038-.869c1.268-.437,2.726.478,4.208,2.638a4.82,4.82,0,0,0,3.853,2.1c6.115.13,9.361-1.247,11.021-2.425a4.706,4.706,0,0,0,1.96-4.153c-.192-2.645.147-7.195,4.589-7.942,5.155-.863,6.9,4.087,8.028,9.564a7.535,7.535,0,0,0,.614,1.852c1.226,2.482,3.656,3.136,7.336,4.126a50.519,50.519,0,0,1,8.438,2.89,15.953,15.953,0,0,1,3.563,2.216,12.149,12.149,0,0,1,3.88,5.684h0l.061.191a11.565,11.565,0,0,1,.449,4.822Zm-58.085-.761,57.621.223a11.58,11.58,0,0,0-.424-4.231l-.039-.123a11.619,11.619,0,0,0-3.771-5.618,15.443,15.443,0,0,0-3.443-2.14,49.207,49.207,0,0,0-8.353-2.859c-3.683-.992-6.344-1.708-7.677-4.406a8.02,8.02,0,0,1-.659-1.983c-1.488-7.224-3.555-9.785-7.415-9.144-4.023.677-4.322,4.911-4.142,7.375a5.249,5.249,0,0,1-2.185,4.629c-2.51,1.781-6.319,2.628-11.342,2.524a5.362,5.362,0,0,1-4.284-2.335c-.928-1.354-2.3-2.876-3.592-2.434a1.178,1.178,0,0,0-.729.595c-.408.841.139,2.41.668,3.928a17.34,17.34,0,0,1,.863,3.039,46.059,46.059,0,0,1-.5,8.564v0c-.242,1.988-.492,3.715-.592,4.394" transform="translate(-1714.588 -2861.731)" fill="#19040f"/>
            <path id="Path_23" data-name="Path 23" d="M2251.625,3234.247c-3.884,0-19.278-4.3-20.778-5.965h0a1.394,1.394,0,0,1-.349-1.135c.231-2.084,4.321-5,4.494-5.128l.256-.181.139.282c1.226,2.481,3.656,3.135,7.336,4.125a50.474,50.474,0,0,1,8.438,2.89,15.971,15.971,0,0,1,3.563,2.215l.112.093-.018.145c-.134,1.1-.946,1.944-2.485,2.57a2.055,2.055,0,0,1-.707.089m-20.38-6.324c1.492,1.652,19.049,6.483,20.886,5.738,1.287-.524,1.97-1.161,2.132-2a15.538,15.538,0,0,0-3.327-2.045,49.252,49.252,0,0,0-8.354-2.858c-3.552-.957-6.154-1.657-7.53-4.126-1.264.938-3.864,3.138-4.023,4.569a.87.87,0,0,0,.214.717" transform="translate(-2043.482 -2982.455)" fill="#19040f"/>
            <path id="Path_24" data-name="Path 24" d="M1880.389,3405.6l58.169.224a11.387,11.387,0,0,0-.442-4.7l-57.091-.22v0c-.314,2.582-.636,4.694-.636,4.694" transform="translate(-1723.224 -3146.274)" fill="#f0bb62"/>
            <path id="Path_25" data-name="Path 25" d="M1935.431,3402.888h-.227l-58.481-.225.047-.308c0-.021.325-2.138.636-4.685v-.269l.267.03,57.29.221.057.19a11.577,11.577,0,0,1,.45,4.822Zm-58.086-.76,57.621.222a11.569,11.569,0,0,0-.406-4.164l-56.655-.219c-.233,1.9-.466,3.511-.561,4.161" transform="translate(-1719.871 -3143.071)" fill="#19040f"/>
            <path id="Path_26" data-name="Path 26" d="M2275.147,3261.5l-.511-.161a9.834,9.834,0,0,1,3.729-4.7l.29.451a9.459,9.459,0,0,0-3.508,4.41" transform="translate(-2083.897 -3014.294)" fill="#19040f"/>
            <path id="Path_27" data-name="Path 27" d="M2326.617,3277.318l-.532-.067a7.585,7.585,0,0,1,3.328-5.05l.282.456a7.172,7.172,0,0,0-3.079,4.662" transform="translate(-2130.954 -3028.531)" fill="#19040f"/>
            <path id="Path_28" data-name="Path 28" d="M2406.5,3302.9l-.508-.174a7.71,7.71,0,0,1,3.648-4.585l.22.489a7.326,7.326,0,0,0-3.361,4.27" transform="translate(-2204.039 -3052.263)" fill="#19040f"/>
            <path id="Path_29" data-name="Path 29" d="M1753.78,2190.893l.378,4.366,5.928,68.217h34.687l-11.09-60.286a15.017,15.017,0,0,0-14.771-12.3Z" transform="translate(-1607.462 -2039.279)" fill="#f0bb62"/>
            <path id="Path_30" data-name="Path 30" d="M1758.213,2195.259l5.929,68.217h16.9c-.078-.283-.16-.566-.238-.849a150.358,150.358,0,0,1-5.4-46.709c.238-5.625.771-11.418-1.03-16.756a15.366,15.366,0,0,0-6.545-8.268h-6.376a23.013,23.013,0,0,0-3.237,4.366" transform="translate(-1611.544 -2039.279)" fill="#ffdda5"/>
            <path id="Path_31" data-name="Path 31" d="M1792.845,2261.712h-34.688a.178.178,0,0,1-.178-.164l-6.308-72.585a.179.179,0,0,1,.356-.031l6.293,72.421h34.31l-11.055-60.075a14.836,14.836,0,0,0-14.592-12.153h-14.231a.179.179,0,1,1,0-.357h14.231a15.193,15.193,0,0,1,14.944,12.445l11.094,60.286a.178.178,0,0,1-.038.147.18.18,0,0,1-.138.064" transform="translate(-1605.532 -2037.337)"/>
            <path id="Path_32" data-name="Path 32" d="M1549.721,3029.489l.361,3.484.578,5.555.226,2.17,1.428,13.811,20.515-1.855,2.327-6.191,2.835-7.566-1.539-8.322-.2-1.087Z" transform="translate(-1420.85 -2806.482)" fill="#ffbfac"/>
            <path id="Path_33" data-name="Path 33" d="M1549.721,3029.488l.361,3.484.579,5.555c1.21-.013,2.421-.078,3.627-.185a48.317,48.317,0,0,0,19.034-5.859q1.6-.893,3.131-1.908l-.2-1.087Z" transform="translate(-1420.852 -2806.482)" fill="#002f35"/>
            <path id="Path_34" data-name="Path 34" d="M1564.82,3174.98l20.514-1.855,2.324-6.191a40.925,40.925,0,0,1-21.1-3.253,5.515,5.515,0,0,1-3.072-2.5l-.093-.006Z" transform="translate(-1433.355 -2926.953)" fill="#002f35"/>
            <path id="Path_35" data-name="Path 35" d="M1557.987,3087.432l-.047-.257c-.926-5.09-1.426-10.515-1.908-15.76l-.152-1.646.533-.05.152,1.647c.475,5.147.964,10.465,1.857,15.458,2.438-.36,4.981-.525,7.443-.685a55.847,55.847,0,0,0,12.575-1.782c.635-1.875,1.441-3.682,2.221-5.431a40.623,40.623,0,0,0,2.839-7.7,13.165,13.165,0,0,0-.693-3.446,18.693,18.693,0,0,1-.619-2.553l.531-.075a18.188,18.188,0,0,0,.6,2.478,13.288,13.288,0,0,1,.708,3.655,41.166,41.166,0,0,1-2.879,7.86c-.793,1.778-1.614,3.617-2.246,5.514l-.043.131-.132.04a55.722,55.722,0,0,1-12.829,1.845c-2.537.165-5.161.335-7.655.719Z" transform="translate(-1426.482 -2839.107)" fill="#19040f"/>
            <path id="Path_36" data-name="Path 36" d="M1530.036,3122.861c-.314,2.582-.636,4.693-.636,4.693l58.169.225a11.39,11.39,0,0,0-.442-4.7h0a11.884,11.884,0,0,0-3.855-5.746,15.623,15.623,0,0,0-3.5-2.179c-8.148-3.753-13.792-2.869-15.9-7.139a7.813,7.813,0,0,1-.636-1.918c-1.337-6.494-3.285-10.1-7.722-9.354-4.265.719-4.545,5.209-4.366,7.66a4.954,4.954,0,0,1-2.072,4.39c-1.869,1.327-5.224,2.6-11.181,2.475a5.08,5.08,0,0,1-4.069-2.22c-.988-1.441-2.458-3.029-3.9-2.536-2.511.864.2,4.907.623,7.854a45.568,45.568,0,0,1-.505,8.493Z" transform="translate(-1401.731 -2867.922)" fill="#1c7d88"/>
            <path id="Path_37" data-name="Path 37" d="M1888.7,3236.046c1.63,1.806,19.328,6.561,21.185,5.807,1.293-.525,2.186-1.247,2.32-2.353a15.6,15.6,0,0,0-3.5-2.179c-8.148-3.753-13.792-2.869-15.9-7.14,0,0-5.728,4.059-4.1,5.865" transform="translate(-1730.618 -2990.089)" fill="#f0bb62"/>
            <path id="Path_38" data-name="Path 38" d="M1801.38,3223.513c-13.874-2.894-15.707-17.081-15.724-17.224l.532-.063c.017.139,1.811,13.949,15.3,16.762Z" transform="translate(-1636.653 -2968.173)" fill="#19040f"/>
            <path id="Path_39" data-name="Path 39" d="M1710.06,3266.328l-.359-.4c4.755-4.287,2.163-12.495,2.136-12.577l.51-.166c.028.086,2.728,8.619-2.287,13.14" transform="translate(-1567.2 -3011.136)" fill="#19040f"/>
            <path id="Path_40" data-name="Path 40" d="M1584.915,3125.194h-.227l-58.48-.226.047-.307c0-.022.325-2.139.635-4.686l0-.029a42.352,42.352,0,0,0,.5-8.4,16.959,16.959,0,0,0-.839-2.94c-.591-1.7-1.149-3.3-.644-4.337a1.713,1.713,0,0,1,1.038-.869c1.277-.437,2.728.478,4.208,2.638a4.824,4.824,0,0,0,3.854,2.1c6.115.129,9.361-1.247,11.021-2.425a4.706,4.706,0,0,0,1.96-4.152c-.192-2.646.149-7.2,4.589-7.943,5.149-.86,6.9,4.087,8.029,9.564a7.53,7.53,0,0,0,.613,1.853c1.226,2.481,3.657,3.135,7.337,4.126a50.494,50.494,0,0,1,8.438,2.889,16,16,0,0,1,3.563,2.216,12.147,12.147,0,0,1,3.88,5.684h0l.062.191a11.563,11.563,0,0,1,.449,4.822Zm-58.085-.76,57.622.222a11.6,11.6,0,0,0-.422-4.222l-.042-.132a11.612,11.612,0,0,0-3.77-5.618,15.493,15.493,0,0,0-3.443-2.142,49.308,49.308,0,0,0-8.353-2.858c-3.683-.992-6.344-1.708-7.677-4.406a8.057,8.057,0,0,1-.658-1.982c-1.487-7.223-3.557-9.79-7.415-9.144-4.021.677-4.321,4.912-4.143,7.376a5.247,5.247,0,0,1-2.184,4.629c-2.51,1.78-6.316,2.632-11.342,2.523a5.365,5.365,0,0,1-4.285-2.336c-.928-1.354-2.3-2.877-3.592-2.434a1.18,1.18,0,0,0-.73.6c-.408.84.139,2.409.668,3.927a17.344,17.344,0,0,1,.863,3.04,46.091,46.091,0,0,1-.5,8.564v0c-.242,1.988-.491,3.716-.591,4.395" transform="translate(-1398.85 -2865.068)" fill="#19040f"/>
            <path id="Path_41" data-name="Path 41" d="M1906.394,3237.888c-3.885,0-19.278-4.3-20.778-5.965h0a1.4,1.4,0,0,1-.35-1.135c.232-2.085,4.32-5,4.494-5.127l.256-.181.139.281c1.226,2.481,3.657,3.135,7.337,4.126a50.5,50.5,0,0,1,8.438,2.889,16.017,16.017,0,0,1,3.563,2.217l.112.094-.017.144c-.134,1.1-.947,1.945-2.485,2.57a2.041,2.041,0,0,1-.707.089m-20.38-6.324c1.492,1.653,19.048,6.48,20.886,5.738,1.288-.524,1.97-1.161,2.132-2a15.577,15.577,0,0,0-3.327-2.044,49.237,49.237,0,0,0-8.353-2.858c-3.552-.956-6.155-1.656-7.53-4.125-1.265.938-3.864,3.138-4.023,4.569a.869.869,0,0,0,.215.717" transform="translate(-1727.734 -2985.787)" fill="#19040f"/>
            <path id="Path_42" data-name="Path 42" d="M1533.332,3409.237l58.169.225a11.4,11.4,0,0,0-.441-4.7l-57.091-.22v0c-.314,2.581-.636,4.693-.636,4.693" transform="translate(-1405.818 -3149.605)" fill="#f0bb62"/>
            <path id="Path_43" data-name="Path 43" d="M1590.2,3406.851h-.228l-58.48-.226.047-.307c0-.021.325-2.138.635-4.686l.029-.237.239,0,57.29.221.057.19a11.56,11.56,0,0,1,.449,4.822Zm-58.085-.761,57.621.222a11.58,11.58,0,0,0-.406-4.165l-56.654-.218c-.231,1.881-.465,3.507-.562,4.161" transform="translate(-1404.137 -3146.724)" fill="#19040f"/>
            <path id="Path_44" data-name="Path 44" d="M1929.912,3265.139l-.511-.161a9.835,9.835,0,0,1,3.729-4.7l.29.451a9.46,9.46,0,0,0-3.508,4.409" transform="translate(-1768.14 -3017.624)" fill="#19040f"/>
            <path id="Path_45" data-name="Path 45" d="M1981.381,3280.957l-.532-.066a7.586,7.586,0,0,1,3.329-5.051l.283.456a7.17,7.17,0,0,0-3.08,4.661" transform="translate(-1815.196 -3031.86)" fill="#19040f"/>
            <path id="Path_46" data-name="Path 46" d="M2061.272,3306.541l-.507-.175a7.7,7.7,0,0,1,3.648-4.584l.22.489a7.324,7.324,0,0,0-3.361,4.27" transform="translate(-1888.288 -3055.595)" fill="#19040f"/>
            <path id="Path_47" data-name="Path 47" d="M921.69,2175.23v12.978a13.825,13.825,0,0,0,13.823,13.827h37.744l-1.461,20-2.068,28.384h37.383l-1.781-62.079a12.136,12.136,0,0,0-11.9-11.78l-15.575-.291Z" transform="translate(-846.402 -2024.949)" fill="#f0bb62"/>
            <path id="Path_48" data-name="Path 48" d="M1485.959,2735.039h35.987a5.378,5.378,0,0,0-.858-.193c-1.415-.2-2.917-.07-4.226-.652s-2.273-2.314-1.407-3.459c-.755-2.549-.029-5.264.353-7.9s.263-5.667-1.69-7.472a7.268,7.268,0,0,0-5.363-1.539c-1.908.1-3.775.591-5.683.706a15.116,15.116,0,0,1-14.676-9.589l-.369,1.711Z" transform="translate(-1362.524 -2509.566)" fill="#ffdda5"/>
            <path id="Path_49" data-name="Path 49" d="M921.69,2175.23v12.978a13.825,13.825,0,0,0,13.823,13.827h30.568a12.347,12.347,0,0,0-5.449-6.474c-9.4-5.614-22.612.09-31.876-5.74-1.227-.775-2.462-2.158-1.916-3.5.587-1.444,2.6-1.448,4.148-1.247a78,78,0,0,0,46.869-8.8Z" transform="translate(-846.432 -2024.949)" fill="#ffdda5"/>
            <path id="Path_50" data-name="Path 50" d="M1005.187,2248.675H967.8a.177.177,0,0,1-.13-.056.179.179,0,0,1-.048-.135l3.512-48.2H933.589a14.019,14.019,0,0,1-14-14v-12.978a.177.177,0,0,1,.054-.127.146.146,0,0,1,.128-.052l71.741,1.331a12.3,12.3,0,0,1,12.072,11.957l1.784,62.076a.178.178,0,0,1-.179.184M968,2248.318H1005l-1.779-61.892a11.94,11.94,0,0,0-11.722-11.61l-71.559-1.328v12.8a13.661,13.661,0,0,0,13.646,13.646H971.33a.178.178,0,0,1,.178.191Z" transform="translate(-844.478 -2023.025)"/>
            <path id="Path_51" data-name="Path 51" d="M1217.106,1017.791s-1.164,4.426.477,6.987-2.513,7.226-.5,11.079-1.428,8.732-.007,11.2,1.408,2.967.871,4.781c-1.823,6.158-22.158.241-22.013-2.981l1.916-15.436,7.883-9,8.805-8.524Z" transform="translate(-1097.283 -964.312)" fill="#002f35"/>
            <path id="Path_52" data-name="Path 52" d="M1193.84,1046.925c2.061-16.52,1.892-15.469,1.96-15.549l7.883-9,8.816-8.535a.178.178,0,0,1,.23-.015c2.567,1.949,2.691,1.866,2.635,2.085-.012.044-1.125,4.38.455,6.845.808,1.262.294,2.981-.25,4.8-.6,2.014-1.285,4.3-.243,6.292,2.041,3.908-1.376,8.823-.011,11.189,1.453,2.521,1.389,3.056.888,4.916-1.781,6.615-22.449.461-22.364-3.032m2.265-15.355-1.909,15.381c-.075,3.07,20,9.068,21.663,2.912.479-1.78.532-2.241-.854-4.645-1.459-2.532,1.97-7.439,0-11.2-2.053-3.929,2.086-8.6.508-11.066-1.533-2.392-.707-6.27-.529-7.01l-2.35-1.736-8.7,8.419Z" transform="translate(-1095.368 -962.39)"/>
            <path id="Path_53" data-name="Path 53" d="M1782.019,1380.287l7.412,4.745,1.941-2.838s2.1-1.146,4.936-2.776c5.922-3.418,15.051-8.971,14.865-10.69-.265-2.5-4.051-.618-4.216-.533.17-.126,5.35-3.9,4.136-5.708-1.156-1.716-4.959,1.138-5.474,1.537.55-.461,4.918-4.267,3.069-5.628-1.937-1.431-6.556,2.262-6.687,2.37.093-.122,3.951-5.377,1.9-6.353a.767.767,0,0,0-.174-.068c-2.384-.749-10.9,8.287-11.362,8.78.175-.437,2.537-6.176-.766-6.765-1.89-.333-4.594,6.923-6.647,13.529-.28.9-.544,1.792-.8,2.645-.887,2.985-1.571,5.56-1.9,6.859-.15.575-.229.9-.229.9" transform="translate(-1633.307 -1273.907)" fill="#ffd8c8"/>
            <path id="Path_54" data-name="Path 54" d="M1807.059,1372.534c.813.086,1.1-.482,1.5-1.385.988-2.244,1.922-4.485,2.707-6.808,1.31-3.86,1.221-4.561,1.728-5.239a1.211,1.211,0,0,1,1.166-.544,1.347,1.347,0,0,1,.813,1.64,12.507,12.507,0,0,1-.808,1.868,1.681,1.681,0,0,0,.243,1.89,1.383,1.383,0,0,0,1.3.189c1.49-.477,4.662-4.29,5.977-5.7a16.993,16.993,0,0,1,5.123-4.031.76.76,0,0,0-.174-.068c-2.384-.749-10.9,8.287-11.362,8.78.175-.437,2.536-6.176-.767-6.765-1.891-.332-4.594,6.923-6.646,13.529-.281.9-.544,1.792-.8,2.645" transform="translate(-1656.223 -1273.908)" fill="#fe8d7c"/>
            <path id="Path_55" data-name="Path 55" d="M1785.16,1548.229l6.729,4.314,1.941-2.838s2.1-1.146,4.936-2.776a28.636,28.636,0,0,1-8.99-6.335,13.034,13.034,0,0,1-2.366-3.195c-1.261,4.043-2.275,7.837-2.7,9.5a11.34,11.34,0,0,0,.453,1.327" transform="translate(-1635.787 -1441.419)" fill="#002f35"/>
            <path id="Path_56" data-name="Path 56" d="M1787.36,1383.307c-7.669-4.975-7.544-4.7-7.484-4.941.632-2.528,6.278-24.675,9.781-24.057,2.551.454,2.065,3.729,1.205,6.187,2.361-2.457,8.787-8.878,10.949-8.2a1.184,1.184,0,0,1,.819.786c.42,1.29-.966,3.688-1.835,5.01,1.511-1.059,4.495-2.848,6.026-1.718a1.228,1.228,0,0,1,.524.985c.036,1.04-1.041,2.416-2.04,3.463a5.291,5.291,0,0,1,3.006-.917,1.366,1.366,0,0,1,.955.6c.977,1.453-1.611,3.895-3.162,5.166a3.5,3.5,0,0,1,2.536-.075,1.486,1.486,0,0,1,.739,1.232c.276,2.573-17.616,12.4-19.855,13.622l-1.922,2.808a.178.178,0,0,1-.244.05m-7.106-4.979,7.153,4.585,1.849-2.7a.177.177,0,0,1,.062-.056c8.026-4.368,19.9-11.511,19.707-13.29a1.134,1.134,0,0,0-.554-.957c-.856-.468-2.544.135-3.407.565a.179.179,0,0,1-.184-.3c1.807-1.308,4.987-4.133,4.093-5.464a1.011,1.011,0,0,0-.716-.444c-1.15-.189-3.139.977-4.5,2.029a.179.179,0,0,1-.225-.278c.36-.306,3.514-3.035,3.459-4.639a.872.872,0,0,0-.379-.709c-1.8-1.333-6.278,2.209-6.467,2.36a.179.179,0,0,1-.257-.245c1.013-1.374,2.82-4.309,2.405-5.586a.834.834,0,0,0-.587-.556c-1.808-.572-7.886,5.225-11.189,8.742a.189.189,0,0,1-.232.032.174.174,0,0,1-.072-.214c.977-2.322,1.868-6.095-.617-6.537-2.659-.475-7.615,16.8-9.341,23.667" transform="translate(-1631.335 -1272.03)"/>
            <path id="Path_57" data-name="Path 57" d="M1984.741,1431.062a.178.178,0,0,1,0-.253l2.55-2.629a.179.179,0,1,1,.257.249l-2.55,2.629a.178.178,0,0,1-.252,0" transform="translate(-1818.707 -1341.449)"/>
            <path id="Path_58" data-name="Path 58" d="M2024.818,1468.622a.179.179,0,0,1-.1-.328l2.765-1.823a.179.179,0,1,1,.2.3l-2.765,1.823a.173.173,0,0,1-.1.03" transform="translate(-1855.247 -1376.502)"/>
            <path id="Path_59" data-name="Path 59" d="M2037.659,1516.966a.179.179,0,0,1-.067-.344l3.009-1.229a.179.179,0,1,1,.135.331l-3.009,1.229a.181.181,0,0,1-.068.013" transform="translate(-1866.992 -1421.273)"/>
            <path id="Path_60" data-name="Path 60" d="M1258.9,1473.472l9.435,8.849,12.051,11.3a8.726,8.726,0,0,0,7.691,1.7,8.877,8.877,0,0,0,2.809-1.251l2.373-2.087,22.208-20.957-8.92-11.758-2.63-3.467-15.174,13.638c.179-.357-21.264-18.912-25.131-19.52a1.849,1.849,0,0,0-1.708.708v.007c-3.56,3.988-3,22.837-3,22.837" transform="translate(-1154.809 -1361.369)" fill="#1c7d88"/>
            <path id="Path_61" data-name="Path 61" d="M1745.87,1766.222a.714.714,0,0,0,.493-.2l1.92-1.826a.715.715,0,0,0-.986-1.036l-1.92,1.826a.715.715,0,0,0,.493,1.233" transform="translate(-1599.627 -1647.784)" fill="#fff"/>
            <path id="Path_62" data-name="Path 62" d="M1796.373,1692.088l4.5-4.279a.715.715,0,1,0-.985-1.036l-4.5,4.279a.715.715,0,0,0,.985,1.036" transform="translate(-1645.364 -1577.898)" fill="#fff"/>
            <path id="Path_63" data-name="Path 63" d="M1294.507,1450.628v.007a5.286,5.286,0,0,0,2.538,2.509,24.549,24.549,0,0,1,3.188,1.122,34.262,34.262,0,0,1,7.955,6.519c3.081,3.231,5.954,6.712,9.542,9.37,1.844,1.366,4.053,2.545,6.326,2.216,1.908-.272,3.5-1.544,4.946-2.8a106.929,106.929,0,0,0,7.741-7.426,23.65,23.65,0,0,0,2.409-2.874l-2.63-3.467-15.174,13.638c.179-.357-21.264-18.912-25.131-19.52a1.849,1.849,0,0,0-1.708.708" transform="translate(-1187.414 -1361.369)" fill="#064f57"/>
            <path id="Path_64" data-name="Path 64" d="M1370.069,1639.013l12.051,11.3a8.787,8.787,0,0,0,10.35.543l.15-.093,2.373-2.087c-2,.7-4.181,1.278-6.111.336-1.973-.965-2.888-3.216-3.638-5.275q-3.784-10.421-7.583-20.835c-.336-.936-1.458-2.552-2.444-1.229a10.245,10.245,0,0,0-.593,1.53c-2.366,5.084-4.272,10.035-4.553,15.811" transform="translate(-1256.545 -1518.061)" fill="#002f35"/>
            <path id="Path_65" data-name="Path 65" d="M1278.323,1491.609l-21.494-20.162a.177.177,0,0,1-.056-.125c-.141-5.167-.124-24.831,4.924-23.734,4.814,1.039,23.263,17.786,25.094,19.457l15.055-13.53a.178.178,0,0,1,.262.025l11.547,15.221a.178.178,0,0,1-.02.238l-24.754,23.163a8.977,8.977,0,0,1-10.559-.554m-21.195-20.371,21.43,20.1a8.625,8.625,0,0,0,10.129.523l24.587-23.014-11.333-14.938-15.031,13.508a.179.179,0,0,1-.24,0c-.2-.184-20.183-18.43-25.048-19.481-4.552-.969-4.6,18.6-4.494,23.3" transform="translate(-1152.854 -1359.214)"/>
            <path id="Path_66" data-name="Path 66" d="M845.566,1459.845c.259.862.406,1.334.406,1.334.07.685,2.294,1.161,5.8,1.465a220.726,220.726,0,0,0,24.528.152c12.022-.5,23-1.666,22.845-3.209,0,0-4.341-48.83-17.1-61.869-8.772-8.961-28.417-8.988-38.406-1.961-10.248,7.209.523,59.374,1.926,64.088" transform="translate(-771.044 -1307.226)" fill="#1c7d88"/>
            <path id="Path_67" data-name="Path 67" d="M862.142,1461.1c-4.88,0-9.211-.138-12.349-.409-5.234-.453-5.909-1.143-5.96-1.623,0,0-.151-.469-.4-1.3h0c-1.253-4.208-12.319-56.926-1.857-64.285,9.781-6.88,29.531-7.319,38.636,1.982,12.654,12.935,17.1,61.49,17.147,61.978a.575.575,0,0,1-.159.439c-1.34,1.545-12.686,2.544-22.857,2.964-4.2.171-8.369.257-12.2.257m-18.367-3.437c.258.86.406,1.331.406,1.332.027.229.491.894,5.643,1.34a219.589,219.589,0,0,0,24.505.151c12.687-.523,21.559-1.639,22.6-2.841.081-.093.076-.151.073-.17-.043-.49-4.481-48.918-17.047-61.762-8.991-9.183-28.5-8.743-38.175-1.939-4.2,2.955-5.353,14.3-3.332,32.814a259.712,259.712,0,0,0,5.326,31.077" transform="translate(-769.083 -1305.09)"/>
            <g id="Group_4" data-name="Group 4" transform="translate(106.843 90.1)" opacity="0.3">
              <g id="Group_3" data-name="Group 3">
                <g id="Group_2" data-name="Group 2" clip-path="url(#clip-path)">
                  <path id="Path_68" data-name="Path 68" d="M1357.769,1559.062a46.055,46.055,0,0,1,4.36,12.672.818.818,0,0,0,.807.658,1.2,1.2,0,0,0,.157-.014.815.815,0,0,0,.643-.965,47.609,47.609,0,0,0-4.524-13.123.819.819,0,0,0-1.444.772" transform="translate(-1352.08 -1550.231)" fill="#fff"/>
                  <path id="Path_69" data-name="Path 69" d="M1292.241,1469.735a28.887,28.887,0,0,1,3.4,4.081.822.822,0,0,0,1.351-.937,31.232,31.232,0,0,0-3.6-4.31.821.821,0,1,0-1.158,1.165" transform="translate(-1291.999 -1468.331)" fill="#fff"/>
                </g>
              </g>
            </g>
            <path id="Path_70" data-name="Path 70" d="M1434.226,1659.192a.179.179,0,0,1-.176-.146.185.185,0,0,1,.006-.089c0-1.038-4.318-22.463-7.014-28.018a.179.179,0,0,1,.321-.156c2.723,5.611,7.268,27.829,7.025,28.308a.191.191,0,0,1-.131.1l-.033,0" transform="translate(-1308.654 -1526.759)"/>
            <path id="Path_71" data-name="Path 71" d="M1833.631,2370.07a.847.847,0,0,1-.089-.006.715.715,0,0,1-.621-.8c.122-.986.249-2.006.309-3.02a.7.7,0,0,1,.756-.671.714.714,0,0,1,.671.755c-.063,1.06-.192,2.1-.318,3.111a.715.715,0,0,1-.708.627" transform="translate(-1679.896 -2199.088)" fill="#fff"/>
            <path id="Path_72" data-name="Path 72" d="M1723.893,2255.909a.715.715,0,0,1-.708-.62,7.3,7.3,0,0,0-2.48-4.866c-1.928-1.517-4.638-1.563-7.255-1.481a.705.705,0,0,1-.736-.691.714.714,0,0,1,.692-.737c2.747-.085,5.878-.028,8.184,1.786a8.714,8.714,0,0,1,3.013,5.8.715.715,0,0,1-.614.8.793.793,0,0,1-.1.006" transform="translate(-1569.945 -2091.057)" fill="#fff"/>
            <g id="Group_7" data-name="Group 7" transform="translate(154.75 204.944)" opacity="0.6">
              <g id="Group_6" data-name="Group 6">
                <g id="Group_5" data-name="Group 5" clip-path="url(#clip-path-2)">
                  <path id="Path_73" data-name="Path 73" d="M1854.008,2822.1a.821.821,0,0,0,.82-.808s.018-1.239.042-3.149a.821.821,0,0,0-.81-.831h-.01a.82.82,0,0,0-.82.81c-.024,1.908-.042,3.145-.042,3.146a.821.821,0,0,0,.808.833Z" transform="translate(-1853.187 -2817.315)" fill="#fff"/>
                </g>
              </g>
            </g>
            <g id="Group_10" data-name="Group 10" transform="translate(154.751 184.566)" opacity="0.6">
              <g id="Group_9" data-name="Group 9">
                <g id="Group_8" data-name="Group 8" clip-path="url(#clip-path-3)">
                  <path id="Path_74" data-name="Path 74" d="M1854.09,2595.842a.821.821,0,0,1-.812-.829c.135-13.218.012-15.6-.052-15.987a.821.821,0,0,1,1.525-.6c.131.281.33.7.168,16.6a.82.82,0,0,1-.82.812Zm-.826-16.719h0" transform="translate(-1853.187 -2577.956)" fill="#fff"/>
                </g>
              </g>
            </g>
            <g id="Group_13" data-name="Group 13" transform="translate(181.09 214.316)" opacity="0.6">
              <g id="Group_12" data-name="Group 12">
                <g id="Group_11" data-name="Group 11" clip-path="url(#clip-path-4)">
                  <path id="Path_75" data-name="Path 75" d="M2163.158,2932.145a.821.821,0,0,0,.664-.941s-.2-1.222-.518-3.106a.82.82,0,0,0-.944-.674l-.01,0a.821.821,0,0,0-.664.944c.315,1.882.517,3.1.517,3.1a.821.821,0,0,0,.943.676l.012,0" transform="translate(-2161.674 -2927.411)" fill="#fff"/>
                </g>
              </g>
            </g>
            <g id="Group_16" data-name="Group 16" transform="translate(177.428 194.27)" opacity="0.6">
              <g id="Group_15" data-name="Group 15">
                <g id="Group_14" data-name="Group 14" clip-path="url(#clip-path-5)">
                  <path id="Path_76" data-name="Path 76" d="M2122.663,2709.541a.821.821,0,0,1-.947-.672c-2.212-13.032-2.755-15.352-2.887-15.725a.821.821,0,0,1,1.4-.858c.179.253.45.635,3.11,16.308a.82.82,0,0,1-.663.945h-.008m-3.778-16.307h0" transform="translate(-2118.734 -2691.939)" fill="#fff"/>
                </g>
              </g>
            </g>
            <path id="Path_77" data-name="Path 77" d="M1028.785,1006.938l-2.931,14.724-.364,1.859s1.7,1.143,3.974,2.416c3.517,1.98,8.406,4.267,10.428,3.088,2.559-1.48,1.83-11.68,1.83-11.68l1.344.286a10.018,10.018,0,0,0,11.986-8.57c3.706-29.872.9-7.3,2.509-20.235l-22.529-.029-3.974,10.371s-6.661-5.9-8.356.064,6.083,7.705,6.083,7.705" transform="translate(-938.614 -939.521)" fill="#ffd8c8"/>
            <path id="Path_78" data-name="Path 78" d="M1028.785,1006.938l-2.931,14.724-.364,1.859s1.7,1.143,3.974,2.416c-.572-4.939-1.222-10.736-.986-11.221a31.955,31.955,0,0,0,1.93-4.947,5.709,5.709,0,0,0,.3-2.63c-.3-1.608-1.8-2.695-3.281-3.381a8.9,8.9,0,0,1-1.637-.858c-2.651-1.969.635-5.261,3.481-2.5.429.408.786.9,1.222,1.3a2.3,2.3,0,0,0,1.587.715,2.162,2.162,0,0,0,1.808-1.466c.531-1.321.137-2.515.879-5.654.143-.593.3-2.094.929-2.373.315-.129.879.014,1.229-.035a4.575,4.575,0,0,0,1.187-.315c.407-.164,1.915-.915,1.915-1.458a2.135,2.135,0,0,0,.986,1.594,5.675,5.675,0,0,0,1.808.722,59.918,59.918,0,0,0,13.924,1.98c.009-.072.865-6.992.815-6.583l-22.529-.029-3.974,10.371s-6.661-5.9-8.356.064,6.083,7.705,6.083,7.705" transform="translate(-938.614 -939.521)" fill="#ff8f7a"/>
            <path id="Path_79" data-name="Path 79" d="M1036.556,1027.56c-4.317,0-12.683-5.584-13.084-5.853a.179.179,0,0,1-.075-.183l3.262-16.417c-.8-.208-4.125-1.2-5.6-3.68a5.179,5.179,0,0,1-.445-4.209c1.2-4.236,5.1-3.088,8.452-.31,4.116-10.615,3.815-10.256,4.051-10.256l22.527.031a.178.178,0,0,1,.177.2l-2.509,20.236a10.2,10.2,0,0,1-12.2,8.72l-1.115-.234c.1,1.584.5,10.2-1.931,11.614a3,3,0,0,1-1.513.341m-12.785-6.084c1.105.728,11.073,7.2,14.119,5.434,2.432-1.41,1.745-11.414,1.738-11.515a.177.177,0,0,1,.06-.148c.122-.106.175-.012,1.5.243a9.837,9.837,0,0,0,11.771-8.414l2.484-20.036-22.2-.031c-4.186,10.846-3.881,10.329-4.055,10.372a.177.177,0,0,1-.161-.04c-.036-.031-3.619-3.172-6.084-2.451a3.142,3.142,0,0,0-1.982,2.425,4.835,4.835,0,0,0,.408,3.927c1.565,2.634,5.5,3.549,5.539,3.558.332.074.195-.491-3.136,16.675" transform="translate(-936.7 -937.557)"/>
            <path id="Path_80" data-name="Path 80" d="M732.523,837.773c2.353.121,13.694.413,15.843,1.858s9.3,1.968,9.3,1.968l2.926-14.723s-7.77-1.75-6.08-7.708,8.356-.059,8.356-.059-.564,2.217,1.452,1.978,1.518-9.729,1.518-9.729l3.817-.115,1.644-1.4,1.675,1.921c.072.011,14.959,4,17.419,2.408s4.947-15.439-6.5-20.63-16.4,4.236-16.4,4.236c-17.834-7.852-16.861,13.155-20.092,15.1s-17.48,20.308-17.977,21.968.748,2.808,3.1,2.926" transform="translate(-670.483 -759.459)" fill="#002f35"/>
            <path id="Path_81" data-name="Path 81" d="M755.747,839.975h-.013c-.294-.022-7.222-.545-9.383-2-1.858-1.249-11.116-1.633-14.6-1.777-.486-.02-.879-.037-1.152-.051a3.827,3.827,0,0,1-3.024-1.261,2.122,2.122,0,0,1-.242-1.894c.54-1.805,14.778-20.095,18.056-22.07.8-.482,1.372-2.384,2.036-4.586,1.206-4,2.858-9.478,7.241-11.5,2.814-1.3,6.457-.992,10.831.905.7-1.18,5.871-9.016,16.55-4.17a14.422,14.422,0,0,1,8.642,12.532c.3,4.023-.855,7.6-2.116,8.411-2.489,1.614-17.561-2.339-17.651-2.44l-1.559-1.788c-1.6,1.343-1.5,1.326-1.619,1.33l-3.636.11c.073,1.582.337,9.493-1.684,9.733a1.493,1.493,0,0,1-1.374-.4,2.12,2.12,0,0,1-.3-1.689c-.541-.456-3.744-3.045-6.006-2.384a3.141,3.141,0,0,0-1.982,2.425,4.838,4.838,0,0,0,.409,3.928c1.567,2.636,5.5,3.548,5.539,3.557a.178.178,0,0,1,.136.209l-2.926,14.723a.179.179,0,0,1-.175.144m2.745-45.566a8.69,8.69,0,0,0-3.676.755c-4.238,1.952-5.862,7.341-7.049,11.275-.713,2.367-1.277,4.237-2.194,4.789-3.232,1.948-17.446,20.357-17.9,21.867a1.757,1.757,0,0,0,.191,1.585,3.5,3.5,0,0,0,2.751,1.111c.272.014.664.03,1.148.05,3.843.159,12.844.532,14.786,1.838,1.908,1.284,7.993,1.838,9.052,1.925l2.862-14.4c-.8-.208-4.125-1.2-5.6-3.681a5.179,5.179,0,0,1-.445-4.209,3.469,3.469,0,0,1,2.226-2.671c2.647-.773,6.268,2.391,6.421,2.527a.179.179,0,0,1,.055.178c-.245,1.142.1,1.892,1.258,1.757,1.345-.16,1.549-5.938,1.36-9.542a.179.179,0,0,1,.047-.13c.1-.1-.047-.032,3.88-.171l1.6-1.361a.179.179,0,0,1,.25.018l1.639,1.88c2.476.653,15.071,3.814,17.224,2.416,1.152-.743,2.237-4.246,1.954-8.084A14.076,14.076,0,0,0,781.9,791.9c-11.153-5.06-15.969,3.777-16.168,4.156a.18.18,0,0,1-.23.081,17.729,17.729,0,0,0-7.009-1.727" transform="translate(-668.568 -757.657)"/>
            <path id="Path_82" data-name="Path 82" d="M1277.421,1093.851c-.062,0-.125,0-.189-.008a4.5,4.5,0,0,1-1.291-.385.179.179,0,1,1,.137-.33,4.185,4.185,0,0,0,1.186.359,1.28,1.28,0,0,0,1.047-.33,2.16,2.16,0,0,0,.329-1.518,27.807,27.807,0,0,1,1.2-8.7.179.179,0,0,1,.342.1,27.434,27.434,0,0,0-1.184,8.591,2.42,2.42,0,0,1-.426,1.771,1.552,1.552,0,0,1-1.15.449" transform="translate(-1170.375 -1025.531)"/>
            <path id="Path_83" data-name="Path 83" d="M1176.008,1280.628s-4.7-1.9-6.764-4.049l6.764,8.753Z" transform="translate(-1072.887 -1202.803)"/>
            <path id="Path_84" data-name="Path 84" d="M1173.947,1283.522l-6.764-8.752a.179.179,0,0,1,.27-.233c2.017,2.093,6.656,3.988,6.7,4.007a.179.179,0,0,1,.111.166c-.047,4.745.109,4.794-.12,4.873a.263.263,0,0,1-.2-.06m-5.433-7.616,5.4,6.983v-4.06a29.726,29.726,0,0,1-5.4-2.923" transform="translate(-1070.968 -1200.885)"/>
            <path id="Path_85" data-name="Path 85" d="M1241.179,1091.594a1.521,1.521,0,1,0,1.737-1.267,1.521,1.521,0,0,0-1.737,1.267" transform="translate(-1138.666 -1032.39)"/>
            <path id="Path_86" data-name="Path 86" d="M1238.33,1057.554a.825.825,0,0,0,.787.783,10.843,10.843,0,0,1,2.16.338.826.826,0,0,0,.988-.505.781.781,0,0,0-.6-.983,12.365,12.365,0,0,0-2.467-.386.782.782,0,0,0-.87.753" transform="translate(-1136.076 -1001.734)"/>
            <path id="Path_87" data-name="Path 87" d="M1357.776,1109.829a1.521,1.521,0,1,0,1.737-1.268,1.52,1.52,0,0,0-1.737,1.268" transform="translate(-1245.307 -1049.073)"/>
            <path id="Path_88" data-name="Path 88" d="M1354.928,1075.789a.826.826,0,0,0,.787.783,10.824,10.824,0,0,1,2.16.338.826.826,0,0,0,.988-.505.781.781,0,0,0-.6-.982,12.375,12.375,0,0,0-2.467-.386.782.782,0,0,0-.87.753" transform="translate(-1242.718 -1018.417)"/>
            <path id="Path_89" data-name="Path 89" d="M1232.468,1242.166a.179.179,0,0,1,.324-.151,2.957,2.957,0,0,0,1.394,1.4,6.026,6.026,0,0,0,3.615.1.179.179,0,0,1,.062.352c-2.3.4-4.431.35-5.394-1.7" transform="translate(-1130.696 -1171.087)"/>
            <path id="Path_90" data-name="Path 90" d="M1043.49,1119.628a1.551,1.551,0,0,1-.45-1.579c.415-1.137,2.994-2,4.952-.658a.179.179,0,0,1-.2.3c-2.232-1.523-5.705.086-4.053,1.686a3.774,3.774,0,0,0,2.521.8,1,1,0,0,0,.816-.7c.125-.631-.582-1.279-1.637-.972a.179.179,0,0,1-.1-.344c1.329-.387,2.261.506,2.087,1.385a1.337,1.337,0,0,1-1.1.978,4.091,4.091,0,0,1-2.835-.895" transform="translate(-957.394 -1056.544)"/>
            <rect id="Rectangle_18" data-name="Rectangle 18" width="4.703" height="71.67" transform="translate(77 187.878)" fill="#002f35"/>
            <path id="Path_91" data-name="Path 91" d="M945.53,2686.785h-5.061v-72.027h5.061Zm-4.7-.357h4.346v-71.312h-4.346Z" transform="translate(-863.648 -2427.058)"/>
            <path id="Path_92" data-name="Path 92" d="M816.786,1654.52c-.174,1.417-.306,3,.562,4.132a7.632,7.632,0,0,0,2.151,1.588,3.089,3.089,0,0,1,1.615,2.038,2.409,2.409,0,0,1-1.236,2.215,6.454,6.454,0,0,1-2.553.746,14.352,14.352,0,0,1-3.987.116,6.017,6.017,0,0,1-3.543-1.694,6.106,6.106,0,0,1-1.5-3.843,15.9,15.9,0,0,1,.455-4.172q.806-3.871,1.971-7.656c.778-2.528,2.124-7.544,5.219-8.119,3.839-.714,1.949,5.654,1.713,7.579l-.868,7.071" transform="translate(-742.74 -1535.116)" fill="#002f35"/>
            <path id="Path_93" data-name="Path 93" d="M1164.842,1538.506l13.018-.046a1.781,1.781,0,0,0,1.668-1.172l8.767-24.092a1.782,1.782,0,0,0-1.681-2.391l-13.018.046a1.782,1.782,0,0,0-1.668,1.172l-8.767,24.092a1.782,1.782,0,0,0,1.681,2.391" transform="translate(-1067.208 -1417.089)" fill="#fff"/>
            <path id="Path_94" data-name="Path 94" d="M1162.906,1536.766a1.961,1.961,0,0,1-1.843-2.631l8.767-24.092a1.969,1.969,0,0,1,1.836-1.29l13.019-.046h.008a1.961,1.961,0,0,1,1.842,2.631l-8.768,24.092a1.968,1.968,0,0,1-1.836,1.29l-13.018.046Zm21.786-27.7h-.006l-13.019.046a1.609,1.609,0,0,0-1.5,1.055l-8.767,24.092a1.6,1.6,0,0,0,1.506,2.152h.005l13.018-.046a1.609,1.609,0,0,0,1.5-1.055l8.768-24.092a1.6,1.6,0,0,0-1.505-2.151" transform="translate(-1065.277 -1415.17)" fill="#19040f"/>
            <path id="Path_95" data-name="Path 95" d="M1242.324,1542.254l-.336-.122,3.05-8.382a1.968,1.968,0,0,1,1.836-1.29l0,.357a1.608,1.608,0,0,0-1.5,1.055Z" transform="translate(-1139.421 -1436.9)" fill="#19040f"/>
            <path id="Path_96" data-name="Path 96" d="M1093.857,1662.556s7.341-10.41,10.838-10.506c0,0-2.183,3.344.137,4.578s15.04.078,15.04.078.253,1.346-1.6,2.907c0,0,1.454,2.712-2.468,4.5,0,0-.49,3.136-2.072,4.175s-11.958,4.888-11.958,4.888Z" transform="translate(-1003.921 -1546.31)" fill="#ffd8c8"/>
            <path id="Path_97" data-name="Path 97" d="M1099.344,1671.451l-.08-.107-8-10.72.075-.106c.3-.428,7.433-10.484,10.979-10.581h.049l.043.024c.21.117.11.367-.108.914-.408,1.019-1.167,2.917.242,3.662,2.061,1.091,12.775.252,15.1.044a3.652,3.652,0,0,1-1.522,3.147c.615,1.472.091,3.348-2.525,4.572-.1.549-.645,3.222-2.134,4.2-1.58,1.039-11.57,4.749-11.995,4.906Zm-7.638-10.833,7.764,10.4c1.185-.441,10.344-3.868,11.8-4.823,1.5-.984,1.989-4.023,1.994-4.053l.015-.1.088-.04a4.262,4.262,0,0,0,2.492-2.316,2.633,2.633,0,0,0-.108-1.933l-.068-.128.111-.093a3.618,3.618,0,0,0,1.542-2.576c-1.636.143-12.738,1.058-14.955-.114-1.693-.9-.824-3.068-.406-4.111.061-.151.126-.315.165-.431-3.251.431-9.66,9.239-10.428,10.309" transform="translate(-1001.55 -1544.375)" fill="#19040f"/>
            <path id="Path_98" data-name="Path 98" d="M1300.214,1740.257a9.677,9.677,0,0,1-2.686-.371l.1-.344a10.7,10.7,0,0,0,6.9-.55l.156.322a11.116,11.116,0,0,1-4.473.943" transform="translate(-1190.217 -1625.85)" fill="#19040f"/>
            <path id="Path_99" data-name="Path 99" d="M1266.168,1784.456a10.16,10.16,0,0,1-4.8-1l.175-.312c2.773,1.551,7.439.732,7.485.723l.064.352a17.973,17.973,0,0,1-2.926.237" transform="translate(-1157.146 -1666.243)" fill="#19040f"/>
            <path id="Path_100" data-name="Path 100" d="M1384.975,1536.964a1.313,1.313,0,0,0,.907-1.236c.037-.6-.313-1.02-.78-.936a1.317,1.317,0,0,0-.907,1.238c-.037.6.313,1.017.78.934" transform="translate(-1269.487 -1439.025)" fill="#19040f"/>
            <path id="Path_101" data-name="Path 101" d="M1412.676,1533.123a1.313,1.313,0,0,0,.907-1.236c.037-.6-.313-1.02-.78-.936a1.317,1.317,0,0,0-.907,1.239c-.037.6.313,1.017.78.933" transform="translate(-1294.823 -1435.51)" fill="#19040f"/>
            <path id="Path_102" data-name="Path 102" d="M664.312,1449.646a36.865,36.865,0,0,0-14.376,17.57c-5,12.352-11.147,27.775-3.313,34.8,14.376,12.885,44.055-13.6,44.055-13.6l-8.259-14.443-20.024,9.215c.829-5.537,6.463-24.26,1.917-33.543" transform="translate(-591.625 -1361.137)" fill="#1c7d88"/>
            <path id="Path_103" data-name="Path 103" d="M654.87,1503.775a14.455,14.455,0,0,1-9.989-3.552c-8.005-7.175-1.49-23.255,3.267-35a37.391,37.391,0,0,1,14.454-17.659.179.179,0,1,1,.175.312,37.023,37.023,0,0,0-14.3,17.481c-4.717,11.643-11.178,27.589-3.36,34.6a14.027,14.027,0,0,0,9.689,3.463c14.23,0,32.436-15.583,34.019-16.964l-8.105-14.173-19.875,9.146a.179.179,0,0,1-.249-.2,169.884,169.884,0,0,0,3.5-19.746.181.181,0,0,1,.193-.163.179.179,0,0,1,.163.193,167.387,167.387,0,0,1-3.427,19.441l19.7-9.064a.178.178,0,0,1,.23.074l8.259,14.443a.178.178,0,0,1-.036.222,100.885,100.885,0,0,1-16.67,11.653c-6.731,3.659-12.667,5.494-17.634,5.494" transform="translate(-590.002 -1359.213)"/>
            <path id="Path_104" data-name="Path 104" d="M808.178,2036.5q-.351,0-.7-.02a1.072,1.072,0,0,1,.123-2.141,10.727,10.727,0,0,0,4.023-.558,1.072,1.072,0,1,1,.676,2.036,13.061,13.061,0,0,1-4.121.683" transform="translate(-741.087 -1895.49)" fill="#fff"/>
            <path id="Path_105" data-name="Path 105" d="M688.012,1950.454a1.065,1.065,0,0,1-.557-.157,14.982,14.982,0,0,1-5.976-7.378,1.072,1.072,0,0,1,1.991-.8,12.863,12.863,0,0,0,5.1,6.345,1.072,1.072,0,0,1-.558,1.988" transform="translate(-626.863 -1811.069)" fill="#fff"/>
            <g id="Group_19" data-name="Group 19" transform="translate(61.281 102.005)" opacity="0.3">
              <g id="Group_18" data-name="Group 18">
                <g id="Group_17" data-name="Group 17" clip-path="url(#clip-path-6)">
                  <path id="Path_106" data-name="Path 106" d="M763.1,1608.172a27.744,27.744,0,0,0-4.6,11.672,1.638,1.638,0,0,0,.33,1.553c.62.493,1.505-.091,2.038-.678a20.078,20.078,0,0,0,4.868-9.875c.157-.872.175-1.947-.559-2.442a1.666,1.666,0,0,0-1.746.067,4.905,4.905,0,0,0-1.286,1.307" transform="translate(-758.459 -1608.172)" fill="#fff"/>
                </g>
              </g>
            </g>
            <rect id="Rectangle_20" data-name="Rectangle 20" width="320.414" height="9.559" transform="translate(11.293 149.762)" fill="#fff"/>
            <path id="Path_107" data-name="Path 107" d="M530.458,2174.581a.179.179,0,0,1-.179-.179v-7H209.755a.179.179,0,1,1,0-.358h320.7a.179.179,0,0,1,.179.179v7.184a.179.179,0,0,1-.179.179" transform="translate(-195.206 -2017.456)" fill="#000712"/>
            <path id="Path_108" data-name="Path 108" d="M452.22,2219.163H129.84a.179.179,0,0,1-.179-.178v-5.631a.179.179,0,0,1,.359,0v5.453h322.2a.178.178,0,1,1,0,.357" transform="translate(-122.094 -2059.664)" fill="#000712"/>
            <path id="Path_109" data-name="Path 109" d="M3653.6,2344.041a.179.179,0,0,1-.172-.128l-18.921-64.364a.182.182,0,0,1,.029-.157.179.179,0,0,1,.144-.072h6.282a.178.178,0,0,1,.171.128l7.456,25.362a.179.179,0,1,1-.343.1l-7.418-25.233h-5.909l18.854,64.134a.18.18,0,0,1-.122.222.2.2,0,0,1-.05.007" transform="translate(-3327.555 -2120.178)" fill="#000712"/>
            <path id="Path_110" data-name="Path 110" d="M3859.543,2793.6h-6.282a.178.178,0,0,1-.171-.129l-7.078-24.075a.179.179,0,0,1,.344-.1l7.039,23.947h5.91l-18.027-61.32a.179.179,0,1,1,.344-.1l18.094,61.549a.185.185,0,0,1-.029.158.18.18,0,0,1-.143.071" transform="translate(-3516.721 -2534.038)" fill="#000712"/>
            <path id="Path_111" data-name="Path 111" d="M238,2344.041a.2.2,0,0,1-.05-.007.18.18,0,0,1-.122-.222l18.853-64.134h-5.909l-7.418,25.233a.179.179,0,1,1-.343-.1l7.455-25.362a.179.179,0,0,1,.172-.128h6.282a.178.178,0,0,1,.143.072.18.18,0,0,1,.029.157l-18.92,64.364a.179.179,0,0,1-.172.128" transform="translate(-221.046 -2120.178)" fill="#000712"/>
            <path id="Path_112" data-name="Path 112" d="M47.236,2793.6H40.955a.179.179,0,0,1-.172-.229l18.093-61.549a.179.179,0,0,1,.343.1l-18.026,61.32H47.1l7.039-23.946a.179.179,0,0,1,.343.1l-7.077,24.075a.179.179,0,0,1-.172.129" transform="translate(-40.776 -2534.039)" fill="#000712"/>
            <path id="Path_113" data-name="Path 113" d="M835.542,2209.588H816.155a.179.179,0,1,1,0-.357h19.387a.179.179,0,1,1,0,.357" transform="translate(-749.776 -2056.055)" fill="#000712"/>
            <path id="Path_114" data-name="Path 114" d="M1081.26,2235.674h-3.2a.179.179,0,0,1,0-.358h3.2a.179.179,0,0,1,0,.358" transform="translate(-989.324 -2079.92)" fill="#000712"/>
            <path id="Path_115" data-name="Path 115" d="M900.272,2235.674H887.953a.179.179,0,0,1,0-.358h12.319a.179.179,0,0,1,0,.358" transform="translate(-815.447 -2079.92)" fill="#000712"/>
            <path id="Path_116" data-name="Path 116" d="M2733.523,2210.49h-19.388a.179.179,0,1,1,0-.357h19.388a.179.179,0,1,1,0,.357" transform="translate(-2485.673 -2056.88)" fill="#000712"/>
            <path id="Path_117" data-name="Path 117" d="M2979.241,2236.58h-3.205a.179.179,0,0,1,0-.358h3.205a.179.179,0,0,1,0,.358" transform="translate(-2725.245 -2080.749)" fill="#000712"/>
            <path id="Path_118" data-name="Path 118" d="M2798.26,2236.58h-12.318a.179.179,0,0,1,0-.358h12.318a.179.179,0,0,1,0,.358" transform="translate(-2551.364 -2080.749)" fill="#000712"/>
            <path id="Path_119" data-name="Path 119" d="M1716.391,414.221v47.453a2.132,2.132,0,0,1-2.137,2.13h-47.446a2.126,2.126,0,0,1-2.13-2.13V414.221a2.126,2.126,0,0,1,2.13-2.13h47.446a2.132,2.132,0,0,1,2.137,2.13" transform="translate(-1525.954 -411.912)" fill="#fff"/>
            <path id="Path_120" data-name="Path 120" d="M1712.335,462.06H1664.89a2.311,2.311,0,0,1-2.308-2.309V412.3a2.311,2.311,0,0,1,2.308-2.309h47.446a2.314,2.314,0,0,1,2.316,2.309v47.453a2.314,2.314,0,0,1-2.316,2.309m-47.446-51.713a1.953,1.953,0,0,0-1.951,1.951v47.453a1.953,1.953,0,0,0,1.951,1.951h47.446a1.957,1.957,0,0,0,1.959-1.951V412.3a1.958,1.958,0,0,0-1.959-1.951Z" transform="translate(-1524.035 -409.99)"/>
            <path id="Path_121" data-name="Path 121" d="M2799.1,641.705h-47.45a2.133,2.133,0,0,1-2.133-2.132v-47.45a2.133,2.133,0,0,1,2.133-2.132h47.45a2.133,2.133,0,0,1,2.133,2.132v47.45a2.133,2.133,0,0,1-2.133,2.132" transform="translate(-2518.119 -574.666)" fill="#fff"/>
            <path id="Path_122" data-name="Path 122" d="M2797.143,639.931H2749.7a2.318,2.318,0,0,1-2.316-2.316V590.17a2.318,2.318,0,0,1,2.316-2.316h47.446a2.318,2.318,0,0,1,2.315,2.316v47.446a2.318,2.318,0,0,1-2.315,2.316m-47.446-51.72a1.961,1.961,0,0,0-1.958,1.958v47.446a1.961,1.961,0,0,0,1.958,1.958h47.446a1.96,1.96,0,0,0,1.957-1.958V590.17a1.96,1.96,0,0,0-1.957-1.958Z" transform="translate(-2516.164 -572.712)"/>
            <path id="Path_123" data-name="Path 123" d="M2429.1,1431.705H2381.65a2.132,2.132,0,0,1-2.132-2.133v-47.45a2.133,2.133,0,0,1,2.132-2.133H2429.1a2.133,2.133,0,0,1,2.132,2.133v47.45a2.132,2.132,0,0,1-2.132,2.133" transform="translate(-2179.727 -1297.411)" fill="#fff"/>
            <path id="Path_124" data-name="Path 124" d="M2427.143,1429.932H2379.7a2.318,2.318,0,0,1-2.316-2.316V1380.17a2.318,2.318,0,0,1,2.316-2.315h47.446a2.318,2.318,0,0,1,2.315,2.315v47.446a2.318,2.318,0,0,1-2.315,2.316m-47.446-51.72a1.961,1.961,0,0,0-1.959,1.958v47.446a1.961,1.961,0,0,0,1.959,1.958h47.446a1.96,1.96,0,0,0,1.958-1.958V1380.17a1.96,1.96,0,0,0-1.958-1.958Z" transform="translate(-2177.771 -1295.457)"/>
            <path id="Path_125" data-name="Path 125" d="M2466.027,1511.131a3.347,3.347,0,0,1-2.7-1.55,20.558,20.558,0,0,0-2.58-3.363s-2.191-3.037,2.277-3.617a2.37,2.37,0,0,0,2.5-3.11s-1.609-4.109,2.244-3.7a3.124,3.124,0,0,1,1.042.3c.856.418,3.027,1.211,3.767-1.043,0,0,.941-5.623,4.892-1.739a2.528,2.528,0,0,0,4.1.562s3.312-3.835,4.746.486a2.955,2.955,0,0,1,.131.69c.061.729.464,2.581,3.022,2.168,0,0,5.723-2.084,4.087,2.973,0,0-2.015,3.069,2.523,3.728,0,0,5.7.372-1.027,7.275a3.344,3.344,0,0,1-2.526,1Z" transform="translate(-2253.558 -1399.831)" fill="#71e9ee"/>
            <path id="Path_126" data-name="Path 126" d="M2494.274,1550.216a2.462,2.462,0,0,0,2.245-2.506,3.783,3.783,0,0,0-.724-2.2,4.765,4.765,0,0,1-.853-2.946,2.886,2.886,0,0,0-1.358-2.833,5.74,5.74,0,0,1-1.836-1.836,4.759,4.759,0,0,1-.5-1.219,1.4,1.4,0,0,0-.25-.542,2.754,2.754,0,0,0-2.066-1.105,1.559,1.559,0,0,1-.635-.118,5.159,5.159,0,0,1-2.262-1.914,1.526,1.526,0,0,0-.5-.542,2.986,2.986,0,0,0-2.528-.354,1.432,1.432,0,0,1-.433.076,4.923,4.923,0,0,1-2.828-.969s-1.107-1.043-3.417.271a1.2,1.2,0,0,1-.243.108,5.331,5.331,0,0,1-2.6.056,2.743,2.743,0,0,0-3.236,1.345,1.421,1.421,0,0,1-.451.458,5.045,5.045,0,0,1-2.358.805,1.729,1.729,0,0,0-.7.11,3.883,3.883,0,0,0-1.952,2.378,1.418,1.418,0,0,1-.271.445,6.114,6.114,0,0,1-1.712,1.4,2.143,2.143,0,0,0-.955.8,5.011,5.011,0,0,0-.737,2.653,1.437,1.437,0,0,1-.169.643,9.04,9.04,0,0,1-.872,1.317,4.549,4.549,0,0,0-.907,2.375,2.077,2.077,0,0,0,1.991,2.289Z" transform="translate(-2252.61 -1435.401)" fill="#ee4857"/>
            <path id="Path_127" data-name="Path 127" d="M2504.032,1569.106l-31.72-1.262a1.8,1.8,0,0,1-1.7-2.08,17.776,17.776,0,0,1,35.271,1.4,1.8,1.8,0,0,1-1.851,1.938" transform="translate(-2263.057 -1453.688)" fill="#fdd621"/>
            <path id="Path_128" data-name="Path 128" d="M2472.994,1565.709a1.8,1.8,0,0,0,1.7,2.08l-2.382-.094a1.8,1.8,0,0,1-1.7-2.08,17.769,17.769,0,0,1,19.447-14.845,17.764,17.764,0,0,0-17.064,14.94" transform="translate(-2263.09 -1453.538)" fill="#fc9c04"/>
            <path id="Path_129" data-name="Path 129" d="M2504.295,1567.52a1.885,1.885,0,0,1-1.406.554l-31.72-1.262a1.906,1.906,0,0,1-1.8-2.2,17.882,17.882,0,0,1,35.481,1.412,1.907,1.907,0,0,1-.528,1.473l-.026.026m-29.776-12.559a17.576,17.576,0,0,0-4.94,9.682,1.694,1.694,0,0,0,1.6,1.957l31.721,1.262a1.692,1.692,0,0,0,1.741-1.824,17.672,17.672,0,0,0-30.119-11.077" transform="translate(-2261.917 -1452.549)"/>
            <path id="Path_130" data-name="Path 130" d="M2580.7,1611.149l.681-.629a.492.492,0,0,0-.667-.722l-.681.629a.492.492,0,1,0,.667.722" transform="translate(-2363.077 -1507.535)" fill="#fc9c04"/>
            <path id="Path_131" data-name="Path 131" d="M2776.23,1606.011l.681-.629a.491.491,0,1,0-.667-.722l-.681.629a.491.491,0,1,0,.667.722" transform="translate(-2541.913 -1502.834)" fill="#fc9c04"/>
            <path id="Path_132" data-name="Path 132" d="M2719.308,1710.47l-.7-.754a.545.545,0,1,1,.8-.739l.7.755a.545.545,0,1,1-.8.739" transform="translate(-2489.835 -1598.229)" fill="#fc9c04"/>
            <path id="Path_133" data-name="Path 133" d="M2752.066,1660.612l-.853-.572a.545.545,0,1,1,.607-.9l.853.572a.545.545,0,0,1-.607.9" transform="translate(-2519.565 -1552.707)" fill="#fc9c04"/>
            <path id="Path_134" data-name="Path 134" d="M2639.759,1713.48a.543.543,0,0,0,.391-.144l.755-.7a.545.545,0,0,0-.739-.8l-.755.7a.545.545,0,0,0,.348.944" transform="translate(-2417.37 -1600.876)" fill="#fc9c04"/>
            <path id="Path_135" data-name="Path 135" d="M2831.8,1712.041a.575.575,0,0,0,.415-.153l.8-.739a.578.578,0,0,0-.784-.849l-.8.739a.578.578,0,0,0,.368,1" transform="translate(-2592.981 -1599.46)" fill="#fc9c04"/>
            <path id="Path_136" data-name="Path 136" d="M2642.45,1583.032l-.193-.824a.449.449,0,0,1,.874-.205l.193.824a.449.449,0,0,1-.874.2" transform="translate(-2420.123 -1481.91)" fill="#fc9c04"/>
            <path id="Path_137" data-name="Path 137" d="M2678.72,1668.646l-.844-.062a.449.449,0,1,1,.066-.895l.844.063a.449.449,0,0,1-.066.895" transform="translate(-2452.331 -1560.615)" fill="#fc9c04"/>
            <path id="Path_138" data-name="Path 138" d="M2626.834,1639.457l.808-.251a.449.449,0,1,1,.266.857l-.808.251a.449.449,0,1,1-.266-.857" transform="translate(-2405.739 -1534.54)" fill="#fc9c04"/>
            <path id="Path_139" data-name="Path 139" d="M2557.61,1702.4l1.035.246a.564.564,0,1,1-.26,1.1l-1.035-.245a.564.564,0,0,1,.261-1.1" transform="translate(-2342.078 -1592.357)" fill="#fc9c04"/>
            <path id="Path_140" data-name="Path 140" d="M2704.348,1578.139l-.659-.714a.515.515,0,0,1,.757-.7l.659.714a.515.515,0,1,1-.757.7" transform="translate(-2476.195 -1477.247)" fill="#fc9c04"/>
            <path id="Path_141" data-name="Path 141" d="M1877.582,452.549s1.279,1.459-1.016,2.377h-15.052s-2.213-1.557-1.738-3.459c.377-1.591,2.2-1.656,2.837-2.361a.775.775,0,0,0,.229-.508c.048-1.352-.574-2.554,1.164-3.739,1.787-1.2,5.083-2.279,4.771-5.033a3.791,3.791,0,0,1,2.443,1.968c1.082,1.787,1.016,2.574,2.492,3s.77,2.362.77,2.362,2.722.393,2.1,2.066c0,0,2.87,1.2,1,3.329" transform="translate(-1704.378 -437.285)" fill="#fdd621"/>
            <path id="Path_142" data-name="Path 142" d="M1908.783,505.934s1.279,1.459-1.017,2.377h-2.853c-2.427-.59-.689-3.115-.689-3.115-1.328-.164-.984-2.164-.984-2.164-4.148,1.114-9.428-.541-9.428-.541a.776.776,0,0,0,.229-.508c.012-.323-.059-1.321-.065-1.394,9.018,1.427,10.936-2.411,10.936-2.411,1.476.427.771,2.362.771,2.362s2.722.393,2.1,2.066c0,0,2.869,1.2,1,3.329" transform="translate(-1735.574 -490.67)" fill="#fc9c04"/>
            <path id="Path_143" data-name="Path 143" d="M1874.636,453.184h-15.052a.178.178,0,0,1-.1-.032c-.095-.067-2.309-1.651-1.809-3.649a2.889,2.889,0,0,1,1.941-1.882,3,3,0,0,0,.935-.556.6.6,0,0,0,.184-.4,7.7,7.7,0,0,0-.033-.838c-.172-2.24.558-2.676,2.542-3.785,1.716-.959,3.662-2.047,3.428-4.115a.179.179,0,0,1,.2-.2,3.941,3.941,0,0,1,2.572,2.052c1.109,1.83,1,2.519,2.389,2.921a1.37,1.37,0,0,1,.887.7,2.515,2.515,0,0,1,.063,1.69c1.21.252,2.412.917,2.088,2.11,1.547.771,2.126,2.063,1.01,3.431a1.558,1.558,0,0,1,.271,1.212,2.12,2.12,0,0,1-1.449,1.324.17.17,0,0,1-.066.013m-14.993-.357H1874.6c.7-.284,1.1-.641,1.2-1.061a1.287,1.287,0,0,0-.286-1.02.178.178,0,0,1,0-.235,1.781,1.781,0,0,0,.556-1.56c-.217-.942-1.479-1.48-1.491-1.486a.179.179,0,0,1-.1-.227.946.946,0,0,0-.042-.858c-.442-.746-1.9-.966-1.916-.968a.179.179,0,0,1-.142-.238,2.412,2.412,0,0,0,.016-1.608,1.017,1.017,0,0,0-.667-.521c-1.558-.45-1.528-1.317-2.6-3.079a3.972,3.972,0,0,0-2.094-1.826c.1,2.693-3.154,3.8-4.869,4.947a2.231,2.231,0,0,0-1.151,2.189c.006.186.019.355.031.523a7.878,7.878,0,0,1,.034.885.961.961,0,0,1-.282.628,3.215,3.215,0,0,1-1.046.634c-.746.341-1.518.693-1.743,1.641-.4,1.618,1.322,3.012,1.623,3.24" transform="translate(-1702.448 -435.365)"/>
            <path id="Path_144" data-name="Path 144" d="M1874.636,453.184h-15.052a.178.178,0,0,1-.1-.032c-.095-.067-2.309-1.651-1.809-3.649a2.889,2.889,0,0,1,1.941-1.882,3,3,0,0,0,.935-.556.6.6,0,0,0,.184-.4,7.7,7.7,0,0,0-.033-.838c-.172-2.24.558-2.676,2.542-3.785,1.716-.959,3.662-2.047,3.428-4.115a.179.179,0,0,1,.2-.2,3.941,3.941,0,0,1,2.572,2.052c1.109,1.83,1,2.519,2.389,2.921a1.37,1.37,0,0,1,.887.7,2.515,2.515,0,0,1,.063,1.69c1.21.252,2.412.917,2.088,2.11,1.547.771,2.126,2.063,1.01,3.431a1.558,1.558,0,0,1,.271,1.212,2.12,2.12,0,0,1-1.449,1.324.17.17,0,0,1-.066.013m-14.993-.357H1874.6c.7-.284,1.1-.641,1.2-1.061a1.287,1.287,0,0,0-.286-1.02.178.178,0,0,1,0-.235,1.781,1.781,0,0,0,.556-1.56c-.217-.942-1.479-1.48-1.491-1.486a.179.179,0,0,1-.1-.227.946.946,0,0,0-.042-.858c-.442-.746-1.9-.966-1.916-.968a.179.179,0,0,1-.142-.238,2.412,2.412,0,0,0,.016-1.608,1.017,1.017,0,0,0-.667-.521c-1.558-.45-1.528-1.317-2.6-3.079a3.972,3.972,0,0,0-2.094-1.826c.1,2.693-3.154,3.8-4.869,4.947a2.231,2.231,0,0,0-1.151,2.189c.006.186.019.355.031.523a7.878,7.878,0,0,1,.034.885.961.961,0,0,1-.282.628,3.215,3.215,0,0,1-1.046.634c-.746.341-1.518.693-1.743,1.641-.4,1.618,1.322,3.012,1.623,3.24" transform="translate(-1702.448 -435.365)"/>
            <path id="Path_145" data-name="Path 145" d="M1885.606,622.161l-1.587,14.674a1.034,1.034,0,0,1-1.022.909h-11.019a1.016,1.016,0,0,1-1-.909l-1.6-14.674-.422-3.851a1.061,1.061,0,0,1,.291-.826,1.033,1.033,0,0,1,.541-.28.672.672,0,0,1,.19-.024h15.049a1.033,1.033,0,0,1,.624.214.969.969,0,0,1,.226.243,1.017,1.017,0,0,1,.149.351c.044.249.028,0-.41,4.172" transform="translate(-1712.824 -599.541)" fill="#ff7e53"/>
            <path id="Path_146" data-name="Path 146" d="M1881.1,636h-11.022a1.192,1.192,0,0,1-1.181-1.069l-2.022-18.521a1.2,1.2,0,0,1,1.2-1.33h15.052a1.2,1.2,0,0,1,.9.407,1.173,1.173,0,0,1,.282.925l-2.006,18.522a1.214,1.214,0,0,1-1.2,1.067m-13.029-20.563a.847.847,0,0,0-.628.281.833.833,0,0,0-.213.654l2.022,18.523a.833.833,0,0,0,.826.748H1881.1a.855.855,0,0,0,.843-.751l2.006-18.521a.811.811,0,0,0-.195-.649.841.841,0,0,0-.631-.285Z" transform="translate(-1710.931 -597.624)"/>
            <path id="Path_147" data-name="Path 147" d="M1885.669,622.226h-16.244l-.416-3.846a1.031,1.031,0,0,1,.072-.505,1.113,1.113,0,0,1,.214-.327,1.034,1.034,0,0,1,.541-.28.924.924,0,0,1,.184-.018h15.055a.936.936,0,0,1,.4.077,1.074,1.074,0,0,1,.327.22,1.031,1.031,0,0,1,.273.505.938.938,0,0,1,.012.226c0,.3-.125,1.209-.416,3.946" transform="translate(-1712.881 -599.606)" fill="#d04e41"/>
            <path id="Path_148" data-name="Path 148" d="M1883.735,620.478h-16.241a.178.178,0,0,1-.177-.16l-.419-3.847a1.195,1.195,0,0,1,1.188-1.326h15.058a1.2,1.2,0,0,1,1.188,1.326l-.42,3.847a.178.178,0,0,1-.177.16m-16.08-.357h15.92l.4-3.687a.838.838,0,0,0-.834-.929h-15.058a.838.838,0,0,0-.833.929Z" transform="translate(-1710.949 -597.68)"/>
            <g id="Group_22" data-name="Group 22" transform="translate(161.306 22.62)" opacity="0.15">
              <g id="Group_21" data-name="Group 21">
                <g id="Group_20" data-name="Group 20" clip-path="url(#clip-path-7)">
                  <path id="Path_149" data-name="Path 149" d="M1941.291,675.686,1939.7,690.36a1.034,1.034,0,0,1-1.022.909h-8.874a24.568,24.568,0,0,0,6.348-15.583Z" transform="translate(-1929.808 -675.686)"/>
                </g>
              </g>
            </g>
            <g id="Group_25" data-name="Group 25" transform="translate(167.307 17.639)" opacity="0.15">
              <g id="Group_24" data-name="Group 24">
                <g id="Group_23" data-name="Group 23" clip-path="url(#clip-path-8)">
                  <path id="Path_150" data-name="Path 150" d="M2005.679,622.161h-5.141a24.026,24.026,0,0,0-.357-4.975v-.006h4.9a1,1,0,0,1,.4.083,1.07,1.07,0,0,1,.327.22,1.029,1.029,0,0,1,.274.505.943.943,0,0,1,.012.226c0,.3-.125,1.209-.416,3.946" transform="translate(-2000.181 -617.18)"/>
                </g>
              </g>
            </g>
            <g id="Group_28" data-name="Group 28" transform="translate(159.674 28.164)" opacity="0.3">
              <g id="Group_27" data-name="Group 27">
                <g id="Group_26" data-name="Group 26" clip-path="url(#clip-path-9)">
                  <path id="Path_151" data-name="Path 151" d="M1911.284,746.353l-.425-4.9a.594.594,0,0,1,1.184-.1l.425,4.9a.594.594,0,0,1-1.184.1" transform="translate(-1910.857 -740.808)" fill="#fff"/>
                </g>
              </g>
            </g>
            <g id="Group_31" data-name="Group 31" transform="translate(159.293 23.794)" opacity="0.3">
              <g id="Group_30" data-name="Group 30">
                <g id="Group_29" data-name="Group 29" clip-path="url(#clip-path-10)">
                  <path id="Path_152" data-name="Path 152" d="M1906.543,691.73l-.139-1.6a.594.594,0,0,1,1.184-.1l.139,1.6a.594.594,0,0,1-1.184.1" transform="translate(-1906.401 -689.482)" fill="#fff"/>
                </g>
              </g>
            </g>
            <path id="Path_153" data-name="Path 153" d="M1881.188,901.343v-4.426l-1.295,1a.2.2,0,0,1-.292-.043l-.37-.48a.207.207,0,0,1-.042-.12.2.2,0,0,1,.094-.171l1.922-1.493c.158-.1.267-.044.986-.06a.2.2,0,0,1,.206.206c-.021,5.883.053,5.625-.06,5.738s-.181.043-.943.06c-.057,0-.207-.088-.207-.206" transform="translate(-1722.218 -854.206)" fill="#8aa7bb"/>
            <path id="Path_154" data-name="Path 154" d="M1928.42,900.218c.032-.339-.106-.607.214-.849l1.338-1.33c.681-.537,1.6-1.214,1.6-1.853a.78.78,0,0,0-.867-.866.951.951,0,0,0-.977.909.253.253,0,0,1-.257.2c-.735-.015-.811.038-.9-.052a.175.175,0,0,1-.052-.128c.078-2.24,3.242-2.457,4.066-1.046a1.883,1.883,0,0,1-.082,1.977,4.827,4.827,0,0,1-1,1l-1.192,1.209h2.427a.205.205,0,0,1,.214.214v.618a.2.2,0,0,1-.214.206h-4.108a.2.2,0,0,1-.206-.206" transform="translate(-1767.239 -853.082)" fill="#8aa7bb"/>
            <path id="Path_155" data-name="Path 155" d="M1992.042,893.135a.193.193,0,0,1-.06-.15v-.6c-1.31-.129-1.941-.881-1.973-1.63a.171.171,0,0,1,.056-.124c.1-.1.155-.04.9-.056a.267.267,0,0,1,.266.163,1.186,1.186,0,0,0,1.235.686c.587,0,1.2-.17,1.2-.755a.525.525,0,0,0-.154-.386,1.3,1.3,0,0,0-.468-.27,8.088,8.088,0,0,1-2.406-.914,1.57,1.57,0,0,1,.013-2.264,2.254,2.254,0,0,1,1.325-.566c.016-.564-.039-.65.06-.742s.19-.041.677-.055a.192.192,0,0,1,.206.206v.609a2.15,2.15,0,0,1,1.565.918,1.363,1.363,0,0,1,.228.652.177.177,0,0,1-.18.18h-.815a.249.249,0,0,1-.249-.154c-.082-.441-.6-.643-1.054-.643-.524,0-1.012.178-1.012.7,0,.354.233.526.562.66a6.616,6.616,0,0,0,.845.257,5.983,5.983,0,0,1,1.214.386,1.583,1.583,0,0,1,.664.54,1.484,1.484,0,0,1,.214.832c0,1.088-.89,1.654-1.981,1.767v.6a.192.192,0,0,1-.206.206h-.532a.208.208,0,0,1-.146-.056" transform="translate(-1823.572 -844.991)" fill="#8aa7bb"/>
            <path id="Path_156" data-name="Path 156" d="M2981.382,1105.492a.2.2,0,0,1-.06-.146v-4.426l-1.295,1a.2.2,0,0,1-.129.042.189.189,0,0,1-.163-.086l-.369-.48a.2.2,0,0,1,.052-.291l1.922-1.493a.394.394,0,0,1,.214-.06h.772a.205.205,0,0,1,.206.206v5.592a.206.206,0,0,1-.206.206h-.8a.2.2,0,0,1-.146-.06" transform="translate(-2728.416 -1040.844)" fill="#8aa7bb"/>
            <path id="Path_157" data-name="Path 157" d="M3029.052,1105.407a1.851,1.851,0,0,1-.786-.635,1.6,1.6,0,0,1-.282-.849v-.017a.144.144,0,0,1,.056-.116.184.184,0,0,1,.124-.047h.814a.232.232,0,0,1,.25.172.987.987,0,0,0,.4.558,1.183,1.183,0,0,0,.656.18,1.117,1.117,0,0,0,.794-.292,1.048,1.048,0,0,0,.313-.806.971.971,0,0,0-.313-.75,1.126,1.126,0,0,0-.794-.288,1.1,1.1,0,0,0-.42.069,1.411,1.411,0,0,0-.317.189.824.824,0,0,0-.077.051.461.461,0,0,1-.108.06.276.276,0,0,1-.1.017h-.806a.19.19,0,0,1-.189-.188l.292-2.925a.245.245,0,0,1,.082-.175.255.255,0,0,1,.175-.065h3.225a.192.192,0,0,1,.206.206v.584a.208.208,0,0,1-.055.146.2.2,0,0,1-.151.06h-2.479l-.137,1.389a1.9,1.9,0,0,1,.455-.21,2.529,2.529,0,0,1,1.7.155,1.9,1.9,0,0,1,.763.677,1.839,1.839,0,0,1,.288,1.025,2.02,2.02,0,0,1-.292,1.093,1.916,1.916,0,0,1-.823.721,2.857,2.857,0,0,1-1.236.253,2.908,2.908,0,0,1-1.23-.24" transform="translate(-2772.919 -1040.844)" fill="#8aa7bb"/>
            <path id="Path_158" data-name="Path 158" d="M3092.281,1097.143a.193.193,0,0,1-.06-.15v-.6a2.779,2.779,0,0,1-1.06-.3,1.817,1.817,0,0,1-.669-.588,1.449,1.449,0,0,1-.244-.742.173.173,0,0,1,.055-.124.184.184,0,0,1,.133-.056h.772a.273.273,0,0,1,.158.038.4.4,0,0,1,.108.124.924.924,0,0,0,.4.489,1.533,1.533,0,0,0,.836.2,1.639,1.639,0,0,0,.9-.2.632.632,0,0,0,.3-.554.523.523,0,0,0-.155-.386,1.289,1.289,0,0,0-.467-.27c-.209-.077-.516-.17-.922-.278a3.659,3.659,0,0,1-1.484-.635,1.39,1.39,0,0,1-.472-1.132,1.506,1.506,0,0,1,.485-1.132,2.258,2.258,0,0,1,1.326-.566v-.591a.194.194,0,0,1,.06-.151.206.206,0,0,1,.146-.055h.532a.191.191,0,0,1,.206.206v.609a2.379,2.379,0,0,1,.956.33,1.9,1.9,0,0,1,.608.588,1.363,1.363,0,0,1,.228.652.177.177,0,0,1-.052.128.174.174,0,0,1-.128.052h-.816a.249.249,0,0,1-.248-.154.7.7,0,0,0-.338-.459,1.307,1.307,0,0,0-.716-.184,1.327,1.327,0,0,0-.743.18.591.591,0,0,0-.269.524.571.571,0,0,0,.133.386,1.117,1.117,0,0,0,.428.274,6.629,6.629,0,0,0,.845.257,5.971,5.971,0,0,1,1.214.386,1.587,1.587,0,0,1,.665.54,1.487,1.487,0,0,1,.214.832,1.521,1.521,0,0,1-.536,1.209,2.554,2.554,0,0,1-1.444.558v.6a.192.192,0,0,1-.206.206h-.532a.206.206,0,0,1-.146-.056" transform="translate(-2829.866 -1031.633)" fill="#8aa7bb"/>
            <path id="Path_159" data-name="Path 159" d="M2611.381,1845.492a.2.2,0,0,1-.06-.146v-4.426l-1.295,1a.2.2,0,0,1-.129.043.188.188,0,0,1-.163-.086l-.369-.48a.2.2,0,0,1,.052-.291l1.921-1.493a.394.394,0,0,1,.214-.06h.772a.2.2,0,0,1,.146.06.2.2,0,0,1,.06.146v5.592a.2.2,0,0,1-.206.206h-.8a.2.2,0,0,1-.146-.06" transform="translate(-2390.008 -1717.845)" fill="#8aa7bb"/>
            <path id="Path_160" data-name="Path 160" d="M2659.052,1845.407a1.851,1.851,0,0,1-.786-.635,1.6,1.6,0,0,1-.282-.849v-.017a.144.144,0,0,1,.056-.116.186.186,0,0,1,.124-.047h.814a.231.231,0,0,1,.249.172.989.989,0,0,0,.4.558,1.183,1.183,0,0,0,.656.18,1.118,1.118,0,0,0,.794-.292,1.048,1.048,0,0,0,.313-.806.971.971,0,0,0-.312-.75,1.127,1.127,0,0,0-.794-.287,1.109,1.109,0,0,0-.42.068,1.428,1.428,0,0,0-.317.189.891.891,0,0,0-.077.051.452.452,0,0,1-.107.06.282.282,0,0,1-.1.017h-.806a.181.181,0,0,1-.133-.056.182.182,0,0,1-.056-.133l.292-2.925a.243.243,0,0,1,.081-.175.257.257,0,0,1,.176-.065h3.225a.2.2,0,0,1,.15.056.2.2,0,0,1,.056.15v.583a.207.207,0,0,1-.056.146.2.2,0,0,1-.15.06h-2.479l-.138,1.389a1.882,1.882,0,0,1,.455-.21,2.527,2.527,0,0,1,1.7.155,1.9,1.9,0,0,1,.762.677,1.834,1.834,0,0,1,.288,1.025,2.018,2.018,0,0,1-.292,1.093,1.915,1.915,0,0,1-.823.721,2.853,2.853,0,0,1-1.235.253,2.908,2.908,0,0,1-1.23-.24" transform="translate(-2434.511 -1717.846)" fill="#8aa7bb"/>
            <path id="Path_161" data-name="Path 161" d="M2722.281,1837.143a.193.193,0,0,1-.06-.15v-.6a2.778,2.778,0,0,1-1.06-.3,1.813,1.813,0,0,1-.668-.588,1.45,1.45,0,0,1-.244-.742.173.173,0,0,1,.055-.124.185.185,0,0,1,.134-.056h.772a.273.273,0,0,1,.158.038.4.4,0,0,1,.108.124.918.918,0,0,0,.4.489,1.531,1.531,0,0,0,.837.2,1.633,1.633,0,0,0,.9-.2.629.629,0,0,0,.3-.553.523.523,0,0,0-.155-.386,1.294,1.294,0,0,0-.467-.27q-.314-.116-.922-.279a3.649,3.649,0,0,1-1.484-.635,1.39,1.39,0,0,1-.472-1.132,1.507,1.507,0,0,1,.485-1.132,2.26,2.26,0,0,1,1.326-.566v-.591a.194.194,0,0,1,.06-.151.206.206,0,0,1,.146-.055h.532a.191.191,0,0,1,.206.206v.609a2.382,2.382,0,0,1,.956.33,1.909,1.909,0,0,1,.608.587,1.366,1.366,0,0,1,.228.652.176.176,0,0,1-.18.18h-.815a.249.249,0,0,1-.249-.154.7.7,0,0,0-.338-.459,1.3,1.3,0,0,0-.717-.184,1.323,1.323,0,0,0-.742.18.59.59,0,0,0-.27.523.572.572,0,0,0,.132.386,1.121,1.121,0,0,0,.429.274,6.63,6.63,0,0,0,.845.257,5.98,5.98,0,0,1,1.214.386,1.588,1.588,0,0,1,.665.54,1.485,1.485,0,0,1,.214.832,1.522,1.522,0,0,1-.536,1.21,2.556,2.556,0,0,1-1.445.558v.6a.192.192,0,0,1-.206.206h-.532a.207.207,0,0,1-.146-.056" transform="translate(-2491.459 -1708.634)" fill="#8aa7bb"/>
            <path id="Path_162" data-name="Path 162" d="M2947.258,686.382l-.757,6.954-2.2,19.924-.342,3.109h-15.16l-.342-3.109-2.2-19.924-.757-6.954Z" transform="translate(-2679.145 -662.852)" fill="#cfb8b0"/>
            <g id="Group_34" data-name="Group 34" transform="translate(254.814 50.407)" opacity="0.15">
              <g id="Group_33" data-name="Group 33">
                <g id="Group_32" data-name="Group 32" clip-path="url(#clip-path-11)">
                  <path id="Path_163" data-name="Path 163" d="M3035.223,1002.094l-.342,3.109h-10a18.237,18.237,0,0,0,4.5-3.109Z" transform="translate(-3024.886 -1002.094)"/>
                </g>
              </g>
            </g>
            <g id="Group_37" data-name="Group 37" transform="translate(265.064 23.53)" opacity="0.15">
              <g id="Group_36" data-name="Group 36">
                <g id="Group_35" data-name="Group 35" clip-path="url(#clip-path-12)">
                  <path id="Path_164" data-name="Path 164" d="M3148.188,686.382l-.757,6.954h-2.305c.094-1.909.128-3.825.094-5.735-.007-.315-.067-.763-.074-1.219Z" transform="translate(-3145.127 -686.382)"/>
                </g>
              </g>
            </g>
            <path id="Path_165" data-name="Path 165" d="M2954.636,768.063l-2.2,19.924h-15.844l-2.2-19.924Z" transform="translate(-2687.282 -737.579)" fill="#936a5a"/>
            <g id="Group_40" data-name="Group 40" transform="translate(259.324 30.484)" opacity="0.15">
              <g id="Group_39" data-name="Group 39">
                <g id="Group_38" data-name="Group 38" clip-path="url(#clip-path-13)">
                  <path id="Path_166" data-name="Path 166" d="M3085.807,768.063l-2.2,19.924h-5.835a13.424,13.424,0,0,0,1.816-2.124c1.99-2.887,2.72-6.452,3.2-9.929q.342-2.452.536-4.924c.081-.978.141-1.963.188-2.948Z" transform="translate(-3077.768 -768.063)"/>
                </g>
              </g>
            </g>
            <path id="Path_167" data-name="Path 167" d="M2929.1,661.185h0a1.176,1.176,0,0,1-1.176,1.176H2904.8a1.176,1.176,0,0,1,0-2.351h23.123a1.175,1.175,0,0,1,1.176,1.176" transform="translate(-2659.129 -638.724)"/>
            <path id="Path_168" data-name="Path 168" d="M2942.025,714.641h-15.163a.178.178,0,0,1-.177-.159l-3.3-29.985a.177.177,0,0,1,.177-.2h21.759a.178.178,0,0,1,.177.2l-.759,6.956-2.539,23.029a.178.178,0,0,1-.177.159m-15-.357h14.843l3.259-29.627h-21.361l.737,6.758Z" transform="translate(-2677.212 -660.946)"/>
            <path id="Path_169" data-name="Path 169" d="M2950.519,786.279h-15.846a.178.178,0,0,1-.177-.159l-2.2-19.92a.181.181,0,0,1,.044-.139.179.179,0,0,1,.133-.059h20.241a.178.178,0,0,1,.177.2l-2.2,19.92a.178.178,0,0,1-.177.159m-15.686-.357h15.526l2.158-19.563h-19.843Z" transform="translate(-2685.366 -735.693)"/>
            <g id="Group_43" data-name="Group 43" transform="translate(249.66 31.281)" opacity="0.3">
              <g id="Group_42" data-name="Group 42">
                <g id="Group_41" data-name="Group 41" clip-path="url(#clip-path-14)">
                  <path id="Path_170" data-name="Path 170" d="M2965.9,784.3a.67.67,0,0,1-.667-.612l-.479-5.522a.67.67,0,0,1,1.335-.115l.479,5.522a.67.67,0,0,1-.61.725l-.059,0" transform="translate(-2964.753 -777.432)" fill="#fff"/>
                </g>
              </g>
            </g>
            <g id="Group_46" data-name="Group 46" transform="translate(249.23 26.356)" opacity="0.3">
              <g id="Group_45" data-name="Group 45">
                <g id="Group_44" data-name="Group 44" clip-path="url(#clip-path-15)">
                  <path id="Path_171" data-name="Path 171" d="M2960.557,722.724a.67.67,0,0,1-.667-.612l-.157-1.8a.67.67,0,0,1,1.335-.116l.157,1.8a.67.67,0,0,1-.61.726c-.019,0-.039,0-.058,0" transform="translate(-2959.731 -719.579)" fill="#fff"/>
                </g>
              </g>
            </g>
            <path id="Path_172" data-name="Path 172" d="M563.3,2951.027c-1.14-3.129.05-6.745,2.237-9.256s5.225-4.108,8.267-5.464a19.14,19.14,0,0,0,5.69-3.266c1.586-1.524,2.554-3.933,1.717-5.966-.7-1.693-2.9-2.678-4.723-2.834a8.949,8.949,0,0,0-5.276,1.57,20.1,20.1,0,0,0-7.913,25.216" transform="translate(-517.278 -2710.175)" fill="#f0bb62"/>
            <path id="Path_173" data-name="Path 173" d="M593.037,3149.375s.147-6.361,3.486-7.578,4.409,2.212,4.409,2.212a6.829,6.829,0,0,0-5.6,5.366Z" transform="translate(-546.021 -2908.99)" fill="#ffdda5"/>
            <path id="Path_174" data-name="Path 174" d="M594.944,3149.819a.162.162,0,0,1-.05-.007.18.18,0,0,1-.122-.222c.074-.254,1.854-6.255,5.69-7.751a.179.179,0,0,1,.13.333c-3.672,1.434-5.458,7.458-5.476,7.519a.179.179,0,0,1-.172.129" transform="translate(-547.603 -2909.255)" fill="#000712"/>
            <path id="Path_175" data-name="Path 175" d="M584.814,3108.735a4.454,4.454,0,0,1,6.4.268c.829.933,1.234,2.174,2.015,3.147a4.514,4.514,0,0,0,3.507,1.726,3.666,3.666,0,0,0,3.243-2.048,4.806,4.806,0,0,0-.692-4.476,8.457,8.457,0,0,0-11.547-2.546,5.636,5.636,0,0,0-2.93,3.929" transform="translate(-538.498 -2874.222)" fill="#f0bb62"/>
            <path id="Path_176" data-name="Path 176" d="M594.753,3154.842a4.671,4.671,0,0,1-3.582-1.793,10.367,10.367,0,0,1-.95-1.512,8.854,8.854,0,0,0-1.059-1.628,4.275,4.275,0,0,0-6.146-.257.179.179,0,0,1-.246-.259,4.633,4.633,0,0,1,6.659.278,9.078,9.078,0,0,1,1.1,1.695,10.09,10.09,0,0,0,.916,1.46,4.369,4.369,0,0,0,3.306,1.659.192.192,0,0,1,.062,0,.179.179,0,0,1,0,.358h-.068" transform="translate(-536.577 -2915.009)" fill="#000712"/>
            <path id="Path_177" data-name="Path 177" d="M384.1,3097.945h-4.356a13.3,13.3,0,0,0-8.121-6.968,15.842,15.842,0,0,0-3.14-.772l-1.952-1.688-.375-.326a4.834,4.834,0,0,1,3.613-2.668,12.076,12.076,0,0,1,5.773.354,9.687,9.687,0,0,1,3.05,1.4c4.96,3.446,5.509,10.663,5.509,10.663" transform="translate(-338.453 -2857.56)" fill="#f0bb62"/>
            <path id="Path_178" data-name="Path 178" d="M382.621,3087.281a2.284,2.284,0,0,1-.861.2,10.164,10.164,0,0,0-3.793,1.445,9.924,9.924,0,0,0-1.806,1.472c-.181.188-.347.383-.507.577a15.845,15.845,0,0,0-3.14-.771l-1.952-1.688a6.914,6.914,0,0,1,3.237-2.994,12.072,12.072,0,0,1,5.773.354,9.686,9.686,0,0,1,3.05,1.4" transform="translate(-342.485 -2857.559)"/>
            <path id="Path_179" data-name="Path 179" d="M465.928,3116.7a.179.179,0,0,1-.17-.125c-.03-.094-3.054-9.415-8.577-10.6a.179.179,0,0,1-.137-.212.182.182,0,0,1,.212-.137c5.727,1.227,8.718,10.447,8.842,10.839a.178.178,0,0,1-.116.224.163.163,0,0,1-.054.009" transform="translate(-421.602 -2876.135)" fill="#000712"/>
            <path id="Path_180" data-name="Path 180" d="M328.566,3037.565s-6.911-13.934-17.21-9.011c-7.233,3.457-4.2,10.6-1.287,10.591,3.957-.013,12.8-11.009,18.5-1.58" transform="translate(-284.225 -2804.663)" fill="#f0bb62"/>
            <path id="Path_181" data-name="Path 181" d="M316.09,3104.547a3.231,3.231,0,0,1-2.6-1.845.178.178,0,0,1,.309-.179,2.932,2.932,0,0,0,2.289,1.667h.006c1.144,0,2.746-.985,4.6-2.122,2.832-1.734,6.356-3.891,9.563-3.111a7.384,7.384,0,0,1,4.486,3.738.179.179,0,0,1-.306.186,7.054,7.054,0,0,0-4.265-3.577c-3.066-.744-6.372,1.281-9.292,3.069-1.9,1.165-3.543,2.17-4.787,2.174Z" transform="translate(-290.253 -2869.885)" fill="#000712"/>
            <path id="Path_182" data-name="Path 182" d="M573.573,2986.724a.178.178,0,0,1-.172-.131c-.022-.083-2.22-8.352,2.266-15.1,3.07-4.617,8.488-7.46,16.1-8.449a.179.179,0,1,1,.046.354c-7.506.975-12.838,3.764-15.849,8.291-4.4,6.607-2.243,14.726-2.221,14.808a.178.178,0,0,1-.125.219.191.191,0,0,1-.048.006" transform="translate(-527.547 -2745.694)" fill="#000712"/>
            <path id="Path_183" data-name="Path 183" d="M336.823,3068.013a.176.176,0,0,1-.051-.008.179.179,0,0,1-.12-.223,9.424,9.424,0,0,1,4.916-6.258c4.446-2.069,9.92.254,9.975.278a.179.179,0,0,1-.142.328c-.054-.024-5.385-2.284-9.684-.281a9.086,9.086,0,0,0-4.723,6.035.179.179,0,0,1-.171.127" transform="translate(-311.456 -2835.007)" fill="#000712"/>
            <path id="Path_184" data-name="Path 184" d="M653.509,3103.178l-.123,0a.179.179,0,0,1-.172-.186.188.188,0,0,1,.186-.172,4.178,4.178,0,0,0,3.2-1.593,4.392,4.392,0,0,0,1.027-3.729c-1.294-6.27-9.129-5.573-10.687-5.369a.178.178,0,1,1-.046-.354c1.612-.211,9.725-.929,11.083,5.65a4.75,4.75,0,0,1-1.1,4.033,4.616,4.616,0,0,1-3.364,1.722" transform="translate(-595.151 -2863.344)" fill="#000712"/>
            <path id="Path_185" data-name="Path 185" d="M620.325,3125.92a.178.178,0,0,1-.17-.125c-.017-.054-1.725-5.41-5.336-7.073a5.66,5.66,0,0,0-4.759.067.179.179,0,0,1-.141-.329,6.007,6.007,0,0,1,5.051-.062c3.755,1.731,5.455,7.064,5.525,7.29a.179.179,0,0,1-.117.224.173.173,0,0,1-.053.008" transform="translate(-561.367 -2887.34)" fill="#000712"/>
            <path id="Path_186" data-name="Path 186" d="M323.438,2934.978a.179.179,0,0,1-.168-.118c-1.064-2.924-.174-6.627,2.271-9.434,2.248-2.583,5.332-4.175,8.329-5.51l.519-.229a17.238,17.238,0,0,0,5.121-3c1.445-1.387,2.523-3.709,1.675-5.769a6.784,6.784,0,0,0-3.492-3.628c-1.908-.783-4.221-.535-6.871.739-9.559,4.591-8.9,18.673-8.89,18.814a.179.179,0,0,1-.331.1c-.078-.128-7.866-12.791-14.17-11.778-3.586.581-6.134,2.372-7.175,5.044a7.076,7.076,0,0,0,1.069,6.913.179.179,0,0,1-.281.221,7.434,7.434,0,0,1-1.121-7.264c1.089-2.795,3.734-4.665,7.451-5.267,5.866-.952,12.588,8.906,14.189,11.4,0-2.865.533-14.389,9.1-18.507,2.748-1.32,5.159-1.571,7.166-.746a7.023,7.023,0,0,1,3.686,3.83c.909,2.208-.229,4.684-1.762,6.155a17.467,17.467,0,0,1-5.223,3.071l-.518.23c-2.96,1.319-6,2.888-8.205,5.418-2.36,2.71-3.225,6.273-2.2,9.077a.179.179,0,0,1-.107.229.181.181,0,0,1-.061.011" transform="translate(-277.412 -2693.947)" fill="#000712"/>
            <path id="Path_187" data-name="Path 187" d="M503.035,2970.21a.179.179,0,0,1-.169-.12l-5.257-15.223a.179.179,0,1,1,.338-.117l5.257,15.223a.179.179,0,0,1-.11.227.176.176,0,0,1-.059.01" transform="translate(-458.708 -2737.996)" fill="#000712"/>
            <path id="Path_188" data-name="Path 188" d="M447.893,2890.251a3.324,3.324,0,1,1-3.324-3.324,3.333,3.333,0,0,1,3.324,3.324" transform="translate(-407.152 -2676.057)" fill="#1c7d88"/>
            <path id="Path_189" data-name="Path 189" d="M531.792,2951.572a1.5,1.5,0,1,1-1.5-1.5,1.5,1.5,0,0,1,1.5,1.5" transform="translate(-487.245 -2733.826)" fill="#fff"/>
            <rect id="Rectangle_30" data-name="Rectangle 30" width="24.366" height="3.204" transform="translate(33.462 240.385)" fill="#fff"/>
            <path id="Path_190" data-name="Path 190" d="M481.193,3271.25H461.545l3.128,15.047h13.393Z" transform="translate(-425.724 -3027.662)" fill="#fff"/>
            <path id="Path_191" data-name="Path 191" d="M456.282,3235.082H431.916a.179.179,0,0,1-.179-.179v-3.2a.179.179,0,0,1,.179-.179h24.366a.179.179,0,0,1,.179.179v3.2a.179.179,0,0,1-.179.179m-24.187-.357H456.1v-2.847H432.094Z" transform="translate(-398.453 -2991.314)" fill="#000712"/>
            <path id="Path_192" data-name="Path 192" d="M476.148,3284.554H462.755a.18.18,0,0,1-.175-.143l-3.127-15.046a.182.182,0,0,1,.036-.149.179.179,0,0,1,.139-.066h19.648a.178.178,0,0,1,.139.066.182.182,0,0,1,.036.149l-3.127,15.046a.18.18,0,0,1-.175.143M462.9,3284.2H476l3.052-14.689H459.847Z" transform="translate(-423.806 -3025.741)" fill="#000712"/>
            <path id="Path_193" data-name="Path 193" d="M480.26,3275.743,461.8,3272.48l-.256-1.23h19.648Z" transform="translate(-425.724 -3027.662)"/>
          </g>
        </g>
      </g>
    </g>
  </g>
</svg>
