<svg xmlns="http://www.w3.org/2000/svg" xmlns:xlink="http://www.w3.org/1999/xlink" width="260" height="260" viewBox="0 0 260 260">
  <defs>
    <clipPath id="clip-path">
      <path id="Path_611" data-name="Path 611" d="M6.759,1755.789l-.052,0A7.136,7.136,0,0,0,0,1762.883v.034a7.136,7.136,0,0,0,8.386,7.011,125.959,125.959,0,0,1,15.936-1.847,110.082,110.082,0,0,1,16,.354,96.451,96.451,0,0,1,30.829,8.158,93.586,93.586,0,0,1,26.438,18.232,150.668,150.668,0,0,1,11.122,12.081c3.575,4.225,6.976,8.66,10.74,13.01a72.276,72.276,0,0,0,6.121,6.347,29.8,29.8,0,0,0,7.815,5.258,20.233,20.233,0,0,0,4.8,1.43,19.872,19.872,0,0,0,5.012.178,21.561,21.561,0,0,0,4.853-.994,23.275,23.275,0,0,0,4.45-2.015,34.572,34.572,0,0,0,7.237-5.829,69.359,69.359,0,0,0,5.688-6.754c3.5-4.6,6.562-9.327,9.782-13.84,1.6-2.26,3.208-4.489,4.895-6.624s3.4-4.22,5.219-6.167c.449-.494.918-.962,1.375-1.444.471-.464.929-.943,1.408-1.394.944-.92,1.916-1.794,2.909-2.636s2.01-1.639,3.053-2.385c1.033-.763,2.1-1.459,3.182-2.12a41.764,41.764,0,0,1,6.747-3.292c.588-.2,1.161-.436,1.755-.612l.883-.282c.295-.091.6-.167.893-.249,1.189-.332,2.4-.58,3.61-.8a41.119,41.119,0,0,1,14.662.121,7.61,7.61,0,0,0,1.353.128,7.155,7.155,0,0,0-.016-14.311H227c-1.591,0-3.186.048-4.765.153s-3.15.289-4.71.506a59.685,59.685,0,0,0-9.2,2.058,54.481,54.481,0,0,0-16.6,8.428,71.142,71.142,0,0,0-12.827,12.583,157.282,157.282,0,0,0-9.94,14.135c-3.038,4.771-5.961,9.522-9.09,13.949a62.717,62.717,0,0,1-5,6.192,33.2,33.2,0,0,1-2.749,2.644,22.67,22.67,0,0,1-2.975,2.121,15.456,15.456,0,0,1-6.52,2.176,13.2,13.2,0,0,1-6.574-1.11,23.316,23.316,0,0,1-6.019-4.139,60.811,60.811,0,0,1-5.457-5.8c-3.505-4.17-6.889-8.652-10.429-13.073s-7.277-8.78-11.3-12.916q-3.014-3.1-6.278-5.988c-2.172-1.922-4.411-3.782-6.736-5.536s-4.732-3.408-7.2-4.97-5-3.032-7.6-4.364a108.2,108.2,0,0,0-16.175-6.81l-2.087-.7c-.7-.219-1.407-.407-2.111-.612-1.411-.4-2.817-.828-4.247-1.144-2.844-.72-5.717-1.316-8.6-1.829a143.957,143.957,0,0,0-25.019-2.065q-5.023,0-10.035.276" transform="translate(0 -1755.513)" fill="none"/>
    </clipPath>
    <clipPath id="clip-path-2">
      <path id="Path_612" data-name="Path 612" d="M2555.879,1703.262l6.106,8.716a11.345,11.345,0,0,1,.827,11.992l-4.087,7.779c-1.071,2.039,1.741,3.959,3.852,2.63l24.014-15.114a3.527,3.527,0,0,0,1.768-2.964v-.03a3.633,3.633,0,0,0-2.229-3.225l-26.806-12.787a2.915,2.915,0,0,0-1.261-.29c-1.812,0-3.273,1.738-2.183,3.294" transform="translate(-2555.504 -1699.968)" fill="none"/>
    </clipPath>
    <clipPath id="clip-path-3">
      <path id="Path_613" data-name="Path 613" d="M751.135,142.327c0,31.1,44.52,87.011,64.4,110.4a12.4,12.4,0,0,0,18.983-.458c19.555-24.048,62.195-79.9,62.195-110.057,0-38.981-31.816-71.038-71.667-71.612-.364-.005-.724-.008-1.086-.008-40.042,0-72.822,31.894-72.822,71.732" transform="translate(-751.135 -70.595)" fill="none"/>
    </clipPath>
    <clipPath id="clip-path-4">
      <path id="Path_614" data-name="Path 614" d="M1429.384,2343.459a15.336,15.336,0,0,0-14.921,15.118,14.215,14.215,0,0,0,14.921,14.179,15.34,15.34,0,0,0,14.827-15.115,14.2,14.2,0,0,0-14.391-14.188c-.145,0-.291,0-.436.006" transform="translate(-1414.463 -2343.453)" fill="none"/>
    </clipPath>
    <clipPath id="clip-path-5">
      <path id="Path_615" data-name="Path 615" d="M780.083,142.327c0,31.1,44.52,87.011,64.4,110.4a12.4,12.4,0,0,0,18.983-.458c19.555-24.048,62.195-79.9,62.195-110.057,0-38.981-31.816-71.038-71.667-71.612-.364-.005-.724-.008-1.086-.008-40.042,0-72.822,31.894-72.822,71.732" transform="translate(-780.083 -70.595)" fill="none"/>
    </clipPath>
    <clipPath id="clip-path-6">
      <rect id="Rectangle_220" data-name="Rectangle 220" width="260" height="256.394" fill="none"/>
    </clipPath>
    <clipPath id="clip-path-7">
      <rect id="Rectangle_219" data-name="Rectangle 219" width="95.095" height="185.742" fill="none"/>
    </clipPath>
    <clipPath id="clip-path-8">
      <path id="Path_617" data-name="Path 617" d="M853.64,230.467c4.611-30.018,24.56-39.79,21.148-67.925-3.941-32.5-33.217-41.31-33.928-70.434A45.27,45.27,0,0,1,842.617,78.6c-35.226,4.912-62.534,34.7-62.534,71.067,0,31.123,44.5,87.067,64.371,110.473a12.082,12.082,0,0,0,11.37,4.013,80.546,80.546,0,0,1-2.185-33.681" transform="translate(-780.083 -78.596)" fill="none"/>
    </clipPath>
    <clipPath id="clip-path-9">
      <path id="Path_618" data-name="Path 618" d="M1458.332,2343.459a15.336,15.336,0,0,0-14.921,15.118,14.215,14.215,0,0,0,14.921,14.179,15.34,15.34,0,0,0,14.827-15.115,14.2,14.2,0,0,0-14.391-14.188c-.145,0-.291,0-.436.006" transform="translate(-1443.411 -2343.453)" fill="none"/>
    </clipPath>
    <clipPath id="clip-path-10">
      <path id="Path_619" data-name="Path 619" d="M299.38,1336.422c-.2,1.6.918,4.362.291,4.438a5.287,5.287,0,0,1-.619.018c-.595,0-1.212-.008-.993.4.3.568,3.183,2.641,4.948,1.947s1.135-3.87.2-4.861-.813-3.834-.813-3.834-2.813.29-3.011,1.887" transform="translate(-298.014 -1334.535)" fill="none"/>
    </clipPath>
    <linearGradient id="linear-gradient" x1="-2.065" y1="12.833" x2="-2.057" y2="12.833" gradientUnits="objectBoundingBox">
      <stop offset="0" stop-color="#ffc444"/>
      <stop offset="0.996" stop-color="#f36f56"/>
      <stop offset="1" stop-color="#f36f56"/>
    </linearGradient>
    <clipPath id="clip-path-11">
      <path id="Path_620" data-name="Path 620" d="M1710.562,1180.806c-.364.3-.491.593-.644.3-.3-.568-.66-.839-.617,1.11a8.358,8.358,0,0,1-1.389,4.133l1.606.812c2.729-2.451,5.126-6.19,3.013-6.689a3.2,3.2,0,0,0-.735-.093,1.862,1.862,0,0,0-1.234.422" transform="translate(-1707.912 -1180.384)" fill="none"/>
    </clipPath>
    <linearGradient id="linear-gradient-2" x1="-16.061" y1="16.377" x2="-16.052" y2="16.377" xlink:href="#linear-gradient"/>
    <clipPath id="clip-path-12">
      <path id="Path_621" data-name="Path 621" d="M1098.16,994.949l-5.147,23.674c6.417,15.15,21.844,23.4,35.769,20.372,15.862-3.447,21.891-19.808,22.23-20.775l-4.079-2.945c-13.06,8.671-19.572,8.718-23.084,6.547-6.957-4.3-3.141-17.928-12-24.3a16.666,16.666,0,0,0-9.883-2.833,29.04,29.04,0,0,0-3.8.265" transform="translate(-1093.013 -994.684)" fill="none"/>
    </clipPath>
    <clipPath id="clip-path-13">
      <path id="Path_622" data-name="Path 622" d="M1068.595,2487.667a39.835,39.835,0,0,1,2.5,5.922l3.172-1.007s-1.516-.883-1.743-4.177c-.089-1.291-.712-1.683-1.437-1.683a5.522,5.522,0,0,0-2.5.945" transform="translate(-1068.595 -2486.721)" fill="none"/>
    </clipPath>
    <linearGradient id="linear-gradient-3" x1="-12.053" y1="5.126" x2="-12.041" y2="5.126" xlink:href="#linear-gradient"/>
    <clipPath id="clip-path-14">
      <path id="Path_623" data-name="Path 623" d="M1093.279,2520.249c-1.981,1.053-2.285,1.472-3.279,1.64s-2.185.765-2.239,1.154a7.652,7.652,0,0,0,.77,1.956,1.271,1.271,0,0,0,1,.7l.077.009a16.647,16.647,0,0,0,2.683-.186c6.6-1.491,8.443-4.389,7.316-5.9a2.169,2.169,0,0,0-1.84-.747,10.766,10.766,0,0,0-4.486,1.374" transform="translate(-1087.759 -2518.875)" fill="none"/>
    </clipPath>
    <clipPath id="clip-path-15">
      <path id="Path_624" data-name="Path 624" d="M1093.279,2520.25c-1.981,1.053-2.285,1.472-3.279,1.641s-2.185.765-2.239,1.154a4.417,4.417,0,0,0,.466,1.315,36.308,36.308,0,0,0,5.048-1.589c2.918-1.222,3.685-2.821,5.294-3.137.819-.16,1.155.592,1.287,1.37a1.6,1.6,0,0,0-.251-1.381,2.168,2.168,0,0,0-1.84-.747,10.776,10.776,0,0,0-4.487,1.374" transform="translate(-1087.759 -2518.876)" fill="none"/>
    </clipPath>
    <linearGradient id="linear-gradient-4" x1="-7.315" y1="4.162" x2="-7.309" y2="4.162" gradientUnits="objectBoundingBox">
      <stop offset="0" stop-color="#444b8c"/>
      <stop offset="0.996" stop-color="#26264f"/>
      <stop offset="1" stop-color="#26264f"/>
    </linearGradient>
    <clipPath id="clip-path-16">
      <path id="Path_625" data-name="Path 625" d="M810.751,1510.917a53.941,53.941,0,0,0,.342,19.046c2.675,13.23,8.392,14.5,10.809,26.658,2.493,12.542-2.5,16.7,1.444,27.475a35.969,35.969,0,0,0,9.346,13.8l5.344-1.117a216.613,216.613,0,0,0-6.229-88.083l-21.057,2.225" transform="translate(-810.065 -1508.692)" fill="none"/>
    </clipPath>
    <clipPath id="clip-path-18">
      <rect id="Rectangle_230" data-name="Rectangle 230" width="22.749" height="85.981" fill="none"/>
    </clipPath>
    <clipPath id="clip-path-19">
      <path id="Path_626" data-name="Path 626" d="M822.209,1520.088c-2.661,4.3-3.171,7.814-2.959,10.5.7,8.933,9.6,11.559,9.979,21.472.253,6.652-3.682,7.373-2.994,14.362.73,7.415,5.293,7.953,6.4,15.674.868,6.069-1.63,7.989-2.276,16.155a43.607,43.607,0,0,0,.091,7.822,34.9,34.9,0,0,1-7.107-11.542c-3.939-10.786,1.048-14.942-1.444-27.493-2.416-12.167-8.13-13.436-10.8-26.675a54.036,54.036,0,0,1-.342-19.058l11.458-1.212" transform="translate(-810.065 -1520.088)" fill="none"/>
    </clipPath>
    <clipPath id="clip-path-20">
      <path id="Path_627" data-name="Path 627" d="M57.423,2124.5c-.864,1.608-1.309,8.882-.864,10.773a2.109,2.109,0,0,0,3.716.7c.914-1.2,1.734-10.789,1.734-10.789l-2.412-2.52a3.412,3.412,0,0,0-2.174,1.838" transform="translate(-56.384 -2122.664)" fill="none"/>
    </clipPath>
    <clipPath id="clip-path-21">
      <path id="Path_628" data-name="Path 628" d="M132.284,1556.861c-4.459,9.269-6.6,11.544-7.876,12.746-2.648,2.5-5.53,3.85-11.188,6.45-10.61,4.878-13.755,4.31-17.6,8.123-1.8,1.786-4.163,4.933-5.351,10.59.137,1.259.583,1.93,1.925,2.029q11.907-1.918,22.63-3.834c8.172-1.454,11.361-2.1,15.455-4.1,1.7-.829,5.887-3.034,12.922-10.033,7.6-7.558,9.6-11.84,16.416-20.228a156.877,156.877,0,0,1,14.883-15.887l-35.759-1.161c-2.318,6.336-4.628,11.5-6.455,15.3" transform="translate(-90.266 -1541.56)" fill="none"/>
    </clipPath>
    <clipPath id="clip-path-22">
      <path id="Path_629" data-name="Path 629" d="M475.774,897.29a16.933,16.933,0,0,0-2.494,9c.052,1.6.337,3.722.219,7.265a24.56,24.56,0,0,1-.345,3.275c-1.315,7.863-4.339,8.524-7.566,18.457-2.657,8.177-1.442,10.3-4.543,13.326-2.225,2.174-4.788,2.976-6.909,6.63-.7,1.21-2.449,4.22-1.431,5.492.887,1.109,3.088-.081,6.389-1.272a24.252,24.252,0,0,1,10.5-1.639c4.9.419,5.316,2.234,10.476,2.22,5.632-.016,5.648-2.18,10.936-2.254,5.242-.073,6.433,2.036,14.338,2.564,3.326.223,4.989.334,6.172-.378,3.828-2.3,2.206-8.615,3.329-17.852.825-6.784,2.337-8.617,4.472-14.574,1.393-3.884,1.375-4.8,2.414-7.946a49.437,49.437,0,0,1,6.471-12.748,60.9,60.9,0,0,0-21.077-9.971,60.263,60.263,0,0,0-14.812-1.839,62.366,62.366,0,0,0-16.538,2.243" transform="translate(-452.394 -895.047)" fill="none"/>
    </clipPath>
    <clipPath id="clip-path-23">
      <path id="Path_630" data-name="Path 630" d="M958.509,838.629c-2.331,1.026-2.919,1.115-3.869,1.123a14.294,14.294,0,0,1-2.141-.139c-.838-.117-1.235-.233-1.346-.025-.406.764,4.147,5.348,10.24,6.258,3.541.529,8.525-1.832,7.468-2.4-4.928-2.661-5.7-3.734-2.654-8.126-1.592-.776-2.824-1.353-4.415-2.128-.859,1.3-.634,4.273-3.282,5.44" transform="translate(-951.128 -833.189)" fill="none"/>
    </clipPath>
    <linearGradient id="linear-gradient-5" x1="-4.123" y1="8.126" x2="-4.119" y2="8.126" xlink:href="#linear-gradient"/>
    <clipPath id="clip-path-24">
      <path id="Path_631" data-name="Path 631" d="M1053.932,771.9c-1.856.072-4.112,1.127-4.775,2.823-.393,1.006.824,2.8,1.019,3.121.221.368.566.454.9.706.466.351,1.2.909,2.388,1.847a7.085,7.085,0,0,1,.31-1.226,6.649,6.649,0,0,1,.745-1.5c.855-1.23,1.66-1.035,2.227-1.926a2.655,2.655,0,0,0-.363-3.219,2.866,2.866,0,0,0-2.015-.642c-.16,0-.308.006-.439.011" transform="translate(-1049.079 -771.89)" fill="none"/>
    </clipPath>
    <clipPath id="clip-path-25">
      <path id="Path_632" data-name="Path 632" d="M1066.194,806.432c-.431.181-.564.373-1.273.656-.655.261-.85.22-1.038.408-.234.236-.375.749.17,2a1.2,1.2,0,0,0-1.292-.2.787.787,0,0,0-.263.3c-.255.56.312,1.142,1.5,1.352a3.958,3.958,0,0,0,3.775,1.16c2.138-.454,2.031-5,.57-5.745a2.085,2.085,0,0,0-.918-.18,3.258,3.258,0,0,0-1.228.238" transform="translate(-1062.438 -806.194)" fill="none"/>
    </clipPath>
    <linearGradient id="linear-gradient-6" x1="-10.861" y1="24.269" x2="-10.851" y2="24.269" xlink:href="#linear-gradient"/>
    <clipPath id="clip-path-26">
      <path id="Path_633" data-name="Path 633" d="M295.656,897.637c-4.594,9.043-3.388,18.461-2.242,23.557l5.248-.377c2.1-5.873,6.014-13.718,13.46-16.547,4.536-1.723,8.6-.908,12.473-.094s7.527,1.626,11.266-.083c4.288-1.96,9.33-7.537,10.844-24.6a60.689,60.689,0,0,0-13.366-1.519c-17.06,0-31.562,7.616-37.682,19.662" transform="translate(-292.364 -877.975)" fill="none"/>
    </clipPath>
    <clipPath id="clip-path-28">
      <rect id="Rectangle_240" data-name="Rectangle 240" width="72.087" height="53.629" fill="none"/>
    </clipPath>
    <clipPath id="clip-path-29">
      <path id="Path_634" data-name="Path 634" d="M396.32,1083.678c-5.18-3.358-4.82-9.03-9.539-10.47-5.632-1.718-9.255,5.41-15.279,4.138-5.414-1.143-10.413-8.573-9.72-14.843,1.3-11.792,22.534-17.613,21.381-20.681-.514-1.368-4.659-.006-11.735-.536-12.3-.921-13.982-6.1-21.367-5.182-8.6,1.067-15.375,9.213-18.22,16.268a27.9,27.9,0,0,0-1.881,12.638l2.87-.206c2.1-5.877,6.011-13.727,13.454-16.558,5.32-2.023,9.995-.551,14.463.316-1.532,5.009-4.094,6.821-6.8,15.157-2.656,8.182-1.441,10.3-4.541,13.334-2.224,2.176-4.786,2.979-6.906,6.634-.7,1.21-2.448,4.223-1.431,5.5,1.63,2.041,7.7-3.7,16.879-2.912,4.894.42,5.314,2.236,10.472,2.221,5.629-.016,5.645-2.181,10.932-2.255,5.24-.073,6.431,2.037,14.332,2.566,3.324.222,4.987.334,6.17-.378a4.813,4.813,0,0,0,2.1-2.821,12.822,12.822,0,0,1-5.635-1.926" transform="translate(-329.868 -1035.995)" fill="none"/>
    </clipPath>
    <linearGradient id="linear-gradient-7" x1="-0.267" y1="2.008" x2="-0.266" y2="2.008" gradientUnits="objectBoundingBox">
      <stop offset="0" stop-color="#aa80f9"/>
      <stop offset="0.996" stop-color="#6165d7"/>
      <stop offset="1" stop-color="#6165d7"/>
    </linearGradient>
  </defs>
  <g id="Location_get" transform="translate(-1328 -864.33)">
    <rect id="Rectangle_243" data-name="Rectangle 243" width="259.729" height="260" transform="translate(1328.271 864.33)" fill="none"/>
    <g id="Group_8656" data-name="Group 8656" transform="translate(1328 865.997)">
      <g id="Group_8657" data-name="Group 8657" transform="translate(0 0)">
        <g id="Group_8593" data-name="Group 8593" transform="translate(1.115 0)">
          <g id="Group_8658" data-name="Group 8658">
            <path id="Path_610" data-name="Path 610" d="M239.3,220.5a98.573,98.573,0,0,1-17.309,14.065c-44.828,29.964-96.072,21.328-111.915,18.376-25.561-4.763-47.138-8.122-65.677-24.889C2.27,189.958,4.319,110.481,36.508,61.249,40.325,55.411,72.465,7.719,123.819,1c1.256-.164,2.193-.258,3.014-.345,7.944-.842,57.174-5.286,97.316,28.38A119.835,119.835,0,0,1,247.718,55.8c31.355,48.476,31.454,123.554-8.422,164.7" transform="translate(-12.541 0.001)" fill="rgba(240,187,98,0.12)"/>
          </g>
        </g>
        <g id="Group_8595" data-name="Group 8595" transform="translate(0 156.277)">
          <g id="Group_8594" data-name="Group 8594" clip-path="url(#clip-path)">
            <rect id="Rectangle_213" data-name="Rectangle 213" width="154.207" height="246.71" transform="translate(-25.29 68.407) rotate(-69.702)" fill="#1c7d88"/>
          </g>
        </g>
        <g id="Group_8597" data-name="Group 8597" transform="translate(227.146 151.285)">
          <g id="Group_8596" data-name="Group 8596" clip-path="url(#clip-path-2)">
            <rect id="Rectangle_214" data-name="Rectangle 214" width="33.57" height="35.74" transform="translate(-0.716 0)" fill="#1c7d88"/>
          </g>
        </g>
        <g id="Group_8599" data-name="Group 8599" transform="translate(66.734 6.278)">
          <g id="Group_8598" data-name="Group 8598" clip-path="url(#clip-path-3)">
            <rect id="Rectangle_215" data-name="Rectangle 215" width="203.72" height="227.871" transform="translate(-63.402 24.615) rotate(-21.218)" fill="#b4802a"/>
          </g>
        </g>
        <g id="Group_8601" data-name="Group 8601" transform="translate(125.725 208.56)">
          <g id="Group_8600" data-name="Group 8600" clip-path="url(#clip-path-4)">
            <rect id="Rectangle_216" data-name="Rectangle 216" width="41.074" height="41.12" transform="matrix(0.55, -0.835, 0.835, 0.55, -13.593, 20.632)" fill="#002f35"/>
          </g>
        </g>
        <g id="Group_8603" data-name="Group 8603" transform="translate(69.306 6.278)">
          <g id="Group_8602" data-name="Group 8602" clip-path="url(#clip-path-5)">
            <rect id="Rectangle_217" data-name="Rectangle 217" width="203.72" height="227.871" transform="translate(-63.402 24.615) rotate(-21.218)" fill="#f0bb62"/>
          </g>
        </g>
        <g id="Group_8610" data-name="Group 8610">
          <g id="Group_8609" data-name="Group 8609" clip-path="url(#clip-path-6)">
            <path id="Path_616" data-name="Path 616" d="M1232,467.08c0,21.9-17.923,39.821-40.223,40.027-22.512.208-40.92-17.684-40.92-39.964s18.408-40.2,40.92-40.027c22.3.171,40.223,18.063,40.223,39.964" transform="translate(-1048.559 -389.108)" fill="#fff"/>
            <g id="Group_8608" data-name="Group 8608" transform="translate(69.342 6.994)" opacity="0.3" style="mix-blend-mode: multiply;isolation: isolate">
              <g id="Group_8607" data-name="Group 8607">
                <g id="Group_8606" data-name="Group 8606" clip-path="url(#clip-path-7)">
                  <g id="Group_8605" data-name="Group 8605" transform="translate(0 0)">
                    <g id="Group_8604" data-name="Group 8604" clip-path="url(#clip-path-8)">
                      <rect id="Rectangle_218" data-name="Rectangle 218" width="158.757" height="209.106" transform="matrix(0.932, -0.362, 0.362, 0.932, -62.779, 24.399)" fill="#efc17a"/>
                    </g>
                  </g>
                </g>
              </g>
            </g>
          </g>
        </g>
        <g id="Group_8612" data-name="Group 8612" transform="translate(128.298 208.56)">
          <g id="Group_8611" data-name="Group 8611" clip-path="url(#clip-path-9)">
            <rect id="Rectangle_221" data-name="Rectangle 221" width="41.074" height="41.12" transform="matrix(0.55, -0.835, 0.835, 0.55, -13.593, 20.632)" fill="#1c7d88"/>
          </g>
        </g>
        <g id="Group_8614" data-name="Group 8614" transform="translate(26.501 118.755)">
          <g id="Group_8613" data-name="Group 8613" clip-path="url(#clip-path-10)">
            <rect id="Rectangle_222" data-name="Rectangle 222" width="11.617" height="10.772" transform="matrix(0.514, -0.858, 0.858, 0.514, -4.314, 6.909)" fill="url(#linear-gradient)"/>
          </g>
        </g>
        <g id="Group_8616" data-name="Group 8616" transform="translate(151.815 105.037)">
          <g id="Group_8615" data-name="Group 8615" clip-path="url(#clip-path-11)">
            <rect id="Rectangle_223" data-name="Rectangle 223" width="9.374" height="9.318" transform="matrix(0.514, -0.858, 0.858, 0.514, -3.04, 4.96)" fill="url(#linear-gradient-2)"/>
          </g>
        </g>
        <g id="Group_8618" data-name="Group 8618" transform="translate(97.147 88.523)">
          <g id="Group_8617" data-name="Group 8617" clip-path="url(#clip-path-12)">
            <rect id="Rectangle_224" data-name="Rectangle 224" width="70.416" height="74.082" transform="matrix(0.514, -0.858, 0.858, 0.514, -20.871, 34.831)" fill="#1c7d88"/>
          </g>
        </g>
        <g id="Group_8620" data-name="Group 8620" transform="translate(94.987 221.301)">
          <g id="Group_8619" data-name="Group 8619" clip-path="url(#clip-path-13)">
            <rect id="Rectangle_225" data-name="Rectangle 225" width="7.796" height="6.844" transform="translate(-1.245 6.633) rotate(-79.368)" fill="url(#linear-gradient-3)"/>
          </g>
        </g>
        <g id="Group_8622" data-name="Group 8622" transform="translate(96.689 224.16)">
          <g id="Group_8621" data-name="Group 8621" clip-path="url(#clip-path-14)">
            <rect id="Rectangle_226" data-name="Rectangle 226" width="9.203" height="14.06" transform="matrix(0.185, -0.983, 0.983, 0.185, -1.289, 6.686)" fill="#1c7d88"/>
          </g>
        </g>
        <g id="Group_8624" data-name="Group 8624" transform="translate(96.689 224.16)">
          <g id="Group_8623" data-name="Group 8623" clip-path="url(#clip-path-15)">
            <rect id="Rectangle_227" data-name="Rectangle 227" width="13.158" height="8.054" transform="translate(-1.205 0.268) rotate(-12.762)" fill="url(#linear-gradient-4)"/>
          </g>
        </g>
        <g id="Group_8626" data-name="Group 8626" transform="translate(72.003 134.328)">
          <g id="Group_8625" data-name="Group 8625" clip-path="url(#clip-path-16)">
            <rect id="Rectangle_228" data-name="Rectangle 228" width="59.195" height="94.583" transform="translate(-28.419 9.765) rotate(-19.321)" fill="#f0bb62"/>
          </g>
        </g>
        <g id="Group_8633" data-name="Group 8633">
          <g id="Group_8632" data-name="Group 8632" clip-path="url(#clip-path-6)">
            <g id="Group_8631" data-name="Group 8631" transform="translate(72.007 135.263)" opacity="0.3" style="mix-blend-mode: multiply;isolation: isolate">
              <g id="Group_8630" data-name="Group 8630">
                <g id="Group_8629" data-name="Group 8629" clip-path="url(#clip-path-18)">
                  <g id="Group_8628" data-name="Group 8628" transform="translate(0 0)">
                    <g id="Group_8627" data-name="Group 8627" clip-path="url(#clip-path-19)">
                      <rect id="Rectangle_229" data-name="Rectangle 229" width="51.046" height="89.061" transform="matrix(0.944, -0.331, 0.331, 0.944, -27.385, 9.412)" fill="#c69c58"/>
                    </g>
                  </g>
                </g>
              </g>
            </g>
          </g>
        </g>
        <g id="Group_8635" data-name="Group 8635" transform="translate(5.014 188.89)">
          <g id="Group_8634" data-name="Group 8634" clip-path="url(#clip-path-20)">
            <rect id="Rectangle_232" data-name="Rectangle 232" width="15.352" height="8.472" transform="translate(-2.902 14.02) rotate(-79.368)" fill="#1c7d88"/>
          </g>
        </g>
        <g id="Group_8637" data-name="Group 8637" transform="translate(8.027 137.198)">
          <g id="Group_8636" data-name="Group 8636" clip-path="url(#clip-path-21)">
            <rect id="Rectangle_233" data-name="Rectangle 233" width="94.725" height="73.226" transform="translate(-12.431 2.956) rotate(-13.375)" fill="#f0bb62"/>
          </g>
        </g>
        <g id="Group_8639" data-name="Group 8639" transform="translate(40.207 79.663)">
          <g id="Group_8638" data-name="Group 8638" clip-path="url(#clip-path-22)">
            <path id="Path_635" data-name="Path 635" d="M0,0H96.625V99.965H0Z" transform="matrix(0.514, -0.858, 0.858, 0.514, -30.157, 49.15)" fill="#1c7d88"/>
          </g>
        </g>
        <g id="Group_8641" data-name="Group 8641" transform="translate(84.543 74.143)">
          <g id="Group_8640" data-name="Group 8640" clip-path="url(#clip-path-23)">
            <rect id="Rectangle_235" data-name="Rectangle 235" width="20.285" height="23.02" transform="matrix(0.441, -0.898, 0.898, 0.441, -5.597, 10.626)" fill="url(#linear-gradient-5)"/>
          </g>
        </g>
        <g id="Group_8643" data-name="Group 8643" transform="translate(93.252 68.687)">
          <g id="Group_8642" data-name="Group 8642" clip-path="url(#clip-path-24)">
            <path id="Path_636" data-name="Path 636" d="M0,0H10.4V10.455H0Z" transform="translate(-2.395 7.966) rotate(-75.372)" fill="#002f35"/>
          </g>
        </g>
        <g id="Group_8645" data-name="Group 8645" transform="translate(94.439 71.739)">
          <g id="Group_8644" data-name="Group 8644" clip-path="url(#clip-path-25)">
            <rect id="Rectangle_237" data-name="Rectangle 237" width="8.636" height="7.629" transform="matrix(0.986, -0.168, 0.168, 0.986, -1.259, 0.181)" fill="url(#linear-gradient-6)"/>
          </g>
        </g>
        <g id="Group_8647" data-name="Group 8647" transform="translate(25.999 78.136)">
          <g id="Group_8646" data-name="Group 8646" clip-path="url(#clip-path-26)">
            <rect id="Rectangle_238" data-name="Rectangle 238" width="65.673" height="69.945" transform="translate(-20.358 31.801) rotate(-59.07)" fill="#1c7d88"/>
          </g>
        </g>
        <g id="Group_8654" data-name="Group 8654">
          <g id="Group_8653" data-name="Group 8653" clip-path="url(#clip-path-6)">
            <g id="Group_8652" data-name="Group 8652" transform="translate(29.322 92.187)" opacity="0.3" style="mix-blend-mode: multiply;isolation: isolate">
              <g id="Group_8651" data-name="Group 8651">
                <g id="Group_8650" data-name="Group 8650" clip-path="url(#clip-path-28)">
                  <g id="Group_8649" data-name="Group 8649" transform="translate(0 0)">
                    <g id="Group_8648" data-name="Group 8648" clip-path="url(#clip-path-29)">
                      <rect id="Rectangle_239" data-name="Rectangle 239" width="85.17" height="90.722" transform="matrix(0.514, -0.858, 0.858, 0.514, -24.83, 40.424)" fill="url(#linear-gradient-7)"/>
                    </g>
                  </g>
                </g>
              </g>
            </g>
          </g>
        </g>
      </g>
    </g>
  </g>
</svg>
