<svg xmlns="http://www.w3.org/2000/svg" width="14" height="14" viewBox="0 0 14 14">
  <g id="map-pin-line" transform="translate(-4.6 -4.91)">
    <rect id="Rectangle_262" data-name="Rectangle 262" width="14" height="13.938" transform="translate(4.6 4.91)" fill="none"/>
    <path id="Path_639" data-name="Path 639" d="M8.81,14.123l3.2-3.175a4.47,4.47,0,0,0,0-6.35,4.539,4.539,0,0,0-6.39,0,4.47,4.47,0,0,0,0,6.35Zm0,1.814L4.7,11.855a5.747,5.747,0,0,1,0-8.164,5.836,5.836,0,0,1,8.216,0,5.747,5.747,0,0,1,0,8.164Zm0-6.882A1.283,1.283,0,1,0,7.519,7.773,1.287,1.287,0,0,0,8.81,9.056Zm0,1.283a2.566,2.566,0,1,1,2.582-2.566A2.574,2.574,0,0,1,8.81,10.339Z" transform="translate(2.79 2.972)" fill="#002f35"/>
  </g>
</svg>
