<svg xmlns="http://www.w3.org/2000/svg" width="20" height="20.09" viewBox="0 0 20 20.09">
  <g id="map-pin-line" transform="translate(-4.6 -4.91)">
    <rect id="Rectangle_262" data-name="Rectangle 262" width="20" height="20" transform="translate(4.6 4.91)" fill="none"/>
    <path id="Path_639" data-name="Path 639" d="M11.284,19.4,15.84,14.84a6.443,6.443,0,1,0-9.112,0Zm0,2.6L5.426,16.142a8.284,8.284,0,1,1,11.716,0Zm0-9.875a1.841,1.841,0,1,0-1.841-1.841A1.841,1.841,0,0,0,11.284,12.125Zm0,1.841a3.682,3.682,0,1,1,3.682-3.682A3.682,3.682,0,0,1,11.284,13.966Z" transform="translate(3.316 3)" fill="#1c7d88"/>
  </g>
</svg>
