<svg xmlns="http://www.w3.org/2000/svg" data-name="Camada 1" viewBox="0 0 100 100" id="scroll-paper"><path d="M85.71 0H22.59A14.28 14.28 0 0 0 8.33 14.26v55.91H0v15.57A14.28 14.28 0 0 0 14.26 100h48.87a14.31 14.31 0 0 0 14.29-14.29V29.83H100V14.29A14.31 14.31 0 0 0 85.71 0ZM14.26 94A8.28 8.28 0 0 1 6 85.74v-9.57h42.83v9.54A14.23 14.23 0 0 0 51.49 94Zm48.87 0a8.3 8.3 0 0 1-8.3-8.29V70.17h-40.5V14.26A8.28 8.28 0 0 1 22.59 6h51.5a14.16 14.16 0 0 0-2.67 8.29v71.42A8.3 8.3 0 0 1 63.13 94ZM94 23.83H77.42v-9.54a8.29 8.29 0 0 1 16.58 0Z"></path><circle cx="42.88" cy="26.67" r="3"></circle><path d="M25.38 38.79h35v6h-35zM30.38 52.79h25v6h-25z"></path></svg>