<svg xmlns="http://www.w3.org/2000/svg" width="24" height="24" viewBox="0 0 24 24">
  <g id="profile_inactive" transform="translate(-903 -3466)">
    <rect id="Rectangle_273" data-name="Rectangle 273" width="24" height="24" transform="translate(903 3466)" fill="none"/>
    <path id="Path_677" data-name="Path 677" d="M22,21.062a18.087,18.087,0,0,0-1.083-4.985,10.74,10.74,0,0,0-3.658-4.985A9.551,9.551,0,0,0,14.7,9.781c.011-.046.009-.058.015-.065.045-.048.091-.1.138-.145A5.554,5.554,0,0,0,9.971.111,5.318,5.318,0,0,0,5.691,4,5.362,5.362,0,0,0,7.148,9.553c.179.184.17.234-.069.318a9.1,9.1,0,0,0-3.57,2.3A11.8,11.8,0,0,0,.807,16.9a22.073,22.073,0,0,0-.787,4,2.781,2.781,0,0,0,2.643,3.095q8.329.016,16.659,0A2.753,2.753,0,0,0,22,21.062M11.015,1.911A3.655,3.655,0,1,1,7.348,5.595a3.648,3.648,0,0,1,3.668-3.684m8.175,20.2c-.1.008-.211,0-.316,0H10.99q-3.942,0-7.884,0a2.348,2.348,0,0,1-.429-.026.83.83,0,0,1-.754-.951,15.238,15.238,0,0,1,.648-3.5,10.4,10.4,0,0,1,1.994-3.792A7.642,7.642,0,0,1,9.5,11.22a10.5,10.5,0,0,1,3.771.14,7.67,7.67,0,0,1,5.213,4.005,13.946,13.946,0,0,1,1.547,5.2c.021.181.048.362.055.544a.882.882,0,0,1-.895,1" transform="translate(904 3466)" fill="#7c7c7c"/>
    <path id="Path_678" data-name="Path 678" d="M159.6,192.9a.925.925,0,0,1-.945.915c-.46.006-.92,0-1.379,0s-.9,0-1.35,0a.929.929,0,1,1,0-1.857q1.364-.009,2.73,0a.923.923,0,0,1,.947.942" transform="translate(760.937 3288.809)" fill="#7c7c7c"/>
  </g>
</svg>
