<svg xmlns="http://www.w3.org/2000/svg" width="24" height="24" viewBox="0 0 24 24">
  <g id="profile_active" transform="translate(-903 -3466)">
    <rect id="Rectangle_273" data-name="Rectangle 273" width="24" height="24" transform="translate(903 3466)" fill="none"/>
    <path id="Path_679" data-name="Path 679" d="M98.337,154.526c-.007-.181-.034-.363-.055-.544a13.946,13.946,0,0,0-1.547-5.2,7.67,7.67,0,0,0-5.213-4.005,10.5,10.5,0,0,0-3.771-.14q-.429.059-.838.155a13.6,13.6,0,0,0-1.708,10.744H97.126c.105,0,.211,0,.316,0a.882.882,0,0,0,.895-1" transform="translate(825.745 3332.585)" fill="#f0bb62"/>
    <path id="Path_680" data-name="Path 680" d="M139.653,81.83a13.565,13.565,0,0,0-4.163,2.887,3.4,3.4,0,0,0,.575.041,3.648,3.648,0,0,0,3.588-2.928" transform="translate(778.924 3390.462)" fill="#f0bb62"/>
    <path id="Path_681" data-name="Path 681" d="M22,21.062a18.087,18.087,0,0,0-1.083-4.985,10.74,10.74,0,0,0-3.658-4.985A9.551,9.551,0,0,0,14.7,9.781c.011-.046.009-.058.015-.065.045-.048.091-.1.138-.145a5.506,5.506,0,0,0,1.7-3.98,6.411,6.411,0,0,0-.063-.871A5.543,5.543,0,0,0,9.971.111,5.318,5.318,0,0,0,5.691,4,5.362,5.362,0,0,0,7.148,9.553c.179.184.17.234-.069.318a9.1,9.1,0,0,0-3.57,2.3A11.8,11.8,0,0,0,.807,16.9a22.073,22.073,0,0,0-.787,4,2.781,2.781,0,0,0,2.643,3.095q2.465,0,4.93.006,5.865,0,11.729-.006A2.753,2.753,0,0,0,22,21.062M11.015,1.911a3.648,3.648,0,0,1,3.651,3.618,4.107,4.107,0,0,1-.086.763A3.648,3.648,0,0,1,10.993,9.22a3.4,3.4,0,0,1-.575-.041,3.677,3.677,0,0,1-3.07-3.585,3.626,3.626,0,0,1,3.668-3.684m8.175,20.2c-.1.008-.211,0-.316,0H3.106a2.348,2.348,0,0,1-.429-.026.83.83,0,0,1-.754-.951,15.238,15.238,0,0,1,.648-3.5,10.4,10.4,0,0,1,1.994-3.792,7.5,7.5,0,0,1,4.1-2.477q.409-.1.838-.155a10.5,10.5,0,0,1,3.771.14,7.67,7.67,0,0,1,5.213,4.005,13.946,13.946,0,0,1,1.547,5.2c.021.181.048.362.055.544a.882.882,0,0,1-.895,1" transform="translate(903.997 3466)" fill="#002f35"/>
    <path id="Path_682" data-name="Path 682" d="M159.6,192.9a.925.925,0,0,1-.945.915c-.46.006-.92,0-1.379,0s-.9,0-1.35,0a.929.929,0,1,1,0-1.857q1.364-.009,2.73,0a.923.923,0,0,1,.947.942" transform="translate(760.934 3288.809)" fill="#002f35"/>
  </g>
</svg>
