<svg id="refer_and_earn" xmlns="http://www.w3.org/2000/svg" xmlns:xlink="http://www.w3.org/1999/xlink" width="303.709" height="280.245" viewBox="0 0 303.709 280.245">
  <defs>
    <clipPath id="clip-path">
      <rect id="Rectangle_17567" data-name="Rectangle 17567" width="44.344" height="6.279" fill="none"/>
    </clipPath>
    <clipPath id="clip-path-4">
      <rect id="Rectangle_17570" data-name="Rectangle 17570" width="3.784" height="21.997" fill="none"/>
    </clipPath>
    <clipPath id="clip-path-5">
      <rect id="Rectangle_17571" data-name="Rectangle 17571" width="6.645" height="23.031" fill="none"/>
    </clipPath>
    <clipPath id="clip-path-6">
      <rect id="Rectangle_17572" data-name="Rectangle 17572" width="38.099" height="11.593" fill="none"/>
    </clipPath>
    <clipPath id="clip-path-7">
      <rect id="Rectangle_17573" data-name="Rectangle 17573" width="14.266" height="9.134" fill="none"/>
    </clipPath>
    <clipPath id="clip-path-8">
      <rect id="Rectangle_17574" data-name="Rectangle 17574" width="41.584" height="12.67" fill="none"/>
    </clipPath>
    <clipPath id="clip-path-9">
      <rect id="Rectangle_17575" data-name="Rectangle 17575" width="32.595" height="33.609" fill="none"/>
    </clipPath>
    <clipPath id="clip-path-10">
      <rect id="Rectangle_17576" data-name="Rectangle 17576" width="11.668" height="26.129" fill="none"/>
    </clipPath>
    <clipPath id="clip-path-11">
      <rect id="Rectangle_17577" data-name="Rectangle 17577" width="35.503" height="36.617" fill="none"/>
    </clipPath>
  </defs>
  <g id="Group_8628" data-name="Group 8628">
    <g id="Group_9453" data-name="Group 9453">
      <path id="Path_12561" data-name="Path 12561" d="M289.139,868.14c0,6.871-64.726,12.442-144.57,12.442S0,875.011,0,868.14,64.726,855.7,144.569,855.7s144.57,5.57,144.57,12.442" transform="translate(0 -600.336)" fill="#ececf6"/>
      <path id="Path_12562" data-name="Path 12562" d="M264.639,671.113a.382.382,0,0,0,.388-.247c.04-.164-.1-.321-.317-.351-.008,0-.854-.121-2.3-.368a.41.41,0,0,0-.471.229c-.047.162.087.323.3.36,1.463.25,2.322.371,2.33.372a.49.49,0,0,0,.072.005" transform="translate(-183.762 -470.154)" fill="#201d22"/>
      <path id="Path_12563" data-name="Path 12563" d="M106.028,236.253c-1.531-.309-3.077-.641-4.594-.99-.209-.048-.327-.216-.264-.375a.427.427,0,0,1,.492-.2c1.509.346,3.046.677,4.568.984.211.042.336.207.281.368a.393.393,0,0,1-.381.224.524.524,0,0,1-.1-.01m-9.139-2.1c-1.523-.395-3.033-.811-4.489-1.237-.2-.059-.305-.234-.227-.389a.439.439,0,0,1,.51-.173c1.446.423,2.947.836,4.46,1.229.207.054.317.225.247.382a.4.4,0,0,1-.374.2.5.5,0,0,1-.127-.016m-8.909-2.612c-1.491-.493-2.948-1.008-4.333-1.53a.273.273,0,0,1-.179-.4.458.458,0,0,1,.529-.137c1.373.517,2.819,1.028,4.3,1.517.2.066.292.244.205.4a.414.414,0,0,1-.362.181.5.5,0,0,1-.157-.025M79.425,228.3c-1.425-.619-2.8-1.262-4.073-1.912a.261.261,0,0,1-.11-.418.475.475,0,0,1,.547-.084c1.262.642,2.617,1.278,4.025,1.89a.267.267,0,0,1,.148.411.428.428,0,0,1-.343.152.488.488,0,0,1-.195-.039m-7.941-4.065a42.569,42.569,0,0,1-3.579-2.434.254.254,0,0,1,0-.426.486.486,0,0,1,.558,0,41.715,41.715,0,0,0,3.515,2.39.256.256,0,0,1,.061.423.45.45,0,0,1-.309.113.475.475,0,0,1-.246-.066m-6.743-5.189a21.736,21.736,0,0,1-2.576-3.1.271.271,0,0,1,.17-.406.462.462,0,0,1,.532.13,21.1,21.1,0,0,0,2.5,3.013.258.258,0,0,1-.077.422.478.478,0,0,1-.238.061.447.447,0,0,1-.315-.119m-4.353-6.515a13.709,13.709,0,0,1-.813-3.623c-.014-.166.151-.309.369-.32a.371.371,0,0,1,.419.281,13.233,13.233,0,0,0,.785,3.5c.059.16-.062.326-.272.372a.509.509,0,0,1-.108.011.394.394,0,0,1-.38-.219m4.142-4.04c-.215-.03-.357-.187-.318-.35a.4.4,0,0,1,.459-.243,19.06,19.06,0,0,0,4.6.081.393.393,0,0,1,.446.257c.03.165-.121.317-.337.34a19.731,19.731,0,0,1-2.063.109,20.4,20.4,0,0,1-2.789-.194m8.966-1.144c-.094-.15-.01-.33.186-.4a11.109,11.109,0,0,0,3.663-2.056.483.483,0,0,1,.556-.036.255.255,0,0,1,.047.424,11.885,11.885,0,0,1-3.927,2.212.5.5,0,0,1-.17.029.418.418,0,0,1-.356-.172m-13.561-.023a22.566,22.566,0,0,1-4.056-2,.256.256,0,0,1-.055-.424.482.482,0,0,1,.555-.042,21.738,21.738,0,0,0,3.9,1.928c.2.073.277.254.181.4a.42.42,0,0,1-.355.169.5.5,0,0,1-.173-.031m.16-1.752c-.216-.022-.367-.174-.338-.339a17.671,17.671,0,0,1,1.058-3.582.427.427,0,0,1,.494-.2c.208.05.324.218.259.378a17.184,17.184,0,0,0-1.029,3.484.375.375,0,0,1-.391.261l-.054,0m-7.617-2.859a21.684,21.684,0,0,1-2.705-3.039.268.268,0,0,1,.152-.41.467.467,0,0,1,.537.116,21.067,21.067,0,0,0,2.626,2.952.255.255,0,0,1-.055.424.472.472,0,0,1-.25.068.45.45,0,0,1-.306-.11m26.881-.632c-.218-.007-.387-.147-.378-.314,0-.075.007-.15.007-.224a5.152,5.152,0,0,0-1.14-3.074.267.267,0,0,1,.145-.412.467.467,0,0,1,.539.111,5.649,5.649,0,0,1,1.245,3.375c0,.083,0,.166-.007.25a.363.363,0,0,1-.394.288h-.017m-16.539-3.419a.267.267,0,0,1-.148-.411,10.057,10.057,0,0,1,3.17-2.831.478.478,0,0,1,.551.066.258.258,0,0,1-.087.421,9.377,9.377,0,0,0-2.948,2.642.428.428,0,0,1-.344.152.494.494,0,0,1-.195-.039m-15.041-2.329A19.864,19.864,0,0,1,46.5,192.8c-.042-.163.1-.321.311-.354a.4.4,0,0,1,.464.237,19.353,19.353,0,0,0,1.25,3.447c.074.156-.032.329-.237.386a.505.505,0,0,1-.134.018.405.405,0,0,1-.371-.2m26.967-.385a9.845,9.845,0,0,0-4.241-1.074c-.218,0-.391-.142-.386-.308s.188-.293.4-.294a10.812,10.812,0,0,1,4.659,1.174.261.261,0,0,1,.111.417.438.438,0,0,1-.329.135.484.484,0,0,1-.218-.05m-28.832-6.789c-.029-.437-.044-.882-.044-1.326A20.911,20.911,0,0,1,46,185.5a.379.379,0,0,1,.427-.274c.217.014.378.16.36.326a20.479,20.479,0,0,0-.129,2.286c0,.433.014.869.042,1.3.011.166-.157.307-.375.316h-.02a.364.364,0,0,1-.394-.286m1.107-6.926c-.213-.035-.349-.2-.3-.358A26.075,26.075,0,0,1,48,178.356a.433.433,0,0,1,.5-.188c.207.053.317.225.246.382a25.631,25.631,0,0,0-1.259,3.458.386.386,0,0,1-.386.238.534.534,0,0,1-.084-.007m2.96-6.875c-.2-.07-.284-.249-.192-.4a36.5,36.5,0,0,1,2.221-3.236.469.469,0,0,1,.54-.108.266.266,0,0,1,.141.412,35.846,35.846,0,0,0-2.187,3.185.417.417,0,0,1-.358.175.5.5,0,0,1-.166-.028m4.717-6.283a.259.259,0,0,1-.095-.42c.9-.971,1.876-1.945,2.906-2.9a.485.485,0,0,1,.556-.04.256.256,0,0,1,.053.424c-1.018.939-1.983,1.9-2.87,2.859a.441.441,0,0,1-.323.128.482.482,0,0,1-.227-.055m6.013-5.6a.254.254,0,0,1,.01-.426,34.545,34.545,0,0,1,3.667-2.337.479.479,0,0,1,.552.066.259.259,0,0,1-.087.421,33.713,33.713,0,0,0-3.584,2.284.466.466,0,0,1-.274.084.46.46,0,0,1-.284-.092m7.545-4.333a.266.266,0,0,1,.144-.412c1.318-.581,2.744-1.148,4.237-1.685a.455.455,0,0,1,.525.144c.093.15.009.33-.189.4-1.474.53-2.88,1.09-4.179,1.662a.49.49,0,0,1-.2.04.429.429,0,0,1-.342-.15M76.8,156c-.08-.155.02-.33.222-.391,1.422-.429,2.932-.848,4.486-1.247a.433.433,0,0,1,.5.189c.07.158-.041.329-.248.382-1.541.4-3.038.811-4.447,1.236a.505.505,0,0,1-.145.021A.41.41,0,0,1,76.8,156m8.994-2.349c-.061-.16.06-.327.269-.373,1.476-.326,3.025-.646,4.6-.95a.415.415,0,0,1,.479.218c.053.161-.075.325-.286.366-1.571.3-3.111.621-4.578.945a.491.491,0,0,1-.11.012.4.4,0,0,1-.379-.217m9.214-1.8c-.047-.162.087-.324.3-.36,1.507-.255,3.077-.5,4.666-.743a.4.4,0,0,1,.463.238c.042.164-.1.322-.311.354-1.583.237-3.147.486-4.647.74a.525.525,0,0,1-.086.007.386.386,0,0,1-.385-.236m9.33-1.416c-.038-.164.106-.32.321-.349,1.519-.2,3.1-.4,4.7-.593a.4.4,0,0,1,.451.251c.034.164-.114.318-.329.344-1.6.19-3.172.389-4.686.591a.478.478,0,0,1-.068,0,.38.38,0,0,1-.388-.249m9.4-1.134c-.03-.165.12-.317.336-.34q2.332-.25,4.72-.48a.385.385,0,0,1,.441.261c.027.165-.126.316-.342.337q-2.382.23-4.71.479l-.055,0a.376.376,0,0,1-.39-.259m9.437-.922c-.025-.165.131-.315.347-.334q2.344-.205,4.733-.4a.385.385,0,0,1,.434.268c.023.165-.135.314-.352.331q-2.384.19-4.725.395l-.045,0a.373.373,0,0,1-.392-.267m9.462-.761c-.021-.166.138-.313.355-.329q2.353-.171,4.74-.33a.38.38,0,0,1,.428.274c.019.166-.141.312-.359.326q-2.384.16-4.734.33h-.038a.37.37,0,0,1-.392-.272m9.476-.638c-.018-.166.144-.311.362-.324q2.359-.146,4.745-.282a.374.374,0,0,1,.423.278c.016.166-.147.31-.364.323q-2.383.136-4.74.281H142.5a.368.368,0,0,1-.393-.277m9.487-.546c-.015-.166.149-.31.366-.321q2.364-.126,4.747-.245a.373.373,0,0,1,.42.281c.014.166-.151.309-.368.32q-2.381.12-4.744.245h-.028a.366.366,0,0,1-.393-.281m9.492-.479c-.013-.166.152-.309.37-.319q2.367-.112,4.749-.22a.372.372,0,0,1,.417.283c.013.166-.153.309-.371.318q-2.381.108-4.747.22h-.025a.366.366,0,0,1-.394-.283m9.5-.431c-.012-.166.154-.309.372-.318q2.364-.1,4.737-.2a.365.365,0,0,1,.416.284c.012.166-.155.308-.372.318q-2.372.1-4.736.2h-.023a.365.365,0,0,1-.394-.284m9.482-.4c-.012-.166.155-.308.373-.317l4.756-.2a.375.375,0,0,1,.415.285c.012.166-.155.308-.373.317l-4.755.2h-.022a.365.365,0,0,1-.394-.285m9.52-.394c-.012-.166.155-.308.373-.317l4.749-.2a.375.375,0,0,1,.416.284c.012.166-.155.308-.373.317l-4.75.2h-.021a.365.365,0,0,1-.394-.285m9.5-.4c-.012-.166.155-.308.372-.318q2.378-.1,4.748-.207a.363.363,0,0,1,.417.283c.013.166-.153.309-.371.318q-2.372.106-4.75.208h-.023a.365.365,0,0,1-.394-.284m9.5-.422c-.013-.166.152-.309.37-.319q2.379-.111,4.746-.226a.375.375,0,0,1,.419.281c.014.166-.151.309-.369.32q-2.367.116-4.748.226h-.024a.366.366,0,0,1-.394-.283m9.493-.463c-.015-.166.15-.309.367-.321q2.381-.124,4.743-.255a.377.377,0,0,1,.422.279c.016.166-.148.31-.365.322q-2.364.131-4.746.254h-.027a.366.366,0,0,1-.394-.281m9.488-.523c-.017-.166.146-.311.363-.324q2.382-.141,4.739-.293a.386.386,0,0,1,.426.275c.018.166-.143.311-.36.326q-2.359.151-4.744.293h-.031a.367.367,0,0,1-.393-.278m9.479-.605c-.02-.166.14-.312.357-.328q2.382-.166,4.732-.344a.383.383,0,0,1,.432.27c.021.166-.137.313-.354.329q-2.352.179-4.738.345h-.036a.369.369,0,0,1-.393-.274m9.467-.715c-.024-.165.133-.314.35-.332q2.381-.2,4.721-.411a.382.382,0,0,1,.439.263c.026.165-.128.315-.345.335q-2.343.214-4.73.412l-.043,0a.372.372,0,0,1-.392-.269m9.446-.857c-.029-.165.124-.316.34-.338q2.38-.239,4.706-.5a.4.4,0,0,1,.448.255c.031.165-.118.318-.334.342q-2.332.259-4.717.5l-.052,0a.375.375,0,0,1-.391-.262m9.414-1.042c-.035-.164.111-.319.326-.346,1.6-.2,3.172-.4,4.681-.612a.4.4,0,0,1,.459.243c.039.164-.1.32-.318.35-1.513.209-3.093.415-4.695.614a.516.516,0,0,1-.064,0,.379.379,0,0,1-.389-.253m9.362-1.284c-.044-.163.095-.322.308-.355,1.579-.244,3.14-.5,4.64-.762a.411.411,0,0,1,.473.227c.048.162-.085.324-.3.361-1.506.262-3.074.519-4.659.764a.5.5,0,0,1-.079.006.383.383,0,0,1-.386-.241m9.274-1.6c-.055-.161.072-.326.283-.367,1.566-.309,3.1-.634,4.569-.964a.424.424,0,0,1,.49.2c.062.159-.058.327-.267.374-1.474.332-3.02.658-4.595.969a.513.513,0,0,1-.1.01.391.391,0,0,1-.382-.226m9.12-2.042c-.07-.158.04-.329.246-.382,1.534-.4,3.028-.818,4.44-1.245a.444.444,0,0,1,.513.169c.081.155-.018.33-.221.392-1.424.431-2.931.854-4.477,1.255a.5.5,0,0,1-.127.016.4.4,0,0,1-.374-.2m8.832-2.656c-.093-.15-.008-.33.189-.4,1.469-.527,2.877-1.081,4.186-1.648a.466.466,0,0,1,.538.113.267.267,0,0,1-.149.411c-1.326.574-2.752,1.136-4.239,1.669a.5.5,0,0,1-.168.028.418.418,0,0,1-.357-.173m8.247-3.54a.259.259,0,0,1,.1-.42,38.144,38.144,0,0,0,3.651-2.22.485.485,0,0,1,.557.021.254.254,0,0,1-.027.426,38.885,38.885,0,0,1-3.727,2.267.48.48,0,0,1-.227.055.443.443,0,0,1-.323-.128m7-4.783a.256.256,0,0,1-.059-.424,19.909,19.909,0,0,0,2.582-2.943.463.463,0,0,1,.535-.121.269.269,0,0,1,.159.408,20.567,20.567,0,0,1-2.662,3.035.451.451,0,0,1-.307.112.475.475,0,0,1-.248-.067m4.629-6.261c-.2-.057-.31-.23-.236-.386a26.819,26.819,0,0,0,1.367-3.435.414.414,0,0,1,.477-.222c.212.039.342.2.291.364a27.371,27.371,0,0,1-1.393,3.5.405.405,0,0,1-.371.2.5.5,0,0,1-.135-.018m2.3-7.019c-.217-.019-.372-.168-.348-.333a20.372,20.372,0,0,0,.219-2.957q0-.311-.01-.621c-.005-.167.167-.3.385-.309h.01a.361.361,0,0,1,.395.294q.01.317.01.635a20.8,20.8,0,0,1-.224,3.024.372.372,0,0,1-.392.268l-.045,0m-.577-7.46a21.163,21.163,0,0,0-1.079-3.472c-.064-.159.052-.328.26-.377a.427.427,0,0,1,.494.2,21.633,21.633,0,0,1,1.1,3.552c.036.164-.11.319-.325.346a.539.539,0,0,1-.065,0,.378.378,0,0,1-.389-.252m-2.754-6.81a29.877,29.877,0,0,0-2.195-3.165.265.265,0,0,1,.134-.414.47.47,0,0,1,.542.1,30.437,30.437,0,0,1,2.236,3.226c.091.151,0,.33-.195.4a.492.492,0,0,1-.164.027.416.416,0,0,1-.359-.176M315.98,90.1c-.914-.932-1.919-1.867-2.988-2.78a.255.255,0,0,1,.032-.426.484.484,0,0,1,.557.024c1.083.925,2.1,1.874,3.031,2.82a.258.258,0,0,1-.079.422.482.482,0,0,1-.236.06.447.447,0,0,1-.316-.121m-6.263-5.371c-1.1-.811-2.282-1.623-3.507-2.415a.255.255,0,0,1-.046-.424.484.484,0,0,1,.557-.035c1.238.8,2.431,1.622,3.545,2.441a.254.254,0,0,1,.01.426.46.46,0,0,1-.284.092.465.465,0,0,1-.274-.084m-7.2-4.667c-1.226-.707-2.52-1.415-3.846-2.1a.261.261,0,0,1-.1-.419.478.478,0,0,1,.549-.08c1.337.695,2.642,1.408,3.878,2.121a.258.258,0,0,1,.077.422.447.447,0,0,1-.315.12.479.479,0,0,1-.238-.061M294.7,75.993c-1.312-.62-2.683-1.24-4.075-1.843a.267.267,0,0,1-.149-.411.466.466,0,0,1,.538-.113c1.4.606,2.781,1.23,4.1,1.855a.264.264,0,0,1,.128.415.434.434,0,0,1-.336.143.486.486,0,0,1-.208-.045m-8.238-3.572c-1.37-.546-2.8-1.093-4.236-1.624-.2-.072-.279-.252-.184-.4a.455.455,0,0,1,.527-.14c1.449.534,2.882,1.083,4.259,1.632a.271.271,0,0,1,.167.406.424.424,0,0,1-.35.162.488.488,0,0,1-.182-.034m-8.536-3.151c-1.419-.486-2.884-.969-4.353-1.437-.2-.064-.3-.241-.212-.394a.446.446,0,0,1,.517-.162c1.476.47,2.947.956,4.372,1.443.2.068.288.246.2.4a.416.416,0,0,1-.361.178.5.5,0,0,1-.161-.026m-8.754-2.79c-1.447-.429-2.941-.858-4.441-1.274-.2-.057-.311-.229-.236-.386a.437.437,0,0,1,.506-.18c1.506.417,3.006.848,4.458,1.279.2.06.3.235.224.39a.408.408,0,0,1-.368.192.5.5,0,0,1-.143-.021m-8.919-2.473c-1.472-.381-2.989-.762-4.509-1.13-.208-.05-.323-.22-.257-.378a.428.428,0,0,1,.5-.2c1.525.369,3.047.751,4.524,1.133.206.054.317.225.247.382a.4.4,0,0,1-.374.2.513.513,0,0,1-.127-.016M251.2,61.816c-1.5-.34-3.036-.675-4.563-1-.21-.044-.333-.21-.275-.371a.421.421,0,0,1,.486-.21c1.532.324,3.072.661,4.577,1,.209.047.328.215.266.375a.4.4,0,0,1-.378.215.513.513,0,0,1-.112-.012m-9.149-1.935c-1.514-.3-3.064-.594-4.606-.877-.212-.039-.342-.2-.291-.363a.414.414,0,0,1,.476-.222c1.546.284,3.1.58,4.619.88.211.041.338.206.283.367a.392.392,0,0,1-.382.226.538.538,0,0,1-.1-.01m-9.231-1.7c-1.527-.261-3.088-.518-4.641-.764-.213-.034-.35-.193-.306-.356a.4.4,0,0,1,.467-.234c1.557.247,3.122.5,4.653.766.212.036.346.2.3.36a.387.387,0,0,1-.385.235.538.538,0,0,1-.087-.007m-9.3-1.473c-1.547-.227-3.114-.447-4.658-.654-.215-.029-.358-.185-.32-.349a.4.4,0,0,1,.457-.244c1.547.208,3.118.429,4.669.656.214.032.355.189.314.353a.383.383,0,0,1-.387.245.53.53,0,0,1-.075-.005M214.2,55.454q-2.34-.288-4.689-.551c-.215-.024-.365-.177-.333-.342a.392.392,0,0,1,.448-.254q2.354.263,4.7.552c.215.027.362.181.327.346a.379.379,0,0,1-.389.253.511.511,0,0,1-.064,0M204.8,54.4q-2.356-.237-4.717-.449c-.217-.019-.371-.169-.346-.334a.383.383,0,0,1,.438-.264q2.366.212,4.728.45c.216.022.368.173.34.338a.375.375,0,0,1-.391.262l-.052,0m-9.445-.846q-2.371-.186-4.74-.346c-.217-.015-.378-.161-.359-.326a.381.381,0,0,1,.428-.274q2.375.16,4.751.347c.217.017.375.165.352.331a.37.37,0,0,1-.392.27h-.041m-9.472-.639q-2.375-.134-4.742-.241c-.218-.01-.383-.152-.371-.318a.365.365,0,0,1,.417-.283q2.372.107,4.753.241c.217.013.38.157.365.323a.367.367,0,0,1-.393.279h-.03" transform="translate(-32.181 -36.535)" fill="#002f35"/>
      <path id="Path_12564" data-name="Path 12564" d="M476.56,51.874a.363.363,0,0,0,.394-.288c.01-.166-.16-.307-.377-.314q-1.186-.039-2.369-.072a.372.372,0,0,0-.409.29c-.008.166.162.306.38.312q1.18.033,2.363.072h.018" transform="translate(-332.406 -35.92)" fill="#201d22"/>
      <path id="Path_12565" data-name="Path 12565" d="M492.386,44.927l-12.534.581,3.767-4.851Z" transform="translate(-336.652 -28.524)" fill="#201d22"/>
      <path id="Path_12566" data-name="Path 12566" d="M444.748,51.771,428.42,48.107l20.239-.7Z" transform="translate(-300.569 -33.256)" fill="#201d22"/>
      <path id="Path_12567" data-name="Path 12567" d="M428.367,28.764l25.146-8.91L449.931,24.3Z" transform="translate(-300.532 -13.929)" fill="#201d22"/>
      <path id="Path_12568" data-name="Path 12568" d="M428.42,39.055l20.282-.663,7.6,2.215L449.968,34.5Z" transform="translate(-300.569 -24.205)" fill="#201d22"/>
      <path id="Path_12569" data-name="Path 12569" d="M204.494,105.5a3.064,3.064,0,0,0-2.927-1.275,4.645,4.645,0,0,0-2.858,1.629,9.984,9.984,0,0,0-1.658,2.912,12.62,12.62,0,0,0-1.059,5.43,53.183,53.183,0,0,1-5.6-5.958c-.155-.193-.308-.389-.461-.585l4.793-3.329a10.212,10.212,0,0,0,2.871-2.592,3.485,3.485,0,0,0,.269-3.676,3.064,3.064,0,0,0-2.927-1.275,4.643,4.643,0,0,0-2.858,1.63,9.992,9.992,0,0,0-1.658,2.912,12.422,12.422,0,0,0-1.047,5.6,54.265,54.265,0,0,1-4.847-7.677l4.727-3.559a10.222,10.222,0,0,0,2.769-2.7,3.486,3.486,0,0,0,.128-3.684,3.063,3.063,0,0,0-2.974-1.161,4.644,4.644,0,0,0-2.794,1.738,9.989,9.989,0,0,0-1.545,2.973,12.824,12.824,0,0,0-.868,5.289,53.315,53.315,0,0,1-2.531-6.065c-.212-.614-.409-1.232-.6-1.853l4.74-3.82a10.22,10.22,0,0,0,2.68-2.791,3.486,3.486,0,0,0,.007-3.686,3.063,3.063,0,0,0-3.01-1.063,4.643,4.643,0,0,0-2.735,1.829,9.971,9.971,0,0,0-1.446,3.023,13.514,13.514,0,0,0-.741,4.741,51.182,51.182,0,0,1-1.279-6.474l2.29-5.476a10.244,10.244,0,0,0,1.029-3.732,3.489,3.489,0,0,0-1.746-3.247,3.058,3.058,0,0,0-3.151.5,4.652,4.652,0,0,0-1.534,2.913,10,10,0,0,0,.165,3.349,11.949,11.949,0,0,0,2.411,5.646c0,.007,0,.014,0,.021a51.6,51.6,0,0,0,1.375,6.887,13.234,13.234,0,0,0-3.722-3.384,10,10,0,0,0-3.037-1.418,4.644,4.644,0,0,0-3.275.323,3.061,3.061,0,0,0-1.651,2.731,3.486,3.486,0,0,0,2.346,2.844,10.222,10.222,0,0,0,3.842.456l5.929-.056a53.373,53.373,0,0,0,3.15,8,12.9,12.9,0,0,0-4.642-2.532,9.985,9.985,0,0,0-3.293-.619,4.641,4.641,0,0,0-3.091,1.126,3.064,3.064,0,0,0-.922,3.057,3.484,3.484,0,0,0,2.977,2.173,10.208,10.208,0,0,0,3.834-.513l5.726-1.526c.042.08.081.161.124.241a55.044,55.044,0,0,0,4.755,7.483,12.183,12.183,0,0,0-5.584-1.878,9.969,9.969,0,0,0-3.349.061,4.645,4.645,0,0,0-2.8,1.73,3.067,3.067,0,0,0-.284,3.182,3.482,3.482,0,0,0,3.354,1.525,10.211,10.211,0,0,0,3.65-1.28l5.468-2.741.076.1-.019.055.04-.028a54.094,54.094,0,0,0,5.833,6.355,13.2,13.2,0,0,0-5.323.152,10.176,10.176,0,0,0-3.219,1.137,4.739,4.739,0,0,0-2.153,2.572,3.119,3.119,0,0,0,.745,3.165,3.545,3.545,0,0,0,3.731.395,10.421,10.421,0,0,0,3.119-2.411l3.985-3.984.141-.1a51.538,51.538,0,0,0,7.678,5.594c.288.172.611-.246.319-.419a51.4,51.4,0,0,1-7.55-5.485l4.547-3.158a10.216,10.216,0,0,0,2.871-2.592,3.486,3.486,0,0,0,.269-3.676" transform="translate(-118.675 -59.44)" fill="#f0bb62"/>
      <path id="Path_12570" data-name="Path 12570" d="M718.2,578.974l.355,15.9c1.418-1.171,2.967-2.207,4.459-3.259a30.956,30.956,0,0,0,4.2-3.4,16.648,16.648,0,0,0,3.066-4.433,25.629,25.629,0,0,1,2.606-4.621,12.183,12.183,0,0,1,3.152-2.734c2.453-1.544,5.223-2.484,7.715-3.954a13.071,13.071,0,0,0,3.378-2.728,19.206,19.206,0,0,0,2.674-4.524,40.651,40.651,0,0,1,2.355-4.687,15.6,15.6,0,0,1,2.9-3.388,20.315,20.315,0,0,1,7.851-4.164c7.011-2.02,14.374-.615,21.291,1.1.409.1.817.2,1.228.311.294-4.154-5.878-7.034-9.68-7.508-2.6-.323-5.179.718-7.8.794-13.264.4-22.157-3.6-27.445,12a14.268,14.268,0,0,1-2.287,4.992c-5.524,5.487-20.445,2.87-20.02,14.3" transform="translate(-503.866 -383.637)" fill="#1c7d88"/>
      <path id="Path_12571" data-name="Path 12571" d="M731.3,623.52c10.976,3.252,21.318-6.733,13.627-18.345-5.218-5.907.8-10.153,6.312-11.9,2.735-.869,6.122-1.217,7.447-3.764,2.226-5.745-5.512-12.473,6.313-16.061,6.672-2.028,19.633,3.165,21.254-5.757.007-.041.015-.086.019-.129-6.571-1.674-13.445-3.247-20.2-1.949a21.838,21.838,0,0,0-8.358,3.4,16.379,16.379,0,0,0-3.275,2.988,19.619,19.619,0,0,0-2.542,4.207c-.742,1.578-1.408,3.2-2.3,4.7a12.416,12.416,0,0,1-2.971,3.455c-2.189,1.727-4.826,2.726-7.3,3.953a19.894,19.894,0,0,0-3.607,2.2,11.937,11.937,0,0,0-2.98,3.689c-.839,1.55-1.494,3.2-2.453,4.68a16.765,16.765,0,0,1-3.436,3.749c-2.356,1.969-5.046,3.51-7.392,5.491A15.861,15.861,0,0,0,731.3,623.52" transform="translate(-504.741 -396.488)" fill="#1c7d88"/>
      <path id="Path_12572" data-name="Path 12572" d="M719.412,607l.011.41c2.346-1.981,5.036-3.522,7.391-5.491a16.751,16.751,0,0,0,3.436-3.749c.959-1.483,1.614-3.13,2.453-4.68a11.927,11.927,0,0,1,2.98-3.689,19.894,19.894,0,0,1,3.606-2.2c2.478-1.227,5.116-2.227,7.3-3.954a12.415,12.415,0,0,0,2.971-3.454c.893-1.5,1.559-3.123,2.3-4.7a19.633,19.633,0,0,1,2.542-4.207,16.389,16.389,0,0,1,3.276-2.988,21.849,21.849,0,0,1,8.358-3.4c6.76-1.3,13.634.275,20.2,1.949.017-.109.031-.216.038-.324-.411-.106-.82-.208-1.228-.311-6.917-1.717-14.281-3.122-21.291-1.1a20.315,20.315,0,0,0-7.851,4.164,15.59,15.59,0,0,0-2.9,3.389,40.618,40.618,0,0,0-2.355,4.687,19.2,19.2,0,0,1-2.674,4.524,13.075,13.075,0,0,1-3.378,2.729c-2.492,1.471-5.262,2.411-7.715,3.954a12.191,12.191,0,0,0-3.152,2.735,25.631,25.631,0,0,0-2.606,4.621,16.645,16.645,0,0,1-3.066,4.433,30.944,30.944,0,0,1-4.2,3.4c-1.492,1.052-3.04,2.088-4.459,3.259" transform="translate(-504.722 -395.772)" fill="#004763"/>
      <path id="Path_12573" data-name="Path 12573" d="M719.412,607l.011.41c2.346-1.981,5.036-3.522,7.391-5.491a16.751,16.751,0,0,0,3.436-3.749c.959-1.483,1.614-3.13,2.453-4.68a11.927,11.927,0,0,1,2.98-3.689,19.894,19.894,0,0,1,3.606-2.2c2.478-1.227,5.116-2.227,7.3-3.954a12.415,12.415,0,0,0,2.971-3.454c.893-1.5,1.559-3.123,2.3-4.7a19.633,19.633,0,0,1,2.542-4.207,16.389,16.389,0,0,1,3.276-2.988,21.849,21.849,0,0,1,8.358-3.4c6.76-1.3,13.634.275,20.2,1.949.017-.109.031-.216.038-.324-.411-.106-.82-.208-1.228-.311-6.917-1.717-14.281-3.122-21.291-1.1a20.315,20.315,0,0,0-7.851,4.164,15.59,15.59,0,0,0-2.9,3.389,40.618,40.618,0,0,0-2.355,4.687,19.2,19.2,0,0,1-2.674,4.524,13.075,13.075,0,0,1-3.378,2.729c-2.492,1.471-5.262,2.411-7.715,3.954a12.191,12.191,0,0,0-3.152,2.735,25.631,25.631,0,0,0-2.606,4.621,16.645,16.645,0,0,1-3.066,4.433,30.944,30.944,0,0,1-4.2,3.4c-1.492,1.052-3.04,2.088-4.459,3.259" transform="translate(-504.722 -395.772)" fill="#fff"/>
      <path id="Path_12574" data-name="Path 12574" d="M130.717,211.55l2.525,15.7c-1.607-.9-3.317-1.634-4.975-2.4a30.973,30.973,0,0,1-4.74-2.581,16.645,16.645,0,0,1-3.817-3.806,25.64,25.64,0,0,0-3.4-4.074,12.191,12.191,0,0,0-3.595-2.12c-2.692-1.075-5.586-1.5-8.3-2.494A13.069,13.069,0,0,1,100.6,207.7a19.2,19.2,0,0,1-3.449-3.966,40.524,40.524,0,0,0-3.164-4.184,15.6,15.6,0,0,0-3.466-2.808,20.316,20.316,0,0,0-8.475-2.676C74.785,193.348,67.8,196.061,61.3,199c-.383.175-.767.349-1.152.528-1.041-4.033,4.509-7.981,8.163-9.134,2.5-.788,5.224-.23,7.812-.628,13.118-2.006,21.142-7.543,29.162,6.84a14.273,14.273,0,0,0,3.152,4.5c6.425,4.4,20.627-.873,22.276,10.449" transform="translate(-42.112 -131.215)" fill="#1c7d88"/>
      <path id="Path_12575" data-name="Path 12575" d="M124.955,261.952c-10.207,5.183-22.184-2.768-16.719-15.579,4.064-6.753-2.623-9.841-8.359-10.559-2.847-.36-6.241-.09-8-2.356-3.227-5.248,3.166-13.264-9.112-14.655-6.929-.788-18.737,6.663-21.945-1.819-.014-.04-.03-.082-.042-.124,6.16-2.834,12.636-5.624,19.519-5.57a21.84,21.84,0,0,1,8.835,1.832,16.375,16.375,0,0,1,3.762,2.346,19.635,19.635,0,0,1,3.26,3.677c1.015,1.418,1.963,2.891,3.113,4.207a12.415,12.415,0,0,0,3.547,2.86c2.465,1.3,5.24,1.809,7.9,2.568a19.9,19.9,0,0,1,3.945,1.512,11.929,11.929,0,0,1,3.6,3.09c1.105,1.373,2.047,2.873,3.259,4.159a16.758,16.758,0,0,0,4.057,3.066c2.673,1.511,5.6,2.54,8.263,4.064a15.861,15.861,0,0,1-8.875,17.278" transform="translate(-42.638 -148.236)" fill="#1c7d88"/>
      <path id="Path_12576" data-name="Path 12576" d="M133.542,243.518l.063.405c-2.665-1.524-5.589-2.554-8.262-4.064a16.753,16.753,0,0,1-4.057-3.066c-1.211-1.286-2.154-2.786-3.259-4.159a11.929,11.929,0,0,0-3.6-3.09,19.885,19.885,0,0,0-3.945-1.512c-2.659-.759-5.434-1.265-7.9-2.568a12.416,12.416,0,0,1-3.547-2.86c-1.151-1.317-2.1-2.79-3.113-4.207a19.646,19.646,0,0,0-3.26-3.678,16.39,16.39,0,0,0-3.762-2.346,21.85,21.85,0,0,0-8.835-1.832c-6.883-.054-13.36,2.735-19.519,5.57-.037-.1-.069-.207-.1-.312.385-.179.768-.353,1.152-.527,6.493-2.94,13.481-5.652,20.741-4.933a20.309,20.309,0,0,1,8.474,2.676,15.594,15.594,0,0,1,3.467,2.808,40.6,40.6,0,0,1,3.164,4.184,19.2,19.2,0,0,0,3.449,3.966,13.072,13.072,0,0,0,3.815,2.073c2.717,1,5.611,1.42,8.3,2.494a12.192,12.192,0,0,1,3.595,2.12,25.626,25.626,0,0,1,3.4,4.074,16.651,16.651,0,0,0,3.817,3.805,30.949,30.949,0,0,0,4.74,2.581c1.658.766,3.368,1.5,4.975,2.4" transform="translate(-42.412 -147.485)" fill="#004763"/>
      <path id="Path_12577" data-name="Path 12577" d="M133.542,243.518l.063.405c-2.665-1.524-5.589-2.554-8.262-4.064a16.753,16.753,0,0,1-4.057-3.066c-1.211-1.286-2.154-2.786-3.259-4.159a11.929,11.929,0,0,0-3.6-3.09,19.885,19.885,0,0,0-3.945-1.512c-2.659-.759-5.434-1.265-7.9-2.568a12.416,12.416,0,0,1-3.547-2.86c-1.151-1.317-2.1-2.79-3.113-4.207a19.646,19.646,0,0,0-3.26-3.678,16.39,16.39,0,0,0-3.762-2.346,21.85,21.85,0,0,0-8.835-1.832c-6.883-.054-13.36,2.735-19.519,5.57-.037-.1-.069-.207-.1-.312.385-.179.768-.353,1.152-.527,6.493-2.94,13.481-5.652,20.741-4.933a20.309,20.309,0,0,1,8.474,2.676,15.594,15.594,0,0,1,3.467,2.808,40.6,40.6,0,0,1,3.164,4.184,19.2,19.2,0,0,0,3.449,3.966,13.072,13.072,0,0,0,3.815,2.073c2.717,1,5.611,1.42,8.3,2.494a12.192,12.192,0,0,1,3.595,2.12,25.626,25.626,0,0,1,3.4,4.074,16.651,16.651,0,0,0,3.817,3.805,30.949,30.949,0,0,0,4.74,2.581c1.658.766,3.368,1.5,4.975,2.4" transform="translate(-42.412 -147.485)" fill="#fff"/>
      <path id="Path_12578" data-name="Path 12578" d="M406.08,24.411V263.974a10.355,10.355,0,0,1-10.356,10.35H266.19a10.211,10.211,0,0,1-3.857-.75,10.338,10.338,0,0,1-6.493-9.6V24.411a10.35,10.35,0,0,1,10.35-10.35H395.724a10.643,10.643,0,0,1,2.065.206,10.362,10.362,0,0,1,8.292,10.144" transform="translate(-179.491 -9.865)" fill="#ececf6"/>
      <path id="Path_12579" data-name="Path 12579" d="M397.788,14.266,255.84,135.488V86.428L340.583,14.06h55.141a10.62,10.62,0,0,1,2.065.206" transform="translate(-179.491 -9.864)" fill="#fff"/>
      <path id="Path_12580" data-name="Path 12580" d="M406.08,102.221V123.6L255.84,251.916v-21.39Z" transform="translate(-179.491 -71.715)" fill="#fff"/>
      <path id="Path_12581" data-name="Path 12581" d="M421.344,472.3v89.317l-40.038,34.2H281.454a10.212,10.212,0,0,1-3.857-.75Z" transform="translate(-194.755 -331.355)" fill="#fff"/>
      <path id="Path_12582" data-name="Path 12582" d="M393.93,0H258.281a9.185,9.185,0,0,0-9.069,9.3V257.249a9.191,9.191,0,0,0,9.069,9.309H393.93A9.19,9.19,0,0,0,403,257.249V9.3A9.185,9.185,0,0,0,393.93,0m6.761,245.8c0,4.7-4.114,8.5-9.19,8.5H260.864c-5.076,0-9.19-3.805-9.19-8.5V15.6c0-4.7,4.117-8.507,9.2-8.507h51.7a1.206,1.206,0,0,1,1.238,1.122c.272,6.006,5.762,10.9,12.376,10.9s12.1-4.878,12.369-10.9A1.206,1.206,0,0,1,339.789,7.1H391.5c5.078,0,9.195,3.809,9.195,8.507Z" transform="translate(-174.841)" fill="#002f35"/>
      <path id="Path_12583" data-name="Path 12583" d="M483.605,15.026a7.022,7.022,0,1,1,7.023,7.023,7.022,7.022,0,0,1-7.023-7.023" transform="translate(-339.285 -5.615)" fill="#fff"/>
      <path id="Path_12584" data-name="Path 12584" d="M489.658,19.276a5.215,5.215,0,1,1,5.216,5.214,5.215,5.215,0,0,1-5.216-5.214" transform="translate(-343.532 -9.866)" fill="#434443"/>
      <path id="Path_12585" data-name="Path 12585" d="M497.933,20.28a1.479,1.479,0,1,1,1.48,1.48,1.48,1.48,0,0,1-1.48-1.48" transform="translate(-349.337 -13.19)" fill="#fff"/>
      <path id="Path_12586" data-name="Path 12586" d="M635.131,262.859s-1.565,26.368-6.778,46.675c-2.568,10.019-5.719,18.306-9.4,20.7-11.149,7.255-32.3-16.81-32.3-16.81l-6.12-48.277c21.026,7.123,26.035,34.7,32.5,45.5L625.859,262.3Z" transform="translate(-407.288 -184.025)" fill="#fac9c7"/>
      <path id="Path_12587" data-name="Path 12587" d="M809.266,90.754A11.009,11.009,0,1,1,820.43,101.6a11.008,11.008,0,0,1-11.164-10.851" transform="translate(-567.76 -55.838)" fill="#1c7d88"/>
      <path id="Path_12588" data-name="Path 12588" d="M654.534,157.72l9.982,20.925a12.111,12.111,0,0,1-6.9-.473,11.652,11.652,0,0,1-6.5-5.984,11.875,11.875,0,0,1,3.412-14.468" transform="translate(-455.999 -110.652)" fill="#2093a0"/>
      <path id="Path_12589" data-name="Path 12589" d="M659.187,159.5l4.867,10.2a3.7,3.7,0,0,1-4.792,5.009l-.07-.032a11.892,11.892,0,0,0,11.795,3.968l-9.982-20.925a11.769,11.769,0,0,0-1.818,1.777" transform="translate(-462.469 -110.652)" fill="#1c7d88"/>
      <path id="Path_12590" data-name="Path 12590" d="M683.3,156.045a11.873,11.873,0,0,1-5.6,15.829,11.7,11.7,0,0,1-2.437.852L665.278,151.8a11.719,11.719,0,0,1,2.2-1.358,11.869,11.869,0,0,1,15.825,5.6" transform="translate(-466.742 -104.733)" fill="#ffba50"/>
      <path id="Path_12591" data-name="Path 12591" d="M741.786,77.907c-13.308-5.061-37.209,1.775-53.781,5.942l-9.542-20c13.467-9.823,33.073-23.184,38.459-38.06Z" transform="translate(-475.993 -18.091)" fill="#2093a0"/>
      <path id="Path_12592" data-name="Path 12592" d="M725.5,33.958h0a27.821,27.821,0,0,1-18.926,39.1c-3.294.751-6.536,1.555-9.641,2.341l4.029,8.446c16.572-4.167,40.472-11,53.78-5.942L729.883,25.786a35.291,35.291,0,0,1-4.38,8.172" transform="translate(-488.954 -18.091)" fill="#1c7d88"/>
      <path id="Path_12593" data-name="Path 12593" d="M678.065,119.044l12.583,26.377a1.25,1.25,0,0,1-.594,1.666l-15.17,7.237a1.25,1.25,0,0,1-1.669-.587L660.633,127.36a1.253,1.253,0,0,1,.594-1.666l15.17-7.237a1.253,1.253,0,0,1,1.668.587" transform="translate(-463.399 -83.021)" fill="#004e57"/>
      <path id="Path_12594" data-name="Path 12594" d="M741.2,243.616l-9.76,4.656a2.351,2.351,0,0,1-3.261-1.435l-6.933-22.711,7.6-3.626,13.289,19.679a2.351,2.351,0,0,1-.936,3.438" transform="translate(-506.006 -154.697)" fill="#004e57"/>
      <path id="Path_12595" data-name="Path 12595" d="M753.149,240.179,739.861,220.5l-2.915,1.39,8.3,16.619a2.351,2.351,0,0,1-.936,3.438L738.54,244.7l.652,2.136a2.351,2.351,0,0,0,3.261,1.436l9.76-4.656a2.351,2.351,0,0,0,.936-3.438" transform="translate(-517.023 -154.697)" fill="#1c7d88"/>
      <rect id="Rectangle_17562" data-name="Rectangle 17562" width="2.28" height="57.747" transform="translate(240.93 7.695) rotate(-25.502)" fill="#004e57"/>
      <path id="Path_12596" data-name="Path 12596" d="M686.447,134.683l-10.825,5.164a.414.414,0,0,1-.553-.2l-.175-.366a.415.415,0,0,1,.2-.553l10.824-5.164a.415.415,0,0,1,.553.2l.174.366a.414.414,0,0,1-.2.553" transform="translate(-473.461 -93.68)" fill="#fff"/>
      <path id="Path_12597" data-name="Path 12597" d="M692.714,147.819l-10.824,5.164a.415.415,0,0,1-.553-.2l-.175-.366a.415.415,0,0,1,.2-.553l10.824-5.163a.414.414,0,0,1,.553.2l.175.366a.415.415,0,0,1-.2.553" transform="translate(-477.858 -102.896)" fill="#fff"/>
      <path id="Path_12598" data-name="Path 12598" d="M698.98,160.955l-10.824,5.164a.415.415,0,0,1-.553-.2l-.175-.366a.415.415,0,0,1,.2-.553l10.825-5.163a.414.414,0,0,1,.553.2l.175.366a.415.415,0,0,1-.2.553" transform="translate(-482.254 -112.112)" fill="#fff"/>
      <path id="Path_12599" data-name="Path 12599" d="M705.247,174.091l-10.824,5.164a.415.415,0,0,1-.553-.2l-.175-.366a.415.415,0,0,1,.2-.553l10.825-5.163a.414.414,0,0,1,.553.2l.175.366a.415.415,0,0,1-.2.553" transform="translate(-486.651 -121.328)" fill="#fff"/>
      <path id="Path_12600" data-name="Path 12600" d="M711.513,187.228l-10.824,5.164a.415.415,0,0,1-.553-.2l-.175-.366a.415.415,0,0,1,.2-.553l10.825-5.163a.414.414,0,0,1,.553.2l.175.366a.415.415,0,0,1-.2.553" transform="translate(-491.047 -130.544)" fill="#fff"/>
      <path id="Path_12601" data-name="Path 12601" d="M717.779,200.363l-10.824,5.164a.415.415,0,0,1-.553-.2l-.175-.366a.415.415,0,0,1,.2-.553l10.825-5.164a.414.414,0,0,1,.553.2l.175.366a.414.414,0,0,1-.2.552" transform="translate(-495.443 -139.76)" fill="#fff"/>
      <path id="Path_12602" data-name="Path 12602" d="M876.784,55.867a.5.5,0,0,0-.674.187,32.884,32.884,0,0,0-1.7,3.132.494.494,0,0,0,.861.487,32.8,32.8,0,0,1,1.7-3.132.5.5,0,0,0-.187-.674" transform="translate(-613.425 -39.153)" fill="#2c5da0"/>
      <path id="Path_12603" data-name="Path 12603" d="M897.685,68.942l-8.16,5.178c-.536.34-.028,1.189.511.847l8.16-5.178c.536-.341.028-1.189-.511-.847" transform="translate(-623.909 -48.312)" fill="#2c5da0"/>
      <path id="Path_12604" data-name="Path 12604" d="M901.66,107.488l-3.609.379a.494.494,0,0,0,.132.98l3.609-.379a.494.494,0,1,0-.132-.98" transform="translate(-629.75 -75.409)" fill="#2c5da0"/>
      <path id="Path_12605" data-name="Path 12605" d="M637.064,310.812c-2.571,12.014-7.248,24.618-10.932,27.013a8.355,8.355,0,0,1-3.979,1.306c-11.79.9-29.733-18.737-29.733-18.737l-3.667-32.578.6-15.579c16.1,5.2,22.39,30.018,28.852,40.811l2.313-7.991a68.781,68.781,0,0,1,16.549,5.756" transform="translate(-413.055 -190.995)" fill="#f0bb62"/>
      <path id="Path_12606" data-name="Path 12606" d="M622.153,370.4c-11.79.9-29.733-18.737-29.733-18.737l-3.667-32.578,8.29-2.277s12.764,19.523,9.843,34.764c-1.412,7.37,5.892,16.844,15.267,18.828" transform="translate(-413.055 -222.265)" fill="#d6a757"/>
      <path id="Path_12607" data-name="Path 12607" d="M690.6,403.564a28.955,28.955,0,0,0-3.168-13.36l2.313-7.991c4.6,12.624.855,21.351.855,21.351" transform="translate(-482.286 -268.151)" fill="#d6a757"/>
      <path id="Path_12608" data-name="Path 12608" d="M497.839,619.259H455l-1.317-4.429L439.43,566.87l-3.544-11.92-3.818-12.84-5.791-19.491,13.436-.646,36.86-1.775c1.163,4.081,13.307,58.14,21.266,99.061" transform="translate(-299.065 -364.958)" fill="#004149"/>
      <path id="Path_12609" data-name="Path 12609" d="M506.724,623.464s-11.15,7.526-17.8,30.855c-3.256,11.408-3.689,22.18-3.127,33.7h-8.2l-1.318-4.429-14.256-47.96-3.544-11.92c7.163-3.271,12.343-5.5,12.343-5.5l8.878,1.3,1.039.154Z" transform="translate(-321.655 -433.721)" fill="#002f35"/>
      <path id="Path_12610" data-name="Path 12610" d="M426.049,524.574c.005,2.137-.01,4.34-.015,6.561-.03,5.125-.248,11.851-.621,19.6-.139,2.943-.3,6.035-.487,9.241v.01a.39.39,0,0,1,0,.075c-.94,16.643-2.391,36.363-3.967,54.606-.129,1.486-.258,2.968-.388,4.429H379.62c.084-5.418.169-10.976.284-16.563.452-21.832,1.4-44.137,4.633-60.367.184-.914.373-1.809.567-2.674,2.073-9.226,5-16.2,9.151-19.526l12.726,1.844,9.365,1.357,8.336,1.208Z" transform="translate(-266.332 -364.795)" fill="#004149"/>
      <path id="Path_12611" data-name="Path 12611" d="M380.576,653.587c2.775-13.2,9.431-36.729,20.12-35.8a38.066,38.066,0,0,0,24.9-6.671l.008-.009-1.079-18.371s-30.127.289-39.311.482c-3.238,16.231-4.18,38.534-4.632,60.369" transform="translate(-266.1 -415.923)" fill="#002f35"/>
      <path id="Path_12612" data-name="Path 12612" d="M355.137,312.731c3.825,20.633,5.537,39.845,1.412,60.583a218.61,218.61,0,0,0,29.516,1.759q3.769-.049,7.456-.241c1.835-4.431,2.56-10.431,2.513-16.4,3.28,4.492,4.758,10.921,5.055,15.835,5.311-.517,10.534-1.292,15.709-2.3,5.289-1.034,10.531-2.328,15.773-3.885-4-11.517-5.015-26.48-5.1-41.564,0-.148,0-.28,0-.4q0-.394,0-.789c0-.181,0-.279,0-.279-.02-28.746,3.926-55.894-3.9-61.6-4.576-3.331-20.552-6.392-29.992-6.479-5.222-.055-10.394,1.572-15.627,1.608-3.335.032-30,5.271-31.21,13.617-1.261,8.752.716,14.857,3.256,22.277a119.56,119.56,0,0,1,5.132,18.263" transform="translate(-242.997 -180.279)" fill="#f0bb62"/>
      <path id="Path_12613" data-name="Path 12613" d="M365.123,446.024a218.61,218.61,0,0,0,29.516,1.759c-4.394-1.92-14.866-7.131-18.7-14.7-4.908-9.68-8.268-39.547-.974-54.93,3.473-7.323,3.086-17.554,3.086-17.554l-18.242,5.9a6.334,6.334,0,0,1-1.226.672,119.556,119.556,0,0,1,5.132,18.263c3.825,20.633,5.536,39.845,1.412,60.583" transform="translate(-251.569 -252.99)" fill="#d6a757"/>
      <path id="Path_12614" data-name="Path 12614" d="M452.059,228.366a17.784,17.784,0,0,0,5.649,5.8h.025c5.863,3.486,11.337-.09,10.445-6.748l-2.233-10.31-.581-2.645-11.077-1.453Z" transform="translate(-317.153 -149.444)" fill="#fac9c7"/>
      <path id="Path_12615" data-name="Path 12615" d="M452.059,228.366a17.784,17.784,0,0,0,5.649,5.8h.025c.533.119.837.176.837.176s-4.874-12.208-2.531-11.97c2.341.213,7.211-2.552,7.211-2.552l2.7-2.712-.581-2.645-11.077-1.453Z" transform="translate(-317.153 -149.444)" fill="#f5a39f"/>
      <path id="Path_12616" data-name="Path 12616" d="M241.874,341.368c.875,5.8,6.892,14.084,14.238,21.336a85.692,85.692,0,0,0,12.55,10.374c4.722,3.15,7.994,5.135,7.994,5.135s2.246,4.232,7.713,2.177c3.28-1.244,5.594.247,10.688.35s5.349-5.2,1.988-7.85c-7.06-5.626-16.731-2.65-16.731-2.65l-3.636-4.4-4.685-8.4L262,339.528s20-15.359,27.161-23.365c14.993-16.733.107-30.931-8.961-25.114-15.229,9.778-40.236,37.782-38.324,50.318" transform="translate(-169.62 -203.262)" fill="#fac9c7"/>
      <path id="Path_12617" data-name="Path 12617" d="M238.565,336.88c1.12,3.953,5.028,10.758,9.8,16.97a72.461,72.461,0,0,0,6.424,7.373,42.969,42.969,0,0,0,6.821-3.91,33.063,33.063,0,0,0,7.826-7.666l-3.676-5.636-5.456-8.374s4.565-3.145,10.181-7.3a.389.389,0,0,1,.047-.036c6.544-4.855,14.495-11.091,18.343-15.393,14.993-16.733,2.824-35.881-11.518-29.18-16.4,7.669-41.631,43.133-38.791,53.148" transform="translate(-167.216 -198.097)" fill="#f0bb62"/>
      <path id="Path_12618" data-name="Path 12618" d="M447.783,256.433a24.789,24.789,0,0,1,8.833.41l-7.122,11.275-7.163-1.9-6.768,3.4-12.176-10a26.2,26.2,0,0,1,8.521-1.555s3.891,7.36,9.981,7,5.895-8.634,5.895-8.634" transform="translate(-297.038 -179.749)" fill="#adceed"/>
      <path id="Path_12619" data-name="Path 12619" d="M481.135,289.879l-1.7,5.086-5.088.3-2.311-4.4,4.1-2.7Z" transform="translate(-331.166 -202.168)" fill="#434342"/>
      <path id="Path_12620" data-name="Path 12620" d="M478.244,306.048l2.571-.083,2.571-.082c5.311,12.486,10.986,43.734,11.348,58.4l-7.382,12.27-9.52-11.867c2.788-23.642,2.483-46.589.411-58.64" transform="translate(-335.236 -214.6)" fill="#434342"/>
      <path id="Path_12621" data-name="Path 12621" d="M288.279,441.125c.232.307,6.276,8.063,12.512,10.984l-5.456-8.374s4.565-3.144,10.181-7.3c-.821.435-12.753,6.888-17.238,4.686" transform="translate(-202.249 -306.195)" fill="#d6a757"/>
      <path id="Path_12622" data-name="Path 12622" d="M271.916,521.919a72.426,72.426,0,0,0,6.424,7.373,42.963,42.963,0,0,0,6.821-3.91,32.556,32.556,0,0,1-13.245-3.463" transform="translate(-190.769 -366.165)" fill="#d6a757"/>
      <path id="Path_12623" data-name="Path 12623" d="M598.173,531.584c-4-11.517-5.015-26.48-5.095-41.564-.064,6.6-.948,33.684-10.677,45.448,5.289-1.034,10.53-2.328,15.772-3.885" transform="translate(-408.598 -343.786)" fill="#d6a757"/>
      <path id="Path_12624" data-name="Path 12624" d="M423.878,174.383s.229.6.7,1.524h.008l-1.98-10.676s-4.953-2.716-5.224,1.6c-.386,6.149,6.494,7.556,6.494,7.556" transform="translate(-292.815 -115.329)" fill="#434342"/>
      <path id="Path_12625" data-name="Path 12625" d="M415.092,109.773c-.472-.925-.7-1.524-.7-1.524s-6.879-1.407-6.494-7.556c.271-4.313,5.224-1.6,5.224-1.6s3.786-10.415,11.06-9.2c5.464.905,13.644,1.686,17.6-1.658,6.671-5.635-1.5-16.56-5.521-18.112,0,0,.383,6.418-6.082,5.391-5.852-.929-14.619-1.343-16.072,2.574,0,0-6.184-.455-8.9,6.379-3.5,8.815-.28,23.063,9.882,25.307" transform="translate(-283.328 -49.196)" fill="#434342"/>
      <path id="Path_12626" data-name="Path 12626" d="M425.182,150.83s.229.6.7,1.524h.008c1.995,3.885,8.268,13.5,19.452,8.219,9.581-4.53,8.957-20.5,7.231-29.757-3.783,3.543-12.139,2.564-17.6,1.658-7.274-1.211-11.06,9.2-11.06,9.2s-3.467-1.957-4.448,1.617c-1.631,5.941,5.718,7.536,5.718,7.536" transform="translate(-294.119 -91.777)" fill="#fac9c7"/>
      <path id="Path_12627" data-name="Path 12627" d="M480.765,197.458a3.175,3.175,0,0,0,1.1,2.246,3.866,3.866,0,0,0,5.429-.385,3.165,3.165,0,0,0,.759-2.182c-.082-1.845-2.358-.352-3.718-.292-1.136.05-3.646-1.23-3.565.614" transform="translate(-337.292 -137.661)" fill="#a83a3e"/>
      <path id="Path_12628" data-name="Path 12628" d="M484.441,205.107a3.866,3.866,0,0,0,5.428-.385,3.811,3.811,0,0,0-2.692-.8,3.644,3.644,0,0,0-2.736,1.183" transform="translate(-339.872 -143.065)" fill="#f18083"/>
      <path id="Path_12629" data-name="Path 12629" d="M505.156,163.559a1.49,1.49,0,1,0,1.048-2.036,1.633,1.633,0,0,0-1.048,2.036" transform="translate(-354.369 -113.299)" fill="#fde3db"/>
      <path id="Path_12630" data-name="Path 12630" d="M506.209,164.371a1.171,1.171,0,1,0,.824-1.6,1.283,1.283,0,0,0-.824,1.6" transform="translate(-355.116 -114.18)" fill="#434342"/>
      <path id="Path_12631" data-name="Path 12631" d="M507.648,165.48a.735.735,0,1,0,.517-1,.8.8,0,0,0-.517,1" transform="translate(-356.136 -115.382)" fill="#101423"/>
      <path id="Path_12632" data-name="Path 12632" d="M510.779,164.587a.321.321,0,1,0-.244.383.321.321,0,0,0,.244-.383" transform="translate(-357.905 -115.294)" fill="#fff"/>
      <path id="Path_12633" data-name="Path 12633" d="M508.7,164.262a.144.144,0,1,0-.109.171.143.143,0,0,0,.109-.171" transform="translate(-356.695 -115.164)" fill="#fff"/>
      <path id="Path_12634" data-name="Path 12634" d="M469.944,167a1.49,1.49,0,1,1-1.674-1.562A1.633,1.633,0,0,1,469.944,167" transform="translate(-327.648 -116.063)" fill="#fde3db"/>
      <path id="Path_12635" data-name="Path 12635" d="M470.373,167.928a1.171,1.171,0,1,1-1.316-1.228,1.283,1.283,0,0,1,1.316,1.228" transform="translate(-328.389 -116.947)" fill="#434342"/>
      <path id="Path_12636" data-name="Path 12636" d="M470.96,169.19a.735.735,0,1,1-.825-.77.8.8,0,0,1,.825.77" transform="translate(-329.402 -118.156)" fill="#101423"/>
      <path id="Path_12637" data-name="Path 12637" d="M469.138,169.168a.321.321,0,1,1,.359.278.321.321,0,0,1-.359-.278" transform="translate(-329.134 -118.43)" fill="#fff"/>
      <path id="Path_12638" data-name="Path 12638" d="M503.84,156.289a2.094,2.094,0,0,1,2.585-.449.313.313,0,0,1,.1.427.316.316,0,0,1-.427.095,1.481,1.481,0,0,0-.945-.15,1.506,1.506,0,0,0-.886.53.311.311,0,0,1-.437-.016.317.317,0,0,1,.016-.437" transform="translate(-353.414 -109.152)" fill="#434342"/>
      <path id="Path_12639" data-name="Path 12639" d="M465.709,161.182a2.093,2.093,0,0,1,2.592-.4.309.309,0,1,1-.341.516,1.477,1.477,0,0,0-.943-.167,1.506,1.506,0,0,0-.9.514.312.312,0,0,1-.437-.024.318.318,0,0,1,.024-.437" transform="translate(-326.659 -112.605)" fill="#434342"/>
      <path id="Path_12640" data-name="Path 12640" d="M489.708,181.173a3,3,0,0,1,.824-.1c.26-.029.4-.16.382-.417a4.989,4.989,0,0,0-.186-.828l-.238-.941c-.027-.107.083-.212.187-.221a.219.219,0,0,1,.235.181q.132.52.263,1.04a2.717,2.717,0,0,1,.158.948.7.7,0,0,1-.539.6,7.886,7.886,0,0,0-.93.116.2.2,0,0,1-.155-.379" transform="translate(-343.478 -125.347)" fill="#e4868a"/>
      <path id="Path_12641" data-name="Path 12641" d="M471.714,169.57a.143.143,0,1,0-.109.171.144.144,0,0,0,.109-.171" transform="translate(-330.744 -118.887)" fill="#fff"/>
      <path id="Path_12642" data-name="Path 12642" d="M462.9,180.552c.066.488.891.778,1.841.648s1.667-.631,1.6-1.118-.891-.778-1.841-.648-1.667.63-1.6,1.118" transform="translate(-324.753 -125.865)" fill="#f49a98"/>
      <path id="Path_12643" data-name="Path 12643" d="M510.783,175.129c.067.488.891.778,1.841.648s1.667-.631,1.6-1.118-.891-.778-1.841-.648-1.667.631-1.6,1.118" transform="translate(-358.35 -122.06)" fill="#f49a98"/>
      <path id="Path_12644" data-name="Path 12644" d="M722.64,254.3c-4.011,0-1.021,11.7-1.021,11.7l3.648-3.378c-1.327-2.471,1.3-8.323-2.627-8.32" transform="translate(-505.519 -178.408)" fill="#fac9c7"/>
      <path id="Path_12645" data-name="Path 12645" d="M763.143,242.519c1.82,2.689,2.245,4.7,1.232,5.382s-3.324-.139-5.144-2.828-1.794-5.422-.781-6.108,2.874.866,4.693,3.554" transform="translate(-531.625 -167.538)" fill="#fac9c7"/>
      <path id="Path_12646" data-name="Path 12646" d="M177.2,667.816a24.976,24.976,0,0,0-1.123-4.634c-12.492,10.949-5.22,12.688-22.673,16.684-17.456-4-10.182-5.735-22.674-16.684a24.976,24.976,0,0,0-1.123,4.634c-1.633-.049-3.264.011-4.9.029,7.04,3.941,14.734,11.36,23.15,14.325H158.95c8.418-2.965,16.11-10.384,23.15-14.325-1.633-.018-3.265-.078-4.9-.029" transform="translate(-87.495 -465.272)" fill="#d89a30"/>
      <rect id="Rectangle_17563" data-name="Rectangle 17563" width="55.929" height="48.309" transform="translate(37.132 222.341)" fill="#f0bb62"/>
      <rect id="Rectangle_17564" data-name="Rectangle 17564" width="61.373" height="11.567" transform="translate(34.411 216.081)" fill="#d89a30"/>
      <path id="Path_12647" data-name="Path 12647" d="M181.65,679.2c3.056-2.289,5.547-5.26,5.191-8.552-.559-5.172-8.818,3.425-12.742,8.369.481-4.527.566-14.561-2.575-11.891-2.745,2.334-1.914,7.374-.67,10.993-4.133-5-11.488-12.341-12.014-7.47-.356,3.292,2.134,6.263,5.19,8.552-5.678-1.566-11.858-2.424-10.176,1.131,2.633,5.567,13.078,5.047,17.624,4.117a1.9,1.9,0,0,0,2.738,0c4.553.929,14.979,1.441,17.609-4.12,1.682-3.555-4.5-2.7-10.177-1.131m2.848-6.738c.327,2.858-3.213,5.884-6.4,7.823a40.943,40.943,0,0,0-3.9,1.5,1.907,1.907,0,0,0-.617-.413c2.116-3.5,10.464-12.857,10.917-8.9m-12.631-3.118c2.4-2.013,1.988,8.354,1.274,10.923q-.13.178-.247.342c-.074-.126-.175-.241-.261-.221l.007.013-.01-.013h0c-.061-.106-.13-.231-.209-.379-1.054-1.97-3.011-8.606-.556-10.665m-10.682,3.118c.453-3.954,8.809,5.416,10.92,8.911a1.906,1.906,0,0,0-.608.413,40.794,40.794,0,0,0-3.917-1.5c-3.183-1.939-6.723-4.965-6.4-7.823m9.4,11.135c-2.872.672-12,.9-13.788-2.942-1.231-2.647,4.91-1.4,9.7.193a32.864,32.864,0,0,0,4.446,2.218c0,.021,0,.04,0,.061a1.934,1.934,0,0,0,.037.375c-.118.03-.247.062-.393.1m18.292-2.942c-1.786,3.841-10.916,3.615-13.788,2.942-.139-.033-.263-.063-.376-.092a1.928,1.928,0,0,0,.038-.379c0-.023,0-.045,0-.068a32.836,32.836,0,0,0,4.429-2.211c4.791-1.594,10.932-2.84,9.7-.193" transform="translate(-107.744 -467.728)" fill="#d89a30"/>
      <rect id="Rectangle_17565" data-name="Rectangle 17565" width="5.094" height="43.002" transform="translate(61.909 227.648)" fill="#fff"/>
      <rect id="Rectangle_17566" data-name="Rectangle 17566" width="55.929" height="5.094" transform="translate(37.132 246.602)" fill="#fff"/>
      <path id="Path_12648" data-name="Path 12648" d="M744.57,831.245l.19,19.407c-.923,1.409-3.249,2.671-6.515,3.641a57.913,57.913,0,0,1-15.6,1.991c-7.633.039-14.408-1.084-18.52-2.835a8.393,8.393,0,0,1-3.7-2.571l-.19-19.406Z" transform="translate(-491.267 -583.181)" fill="#ffb542"/>
      <g id="Group_8596" data-name="Group 8596" transform="translate(208.992 252.962)" style="mix-blend-mode: multiply;isolation: isolate">
        <g id="Group_8595" data-name="Group 8595">
          <g id="Group_8594" data-name="Group 8594" clip-path="url(#clip-path)">
            <path id="Path_12649" data-name="Path 12649" d="M744.652,847.658l.007,1.519c-3.5,2.793-11.981,4.734-22.145,4.76s-18.665-1.871-22.191-4.646l-.008-1.52c2.111,3.139,11.266,5.491,22.2,5.463s20.061-2.427,22.142-5.576" transform="translate(-700.315 -847.658)" fill="#e7e2d3"/>
          </g>
        </g>
      </g>
      <g id="Group_8599" data-name="Group 8599" transform="translate(209.015 257.782)" style="mix-blend-mode: multiply;isolation: isolate">
        <g id="Group_8598" data-name="Group 8598">
          <g id="Group_8597" data-name="Group 8597" clip-path="url(#clip-path)">
            <path id="Path_12650" data-name="Path 12650" d="M744.732,863.809l.007,1.519c-3.5,2.793-11.981,4.734-22.145,4.76s-18.664-1.871-22.192-4.646l-.007-1.52c2.111,3.139,11.266,5.491,22.195,5.463s20.061-2.426,22.142-5.576" transform="translate(-700.396 -863.809)" fill="#e7e2d3"/>
          </g>
        </g>
      </g>
      <g id="Group_8602" data-name="Group 8602" transform="translate(209.039 262.602)" style="mix-blend-mode: multiply;isolation: isolate">
        <g id="Group_8601" data-name="Group 8601">
          <g id="Group_8600" data-name="Group 8600" clip-path="url(#clip-path)">
            <path id="Path_12651" data-name="Path 12651" d="M744.81,879.959l.008,1.52c-3.5,2.793-11.982,4.733-22.145,4.759s-18.664-1.871-22.192-4.646l-.007-1.519c2.111,3.139,11.266,5.491,22.2,5.463s20.061-2.427,22.141-5.577" transform="translate(-700.473 -879.959)" fill="#e7e2d3"/>
          </g>
        </g>
      </g>
      <g id="Group_8605" data-name="Group 8605" transform="translate(208.968 248.119)" style="mix-blend-mode: overlay;isolation: isolate">
        <g id="Group_8604" data-name="Group 8604">
          <g id="Group_8603" data-name="Group 8603" clip-path="url(#clip-path-4)">
            <path id="Path_12652" data-name="Path 12652" d="M703.913,831.427l.107,22a8.366,8.366,0,0,1-3.689-2.581l-.095-19.407Z" transform="translate(-700.236 -831.427)" fill="#868686"/>
          </g>
        </g>
      </g>
      <g id="Group_8608" data-name="Group 8608" transform="translate(246.754 248.015)" style="mix-blend-mode: multiply;isolation: isolate">
        <g id="Group_8607" data-name="Group 8607">
          <g id="Group_8606" data-name="Group 8606" clip-path="url(#clip-path-5)">
            <path id="Path_12653" data-name="Path 12653" d="M833.406,831.079l.095,19.407c-.93,1.407-3.262,2.662-6.532,3.624l-.113-23.015Z" transform="translate(-826.856 -831.079)" fill="#e7dfc9"/>
          </g>
        </g>
      </g>
      <path id="Path_12654" data-name="Path 12654" d="M722.517,822.189c-12.211.062-22.175-2.914-22.211-6.636s9.869-6.8,22.08-6.862,22.175,2.914,22.211,6.636-9.868,6.8-22.079,6.862" transform="translate(-491.317 -567.357)" fill="#ffb542"/>
      <path id="Path_12655" data-name="Path 12655" d="M729.669,811.238c-9.563.049-17.995,2.324-18.909,5.343-1.016,3.353,7.454,6.308,19.023,6.249s19.98-3.1,18.9-6.443c-.973-3.009-9.449-5.2-19.012-5.149m.109,11.108c-10.685.055-18.572-2.665-17.7-5.772.793-2.818,8.641-4.955,17.592-5s16.841,2.011,17.689,4.82c.934,3.1-6.9,5.9-17.583,5.952" transform="translate(-498.593 -569.144)" fill="#ffb542"/>
      <path id="Path_12656" data-name="Path 12656" d="M722.386,808.694c-10.95.056-20.72,2.64-21.949,6.118-1.387,3.928,8.42,7.449,22.081,7.379s23.4-3.691,21.934-7.6c-1.3-3.465-11.116-5.949-22.066-5.893m.121,12.352c-11.568.059-20.039-2.9-19.023-6.249.915-3.019,9.346-5.294,18.909-5.343s18.039,2.14,19.012,5.149c1.081,3.342-7.33,6.384-18.9,6.443" transform="translate(-491.318 -567.359)" fill="#ffb542"/>
      <g id="Group_8611" data-name="Group 8611" transform="translate(212.086 241.988)" style="mix-blend-mode: multiply;isolation: isolate">
        <g id="Group_8610" data-name="Group 8610">
          <g id="Group_8609" data-name="Group 8609" clip-path="url(#clip-path-6)">
            <path id="Path_12657" data-name="Path 12657" d="M729.705,810.883c-9.563.024-18.006,2.278-18.936,5.295-1.032,3.35,7.424,6.328,18.992,6.3s20-3.05,18.93-6.395c-.959-3.012-9.423-5.222-18.987-5.2m.054,11.108c-10.685.027-18.558-2.712-17.669-5.817.806-2.816,8.666-4.933,17.617-4.956s16.831,2.054,17.665,4.865c.919,3.1-6.928,5.879-17.612,5.907" transform="translate(-710.684 -810.883)" fill="#e7e2d3"/>
          </g>
        </g>
      </g>
      <path id="Path_12658" data-name="Path 12658" d="M750.5,817.183c.934,3.1-6.9,5.9-17.583,5.952s-18.572-2.665-17.7-5.771c.793-2.818,8.641-4.955,17.592-5s16.841,2.011,17.689,4.82" transform="translate(-501.736 -569.933)" fill="#ffb542"/>
      <g id="Group_8614" data-name="Group 8614" transform="translate(224.284 243.528)" style="mix-blend-mode: multiply;isolation: isolate">
        <g id="Group_8613" data-name="Group 8613">
          <g id="Group_8612" data-name="Group 8612" clip-path="url(#clip-path-7)">
            <path id="Path_12659" data-name="Path 12659" d="M765.82,821.872c-.128-1.043-2.11-1.607-5.879-2.044l-.069-2.265a26.466,26.466,0,0,1,3.8.29l.7-.668a30.619,30.619,0,0,0-4.528-.292l-.026-.851-2.227.006-.008.912c-3.029.2-4.992.846-5.07,1.681-.082.87,1.823,1.425,5.039,1.814l-.025,2.787a29.239,29.239,0,0,1-5.122-.479l-.854.826a33.816,33.816,0,0,0,5.969.479l-.01,1.11,2.585-.007-.036-1.18c4.021-.263,5.872-1.15,5.753-2.119m-10.414-3.336c.015-.328.653-.7,2.179-.874l-.016,1.847c-1.5-.253-2.183-.534-2.163-.973m4.635,4.6-.072-2.374c1.924.3,2.742.651,2.783,1.2s-.93.985-2.711,1.178" transform="translate(-751.559 -816.043)" fill="#e7e2d3"/>
          </g>
        </g>
      </g>
      <path id="Path_12660" data-name="Path 12660" d="M764.667,820.564c-.121-1.028-2.085-1.585-5.825-2.015l-.055-2.234a26.421,26.421,0,0,1,3.777.286l.7-.659a30.585,30.585,0,0,0-4.5-.288l-.021-.84-2.213.006-.013.9c-3.01.2-4.963.835-5.045,1.658-.086.858,1.8,1.405,5,1.789l-.041,2.747a29.166,29.166,0,0,1-5.083-.472l-.851.814a33.758,33.758,0,0,0,5.922.472l-.016,1.093,2.566-.007-.029-1.162c3.993-.259,5.837-1.133,5.725-2.088m-10.322-3.289c.016-.324.653-.691,2.17-.862l-.027,1.822c-1.492-.25-2.165-.527-2.143-.96m4.577,4.534-.057-2.34c1.909.3,2.719.642,2.756,1.178s-.929.971-2.7,1.162" transform="translate(-526.532 -571.653)" fill="#ffecb1"/>
      <g id="Group_8617" data-name="Group 8617" transform="translate(210.325 241.737)" style="mix-blend-mode: multiply;isolation: isolate">
        <g id="Group_8616" data-name="Group 8616">
          <g id="Group_8615" data-name="Group 8615" clip-path="url(#clip-path-8)">
            <path id="Path_12661" data-name="Path 12661" d="M724.713,822.715H724.7c-.652-.007-1.308-.023-1.948-.048-.177-.007-.3-.061-.275-.121s.188-.1.363-.1c.62.024,1.255.04,1.888.047.177,0,.316.052.309.112s-.151.105-.323.106m1.93-.007c-.172,0-.316-.045-.324-.1s.128-.111.306-.114c.629-.011,1.263-.031,1.885-.06.172-.009.34.033.366.093s-.1.115-.272.123c-.641.03-1.3.051-1.945.062h-.015m-5.744-.143-.067,0c-.63-.044-1.261-.1-1.876-.158-.169-.017-.259-.077-.2-.134a.616.616,0,0,1,.406-.073c.6.059,1.207.111,1.818.152.173.012.28.069.24.128a.459.459,0,0,1-.32.087m9.554-.034a.465.465,0,0,1-.321-.085c-.042-.058.064-.116.236-.129.612-.047,1.221-.1,1.812-.166a.625.625,0,0,1,.408.07c.059.057-.03.118-.2.136-.609.066-1.239.123-1.869.172l-.068,0m-13.192-.33a.85.85,0,0,1-.118-.008c-.59-.078-1.173-.166-1.734-.261-.153-.026-.207-.09-.121-.143a.757.757,0,0,1,.435-.048c.543.092,1.108.176,1.68.253.162.021.234.083.163.138a.574.574,0,0,1-.306.069m16.815-.061a.58.58,0,0,1-.306-.067c-.073-.055,0-.117.159-.14.565-.079,1.127-.168,1.669-.264a.765.765,0,0,1,.435.045c.089.052.036.116-.117.143-.559.1-1.139.191-1.722.273a.875.875,0,0,1-.119.008m-20.14-.5a.8.8,0,0,1-.163-.015c-.524-.109-1.039-.228-1.528-.351-.134-.034-.151-.1-.039-.146a.832.832,0,0,1,.446-.024c.476.12.974.234,1.483.34.145.03.181.095.081.144a.688.688,0,0,1-.28.051m23.441-.084a.692.692,0,0,1-.279-.049c-.1-.049-.067-.114.076-.145.508-.11,1-.227,1.471-.35a.832.832,0,0,1,.446.02c.114.046.1.111-.034.146-.483.126-.993.248-1.515.362a.794.794,0,0,1-.165.016m-26.337-.648a.72.72,0,0,1-.2-.025c-.444-.135-.873-.278-1.275-.425-.11-.04-.091-.1.042-.144a.831.831,0,0,1,.44,0c.391.142.808.28,1.24.411.123.037.122.1,0,.145a.781.781,0,0,1-.244.036m29.208-.1a.781.781,0,0,1-.243-.034c-.125-.042-.127-.107-.006-.145.427-.134.839-.275,1.225-.42a.829.829,0,0,1,.44,0c.135.039.155.1.047.144-.4.149-.821.3-1.261.434a.71.71,0,0,1-.2.026m-31.588-.766a.615.615,0,0,1-.231-.036c-.352-.155-.685-.318-.988-.482-.083-.045-.03-.107.119-.138a.751.751,0,0,1,.42.025c.3.159.62.316.963.466.1.043.061.106-.081.141a.858.858,0,0,1-.2.023m33.94-.12a.852.852,0,0,1-.2-.022c-.142-.034-.18-.1-.084-.141.338-.153.656-.312.948-.473a.743.743,0,0,1,.419-.028c.15.03.2.091.123.137-.3.167-.627.331-.973.489a.619.619,0,0,1-.232.038m-35.744-.852a.513.513,0,0,1-.252-.049,6.886,6.886,0,0,1-.68-.52c-.055-.048.03-.1.188-.127a.615.615,0,0,1,.387.046,6.6,6.6,0,0,0,.664.5c.07.047,0,.106-.153.133a.952.952,0,0,1-.154.013m37.518-.133a.9.9,0,0,1-.152-.012c-.155-.026-.225-.085-.157-.132a6.581,6.581,0,0,0,.649-.508.61.61,0,0,1,.384-.049c.159.021.245.078.192.126a6.612,6.612,0,0,1-.665.524.5.5,0,0,1-.251.051m-38.708-.906a.4.4,0,0,1-.263-.062,3.052,3.052,0,0,1-.363-.54c-.026-.049.086-.1.249-.113s.316.016.342.065a3.035,3.035,0,0,0,.357.523c.041.049-.057.1-.218.121a1.024,1.024,0,0,1-.1.006m39.866-.141a.972.972,0,0,1-.1-.005c-.162-.017-.261-.07-.222-.12a2.978,2.978,0,0,0,.341-.526c.025-.049.179-.08.34-.067s.276.062.252.112a3,3,0,0,1-.346.542.4.4,0,0,1-.263.064m-40.431-.929c-.141,0-.255-.03-.265-.075a1.944,1.944,0,0,1-.05-.542c0-.05.136-.093.3-.1s.292.031.29.08a1.916,1.916,0,0,0,.053.526c.012.05-.11.1-.274.106H705.1m40.963-.144h-.049c-.164-.008-.288-.054-.277-.1a1.988,1.988,0,0,0,.038-.526c0-.049.13-.084.287-.082s.3.046.3.1a1.988,1.988,0,0,1-.033.541c-.009.044-.124.076-.265.077m-40.919-.922c-.161,0-.277-.039-.26-.087l.007-.024a2.576,2.576,0,0,1,.25-.529.5.5,0,0,1,.336-.08c.156,0,.26.045.231.092a2.524,2.524,0,0,0-.238.513l-.008.026c-.016.049-.158.089-.319.089m40.842-.143c-.16,0-.3-.039-.32-.087a2.514,2.514,0,0,0-.246-.511c-.03-.047.073-.089.229-.094a.5.5,0,0,1,.338.078,2.632,2.632,0,0,1,.259.526c.017.048-.1.088-.259.089Zm-40.207-.913h-.048c-.153-.007-.243-.051-.2-.1a5.165,5.165,0,0,1,.523-.5.632.632,0,0,1,.363-.061c.147.011.224.056.171.1a4.9,4.9,0,0,0-.5.486.5.5,0,0,1-.3.072m39.562-.113a.509.509,0,0,1-.3-.07,4.908,4.908,0,0,0-.512-.483c-.054-.044.021-.09.168-.1a.638.638,0,0,1,.364.059,5.145,5.145,0,0,1,.532.5c.043.046-.047.09-.2.1l-.048,0m-38.406-.857a.834.834,0,0,1-.092,0c-.141-.015-.2-.061-.138-.1.236-.155.5-.31.773-.46a.756.756,0,0,1,.38-.041c.134.018.182.066.107.106-.269.146-.52.3-.748.448a.6.6,0,0,1-.281.056m37.234-.107a.6.6,0,0,1-.282-.054c-.23-.15-.484-.3-.754-.443-.076-.041-.029-.089.1-.107a.76.76,0,0,1,.38.039c.278.148.541.3.779.455.065.043,0,.09-.137.105a.888.888,0,0,1-.092.005m-35.6-.78a.772.772,0,0,1-.132-.01c-.127-.021-.16-.07-.075-.108.309-.139.642-.277.99-.41a.827.827,0,0,1,.386-.022c.119.024.139.073.044.109-.338.13-.661.264-.96.4a.687.687,0,0,1-.253.042m33.952-.1a.684.684,0,0,1-.253-.04c-.3-.134-.628-.267-.966-.394-.1-.035-.077-.084.041-.109a.831.831,0,0,1,.386.02c.349.13.684.266,1,.4.086.038.054.087-.072.109a.818.818,0,0,1-.132.011m-31.9-.688a.729.729,0,0,1-.167-.017c-.11-.027-.115-.076-.012-.109.375-.122.769-.241,1.173-.353a.832.832,0,0,1,.383,0c.1.029.093.077-.017.108-.393.11-.776.225-1.141.344a.755.755,0,0,1-.219.03m29.843-.084a.766.766,0,0,1-.22-.028c-.366-.117-.751-.23-1.144-.338-.111-.03-.12-.079-.019-.108a.834.834,0,0,1,.383,0c.4.11.8.226,1.178.346.1.033.1.082-.01.109a.728.728,0,0,1-.167.018m-27.448-.584a.641.641,0,0,1-.2-.025c-.091-.031-.07-.079.047-.107.426-.1.871-.2,1.323-.29a.778.778,0,0,1,.371.015c.082.033.048.08-.076.1-.44.089-.872.185-1.286.283a.845.845,0,0,1-.183.019m25.044-.071a.82.82,0,0,1-.182-.018c-.416-.1-.851-.19-1.291-.276-.124-.024-.159-.071-.078-.1a.775.775,0,0,1,.371-.017c.452.088.9.183,1.327.282.118.027.14.075.049.107a.643.643,0,0,1-.2.026m-22.37-.471a.562.562,0,0,1-.221-.035c-.071-.035-.024-.081.105-.1.467-.079.951-.154,1.438-.223a.682.682,0,0,1,.352.032c.061.036,0,.081-.132.1-.474.067-.945.14-1.4.217a.848.848,0,0,1-.142.012m19.687-.056a.875.875,0,0,1-.141-.011c-.458-.075-.93-.146-1.4-.209-.134-.018-.193-.062-.133-.1a.673.673,0,0,1,.351-.034c.488.065.973.138,1.443.214.13.021.177.067.106.1a.564.564,0,0,1-.221.036m-16.8-.35a.48.48,0,0,1-.24-.045c-.05-.037.021-.08.158-.1.5-.056,1.013-.107,1.523-.151a.544.544,0,0,1,.325.047c.039.039-.043.079-.183.092-.5.043-1,.093-1.483.148a.856.856,0,0,1-.1.006m13.9-.04a.838.838,0,0,1-.1,0c-.488-.052-.988-.1-1.486-.139-.141-.011-.224-.052-.185-.091a.541.541,0,0,1,.324-.049c.512.041,1.025.089,1.526.143.138.015.209.057.16.095a.472.472,0,0,1-.24.047m-10.863-.224a.4.4,0,0,1-.254-.057c-.027-.039.066-.078.208-.087.519-.032,1.048-.058,1.573-.078.141-.005.275.022.292.062s-.086.076-.231.082c-.512.019-1.027.045-1.533.076l-.056,0m7.819-.022h-.056c-.507-.028-1.023-.051-1.534-.068-.144,0-.248-.041-.232-.08s.149-.068.291-.064c.524.017,1.054.04,1.574.069.143.008.237.046.21.085a.393.393,0,0,1-.253.059m-4.7-.1c-.14,0-.257-.03-.262-.069s.108-.074.252-.076c.525-.008,1.061-.009,1.59,0,.145,0,.258.034.254.074s-.139.071-.272.07c-.515,0-1.037,0-1.55,0h-.011" transform="translate(-704.784 -810.045)" fill="#e7e2d3"/>
          </g>
        </g>
      </g>
      <path id="Path_12662" data-name="Path 12662" d="M724.776,822.231h-.013c-.652-.007-1.308-.023-1.948-.048-.177-.007-.3-.061-.275-.121s.188-.1.363-.1c.62.024,1.255.04,1.887.047.177,0,.316.052.309.112s-.151.105-.323.106m1.93-.007c-.172,0-.316-.045-.324-.1s.128-.111.305-.114c.629-.011,1.264-.031,1.885-.06.172-.009.339.033.366.093s-.1.115-.272.123c-.641.03-1.3.051-1.945.062h-.015m-5.744-.143-.067,0c-.63-.044-1.261-.1-1.876-.158-.169-.017-.259-.077-.2-.134a.617.617,0,0,1,.406-.073c.595.059,1.207.111,1.818.153.172.012.28.069.24.128a.458.458,0,0,1-.32.087m9.553-.034a.464.464,0,0,1-.321-.085c-.042-.058.064-.116.236-.13.611-.047,1.221-.1,1.812-.166a.626.626,0,0,1,.408.07c.059.057-.03.117-.2.135-.609.066-1.239.123-1.869.172l-.068,0m-13.192-.33a.852.852,0,0,1-.118-.008c-.59-.078-1.173-.166-1.734-.261-.153-.026-.207-.09-.12-.143a.758.758,0,0,1,.435-.048c.543.092,1.108.176,1.679.253.162.021.235.083.163.138a.575.575,0,0,1-.306.069m16.815-.061a.581.581,0,0,1-.306-.067c-.073-.055,0-.117.159-.14.565-.079,1.127-.168,1.669-.264a.764.764,0,0,1,.435.045c.089.052.036.116-.117.143-.559.1-1.139.191-1.722.273a.875.875,0,0,1-.119.008m-20.139-.5a.8.8,0,0,1-.163-.015c-.524-.109-1.039-.228-1.528-.351-.134-.034-.151-.1-.039-.146a.83.83,0,0,1,.445-.024c.476.12.975.234,1.483.34.145.03.181.095.081.144a.688.688,0,0,1-.28.051m23.441-.084a.691.691,0,0,1-.279-.049c-.1-.049-.067-.114.076-.145.508-.11,1-.227,1.471-.35a.832.832,0,0,1,.446.02c.114.046.1.111-.034.146-.483.127-.992.248-1.515.362a.8.8,0,0,1-.165.016m-26.337-.648a.72.72,0,0,1-.2-.025c-.444-.135-.873-.278-1.275-.425-.11-.04-.091-.1.042-.144a.832.832,0,0,1,.44,0c.391.142.808.281,1.24.412.122.037.122.1,0,.145a.782.782,0,0,1-.244.036m29.208-.1a.783.783,0,0,1-.243-.034c-.125-.042-.127-.108-.006-.145.427-.134.839-.275,1.225-.42a.829.829,0,0,1,.44,0c.134.038.156.1.047.144-.4.149-.821.3-1.261.434a.707.707,0,0,1-.2.026m-31.588-.766a.614.614,0,0,1-.231-.036c-.352-.155-.685-.318-.988-.482-.083-.045-.03-.107.119-.138a.752.752,0,0,1,.42.025c.3.159.62.316.962.466.1.043.062.106-.08.141a.858.858,0,0,1-.2.023m33.94-.12a.848.848,0,0,1-.2-.022c-.143-.034-.18-.1-.084-.141.337-.153.656-.312.948-.473a.744.744,0,0,1,.419-.028c.15.03.2.091.123.137-.3.167-.627.331-.974.489a.619.619,0,0,1-.232.038m-35.744-.852a.509.509,0,0,1-.252-.049,6.892,6.892,0,0,1-.68-.52c-.055-.048.03-.1.188-.127a.614.614,0,0,1,.387.046,6.654,6.654,0,0,0,.664.5c.07.047,0,.106-.153.133a.96.96,0,0,1-.154.013m37.518-.133a.9.9,0,0,1-.152-.012c-.155-.026-.225-.085-.157-.132a6.565,6.565,0,0,0,.649-.509.612.612,0,0,1,.385-.049c.159.021.245.078.192.126a6.637,6.637,0,0,1-.665.524.5.5,0,0,1-.251.051m-38.707-.906a.406.406,0,0,1-.263-.062,3.085,3.085,0,0,1-.363-.54c-.026-.049.086-.1.249-.113s.316.016.342.065a3.016,3.016,0,0,0,.357.523c.041.049-.057.1-.218.121-.035,0-.07.006-.1.006M745.6,817.4a.974.974,0,0,1-.1-.005c-.161-.017-.261-.07-.222-.12a2.987,2.987,0,0,0,.341-.526c.025-.049.179-.08.34-.067s.276.062.251.112a3,3,0,0,1-.346.542.4.4,0,0,1-.263.064m-40.431-.929c-.141,0-.255-.03-.265-.075a1.945,1.945,0,0,1-.05-.542c0-.05.136-.093.3-.1s.292.031.29.08a1.918,1.918,0,0,0,.053.526c.012.049-.11.1-.274.106h-.052m40.963-.144h-.049c-.164-.008-.288-.054-.278-.1a1.979,1.979,0,0,0,.038-.526c0-.049.13-.084.287-.082s.3.046.3.1a1.983,1.983,0,0,1-.033.541c-.009.044-.123.076-.265.077m-40.919-.922c-.161,0-.277-.039-.26-.087l.007-.024a2.605,2.605,0,0,1,.25-.529.5.5,0,0,1,.336-.079c.156,0,.26.045.231.092a2.515,2.515,0,0,0-.237.513l-.008.026c-.016.049-.158.089-.319.089m40.842-.143c-.16,0-.3-.039-.32-.087a2.543,2.543,0,0,0-.246-.512c-.03-.047.073-.089.23-.094a.5.5,0,0,1,.338.078,2.65,2.65,0,0,1,.258.526c.017.048-.1.088-.259.089Zm-40.207-.914H705.8c-.153-.007-.243-.051-.2-.1a5.2,5.2,0,0,1,.523-.5.632.632,0,0,1,.363-.061c.147.011.224.056.171.1a4.882,4.882,0,0,0-.5.486.5.5,0,0,1-.3.072m39.562-.113a.51.51,0,0,1-.3-.07,4.92,4.92,0,0,0-.512-.483c-.054-.044.021-.09.168-.1a.638.638,0,0,1,.364.059,5.18,5.18,0,0,1,.532.5c.042.046-.047.09-.2.1l-.049,0M707,813.381a.85.85,0,0,1-.092,0c-.141-.015-.2-.061-.138-.1.235-.155.5-.31.772-.46a.756.756,0,0,1,.38-.041c.134.018.182.066.107.107-.269.146-.521.3-.749.448a.6.6,0,0,1-.281.056m37.234-.107a.6.6,0,0,1-.282-.054c-.23-.15-.484-.3-.753-.443-.076-.041-.029-.089.1-.107a.76.76,0,0,1,.38.039c.278.148.541.3.779.455.066.043,0,.09-.137.105a.9.9,0,0,1-.092.005m-35.6-.78a.785.785,0,0,1-.132-.01c-.127-.021-.16-.07-.074-.108.309-.139.641-.277.99-.41a.826.826,0,0,1,.385-.022c.119.024.139.073.045.109-.338.13-.661.264-.96.4a.685.685,0,0,1-.253.042m33.951-.1a.679.679,0,0,1-.253-.04c-.3-.134-.628-.267-.966-.394-.1-.036-.077-.084.042-.109a.829.829,0,0,1,.386.02c.349.13.684.266,1,.4.086.038.054.087-.072.109a.812.812,0,0,1-.133.011m-31.9-.688a.728.728,0,0,1-.167-.017c-.11-.027-.115-.076-.012-.109.375-.122.769-.241,1.173-.353a.831.831,0,0,1,.383,0c.1.029.093.077-.017.108-.393.11-.776.225-1.141.344a.75.75,0,0,1-.219.03m29.843-.084a.764.764,0,0,1-.22-.028c-.366-.117-.751-.23-1.144-.338-.111-.03-.12-.079-.019-.108a.833.833,0,0,1,.383,0c.4.11.8.226,1.178.346.1.033.1.082-.01.109a.729.729,0,0,1-.167.018m-27.448-.584a.643.643,0,0,1-.2-.025c-.091-.031-.07-.079.047-.107.426-.1.87-.2,1.322-.29a.78.78,0,0,1,.371.015c.082.033.048.08-.076.105-.44.089-.872.184-1.286.283a.848.848,0,0,1-.183.019m25.044-.071a.82.82,0,0,1-.182-.018c-.416-.1-.85-.19-1.291-.276-.124-.024-.159-.071-.078-.1a.776.776,0,0,1,.371-.017c.452.088.9.184,1.327.282.118.027.14.075.05.107a.64.64,0,0,1-.2.026m-22.37-.471a.56.56,0,0,1-.221-.035c-.071-.035-.024-.081.1-.1.467-.079.951-.154,1.438-.223a.682.682,0,0,1,.352.032c.061.036,0,.081-.132.1-.474.067-.945.14-1.4.217a.848.848,0,0,1-.142.012m19.688-.056a.871.871,0,0,1-.142-.011c-.457-.075-.93-.146-1.4-.209-.134-.018-.193-.062-.133-.1a.672.672,0,0,1,.351-.034c.488.065.973.138,1.443.215.13.021.177.067.106.1a.565.565,0,0,1-.221.036m-16.8-.35a.48.48,0,0,1-.24-.045c-.05-.037.021-.08.158-.1.5-.056,1.013-.107,1.524-.151a.544.544,0,0,1,.325.047c.039.039-.043.079-.184.092-.5.043-1,.093-1.484.148a.838.838,0,0,1-.1.006m13.9-.04a.851.851,0,0,1-.1,0c-.488-.052-.988-.1-1.486-.139-.141-.011-.224-.052-.185-.091a.542.542,0,0,1,.324-.049c.511.041,1.025.089,1.526.143.138.015.209.057.16.095a.477.477,0,0,1-.24.047m-10.863-.224a.4.4,0,0,1-.254-.057c-.027-.039.066-.078.208-.087.519-.032,1.048-.058,1.573-.078.141-.005.275.022.292.062s-.087.076-.231.082c-.512.019-1.027.045-1.533.076l-.056,0m7.819-.022h-.055c-.507-.028-1.023-.051-1.534-.067-.144,0-.248-.041-.232-.08s.149-.068.291-.064c.524.017,1.054.04,1.574.069.143.008.237.046.21.085a.392.392,0,0,1-.253.058m-4.7-.1c-.14,0-.257-.03-.262-.069s.108-.074.252-.076c.525-.008,1.061-.009,1.59,0,.145,0,.258.034.254.074s-.139.071-.272.07c-.515,0-1.037,0-1.55,0H724.8" transform="translate(-494.503 -567.968)" fill="#ffecb1"/>
      <path id="Path_12663" data-name="Path 12663" d="M731.875,708.245a16.83,16.83,0,1,0,15.768,16.737,16.506,16.506,0,0,0-15.768-16.737m.115,32.416a15.656,15.656,0,1,1,14.595-15.675,15.358,15.358,0,0,1-14.595,15.675" transform="translate(-501.659 -496.881)" fill="#ffb542"/>
      <path id="Path_12664" data-name="Path 12664" d="M725.208,699.191c-10.684-.425-19.69,8.323-19.65,19.561s9.107,19.922,19.788,19.422c10.2-.478,18.1-9.223,18.062-19.555s-8-19.021-18.2-19.427m.128,36.284a16.831,16.831,0,1,1,15.649-16.848,16.506,16.506,0,0,1-15.649,16.848" transform="translate(-495.002 -490.525)" fill="#ffb542"/>
      <g id="Group_8620" data-name="Group 8620" transform="translate(213.297 211.197)" style="mix-blend-mode: multiply;isolation: isolate">
        <g id="Group_8619" data-name="Group 8619">
          <g id="Group_8618" data-name="Group 8618" clip-path="url(#clip-path-9)">
            <path id="Path_12665" data-name="Path 12665" d="M731.63,707.717a16.831,16.831,0,1,0,15.708,16.793,16.506,16.506,0,0,0-15.708-16.793m0,32.417a15.656,15.656,0,1,1,14.65-15.623,15.358,15.358,0,0,1-14.65,15.623" transform="translate(-714.743 -707.705)" fill="#e7e2d3"/>
          </g>
        </g>
      </g>
      <path id="Path_12666" data-name="Path 12666" d="M749.445,727.741a15.167,15.167,0,1,1-14.705-15.572,15.449,15.449,0,0,1,14.705,15.572" transform="translate(-504.52 -499.635)" fill="#ffb542"/>
      <g id="Group_8623" data-name="Group 8623" transform="translate(224.57 216.452)" style="mix-blend-mode: multiply;isolation: isolate">
        <g id="Group_8622" data-name="Group 8622">
          <g id="Group_8621" data-name="Group 8621" clip-path="url(#clip-path-10)">
            <path id="Path_12667" data-name="Path 12667" d="M764.187,742.83c0-2.855-1.589-4.448-4.744-5.725v-6.84a7.418,7.418,0,0,1,3.318.978l.673-2.064a8.348,8.348,0,0,0-3.99-1.039v-2.772l-2.033-.052V728.3a5.24,5.24,0,0,0-4.48,5.183c0,2.631,1.7,4.282,4.48,5.422v7.626a8.666,8.666,0,0,1-4.247-1.219l-.644,2.2a9.725,9.725,0,0,0,4.891,1.156v2.784l2.033-.066v-2.95a5.6,5.6,0,0,0,4.744-5.6m-8.694-9.629a2.83,2.83,0,0,1,1.917-2.673v5.625a3.189,3.189,0,0,1-1.917-2.952m3.951,13.019v-6.445c1.593.846,2.25,1.812,2.25,3.294a3.215,3.215,0,0,1-2.25,3.151" transform="translate(-752.519 -725.315)" fill="#e7e2d3"/>
          </g>
        </g>
      </g>
      <path id="Path_12668" data-name="Path 12668" d="M763.186,738.712c0-2.857-1.591-4.455-4.75-5.742v-6.844a7.44,7.44,0,0,1,3.322.988l.673-2.064a8.379,8.379,0,0,0-4-1.051v-2.774l-2.036-.058v2.983a5.227,5.227,0,0,0-4.486,5.175c0,2.632,1.706,4.29,4.486,5.437v7.631a8.693,8.693,0,0,1-4.252-1.231l-.646,2.2a9.76,9.76,0,0,0,4.9,1.17v2.785l2.036-.06V744.3a5.589,5.589,0,0,0,4.75-5.589m-8.706-9.659a2.822,2.822,0,0,1,1.919-2.669v5.629a3.2,3.2,0,0,1-1.919-2.959m3.956,13.038v-6.45c1.6.851,2.253,1.819,2.253,3.3a3.207,3.207,0,0,1-2.253,3.147" transform="translate(-527.235 -505.953)" fill="#ffecb1"/>
      <g id="Group_8626" data-name="Group 8626" transform="translate(211.932 209.975)" style="mix-blend-mode: multiply;isolation: isolate">
        <g id="Group_8625" data-name="Group 8625">
          <g id="Group_8624" data-name="Group 8624" clip-path="url(#clip-path-11)">
            <path id="Path_12669" data-name="Path 12669" d="M727.931,740.228h-.01c-.5,0-1.011-.021-1.508-.063a.244.244,0,0,1-.218-.279.261.261,0,0,1,.28-.235c.483.042.977.064,1.466.064a.242.242,0,0,1,.239.256.266.266,0,0,1-.249.257m1.483-.066a.239.239,0,0,1-.247-.234.265.265,0,0,1,.236-.277c.483-.042.969-.1,1.446-.188a.237.237,0,0,1,.275.209.266.266,0,0,1-.212.294c-.49.086-.99.152-1.487.2h-.011m-4.45-.19a.24.24,0,0,1-.053,0c-.5-.087-1-.2-1.486-.329a.25.25,0,0,1-.17-.317.263.263,0,0,1,.317-.185c.475.128.96.236,1.443.321a.248.248,0,0,1,.195.3.267.267,0,0,1-.246.215m7.358-.321a.234.234,0,0,1-.238-.19.266.266,0,0,1,.187-.31c.467-.124.933-.27,1.386-.433a.232.232,0,0,1,.3.156.266.266,0,0,1-.16.323c-.465.169-.945.319-1.425.448a.224.224,0,0,1-.052.008m-10.26-.46a.248.248,0,0,1-.095-.015c-.48-.176-.956-.375-1.418-.593a.256.256,0,0,1-.115-.346.263.263,0,0,1,.346-.129c.448.212.911.406,1.376.577a.253.253,0,0,1,.143.332.269.269,0,0,1-.238.173m13.026-.543a.231.231,0,0,1-.224-.15.265.265,0,0,1,.133-.334c.435-.2.868-.423,1.288-.663a.229.229,0,0,1,.322.1.264.264,0,0,1-.1.343c-.432.247-.877.476-1.324.683a.238.238,0,0,1-.091.022m-15.77-.75a.248.248,0,0,1-.135-.034c-.444-.259-.883-.542-1.305-.841a.266.266,0,0,1,.308-.433c.411.291.837.566,1.267.818a.258.258,0,0,1,.086.357.27.27,0,0,1-.221.133m18.32-.7a.227.227,0,0,1-.2-.112.265.265,0,0,1,.077-.349c.4-.273.786-.566,1.158-.87a.227.227,0,0,1,.332.04.263.263,0,0,1-.049.352c-.381.313-.782.614-1.19.9a.236.236,0,0,1-.126.042m-20.82-1.066a.251.251,0,0,1-.172-.059c-.4-.336-.783-.695-1.151-1.066a.267.267,0,0,1,.378-.377c.357.36.732.709,1.117,1.036a.262.262,0,0,1,.024.37.268.268,0,0,1-.2.1m23.09-.795a.221.221,0,0,1-.176-.079.261.261,0,0,1,.02-.354c.345-.334.681-.686,1-1.049a.227.227,0,0,1,.332-.017.26.26,0,0,1,.008.352c-.326.372-.671.736-1.026,1.079a.234.234,0,0,1-.156.067m-25.267-1.405a.256.256,0,0,1-.2-.092c-.336-.4-.659-.828-.959-1.26a.268.268,0,0,1,.07-.37.263.263,0,0,1,.369.061c.291.42.6.832.93,1.224a.27.27,0,0,1-.2.437m27.2-.8a.22.22,0,0,1-.147-.051.259.259,0,0,1-.036-.349c.286-.385.561-.788.816-1.2a.227.227,0,0,1,.324-.075.256.256,0,0,1,.063.343c-.263.421-.545.836-.839,1.232a.235.235,0,0,1-.182.1m-28.984-1.764a.26.26,0,0,1-.232-.13c-.262-.458-.509-.935-.734-1.418a.269.269,0,0,1,.132-.355.264.264,0,0,1,.354.125c.217.469.456.933.711,1.377a.268.268,0,0,1-.1.364.272.272,0,0,1-.131.037m30.539-.731a.214.214,0,0,1-.113-.029.254.254,0,0,1-.09-.336c.22-.427.427-.87.614-1.316a.231.231,0,0,1,.307-.129.252.252,0,0,1,.116.326c-.192.458-.4.913-.631,1.352a.235.235,0,0,1-.2.131M711.535,728.5a.263.263,0,0,1-.252-.173c-.184-.505-.345-1.022-.481-1.534a.269.269,0,0,1,.191-.327.265.265,0,0,1,.327.187c.132.5.289,1,.466,1.489a.269.269,0,0,1-.161.342.263.263,0,0,1-.09.017m33-.588a.211.211,0,0,1-.077-.013.248.248,0,0,1-.141-.313c.149-.456.282-.927.395-1.4a.233.233,0,0,1,.281-.181.246.246,0,0,1,.166.3c-.115.484-.252.967-.405,1.436a.237.237,0,0,1-.218.169m-33.812-2.474a.264.264,0,0,1-.264-.219c-.094-.529-.164-1.067-.211-1.6a.269.269,0,0,1,.535-.049c.046.517.114,1.039.2,1.553a.269.269,0,0,1-.218.31.249.249,0,0,1-.047,0m34.5-.388a.209.209,0,0,1-.038,0,.244.244,0,0,1-.19-.283c.074-.48.131-.965.167-1.443a.231.231,0,1,1,.459.038c-.037.491-.1.99-.172,1.482a.239.239,0,0,1-.227.208m-34.78-2.778a.268.268,0,0,1-.269-.267v-.073c0-.542.023-1.085.068-1.619a.269.269,0,0,1,.535.046c-.044.518-.066,1.046-.066,1.567v.078a.268.268,0,0,1-.269.267m35-.157a.239.239,0,0,1-.23-.246c0-.485-.021-.974-.059-1.452a.242.242,0,0,1,.21-.266.237.237,0,0,1,.249.225c.039.492.06.993.061,1.492a.239.239,0,0,1-.23.247Zm-34.735-3.09a.3.3,0,0,1-.046,0,.269.269,0,0,1-.22-.309c.091-.528.205-1.058.341-1.575a.264.264,0,0,1,.327-.188.269.269,0,0,1,.192.327c-.131.5-.243,1.017-.33,1.529a.266.266,0,0,1-.264.22m34.5.156a.238.238,0,0,1-.227-.206c-.076-.476-.172-.955-.286-1.423a.246.246,0,0,1,.165-.3.231.231,0,0,1,.281.179c.118.482.216.974.3,1.463a.244.244,0,0,1-.188.284.2.2,0,0,1-.039,0m-33.7-3.224a.278.278,0,0,1-.089-.016.27.27,0,0,1-.163-.342c.179-.5.382-1,.6-1.486a.264.264,0,0,1,.353-.127.269.269,0,0,1,.133.353c-.216.472-.413.958-.586,1.444a.263.263,0,0,1-.252.174m33,.366a.237.237,0,0,1-.218-.167c-.151-.457-.323-.913-.51-1.357a.252.252,0,0,1,.115-.326.229.229,0,0,1,.307.128c.192.456.369.926.524,1.4a.249.249,0,0,1-.141.314.216.216,0,0,1-.077.013m-31.686-3.236a.273.273,0,0,1-.13-.036.269.269,0,0,1-.1-.364c.26-.457.544-.911.845-1.35a.264.264,0,0,1,.368-.063.267.267,0,0,1,.071.369c-.292.426-.568.867-.819,1.312a.261.261,0,0,1-.232.132m30.544.531a.233.233,0,0,1-.2-.13c-.222-.426-.465-.848-.722-1.256a.256.256,0,0,1,.061-.344.228.228,0,0,1,.324.073c.264.42.513.854.741,1.293a.254.254,0,0,1-.088.336.217.217,0,0,1-.114.029m-28.771-3.111a.269.269,0,0,1-.206-.435c.334-.4.689-.8,1.055-1.173a.267.267,0,0,1,.38.375c-.356.363-.7.746-1.024,1.14a.255.255,0,0,1-.205.094m27.207.627a.235.235,0,0,1-.182-.1c-.289-.386-.6-.764-.914-1.122a.26.26,0,0,1,.006-.353.227.227,0,0,1,.332.016c.326.369.642.758.939,1.154a.259.259,0,0,1-.034.349.22.22,0,0,1-.148.052M716.763,708.3a.268.268,0,0,1-.2-.095.263.263,0,0,1,.023-.371c.394-.337.807-.661,1.229-.963a.266.266,0,0,1,.31.431c-.41.294-.811.609-1.193.937a.253.253,0,0,1-.173.061m23.095.646a.234.234,0,0,1-.156-.067c-.347-.332-.712-.654-1.085-.957a.262.262,0,0,1-.05-.352.227.227,0,0,1,.332-.042c.384.312.759.643,1.115.985a.262.262,0,0,1,.022.353.224.224,0,0,1-.178.08m-20.6-2.432a.269.269,0,0,1-.221-.132.258.258,0,0,1,.084-.357c.441-.261.9-.505,1.363-.726a.263.263,0,0,1,.346.127.256.256,0,0,1-.113.346c-.45.216-.9.454-1.323.707a.249.249,0,0,1-.136.035m18.325.586a.234.234,0,0,1-.125-.041c-.4-.271-.812-.528-1.231-.763a.265.265,0,0,1-.106-.342.228.228,0,0,1,.322-.1c.43.243.856.508,1.265.787a.264.264,0,0,1,.078.348.227.227,0,0,1-.2.113m-15.587-1.9a.268.268,0,0,1-.237-.172.254.254,0,0,1,.141-.334c.478-.178.967-.336,1.456-.47a.262.262,0,0,1,.318.184.251.251,0,0,1-.169.318c-.474.131-.95.285-1.414.458a.243.243,0,0,1-.1.015m13.03.455a.236.236,0,0,1-.09-.021c-.44-.2-.892-.383-1.345-.544a.266.266,0,0,1-.162-.323.232.232,0,0,1,.3-.157c.466.166.931.354,1.383.561a.265.265,0,0,1,.134.333.231.231,0,0,1-.224.151M724.89,704.4a.267.267,0,0,1-.247-.214.248.248,0,0,1,.194-.3c.5-.09,1-.158,1.5-.2a.266.266,0,0,1,.281.234.245.245,0,0,1-.217.28c-.487.045-.978.113-1.459.2a.252.252,0,0,1-.054,0m7.361.272a.249.249,0,0,1-.051-.007c-.468-.122-.947-.224-1.423-.3a.266.266,0,0,1-.213-.293.239.239,0,0,1,.275-.21c.489.083.981.189,1.462.314a.266.266,0,0,1,.189.309.235.235,0,0,1-.239.192m-4.393-.547a.266.266,0,0,1-.249-.256.242.242,0,0,1,.239-.258c.5,0,1,.017,1.5.058a.265.265,0,0,1,.237.275.248.248,0,0,1-.258.235c-.485-.04-.977-.058-1.462-.055h-.011" transform="translate(-710.168 -703.61)" fill="#e7e2d3"/>
          </g>
        </g>
      </g>
      <path id="Path_12670" data-name="Path 12670" d="M727.227,739.663h-.01c-.5,0-1.012-.021-1.509-.064a.244.244,0,0,1-.218-.279.262.262,0,0,1,.28-.235c.483.043.977.064,1.467.064a.242.242,0,0,1,.24.257.266.266,0,0,1-.249.257m1.484-.065a.239.239,0,0,1-.247-.234.265.265,0,0,1,.236-.277c.484-.042.97-.1,1.447-.188a.237.237,0,0,1,.276.209.266.266,0,0,1-.212.295c-.49.086-.991.151-1.488.195h-.011m-4.454-.191a.246.246,0,0,1-.053,0c-.5-.087-1-.2-1.487-.33a.25.25,0,0,1-.17-.317.264.264,0,0,1,.317-.186c.475.129.961.237,1.445.322a.248.248,0,0,1,.195.3.268.268,0,0,1-.247.215m7.365-.318a.235.235,0,0,1-.239-.191.266.266,0,0,1,.187-.31c.468-.124.934-.27,1.387-.433a.233.233,0,0,1,.3.155.266.266,0,0,1-.16.323c-.465.169-.945.319-1.426.447a.229.229,0,0,1-.052.008m-10.269-.464a.246.246,0,0,1-.094-.015c-.48-.176-.957-.375-1.42-.594a.256.256,0,0,1-.115-.346.263.263,0,0,1,.346-.129c.449.212.912.407,1.378.578a.254.254,0,0,1,.143.333.269.269,0,0,1-.238.173m13.038-.538a.231.231,0,0,1-.224-.15.265.265,0,0,1,.133-.334c.435-.2.868-.423,1.289-.663a.23.23,0,0,1,.323.1.264.264,0,0,1-.105.343c-.432.247-.877.476-1.325.683a.236.236,0,0,1-.09.022m-15.784-.756a.249.249,0,0,1-.135-.034c-.444-.259-.884-.543-1.307-.842a.261.261,0,0,1-.056-.365.264.264,0,0,1,.364-.068c.411.291.837.567,1.268.819a.258.258,0,0,1,.086.357.269.269,0,0,1-.221.133m18.336-.7a.226.226,0,0,1-.2-.112.264.264,0,0,1,.077-.349c.4-.273.787-.566,1.159-.87a.227.227,0,0,1,.332.041.262.262,0,0,1-.049.352c-.382.313-.782.614-1.19.9a.237.237,0,0,1-.126.042M716.1,735.557a.252.252,0,0,1-.172-.06c-.4-.336-.784-.7-1.152-1.066a.267.267,0,0,1,.378-.377c.357.361.733.709,1.118,1.036a.262.262,0,0,1,.024.371.269.269,0,0,1-.2.1m23.111-.787a.223.223,0,0,1-.177-.079.261.261,0,0,1,.02-.354c.345-.334.682-.687,1-1.049a.226.226,0,0,1,.332-.018.26.26,0,0,1,.008.352c-.326.372-.672.736-1.027,1.079a.235.235,0,0,1-.156.067m-25.29-1.415a.257.257,0,0,1-.205-.092c-.336-.4-.659-.829-.96-1.261a.267.267,0,0,1,.07-.37.264.264,0,0,1,.369.061c.291.42.6.833.931,1.225a.27.27,0,0,1-.2.437m27.226-.794a.219.219,0,0,1-.147-.051.258.258,0,0,1-.035-.349c.286-.386.561-.788.817-1.2a.228.228,0,0,1,.324-.075.256.256,0,0,1,.063.343c-.263.422-.545.836-.839,1.232a.235.235,0,0,1-.183.1m-29.01-1.774a.261.261,0,0,1-.232-.13c-.262-.458-.51-.936-.734-1.419a.269.269,0,0,1,.132-.355.264.264,0,0,1,.354.125c.217.47.457.934.712,1.378a.268.268,0,0,1-.1.363.272.272,0,0,1-.131.037m30.566-.72a.217.217,0,0,1-.113-.029.254.254,0,0,1-.09-.336c.221-.427.427-.87.614-1.316a.231.231,0,0,1,.307-.129.252.252,0,0,1,.116.326c-.192.458-.4.913-.631,1.353a.235.235,0,0,1-.2.131m-31.89-2.139a.263.263,0,0,1-.252-.173c-.184-.506-.346-1.023-.481-1.536a.269.269,0,0,1,.191-.327.265.265,0,0,1,.328.187c.132.5.289,1,.466,1.49a.27.27,0,0,1-.252.359m33.025-.576a.218.218,0,0,1-.077-.013.249.249,0,0,1-.141-.314c.149-.456.282-.927.394-1.4a.234.234,0,0,1,.281-.181.247.247,0,0,1,.166.3c-.116.484-.252.967-.406,1.437a.237.237,0,0,1-.218.169M710,724.864a.266.266,0,0,1-.264-.219c-.093-.529-.164-1.068-.211-1.6a.269.269,0,0,1,.536-.049c.046.517.114,1.04.2,1.554a.269.269,0,0,1-.218.31.264.264,0,0,1-.047,0m34.529-.376a.2.2,0,0,1-.038,0,.244.244,0,0,1-.19-.283c.074-.48.131-.966.167-1.444a.231.231,0,1,1,.459.039c-.037.491-.1.99-.172,1.483a.239.239,0,0,1-.227.208M709.718,721.7a.268.268,0,0,1-.269-.267v-.073c0-.543.023-1.086.068-1.62a.269.269,0,0,1,.536.046c-.044.518-.066,1.046-.066,1.568v.078a.268.268,0,0,1-.269.267m35.035-.144a.239.239,0,0,1-.23-.246c0-.485-.021-.974-.06-1.452a.242.242,0,0,1,.21-.267.237.237,0,0,1,.249.226c.04.491.06.993.061,1.492a.239.239,0,0,1-.23.247Zm-34.766-3.1a.33.33,0,0,1-.045,0,.269.269,0,0,1-.22-.309c.091-.528.205-1.058.341-1.576a.264.264,0,0,1,.327-.188.269.269,0,0,1,.193.327c-.131.5-.243,1.017-.331,1.53a.266.266,0,0,1-.264.22m34.529.169a.238.238,0,0,1-.227-.206c-.076-.476-.173-.956-.287-1.424a.246.246,0,0,1,.165-.3.232.232,0,0,1,.281.179c.117.482.216.974.3,1.464a.244.244,0,0,1-.188.284.223.223,0,0,1-.04,0M710.79,715.38a.287.287,0,0,1-.09-.016.27.27,0,0,1-.163-.342c.179-.5.382-1,.6-1.487a.264.264,0,0,1,.354-.127.269.269,0,0,1,.134.354c-.216.472-.413.958-.587,1.444a.264.264,0,0,1-.253.174m33.028.379a.237.237,0,0,1-.218-.167c-.15-.457-.323-.914-.51-1.357a.252.252,0,0,1,.115-.326.23.23,0,0,1,.307.128c.193.457.369.926.525,1.4a.25.25,0,0,1-.141.314.216.216,0,0,1-.077.013M712.1,712.509a.271.271,0,0,1-.233-.4c.26-.457.544-.911.846-1.35a.268.268,0,0,1,.44.306c-.292.427-.568.868-.82,1.312a.261.261,0,0,1-.232.132m30.57.543a.235.235,0,0,1-.2-.131c-.222-.426-.466-.849-.722-1.257a.256.256,0,0,1,.061-.344.228.228,0,0,1,.324.073c.264.42.514.855.742,1.293a.254.254,0,0,1-.088.336.221.221,0,0,1-.114.03m-28.8-3.123a.271.271,0,0,1-.166-.063.266.266,0,0,1-.039-.373c.334-.405.689-.8,1.056-1.173a.268.268,0,0,1,.38.376c-.356.363-.7.746-1.025,1.14a.256.256,0,0,1-.205.093m27.231.637a.235.235,0,0,1-.182-.1c-.289-.386-.6-.764-.915-1.123a.26.26,0,0,1,.007-.353.226.226,0,0,1,.332.016c.327.369.643.758.94,1.155a.259.259,0,0,1-.034.349.22.22,0,0,1-.148.052m-25.06-2.852a.269.269,0,0,1-.2-.095.263.263,0,0,1,.023-.371c.394-.337.807-.661,1.23-.963a.266.266,0,0,1,.31.432c-.41.294-.812.609-1.194.937a.254.254,0,0,1-.173.06m23.115.654a.235.235,0,0,1-.156-.067c-.347-.333-.712-.655-1.086-.958a.262.262,0,0,1-.05-.352.227.227,0,0,1,.332-.042c.384.312.76.644,1.116.986a.262.262,0,0,1,.021.353.222.222,0,0,1-.178.08m-20.62-2.441a.268.268,0,0,1-.221-.132.259.259,0,0,1,.084-.358c.441-.26.9-.5,1.364-.726a.263.263,0,0,1,.346.127.256.256,0,0,1-.114.347c-.45.215-.9.453-1.324.707a.251.251,0,0,1-.136.035m18.341.593a.235.235,0,0,1-.125-.042c-.4-.271-.813-.529-1.232-.764a.265.265,0,0,1-.107-.343.228.228,0,0,1,.322-.1c.431.243.857.508,1.266.788a.264.264,0,0,1,.078.348.228.228,0,0,1-.2.113m-15.6-1.9a.268.268,0,0,1-.238-.172.253.253,0,0,1,.141-.334c.478-.178.968-.336,1.457-.47a.263.263,0,0,1,.318.184.251.251,0,0,1-.169.318c-.475.131-.95.285-1.415.458a.252.252,0,0,1-.1.015m13.041.46a.234.234,0,0,1-.09-.021c-.44-.2-.893-.384-1.346-.545a.266.266,0,0,1-.162-.323.232.232,0,0,1,.3-.157c.466.167.932.356,1.384.562a.266.266,0,0,1,.135.334.231.231,0,0,1-.224.15m-10.142-1.26a.267.267,0,0,1-.247-.214.248.248,0,0,1,.194-.3c.5-.09,1-.158,1.5-.2a.266.266,0,0,1,.281.234.245.245,0,0,1-.217.28c-.487.045-.979.112-1.461.2a.236.236,0,0,1-.054,0m7.368.275a.227.227,0,0,1-.051-.008c-.469-.122-.948-.224-1.424-.3a.266.266,0,0,1-.214-.293.24.24,0,0,1,.275-.211c.489.083.982.19,1.464.315a.266.266,0,0,1,.188.309.236.236,0,0,1-.239.192m-4.4-.549a.266.266,0,0,1-.249-.256.242.242,0,0,1,.239-.258c.5,0,1.005.017,1.505.059a.266.266,0,0,1,.238.276.248.248,0,0,1-.258.235c-.486-.04-.978-.058-1.464-.056h-.011" transform="translate(-497.731 -493.228)" fill="#ffecb1"/>
      <path id="Path_12671" data-name="Path 12671" d="M839.042,396.68a12.746,12.746,0,1,1,11.428,13.94,12.745,12.745,0,0,1-11.428-13.94" transform="translate(-588.607 -270.24)" fill="#002f35"/>
      <path id="Path_12672" data-name="Path 12672" d="M869.423,409.137a4.948,4.948,0,1,0-4.948-4.948,4.948,4.948,0,0,0,4.948,4.948" transform="translate(-606.494 -280.098)" fill="#fff"/>
      <path id="Path_12673" data-name="Path 12673" d="M871.639,432a1.077,1.077,0,0,0-1.346.019,4.946,4.946,0,0,1-6.172.064,1.065,1.065,0,0,0-1.35.024,4.673,4.673,0,0,0-1.606,3.695v.145a1.5,1.5,0,0,0,1.5,1.5h9.246a1.5,1.5,0,0,0,1.5-1.5V435.8a4.623,4.623,0,0,0-1.777-3.8" transform="translate(-604.172 -302.923)" fill="#fff"/>
      <path id="Path_12674" data-name="Path 12674" d="M9.484,308.693a12.746,12.746,0,1,1,11.428,13.94,12.746,12.746,0,0,1-11.428-13.94" transform="translate(-6.61 -208.51)" fill="#002f35"/>
      <path id="Path_12675" data-name="Path 12675" d="M39.866,321.151a4.948,4.948,0,1,0-4.948-4.948,4.948,4.948,0,0,0,4.948,4.948" transform="translate(-24.498 -218.369)" fill="#fff"/>
      <path id="Path_12676" data-name="Path 12676" d="M42.082,344.015a1.077,1.077,0,0,0-1.346.019,4.946,4.946,0,0,1-6.172.064,1.065,1.065,0,0,0-1.35.024,4.673,4.673,0,0,0-1.606,3.695v.145a1.5,1.5,0,0,0,1.5,1.5h9.246a1.5,1.5,0,0,0,1.5-1.5v-.145a4.623,4.623,0,0,0-1.777-3.8" transform="translate(-22.175 -241.193)" fill="#fff"/>
      <path id="Path_12677" data-name="Path 12677" d="M891.3,668.034a7.915,7.915,0,1,1,7.1,8.656,7.915,7.915,0,0,1-7.1-8.656" transform="translate(-625.285 -463.67)" fill="#002f35"/>
      <path id="Path_12678" data-name="Path 12678" d="M910.164,675.769a3.073,3.073,0,1,0-3.073-3.073,3.073,3.073,0,0,0,3.073,3.073" transform="translate(-636.392 -469.792)" fill="#fff"/>
      <path id="Path_12679" data-name="Path 12679" d="M911.539,689.969a.669.669,0,0,0-.836.012,3.071,3.071,0,0,1-3.833.04.661.661,0,0,0-.838.015,2.9,2.9,0,0,0-1,2.294v.09a.933.933,0,0,0,.933.933h5.742a.933.933,0,0,0,.933-.933v-.09a2.872,2.872,0,0,0-1.1-2.361" transform="translate(-634.95 -483.966)" fill="#fff"/>
      <path id="Path_12680" data-name="Path 12680" d="M174.459,451.132a7.915,7.915,0,1,1,7.1,8.656,7.915,7.915,0,0,1-7.1-8.656" transform="translate(-122.369 -311.497)" fill="#002f35"/>
      <path id="Path_12681" data-name="Path 12681" d="M193.325,458.868a3.073,3.073,0,1,0-3.073-3.073,3.073,3.073,0,0,0,3.073,3.073" transform="translate(-133.476 -317.619)" fill="#fff"/>
      <path id="Path_12682" data-name="Path 12682" d="M194.7,473.067a.669.669,0,0,0-.837.012,3.071,3.071,0,0,1-3.832.04.662.662,0,0,0-.838.015,2.9,2.9,0,0,0-1,2.294v.09a.933.933,0,0,0,.933.933h5.741a.933.933,0,0,0,.933-.933v-.09a2.872,2.872,0,0,0-1.1-2.361" transform="translate(-132.034 -331.793)" fill="#fff"/>
      <path id="Path_12683" data-name="Path 12683" d="M111.329,107.574c0-2.292-1.329-3.574-3.94-4.6V97.545a6.239,6.239,0,0,1,2.747.744l.562-1.661a7.043,7.043,0,0,0-3.309-.771v-2.2h-1.664v2.357a4.231,4.231,0,0,0-3.613,4.125c0,2.059,1.366,3.355,3.613,4.26v6.029A7.23,7.23,0,0,1,102.3,109.4l-.514,1.709a8.125,8.125,0,0,0,3.94,1v2.2h1.664V111.97a4.41,4.41,0,0,0,3.94-4.4M104.171,99.9a2.268,2.268,0,0,1,1.554-2.126v4.447a2.5,2.5,0,0,1-1.554-2.321m3.218,10.314V105.1a2.793,2.793,0,0,1,1.858,2.641,2.513,2.513,0,0,1-1.858,2.478" transform="translate(-71.41 -65.706)" fill="#002f35"/>
      <path id="Path_12684" data-name="Path 12684" d="M995.269,507.89c0-2.292-1.33-3.574-3.94-4.6v-5.432a6.239,6.239,0,0,1,2.747.744l.562-1.661a7.043,7.043,0,0,0-3.309-.771v-2.2h-1.664v2.357a4.231,4.231,0,0,0-3.613,4.125c0,2.059,1.366,3.355,3.613,4.26v6.029a7.229,7.229,0,0,1-3.426-1.026l-.514,1.709a8.122,8.122,0,0,0,3.94,1v2.2h1.664v-2.343a4.41,4.41,0,0,0,3.94-4.4m-7.158-7.673a2.268,2.268,0,0,1,1.555-2.126v4.447a2.5,2.5,0,0,1-1.555-2.321m3.218,10.314v-5.119a2.793,2.793,0,0,1,1.858,2.641,2.513,2.513,0,0,1-1.858,2.478" transform="translate(-691.56 -346.558)" fill="#002f35"/>
      <path id="Path_12685" data-name="Path 12685" d="M871.819,243.257a1.528,1.528,0,0,0-1.192.59L863.08,239.6a2.6,2.6,0,0,0-.01-1.705l7.585-5.042a1.523,1.523,0,0,0,1.164.557,1.708,1.708,0,1,0-1.578-1.7,1.839,1.839,0,0,0,.06.46l-7.593,5.048a2.2,2.2,0,0,0-1.758-.9,2.456,2.456,0,0,0,0,4.9,2.207,2.207,0,0,0,1.775-.926l7.565,4.258a1.844,1.844,0,0,0-.05.417,1.582,1.582,0,1,0,1.578-1.7" transform="translate(-602.429 -161.364)" fill="#1c7d88"/>
      <path id="Path_12686" data-name="Path 12686" d="M23.415,679.784a1.528,1.528,0,0,0-1.192.59l-7.547-4.247a2.592,2.592,0,0,0-.01-1.705l7.585-5.042a1.523,1.523,0,0,0,1.164.557,1.708,1.708,0,1,0-1.578-1.7,1.833,1.833,0,0,0,.06.46L14.3,673.741a2.2,2.2,0,0,0-1.758-.9,2.456,2.456,0,0,0,0,4.9,2.207,2.207,0,0,0,1.775-.926l7.566,4.258a1.828,1.828,0,0,0-.05.417,1.582,1.582,0,1,0,1.578-1.7" transform="translate(-7.21 -467.621)" fill="#002f35"/>
    </g>
  </g>
</svg>
