<svg id="shopping-bag-2-line" xmlns="http://www.w3.org/2000/svg" width="14" height="13.938" viewBox="0 0 14 13.938">
  <rect id="Rectangle_262" data-name="Rectangle 262" width="14" height="13.938" transform="translate(0 0)" fill="none"/>
  <path id="Path_12463" data-name="Path 12463" d="M14.852,15.937H3.7a.7.7,0,0,1-.7-.7V2.7A.7.7,0,0,1,3.7,2h11.15a.7.7,0,0,1,.7.7V15.241A.7.7,0,0,1,14.852,15.937Zm-.7-1.394V3.394H4.4v11.15ZM7.186,4.787V6.181a2.091,2.091,0,0,0,4.181,0V4.787h1.394V6.181a3.484,3.484,0,0,1-6.969,0V4.787Z" transform="translate(-2.277 -2)" fill="#002f35"/>
</svg>
