<svg id="Terrible_active" xmlns="http://www.w3.org/2000/svg" width="50" height="50" viewBox="0 0 50 50">
  <rect id="Rectangle_18114" data-name="Rectangle 18114" width="50" height="50" rx="25" fill="#ffd48b"/>
  <path id="Path_16500" data-name="Path 16500" d="M79.29,99.653a9.29,9.29,0,0,0,7.192.3.7.7,0,0,0,.472-.928.752.752,0,0,0-.941-.328,7.949,7.949,0,0,1-6.154-.254.752.752,0,0,0-.964.25.7.7,0,0,0,.394.964" transform="translate(-64.553 -82.377)" fill="#515151"/>
  <path id="Path_16501" data-name="Path 16501" d="M102.155,134.04a2.478,2.478,0,1,0-2.478,2.478,2.478,2.478,0,0,0,2.478-2.478" transform="translate(-81.317 -112.653)" fill="#515151"/>
  <path id="Path_16502" data-name="Path 16502" d="M246.511,99.653a9.29,9.29,0,0,1-7.192.3.7.7,0,0,1-.472-.928.752.752,0,0,1,.941-.328,7.949,7.949,0,0,0,6.154-.254.752.752,0,0,1,.964.25.7.7,0,0,1-.394.964" transform="translate(-210.438 -82.377)" fill="#515151"/>
  <path id="Path_16503" data-name="Path 16503" d="M257.172,134.04a2.478,2.478,0,1,1,2.478,2.478,2.478,2.478,0,0,1-2.478-2.478" transform="translate(-227.201 -112.653)" fill="#515151"/>
  <path id="Path_16504" data-name="Path 16504" d="M132.125,243.518c0-3.6-3.5-6.511-7.825-6.511s-7.824,2.915-7.824,6.511Z" transform="translate(-98.895 -208.812)" fill="#515151"/>
</svg>
