<svg id="No_Transaction_Found" data-name="No Transaction Found" xmlns="http://www.w3.org/2000/svg" width="235" height="235" viewBox="0 0 235 235">
  <rect id="Square" width="235" height="235" transform="translate(0)" fill="none"/>
  <g id="Image" transform="translate(0 39.532)">
    <g id="group" transform="translate(23.385 32.735)">
      <g id="Head" transform="translate(75.316 0)">
        <g id="Group_7535" data-name="Group 7535">
          <g id="Group_7534" data-name="Group 7534">
            <path id="Path_13692" data-name="Path 13692" d="M3341.588,1359.07a29.454,29.454,0,0,1-17.381-5.888,31.134,31.134,0,0,1-9.066-11.2c-2-4.154-2.775-8.22-2.135-11.155.013-.062.029-.131.047-.209a11.58,11.58,0,0,0,.262-4.279,13.289,13.289,0,0,0-3.35-6.791c-.1-.115-.183-.218-.258-.31-4.2-5.143-4.417-14.735-2.484-21.151a24.8,24.8,0,0,1,8.91-12.362,28.426,28.426,0,0,1,14.464-5.648c.7-.061,1.436-.092,2.18-.092a25.065,25.065,0,0,1,25.047,19.629,19.3,19.3,0,0,1-.221,11.477,16.282,16.282,0,0,0-.844,5.421,18.5,18.5,0,0,0,.943,5,27.578,27.578,0,0,0,3.121,7.04,20.357,20.357,0,0,1,2.721,6.446,18.759,18.759,0,0,1,.366,6.259c-1.169,9.408-10.827,14.837-11.238,15.064A22.664,22.664,0,0,1,3341.588,1359.07Z" transform="translate(-3305.491 -1279.429)" fill="#15171a"/>
            <g id="Group_7533" data-name="Group 7533">
              <path id="Path_13693" data-name="Path 13693" d="M3360.588,1334.715a20.425,20.425,0,0,0-3.276-10.449,27.161,27.161,0,0,1-3.066-6.911,18.152,18.152,0,0,1-.923-4.86,15.832,15.832,0,0,1,.823-5.251,19.854,19.854,0,0,0,.224-11.774,29.772,29.772,0,0,0-2.294-6.118,25.33,25.33,0,0,0-6.658-8.277,26.713,26.713,0,0,0-16.636-5.65v.56h0v-.56c-.76,0-1.51.032-2.229.094a28.993,28.993,0,0,0-14.754,5.759,27.243,27.243,0,0,0-5.573,5.629,23.265,23.265,0,0,0-3.534,7.018,31.436,31.436,0,0,0-1.118,10.87c.222,3.13,1.045,7.545,3.7,10.8.077.094.166.2.263.317a12.6,12.6,0,0,1,3.225,6.505,10.892,10.892,0,0,1-.254,4.079c-.019.08-.035.152-.048.214a11.409,11.409,0,0,0-.211,3.007c.009.185.022.372.039.562s.036.369.059.557h0c.023.182.048.365.077.55.023.15.048.3.076.452a23.874,23.874,0,0,0,1.422,4.773h0q.327.8.716,1.614a31.688,31.688,0,0,0,9.233,11.4,30.026,30.026,0,0,0,17.718,6,23.225,23.225,0,0,0,11.354-2.818,27.54,27.54,0,0,0,5.519-4.231,19.388,19.388,0,0,0,6-11.254c.047-.379.079-.751.1-1.115q.021-.375.024-.736h0C3360.6,1335.211,3360.6,1334.96,3360.588,1334.715Zm-31.5-58.17.118,0c.146,0,.3,0,.452.01l.189.007h.007l.37.017h.01c.132.007.266.014.4.024.11.008.221.015.334.025l.024,0,.13.012.059,0c.08.007.161.014.243.022q.649.062,1.353.165c.059.008.12.016.179.027l.136.021c.08.013.161.025.242.039l.243.042c.082.014.163.029.246.044.108.02.216.041.324.063s.226.045.341.07q.119.024.239.052l.177.04.018,0c.141.032.283.066.426.1.174.043.348.088.524.136.088.023.176.048.264.073l.267.077.336.1c.126.038.252.079.379.121.087.027.173.056.26.085.126.042.252.086.379.131.183.064.365.133.549.2q.173.066.346.135c.066.026.133.053.2.081s.107.044.161.066l.134.057.232.1c.106.046.21.093.316.141.187.085.372.172.559.264q.42.2.841.43.281.15.561.312.14.079.28.163c.164.1.326.2.49.3l.175.111c.083.054.168.108.252.163s.168.111.253.168q.252.17.5.349c.092.065.185.132.277.2h0c.184.135.367.274.55.418.091.071.183.144.274.217q.267.215.524.436.17.146.338.293c.08.072.16.144.24.218l.125.115.135.127c.086.081.17.162.254.243l.162.159c.063.063.127.126.189.19l.189.193q.1.1.187.2c.071.076.142.151.211.227a24.315,24.315,0,0,1,2.365,3.034h0c.24.366.467.729.678,1.089a28.279,28.279,0,0,1,2.974,7.288,20.064,20.064,0,0,1,.732,5.993c-.179,4.559-1.939,6.349-1.816,10.778a19.126,19.126,0,0,0,.965,5.134c1.878,6.635,4.649,8.006,5.833,13.452a20.007,20.007,0,0,1,.411,2.654c.02.238.037.486.047.743.01.237.016.481.016.731a15.859,15.859,0,0,1-.117,1.944c-1.124,9.049-10.371,14.321-10.951,14.642a22.245,22.245,0,0,1-10.814,2.68,28.975,28.975,0,0,1-17.043-5.775,30.411,30.411,0,0,1-8.137-9.515,25.4,25.4,0,0,1-2.807-7.565c-.027-.145-.051-.289-.073-.431-.03-.191-.056-.382-.078-.569a0,0,0,0,1,0,0q-.035-.283-.057-.557t-.035-.563a10.184,10.184,0,0,1,.194-2.583,12.415,12.415,0,0,0,.318-4.683,12.741,12.741,0,0,0-2.573-5.954l0,0c-.127-.168-.25-.325-.368-.472-.023-.03-.047-.059-.07-.087-.16-.2-.308-.374-.438-.531-.039-.045-.076-.089-.111-.131l-.044-.053-.043-.052-.079-.1c-4.322-5.287-4.095-14.948-2.381-20.634q.267-.886.611-1.744.115-.286.238-.569c.023-.054.046-.108.07-.161s.047-.108.072-.161q.047-.107.1-.214c.067-.141.135-.282.2-.422.034-.07.069-.14.1-.21q.107-.209.217-.416s0,0,0,0c.074-.137.149-.275.225-.411h0l.175-.306c.063-.109.126-.217.191-.323.028-.048.057-.1.087-.142.068-.113.139-.226.21-.338l.191-.3c.13-.2.263-.391.4-.584.045-.064.09-.129.136-.193q.207-.288.42-.569c.1-.126.192-.25.291-.374s.2-.246.3-.368c.05-.061.1-.121.152-.182l.1-.12.243-.281c.077-.088.154-.175.233-.262l.046-.051c.033-.037.066-.075.1-.112.072-.08.146-.16.22-.238q.163-.173.329-.344l.212-.215c.068-.068.137-.136.206-.2.087-.085.173-.169.261-.252l.112-.106.215-.2.1-.09q.138-.127.279-.251c.033-.031.067-.06.1-.089l.115-.1c.009-.009.018-.016.028-.025.036-.032.073-.063.11-.094.123-.106.247-.211.373-.314.061-.052.123-.1.185-.152.123-.1.248-.2.374-.3.063-.05.127-.1.191-.148l.19-.145c.051-.04.1-.078.154-.115l.164-.121.264-.19.277-.2.116-.081c.084-.06.17-.117.256-.175q.327-.222.663-.434l.164-.1c.123-.077.248-.153.372-.228s.249-.15.375-.223.279-.161.418-.239q.316-.177.637-.346l.153-.08q.27-.141.542-.275l.275-.134.327-.155.264-.119c.159-.073.32-.143.481-.213q.18-.078.362-.153l.245-.1q.549-.221,1.108-.418c.108-.038.215-.076.324-.112l.259-.087q.307-.1.616-.2l.287-.085.3-.085.058-.016.288-.078c.18-.047.359-.093.539-.136.1-.024.2-.048.3-.07l.3-.067q.148-.033.3-.063l.3-.06.247-.047.083-.015q.268-.049.538-.092c.115-.018.231-.036.347-.053l.269-.038.27-.036q.476-.059.953-.1l.082-.007.4-.031.242-.014c.18-.011.38-.019.6-.026l.224-.006.188,0,.141,0C3328.707,1276.543,3328.9,1276.543,3329.091,1276.546Z" transform="translate(-3301.498 -1275.424)" fill="#464149"/>
            </g>
          </g>
        </g>
        <g id="Group_7537" data-name="Group 7537" transform="translate(1.12 1.119)">
          <g id="Group_7536" data-name="Group 7536">
            <path id="Path_13694" data-name="Path 13694" d="M3352.729,1289.957a25.864,25.864,0,0,0-18.064-5.312c-10.181.888-19.991,8.006-22.887,17.613-1.713,5.687-1.941,15.348,2.381,20.634.271.331.692.808,1.158,1.427l-.384-.714a26.481,26.481,0,0,1-2.814-9.736,29.822,29.822,0,0,1,1.09-10.181c2.9-9.608,12.706-16.727,22.885-17.613a25.856,25.856,0,0,1,18.066,5.312q.589.475,1.123.967A23.282,23.282,0,0,0,3352.729,1289.957Z" transform="translate(-3310.631 -1284.554)" fill="#fff"/>
          </g>
        </g>
        <path id="Path_13695" data-name="Path 13695" d="M3391.507,1618.5c-.459.846-7.315,12.982-21.141,13.963-8.523.605-17.425-3.19-22.167-9.893a20.39,20.39,0,0,1-2.227-4.07c1.3-.115,7.26-.737,11.584-3.327a7.5,7.5,0,0,0,3.312-3.313,7.347,7.347,0,0,0,.552-2.76c.068-.967.121-2.172.112-3.586-.006-.926-.039-1.942-.112-3.039h11.19c-.073,1.1-.106,2.115-.112,3.039-.011,1.416.044,2.619.112,3.586a7.355,7.355,0,0,0,.551,2.76,7.5,7.5,0,0,0,3.313,3.313C3380.294,1617.456,3389.536,1618.235,3391.507,1618.5Z" transform="translate(-3340.518 -1562.37)" fill="#fff"/>
        <g id="Group_7538" data-name="Group 7538" transform="translate(5.174 39.821)">
          <path id="Path_13696" data-name="Path 13696" d="M3391.507,1618.5c-.459.846-7.315,12.982-21.141,13.963-8.523.605-17.425-3.19-22.167-9.893a20.39,20.39,0,0,1-2.227-4.07c1.3-.115,7.26-.737,11.584-3.327a7.5,7.5,0,0,0,3.312-3.313,7.347,7.347,0,0,0,.552-2.76c.068-.967.121-2.172.112-3.586-.006-.926-.039-1.942-.112-3.039h11.19c-.073,1.1-.106,2.115-.112,3.039-.011,1.416.044,2.619.112,3.586a7.355,7.355,0,0,0,.551,2.76,7.5,7.5,0,0,0,3.313,3.313C3380.294,1617.456,3389.536,1618.235,3391.507,1618.5Z" transform="translate(-3345.692 -1602.192)" fill="#fff"/>
          <path id="Path_13697" data-name="Path 13697" d="M3366.568,1630.805a26.9,26.9,0,0,1-10.813-2.293,23.47,23.47,0,0,1-9.781-7.781,20.668,20.668,0,0,1-2.258-4.126.279.279,0,0,1,.234-.384c1.643-.145,7.328-.811,11.465-3.289a7.343,7.343,0,0,0,3.2-3.189,7.106,7.106,0,0,0,.528-2.664c.082-1.159.119-2.358.112-3.565-.006-.985-.044-2-.112-3.023a.28.28,0,0,1,.279-.3h11.19a.278.278,0,0,1,.278.3c-.067,1.017-.1,2.034-.111,3.023-.009,1.207.027,2.373.111,3.564a7.1,7.1,0,0,0,.527,2.664,7.342,7.342,0,0,0,3.2,3.189c3.286,1.968,10.691,2.806,13.852,3.163.459.052.822.093,1.074.126a.28.28,0,0,1,.208.41,30.021,30.021,0,0,1-5.613,7,27.868,27.868,0,0,1-6.578,4.6,24.4,24.4,0,0,1-9.176,2.505Q3367.481,1630.805,3366.568,1630.805Zm-22.189-14.064a20.079,20.079,0,0,0,2.052,3.667c4.566,6.454,13.375,10.382,21.919,9.776a24.806,24.806,0,0,0,15.412-6.958,30.31,30.31,0,0,0,5.3-6.5l-.65-.074c-3.2-.362-10.687-1.209-14.077-3.239a7.852,7.852,0,0,1-3.425-3.438,7.662,7.662,0,0,1-.575-2.855c-.084-1.206-.121-2.386-.112-3.607.006-.9.037-1.829.094-2.758H3359.72c.056.932.088,1.858.094,2.758.008,1.221-.03,2.435-.113,3.607a7.638,7.638,0,0,1-.577,2.855,7.853,7.853,0,0,1-3.422,3.437C3351.74,1615.785,3346.423,1616.533,3344.378,1616.741Z" transform="translate(-3343.695 -1600.195)" fill="#464149"/>
        </g>
        <g id="Group_7539" data-name="Group 7539" transform="translate(9.344 10.7)">
          <path id="Path_13698" data-name="Path 13698" d="M3402.32,1396.211a14.59,14.59,0,0,0,1.117-1.035,15.756,15.756,0,0,0,2.7-3.818,19.526,19.526,0,0,0,1.426-3.458,4.653,4.653,0,0,0,1.569-.487c2.35-1.232,3.131-4.356,2.927-6.618a4.955,4.955,0,0,0-1.544-3.653,4.453,4.453,0,0,0-3-.918c-1.524-8.651-6.775-12.154-14.006-11.041-7.008,1.079-10.012,7.019-11,12.473a12.514,12.514,0,0,0-.2,2.137c-.1.232-.241.521-.416.851-.3.56-.547.948-.645,1.1-.808,1.282-1.507,2.39-1.155,3.02a3.334,3.334,0,0,0,1.393.941,1.249,1.249,0,0,1,.563.478.851.851,0,0,1,.07.279c0,.006,0,.01,0,.012h0a18.567,18.567,0,0,0,.4,2.51,10.38,10.38,0,0,0,1.384,3.923,11.114,11.114,0,0,0,8.949,5.132,9.533,9.533,0,0,0,1.186-.05Z" transform="translate(-3379.719 -1364.702)" fill="#fff"/>
          <path id="Path_13699" data-name="Path 13699" d="M3391.031,1396.31l-.194,0a11.376,11.376,0,0,1-9.182-5.266,10.659,10.659,0,0,1-1.42-4.016,18.92,18.92,0,0,1-.406-2.537c0-.005,0-.01,0-.016a.592.592,0,0,0-.047-.189.947.947,0,0,0-.419-.334h0a3.374,3.374,0,0,1-1.525-1.06c-.433-.775.271-1.892,1.163-3.305l.025-.04c.11-.174.339-.537.609-1.045.136-.258.266-.521.384-.781a12.9,12.9,0,0,1,.2-2.126,18.747,18.747,0,0,1,3.295-8,11.937,11.937,0,0,1,7.937-4.7c3.76-.579,6.907.064,9.354,1.912,2.5,1.885,4.152,4.952,4.927,9.12h0a4.638,4.638,0,0,1,2.943.987,5.221,5.221,0,0,1,1.645,3.844c.219,2.427-.65,5.619-3.075,6.89a4.884,4.884,0,0,1-1.484.491,19.793,19.793,0,0,1-1.394,3.339,16.071,16.071,0,0,1-2.744,3.881,15.154,15.154,0,0,1-1.138,1.055.279.279,0,0,1-.358-.429,14.352,14.352,0,0,0,1.1-1.015,15.571,15.571,0,0,0,2.652-3.754,19.239,19.239,0,0,0,1.406-3.409.28.28,0,0,1,.231-.2,4.371,4.371,0,0,0,1.475-.458c2.2-1.152,2.981-4.1,2.779-6.346a4.682,4.682,0,0,0-1.443-3.462,4.158,4.158,0,0,0-2.809-.855.281.281,0,0,1-.289-.23c-1.428-8.112-6.29-11.952-13.688-10.813-7.653,1.179-10.031,8.179-10.768,12.247a12.259,12.259,0,0,0-.194,2.09.275.275,0,0,1-.025.112c-.13.289-.272.581-.424.867-.28.527-.517.9-.631,1.082l-.025.039c-.7,1.106-1.418,2.25-1.147,2.735a2.835,2.835,0,0,0,1.261.821l0,0a1.386,1.386,0,0,1,.709.617,1.146,1.146,0,0,1,.092.372v.012a18.3,18.3,0,0,0,.4,2.468c0,.008,0,.015,0,.023a10.109,10.109,0,0,0,1.347,3.818,10.8,10.8,0,0,0,8.716,5,9.322,9.322,0,0,0,1.151-.049.279.279,0,0,1,.058.555A9.83,9.83,0,0,1,3391.031,1396.31Z" transform="translate(-3377.705 -1362.688)" fill="#464149"/>
        </g>
        <g id="Group_7540" data-name="Group 7540" transform="translate(37.136 25.512)">
          <path id="Path_13700" data-name="Path 13700" d="M3604.743,1489.528a.279.279,0,0,1-.18-.493,3.644,3.644,0,0,0,.972-1.258l0-.009a2.992,2.992,0,0,0,.055-2.8,2.623,2.623,0,0,0-1.07-.941.279.279,0,1,1,.246-.5,3.182,3.182,0,0,1,1.3,1.145,3.429,3.429,0,0,1-.021,3.337l0,.009a4.2,4.2,0,0,1-1.119,1.45A.28.28,0,0,1,3604.743,1489.528Z" transform="translate(-3604.368 -1483.493)" fill="#464149"/>
        </g>
        <path id="Path_13701" data-name="Path 13701" d="M3445.649,1467c0,.9-.543,1.631-1.212,1.631s-1.213-.73-1.213-1.631.543-1.631,1.213-1.631S3445.649,1466.1,3445.649,1467Z" transform="translate(-3425.847 -1442.078)" fill="#464149"/>
        <g id="Group_7541" data-name="Group 7541" transform="translate(16.473 34.9)">
          <path id="Path_13702" data-name="Path 13702" d="M3437.391,1562.34a4.41,4.41,0,0,1-1.293-.2.359.359,0,0,1,.212-.686,3.616,3.616,0,0,0,1.832.083,3.676,3.676,0,0,0,2.094-1.342.359.359,0,0,1,.567.44,4.395,4.395,0,0,1-2.508,1.6A4.22,4.22,0,0,1,3437.391,1562.34Z" transform="translate(-3435.846 -1560.06)" fill="#464149"/>
        </g>
        <g id="Group_7542" data-name="Group 7542" transform="translate(16.473 19.455)">
          <path id="Path_13703" data-name="Path 13703" d="M3440.242,1435.4a.359.359,0,0,1-.184-.051,3.724,3.724,0,0,0-1.2-.465,3.984,3.984,0,0,0-2.5.36.359.359,0,0,1-.318-.644,4.705,4.705,0,0,1,2.952-.421,4.439,4.439,0,0,1,1.43.554.359.359,0,0,1-.185.666Z" transform="translate(-3435.846 -1434.096)" fill="#464149"/>
        </g>
        <path id="Path_13704" data-name="Path 13704" d="M3467.78,1338.7a16.5,16.5,0,0,0,1.2,6.61,17.484,17.484,0,0,0,4.361,6.124,25.487,25.487,0,0,0,12.426,6.632,24.963,24.963,0,0,0,10.705-.194q-.138-8.194-.278-16.389a33.167,33.167,0,0,0-17.143-4.841A32.473,32.473,0,0,0,3467.78,1338.7Z" transform="translate(-3447.387 -1329.132)" fill="#15171a"/>
        <g id="Group_7543" data-name="Group 7543" transform="translate(20.11 9.284)">
          <path id="Path_13705" data-name="Path 13705" d="M3488.953,1371.608a25.37,25.37,0,0,1-5.406-.582,25.785,25.785,0,0,1-11.6-5.938,18.35,18.35,0,0,1-5.222-6.95,16.87,16.87,0,0,1-1.219-6.721.279.279,0,1,1,.558.011,16.308,16.308,0,0,0,1.179,6.5,17.857,17.857,0,0,0,5.079,6.745,24.914,24.914,0,0,0,21.583,5.886.279.279,0,1,1,.108.548A26.018,26.018,0,0,1,3488.953,1371.608Z" transform="translate(-3465.506 -1351.143)" fill="#464149"/>
        </g>
        <path id="Path_13706" data-name="Path 13706" d="M3350.689,1338.971a4.012,4.012,0,0,0,1.366,1.033c1.73.78,3.536-.062,5.556-.913a18.416,18.416,0,0,0,6.636-4.77c2.352-2.671,2.666-4.627,2.728-5.071a7.455,7.455,0,0,0,.072-1.095l-2-2.764q-1.89,1.908-3.917,3.854c-1.593,1.526-2.719,2.552-4.2,3.914S3353.327,1336.494,3350.689,1338.971Z" transform="translate(-3344.657 -1319.264)" fill="#15171a"/>
        <g id="Group_7544" data-name="Group 7544" transform="translate(8.745 12.54)">
          <path id="Path_13707" data-name="Path 13707" d="M3373.1,1386.2a.279.279,0,0,1-.05-.554,17.972,17.972,0,0,0,10.4-5.611,15.586,15.586,0,0,0,1.6-2.2.279.279,0,1,1,.479.287,16.131,16.131,0,0,1-1.653,2.277,18.525,18.525,0,0,1-10.725,5.794A.29.29,0,0,1,3373.1,1386.2Z" transform="translate(-3372.821 -1377.698)" fill="#464149"/>
        </g>
      </g>
      <g id="Legs" transform="translate(78.511 120.889)">
        <g id="Group_7547" data-name="Group 7547">
          <g id="Group_7546" data-name="Group 7546">
            <path id="Path_13708" data-name="Path 13708" d="M3332.255,2267.6c.041-.176.082-.351.124-.526a.321.321,0,0,1,.008-.033c.043-.187.088-.373.132-.56.01-.043.02-.086.031-.129a.559.559,0,0,1,.544-.431l41.034.031a.561.561,0,0,1,.52.352l.083.209c.075.186.148.372.22.559,0,0,0,0,0,0,.073.186.144.371.214.559h-1.284l-20.037-.015-21.015-.017Z" transform="translate(-3331.679 -2265.365)" fill="#15171a"/>
            <g id="Group_7545" data-name="Group 7545">
              <path id="Path_13709" data-name="Path 13709" d="M3371.429,2263.072h-.6s0,0,0,0h-.6v0c.073.185.145.37.217.558h1.2Q3371.534,2263.35,3371.429,2263.072Zm0,0h0c-.073-.188-.145-.375-.218-.56-.056-.14-.111-.28-.166-.418a1.12,1.12,0,0,0-1.039-.7l-20.773-.016-20.26-.015h0a1.121,1.121,0,0,0-1.09.862c-.021.085-.041.172-.061.258-.044.185-.088.372-.132.559,0,.012-.006.023-.008.035l-.124.525h1.151c0-.013.007-.028.009-.041.039-.162.076-.323.115-.485,0-.011,0-.022.009-.034.043-.186.087-.373.132-.559h0l41.033.031h0q.112.278.221.56v0c.073.185.145.37.217.558h1.2Q3371.534,2263.35,3371.429,2263.072Z" transform="translate(-3327.556 -2261.359)" fill="#1f1f1f"/>
            </g>
          </g>
        </g>
        <g id="Group_7549" data-name="Group 7549" transform="translate(1.143 2.198)">
          <g id="Group_7548" data-name="Group 7548">
            <path id="Path_13710" data-name="Path 13710" d="M3377.936,2279.358l-20.037-.015-21.014-.016h-.008c0-.014.007-.028.009-.041h.008l41.025.031Z" transform="translate(-3336.876 -2279.285)" fill="#fff"/>
          </g>
        </g>
      </g>
      <g id="Body" transform="translate(0 25.778)">
        <g id="Group_7560" data-name="Group 7560">
          <g id="Group_7553" data-name="Group 7553">
            <g id="Group_7552" data-name="Group 7552">
              <g id="Group_7551" data-name="Group 7551">
                <path id="Path_13711" data-name="Path 13711" d="M2719.779,1537.737c-3.274,0-6.339-2.069-8.63-5.827a29.125,29.125,0,0,1,0-27.695c2.292-3.758,5.356-5.827,8.63-5.827s6.339,2.069,8.63,5.827a29.125,29.125,0,0,1,0,27.695C2726.118,1535.668,2723.052,1537.737,2719.779,1537.737Z" transform="translate(-2705.145 -1496.828)" fill="#f0bb62"/>
                <g id="Group_7550" data-name="Group 7550">
                  <path id="Path_13712" data-name="Path 13712" d="M2708.649,1491.658c-2.357-3.865-5.527-5.994-8.927-5.994h-.07a8.136,8.136,0,0,0-2.278.345,8.779,8.779,0,0,0-.982.362,12.814,12.814,0,0,0-5.6,5.286,29.466,29.466,0,0,0,0,28.056,12.813,12.813,0,0,0,5.6,5.286,8.514,8.514,0,0,0,.979.361,8.147,8.147,0,0,0,2.351.347,8.535,8.535,0,0,0,4.533-1.341q.242-.148.478-.314t.456-.336a13.264,13.264,0,0,0,2.21-2.209l.032-.04a17.371,17.371,0,0,0,1.218-1.753,20.746,20.746,0,0,0,1.184-2.25,26.437,26.437,0,0,0,1.957-6.628c.038-.221.071-.443.1-.668s.062-.45.088-.677a32.378,32.378,0,0,0,.222-3.8A27.308,27.308,0,0,0,2708.649,1491.658Zm2.7,17.255q-.035.344-.078.684t-.093.675a25.745,25.745,0,0,1-2.242,7.476,17.866,17.866,0,0,1-2,3.223,12.609,12.609,0,0,1-2.238,2.24c-.15.115-.3.225-.456.33s-.316.21-.477.306a8.093,8.093,0,0,1-2.893,1.075c-.2.032-.4.056-.6.07-.182.014-.364.021-.548.021-3.062,0-5.848-1.913-7.943-5.051-.075-.11-.148-.222-.219-.336s-.142-.229-.213-.345-.14-.234-.208-.353c-.035-.06-.069-.119-.1-.18l-.107-.193q-.053-.1-.1-.2c-.036-.066-.07-.132-.1-.2-.059-.113-.117-.228-.173-.344q-.407-.825-.757-1.723c-.031-.078-.061-.156-.09-.235-.06-.157-.117-.316-.175-.477-.05-.141-.1-.286-.148-.431-.014-.042-.029-.085-.042-.129l-.042-.13q-.085-.263-.165-.531c-.014-.045-.027-.091-.041-.137q-.086-.3-.167-.6c-.019-.071-.038-.143-.056-.215-.01-.036-.018-.072-.028-.109-.015-.056-.029-.113-.043-.169s-.026-.105-.039-.159c-.018-.073-.036-.146-.052-.22-.009-.038-.018-.075-.026-.114-.013-.057-.026-.114-.04-.172s-.023-.1-.034-.158c-.016-.075-.032-.149-.047-.224s-.031-.149-.045-.224-.03-.151-.044-.227-.029-.152-.042-.228q-.062-.342-.116-.69c-.012-.077-.024-.155-.036-.232s-.023-.156-.034-.234c-.023-.163-.045-.329-.065-.494-.013-.11-.027-.219-.04-.33-.015-.138-.03-.278-.044-.417a.024.024,0,0,0,0-.008c-.014-.137-.026-.274-.038-.412-.009-.1-.016-.2-.024-.3-.012-.146-.021-.292-.031-.44,0-.056-.006-.112-.01-.168-.006-.1-.01-.2-.015-.306s-.009-.187-.012-.282c-.007-.152-.01-.305-.014-.458,0-.083,0-.165,0-.248,0-.165,0-.332,0-.5,0-.264,0-.525.01-.786,0-.085,0-.171.008-.257.009-.272.021-.542.037-.812.007-.122.015-.244.023-.365.007-.1.014-.207.023-.31.01-.139.023-.276.035-.415q.045-.47.1-.934a.155.155,0,0,1,0-.018q.029-.235.063-.469t.069-.465c.024-.154.049-.308.076-.461.016-.1.034-.19.051-.286s.033-.178.051-.267c.01-.056.021-.112.033-.166s.023-.118.036-.178c.015-.078.032-.156.049-.234q.048-.224.1-.445c.017-.073.035-.147.052-.22q.052-.219.109-.436l.056-.216c.02-.072.039-.143.059-.214s.039-.143.06-.214c.039-.141.081-.283.124-.422.085-.284.175-.563.27-.839.021-.064.043-.129.067-.192.094-.269.192-.536.3-.8.024-.066.05-.131.077-.2s.06-.148.09-.221c.018-.045.037-.09.056-.134.031-.074.062-.148.094-.221s.054-.126.083-.189c.05-.113.1-.225.153-.336s.1-.221.158-.331c.033-.068.067-.138.1-.206s.075-.149.114-.223c.059-.118.121-.235.184-.35l.1-.173c.063-.115.127-.227.193-.339l.1-.168c.033-.056.065-.11.1-.164.056-.092.113-.185.171-.275l0-.006q.065-.1.13-.2.218-.333.447-.648c.035-.049.07-.1.107-.145s.058-.079.088-.117.063-.084.1-.125c.017-.024.036-.048.055-.072l.123-.155c.114-.141.229-.28.346-.415.034-.04.068-.079.1-.117.072-.082.146-.163.22-.242q.082-.088.165-.173l.167-.168c.081-.081.163-.16.244-.238.031-.029.062-.059.093-.088l.093-.085.132-.117c.069-.061.139-.12.209-.179.05-.042.1-.084.153-.125l.154-.122.135-.1c.083-.062.167-.123.25-.182l.107-.075.145-.1c.05-.034.1-.066.152-.1q.241-.153.488-.289.37-.2.748-.367l.127-.054.127-.051.17-.064c.114-.042.229-.081.344-.117a.012.012,0,0,1,.008,0l.169-.051.17-.047c.055-.015.11-.029.166-.041l.1-.023c.066-.015.133-.029.2-.042l.2-.036.134-.021.134-.019.135-.016q.359-.04.723-.046h.105q.227,0,.45.014h0c.1.007.207.015.31.025s.2.024.308.04.19.03.285.047l.142.028.015,0,.138.031c.1.022.2.047.293.073l.145.041.145.044c.048.015.1.03.143.046l.18.063.178.067.173.069c.061.025.12.051.181.078l.139.063.139.066.14.069.138.072.137.075.136.077c.045.026.09.052.136.08l.135.083c.045.028.09.057.135.086l.166.109c.109.074.218.151.326.23.056.041.113.083.167.126.086.065.172.133.257.2l.128.106.127.108c.084.073.167.147.25.223l.124.115.122.117c.041.039.082.08.122.12l.121.122.12.124.119.127c.04.043.079.086.118.129s.079.087.117.132c.156.177.309.359.458.547.056.07.112.141.166.213s.11.144.164.217c.078.1.155.212.23.319l.048.069c.016.022.032.045.047.068.036.051.07.1.1.155l.1.144c.044.067.089.135.132.2.027.042.054.086.081.129s.055.089.082.133q.141.228.275.464l.113.2,0,.007a27.161,27.161,0,0,1,3.079,13.028A31.622,31.622,0,0,1,2711.345,1508.912Z" transform="translate(-2687.243 -1485.664)" fill="#1f1f1f"/>
                </g>
              </g>
            </g>
          </g>
          <g id="Group_7555" data-name="Group 7555" transform="translate(7.868 6.345)">
            <g id="Group_7554" data-name="Group 7554">
              <path id="Path_13713" data-name="Path 13713" d="M2757.714,1565.824a.347.347,0,0,1-.347-.347v-2.663a5.511,5.511,0,0,1-3.063-2.266.345.345,0,0,1-.035-.321l1.138-2.9a.348.348,0,0,1,.272-.216.366.366,0,0,1,.052,0,.348.348,0,0,1,.272.131c.87,1.094,1.566,1.582,2.259,1.582.545,0,1.1-.2,1.1-1.663,0-1.126-.764-1.764-1.731-2.571a6.622,6.622,0,0,1-2.955-5.623c0-2.825,1-4.891,2.69-5.6v-2.784a.347.347,0,0,1,.347-.347h1.732a.348.348,0,0,1,.348.347v2.723a4.947,4.947,0,0,1,2.587,2.425.346.346,0,0,1,.006.336l-1.306,2.453a.347.347,0,0,1-.289.184h-.018a.347.347,0,0,1-.288-.154c-.635-.946-1.1-1.315-1.645-1.315-.48,0-.97.181-.97,1.525,0,.98.711,1.54,1.612,2.249a6.6,6.6,0,0,1,3.074,5.849c0,2.934-1,5.021-2.763,5.78v2.834a.348.348,0,0,1-.348.347Z" transform="translate(-2753.898 -1539.892)" fill="#fff"/>
              <path id="Path_13714" data-name="Path 13714" d="M2760.409,1553.954h0a8.254,8.254,0,0,0-.073-.827,6.327,6.327,0,0,0-1.853-3.773c-.134-.136-.271-.264-.407-.386s-.288-.249-.429-.364-.293-.235-.434-.346c-.972-.765-1.479-1.2-1.479-1.976,0-1.177.375-1.177.623-1.177.346,0,.71.2,1.355,1.16a.7.7,0,0,0,.577.308h.036a.7.7,0,0,0,.578-.367l1.305-2.453a.692.692,0,0,0-.011-.673,5.457,5.457,0,0,0-2.541-2.492V1538.1a.7.7,0,0,0-.694-.695h-1.732a.694.694,0,0,0-.695.695v2.561c-1.694.837-2.69,2.965-2.69,5.82,0,3.318,1.708,4.744,3.08,5.889,1.026.857,1.606,1.386,1.606,2.3,0,1.315-.454,1.315-.754,1.315-.569,0-1.2-.461-1.987-1.449a.693.693,0,0,0-.543-.263.729.729,0,0,0-.1.008.693.693,0,0,0-.543.433l-1.139,2.9a.692.692,0,0,0,.07.642,5.932,5.932,0,0,0,3,2.332v2.4a.694.694,0,0,0,.695.695h1.732a.7.7,0,0,0,.694-.695v-2.613c1.7-.851,2.687-2.875,2.758-5.67,0-.109,0-.219,0-.33C2760.419,1554.235,2760.416,1554.093,2760.409,1553.954Zm-.685.426c0,2.783-.949,4.9-2.762,5.543v3.07h-1.732v-2.939a5.071,5.071,0,0,1-3.121-2.183h0l1.139-2.895.085.1c.056.068.111.135.166.2l.082.094c.055.063.11.122.164.18a6.022,6.022,0,0,0,.479.461c.053.044.1.087.158.127s.1.078.156.114.1.071.155.1l.078.045c.051.029.1.056.154.081a1.742,1.742,0,0,0,.232.1,1.85,1.85,0,0,0,.623.11,1.543,1.543,0,0,0,.58-.1,1.086,1.086,0,0,0,.3-.175c.017-.013.034-.028.05-.043s.016-.015.024-.022l.049-.05a1.064,1.064,0,0,0,.094-.118c.012-.017.024-.036.035-.054s.023-.037.034-.057.022-.039.032-.059.02-.04.029-.061a.351.351,0,0,0,.024-.054.45.45,0,0,0,.023-.059.1.1,0,0,0,.009-.022c.019-.055.037-.113.054-.172a2.613,2.613,0,0,0,.063-.3c0-.02.006-.041.009-.062a.011.011,0,0,0,0-.006c0-.026.007-.052.01-.079s0-.054.008-.081c.012-.138.018-.285.018-.439q0-.132-.011-.256a2.551,2.551,0,0,0-.071-.394s0,0,0,0,0,0,0,0a.281.281,0,0,0-.008-.031.2.2,0,0,0-.007-.023.26.26,0,0,0-.011-.036.015.015,0,0,0,0-.008.475.475,0,0,0-.015-.049.283.283,0,0,0-.011-.031.113.113,0,0,0-.009-.023.015.015,0,0,0,0-.009c-.011-.033-.025-.065-.039-.1s-.034-.08-.054-.119h0c-.631-1.312-2.357-2.015-3.46-3.633,0,0,0,0,0,0h0c-.027-.039-.053-.077-.079-.116l-.076-.121a5.227,5.227,0,0,1-.364-.711c-.014-.035-.029-.069-.042-.1q-.1-.248-.176-.522c-.021-.073-.041-.147-.059-.223s-.03-.13-.044-.2c0-.02-.008-.041-.012-.061-.011-.056-.021-.114-.031-.171,0-.028-.009-.055-.013-.083s-.009-.055-.013-.084q-.011-.075-.02-.153c-.007-.054-.012-.109-.017-.164s-.011-.112-.015-.168c0-.028,0-.055-.006-.083s0-.057,0-.087,0-.075,0-.114c0-.021,0-.043,0-.065,0-.04,0-.08,0-.12s0-.082,0-.123c0-.08,0-.159,0-.237,0-.035,0-.068,0-.1s0-.072,0-.108,0-.093.007-.14c0-.064.007-.128.011-.19s.012-.154.018-.229.013-.132.021-.2c0-.033.007-.066.012-.1.009-.069.017-.136.028-.2s.023-.155.038-.231.024-.136.037-.2c0-.013,0-.026.008-.039.029-.138.06-.272.1-.4.015-.058.031-.115.048-.171.008-.028.016-.056.025-.083.014-.046.028-.091.044-.135a5.514,5.514,0,0,1,.243-.617c.022-.049.045-.1.069-.143s.033-.065.05-.1.045-.084.068-.124c.014-.025.028-.05.042-.073.034-.056.067-.111.1-.164s.05-.076.076-.113.038-.053.057-.078.032-.044.05-.066l.054-.069c.028-.034.056-.067.085-.1.047-.055.1-.108.146-.159.019-.019.039-.039.058-.057a2.851,2.851,0,0,1,.249-.22l.059-.046.079-.058.1-.069c.034-.022.068-.044.1-.065a2.929,2.929,0,0,1,.594-.27V1538.1h1.732v2.982a4.466,4.466,0,0,1,2.634,2.339l-1.307,2.453c-.645-.962-1.191-1.469-1.932-1.469-.854,0-1.318.565-1.318,1.873,0,1.344,1.1,1.98,2.23,2.91.151.125.3.254.452.391s.318.3.471.467a5.475,5.475,0,0,1,1.258,2.229,6.583,6.583,0,0,1,.2.974,8.045,8.045,0,0,1,.066.829C2759.723,1554.179,2759.725,1554.28,2759.725,1554.38Z" transform="translate(-2751.414 -1537.409)" fill="#1f1f1f"/>
            </g>
          </g>
          <g id="Group_7559" data-name="Group 7559" transform="translate(8.563 7.04)">
            <g id="Group_7556" data-name="Group 7556" transform="translate(0.432)">
              <path id="Path_13715" data-name="Path 13715" d="M2761.587,1554.935a6.125,6.125,0,0,1-.69-3c0-2.692.913-4.586,2.42-5.252a.627.627,0,0,0,.27-.579v-1.775c0-.429.212-.776.473-.776h.968v-.476h-1.733v3.022c-1.667.551-2.69,2.51-2.69,5.356A5.9,5.9,0,0,0,2761.587,1554.935Z" transform="translate(-2760.604 -1543.081)" fill="#f0bb62"/>
            </g>
            <g id="Group_7558" data-name="Group 7558" transform="translate(0 15.486)">
              <g id="Group_7557" data-name="Group 7557">
                <path id="Path_13716" data-name="Path 13716" d="M2761.954,1669.384a2.413,2.413,0,0,1,.244,1.086c0,1.326-.444,2.008-1.449,2.008-.841,0-1.629-.578-2.531-1.71l-1.139,2.895.666-1.241c.3-.555.794-.693,1.185-.322a2.479,2.479,0,0,0,2.11.857,1.45,1.45,0,0,0,1.055-.779,2.577,2.577,0,0,0,.323-1.2A2.614,2.614,0,0,0,2761.954,1669.384Z" transform="translate(-2757.079 -1669.384)" fill="#f0bb62"/>
              </g>
            </g>
          </g>
        </g>
        <g id="Group_7562" data-name="Group 7562" transform="translate(13.514 16.936)">
          <g id="Group_7561" data-name="Group 7561">
            <path id="Path_13717" data-name="Path 13717" d="M2849.693,1685.211a9.445,9.445,0,0,1-1.218-.079,9.6,9.6,0,0,1-2.012-.493c-3.026-1.039-6.417-3.75-15.773-12.614-.08-.076-8.091-7.672-15.167-14.96-.73-.752-1.472-1.521-2.206-2.288a16.824,16.824,0,0,1-2.391-1.052,18.433,18.433,0,0,1-4.414-3.442c-.219-.218-.407-.406-.576-.563a7.045,7.045,0,0,1-1.929-2.437,5.081,5.081,0,0,1-.271-.59,2.565,2.565,0,0,1-.134-1.8,2.409,2.409,0,0,1,1.061-1.266,2.446,2.446,0,0,1-.294-.981,2.648,2.648,0,0,1,.884-2.11,2.678,2.678,0,0,1,1.056-.583,2.321,2.321,0,0,1,.053-1.44,2.5,2.5,0,0,1,1.693-1.473c.046-.015.092-.029.138-.041-.562-.505-.95-.906-1.326-1.294-.158-.163-.317-.327-.491-.5-.482-.483-.824-.788-1.219-1.142-.477-.426-1.017-.908-1.928-1.817a3.16,3.16,0,0,1-1.2-2.2,1.738,1.738,0,0,1,.725-1.489,1.412,1.412,0,0,1,.737-.193,2.52,2.52,0,0,1,.777.144,2.491,2.491,0,0,1,.614.3h0l.062.042c2.868,2.051,8.24,7.057,8.467,7.27,1.092,1.018,1.639,1.525,1.939,1.8.347.321.375.347.528.5a22.845,22.845,0,0,1,4.427,5.431,4.424,4.424,0,0,1,.6,1.912,2.3,2.3,0,0,0,.218.884,7.7,7.7,0,0,0,.681,1.185,10.746,10.746,0,0,0,1.583,1.708c5.068,4.406,17.124,13.276,17.245,13.365l.026.02c1.98,1.641,3.772,2.473,5.323,2.473a4.084,4.084,0,0,0,.968-.115c2.3-.562,3.565-3.129,4.683-5.394.157-.319.313-.633.467-.935a41.926,41.926,0,0,1,12.542-14.288.561.561,0,0,1,.5-.086,10.264,10.264,0,0,1,4.907,3.066c1.957,2.3,2.654,5.511,2.071,9.548-1.413,9.786-10.252,22.231-15.294,25.525A13.24,13.24,0,0,1,2849.693,1685.211Z" transform="translate(-2801.467 -1627.801)" fill="#fff"/>
            <path id="Path_13718" data-name="Path 13718" d="M2805.358,1633.258c-.093-.077-.194-.162-.3-.253l-.185-.158-.115-.1q-.071.364-.15.721a2.463,2.463,0,0,1,.348-.025h.01a2.515,2.515,0,0,1,.348.026,2.424,2.424,0,0,1,.433.1C2805.64,1633.485,2805.509,1633.381,2805.358,1633.258Zm0,0c-.093-.077-.194-.162-.3-.253l-.185-.158-.115-.1q-.071.364-.15.721a2.463,2.463,0,0,1,.348-.025h.01a2.515,2.515,0,0,1,.348.026,2.424,2.424,0,0,1,.433.1C2805.64,1633.485,2805.509,1633.381,2805.358,1633.258Zm0,0c-.093-.077-.194-.162-.3-.253l-.185-.158-.115-.1q-.071.364-.15.721a2.463,2.463,0,0,1,.348-.025h.01a2.515,2.515,0,0,1,.348.026,2.424,2.424,0,0,1,.433.1C2805.64,1633.485,2805.509,1633.381,2805.358,1633.258Zm61.1,10.014a10.818,10.818,0,0,0-5.168-3.238,1.118,1.118,0,0,0-1,.173,51.529,51.529,0,0,0-4.557,3.821h0a39.447,39.447,0,0,0-8.148,10.659c-.157.307-.316.63-.47.943l-.206.416s0,0,0,0a17.786,17.786,0,0,1-1.719,2.933,4.882,4.882,0,0,1-1.869,1.573h0a3.2,3.2,0,0,1-.519.176l-.014,0a3.382,3.382,0,0,1-.581.087c-.08.006-.16.009-.24.009-1.418,0-3.089-.789-4.967-2.344a.546.546,0,0,0-.051-.04c-.121-.09-12.169-8.956-17.208-13.337a10.163,10.163,0,0,1-1.5-1.61,7.193,7.193,0,0,1-.63-1.1,1.757,1.757,0,0,1-.168-.7,4.967,4.967,0,0,0-.659-2.123,23.605,23.605,0,0,0-4.523-5.56c-.161-.163-.2-.2-.546-.519-.3-.273-.846-.783-1.938-1.8h0c-.06-.056-.472-.44-1.1-1.013l-.318-.29c-.1-.092-.208-.19-.318-.289-.457-.415-.978-.883-1.533-1.376l-.535-.472-.335-.293-.34-.3c-1.429-1.241-2.928-2.488-4.044-3.287-.02-.014-.045-.033-.076-.053a3.019,3.019,0,0,0-.754-.365,3.052,3.052,0,0,0-.948-.172,1.965,1.965,0,0,0-1.025.273,1.883,1.883,0,0,0-.409.33,1.91,1.91,0,0,0-.212.275,2.035,2.035,0,0,0-.165.313,2.828,2.828,0,0,0-.211,1.047,3.665,3.665,0,0,0,1.365,2.6c.539.539.951.929,1.3,1.246.125.115.242.221.353.32l.3.272.04.036c.372.333.7.628,1.156,1.084.17.17.331.336.486.5.221.229.446.462.708.718a2.8,2.8,0,0,0-1.5,2.783,3.227,3.227,0,0,0-1.865,3.1,3.007,3.007,0,0,0,.157.747,2.826,2.826,0,0,0-.9,1.276,3.125,3.125,0,0,0,.14,2.183,5.7,5.7,0,0,0,.283.622c0,.011.009.021.012.032.045.114.1.226.152.337s.114.209.177.31a6.041,6.041,0,0,0,.64.853c.078.089.159.178.243.265s.163.171.247.255c.192.193.391.381.59.565.161.15.347.335.562.549a18.959,18.959,0,0,0,4.544,3.539,17.439,17.439,0,0,0,2.344,1.042c.7.732,1.413,1.469,2.116,2.194,3.7,3.814,7.633,7.683,10.279,10.256,1.5,1.457,2.75,2.663,3.538,3.417.432.415.773.74,1.007.962.144.137.26.249.364.337l0,.005c9.426,8.928,12.859,11.667,15.976,12.737a10.24,10.24,0,0,0,2.122.518,10.121,10.121,0,0,0,1.29.084,13.741,13.741,0,0,0,7.433-2.586c.269-.175.546-.374.831-.6q.216-.166.438-.351t.424-.363c.023-.02.045-.041.069-.06a36.811,36.811,0,0,0,4.463-4.906c.995-1.285,1.982-2.688,2.922-4.16,3.468-5.437,5.74-10.933,6.4-15.477C2869.266,1649.06,2868.525,1645.7,2866.46,1643.272Zm-6.67,27.137a39.938,39.938,0,0,1-5.634,6.538c-.027.025-.054.049-.081.072-.143.127-.285.247-.424.363s-.294.24-.437.35q-.367.283-.709.506a12.6,12.6,0,0,1-6.821,2.4,8.828,8.828,0,0,1-1.146-.074,9.17,9.17,0,0,1-1.9-.466c-2.9-1-6.206-3.621-15.57-12.491,0,0-8-7.579-15.15-14.943-.96-.988-1.752-1.813-2.3-2.383a16.3,16.3,0,0,1-2.437-1.06,20.864,20.864,0,0,1-4.874-3.922q-.214-.2-.418-.394c-.084-.083-.167-.165-.247-.248s-.166-.171-.244-.258a4.832,4.832,0,0,1-.758-1.048,2.833,2.833,0,0,1-.133-.308c-.008-.014-.014-.027-.021-.041-.059-.109-.114-.221-.165-.34-.026-.058-.05-.117-.073-.178a2.031,2.031,0,0,1-.128-1.427,2.094,2.094,0,0,1,1.224-1.171c.071-.029.127-.049.162-.061a2,2,0,0,1-.59-1.24,2.074,2.074,0,0,1,.7-1.65,2.2,2.2,0,0,1,1.335-.549c.055,0,.1,0,.131,0h.014a1.974,1.974,0,0,1-.221-1.689,2.02,2.02,0,0,1,1.343-1.138,2.294,2.294,0,0,1,.389-.091,2.463,2.463,0,0,1,.348-.025h.01a2.515,2.515,0,0,1,.348.026,2.424,2.424,0,0,1,.433.1c-.106-.084-.237-.189-.388-.312-.093-.077-.194-.162-.3-.253l-.185-.158-.115-.1c-.906-.793-1.349-1.3-2-1.953-.787-.789-1.22-1.124-2.028-1.877-.128-.118-.265-.248-.415-.392s-.3-.288-.469-.455l-.237-.235a2.648,2.648,0,0,1-1.035-1.794,1.585,1.585,0,0,1,.013-.2,1.54,1.54,0,0,1,.1-.4.933.933,0,0,1,.189-.3.749.749,0,0,1,.148-.118.859.859,0,0,1,.449-.114,2,2,0,0,1,.6.116,1.928,1.928,0,0,1,.474.23l.048.033c1.261.9,3.035,2.4,4.629,3.8.11.1.219.192.325.287l.325.288c.76.674,1.451,1.3,1.989,1.793l.31.283.306.281c.333.307.527.488.527.488,2.332,2.177,2.181,2.016,2.45,2.289a22.486,22.486,0,0,1,4.333,5.3c.794,1.487.318,1.734.8,2.768a8.3,8.3,0,0,0,.734,1.274h0a11.3,11.3,0,0,0,1.671,1.8c5.144,4.472,17.28,13.394,17.28,13.394,1.531,1.268,3.588,2.6,5.681,2.6a4.621,4.621,0,0,0,.762-.062c.113-.017.226-.04.34-.068.075-.018.149-.038.221-.061a4.265,4.265,0,0,0,.528-.2,4.875,4.875,0,0,0,1.022-.616c1.732-1.347,2.746-3.794,3.745-5.746a40.779,40.779,0,0,1,12.378-14.095,9.629,9.629,0,0,1,4.646,2.894C2870.787,1650.082,2865.636,1662.157,2859.79,1670.409Zm-54.432-37.152c-.093-.077-.194-.162-.3-.253l-.185-.158-.115-.1q-.071.364-.15.721a2.463,2.463,0,0,1,.348-.025h.01a2.515,2.515,0,0,1,.348.026,2.424,2.424,0,0,1,.433.1C2805.64,1633.485,2805.509,1633.381,2805.358,1633.258Z" transform="translate(-2797.457 -1623.791)" fill="#464149"/>
          </g>
        </g>
        <g id="Group_7565" data-name="Group 7565" transform="translate(126.366 63.278)">
          <g id="Group_7564" data-name="Group 7564">
            <path id="Path_13719" data-name="Path 13719" d="M3725.22,2039.294q-.727-7.21-1.507-16.351c-.017-.185-.032-.371-.047-.558q-.609-7.161-1.249-15.474a.56.56,0,0,1,.558-.6.538.538,0,0,1,.141.018l17.046,4.411a.56.56,0,0,1,.418.506c.678,10.513,1.128,19.993,1.406,28.051Z" transform="translate(-3721.854 -2005.748)" fill="#fff"/>
            <g id="Group_7563" data-name="Group 7563">
              <path id="Path_13720" data-name="Path 13720" d="M3737.473,2012.809q-.018-.315-.038-.631t-.038-.633q-.128-2.14-.27-4.343a1.12,1.12,0,0,0-.837-1.012l-8.523-2.207-8.523-2.206a1.12,1.12,0,0,0-1,.225,1.09,1.09,0,0,0-.135.135,1.115,1.115,0,0,0-.263.811q.5,6.535.988,12.363h0q.108,1.3.215,2.563.048.567.1,1.125c.016.188.033.373.049.559q.75,8.756,1.452,15.728h1.124c-.447-4.439-.935-9.675-1.465-15.867-.016-.186-.031-.371-.048-.559s-.031-.372-.047-.56c-.392-4.61-.807-9.736-1.247-15.441l17.046,4.412q.162,2.5.306,4.922.019.315.037.628t.036.626c.474,8.1.8,15.444,1.024,21.837h1.122C3738.307,2028.68,3737.964,2021.115,3737.473,2012.809Zm-17.168,6.612c-.016-.186-.031-.371-.048-.559s-.031-.372-.047-.56c-.185.028-.369.053-.555.077q.023.28.047.558l-.248.031-.247.029c-.021,0-.042,0-.062,0,.016.188.033.373.049.559q.75,8.756,1.452,15.728h1.124C3721.323,2030.849,3720.835,2025.613,3720.3,2019.421Z" transform="translate(-3717.843 -2001.742)" fill="#464149"/>
            </g>
          </g>
        </g>
        <g id="Group_7568" data-name="Group 7568" transform="translate(57.867 26.93)">
          <g id="Group_7567" data-name="Group 7567">
            <path id="Path_13721" data-name="Path 13721" d="M3183.352,1779.161a.561.561,0,0,1-.559-.527c-.226-3.8-.423-7.224-.586-10.178-.1-1.849-.152-2.774-.175-3.192-.141-2.662-.189-4.032-.216-4.768a4.4,4.4,0,0,0-.093-1.119c-.174-.709-.39-1.359-.6-1.987a15.487,15.487,0,0,1-.972-4.634q-.01-.263-.011-.528-.619.891-1.273,1.75c-.306.4-.623.8-.941,1.194a.559.559,0,0,1-.417.206h-.018a.56.56,0,0,1-.411-.179,77.122,77.122,0,0,1-13.273-19.715.559.559,0,0,1,.042-.549c4.592-6.854,12.78-18.674,16.019-20.823.273-.181.533-.339.544-.346a18.537,18.537,0,0,1,7.195-2.351l.321-.053c2.4-.4,4.957-.9,7.612-1.489a.555.555,0,0,1,.121-.013.559.559,0,0,1,.55.452,10,10,0,0,0,3.656,6.026,9.606,9.606,0,0,0,3.813,1.723,9.245,9.245,0,0,0,1.858.189,13.5,13.5,0,0,0,5.972-1.693,18.042,18.042,0,0,0,7.116-6.385.559.559,0,0,1,.469-.254.539.539,0,0,1,.083.006c3.121.472,6.282.968,9.394,1.475q1.239.2,2.473.406a.6.6,0,0,1,.069.016,22.653,22.653,0,0,1,6.58,3.177c4.926,3.472,7.349,8.318,9.071,12.6a75.892,75.892,0,0,1,5.068,23.309q.16,2.184.308,4.3a.56.56,0,0,1-.263.515c-6.808,4.222-12.788,6.5-18.823,7.184a.558.558,0,0,1-.507-.217c-.536,4.049-.73,5.187-.739,5.237-.482,2.654-.943,4.639-1.118,5.369-.459,1.907-.962,3.76-1.5,5.505a.56.56,0,0,1-.535.4Z" transform="translate(-3163.196 -1709.301)" fill="#f0bb62"/>
            <g id="Group_7566" data-name="Group 7566">
              <path id="Path_13722" data-name="Path 13722" d="M3229.5,1758.28c-.169.022-.34.042-.51.061-.016-.186-.032-.372-.048-.556l-.047-.01c-.278-.058-.539-.116-.772-.177-.643,4.917-.869,6.223-.869,6.223-.512,2.821-1,4.865-1.111,5.334-.5,2.075-1.011,3.915-1.488,5.473h-2.373q.113.278.221.56h.6s0,0,0,0h.6q.106.277.212.559h.736a1.119,1.119,0,0,0,1.071-.792c.538-1.755,1.045-3.618,1.507-5.539.177-.734.641-2.73,1.124-5.4a.033.033,0,0,1,0-.009c.008-.047.182-1.063.648-4.552h.034c-.017-.186-.033-.371-.05-.559a.61.61,0,0,0,.063,0l.247-.029.247-.031Q3229.52,1758.56,3229.5,1758.28Zm19.2-7.121c-.1-1.449-.2-2.9-.308-4.3a76.4,76.4,0,0,0-5.108-23.477c-1.54-3.833-3.637-8.113-7.552-11.506q-.284-.247-.582-.487c-.193-.157-.391-.312-.594-.463-.176-.133-.356-.265-.54-.394a23.215,23.215,0,0,0-6.743-3.256,1.2,1.2,0,0,0-.138-.033l-2.475-.406c-3.109-.506-6.272-1-9.4-1.476a1.123,1.123,0,0,0-1.106.5c-.046.071-.093.142-.143.215a17.413,17.413,0,0,1-6.749,5.972,12.84,12.84,0,0,1-5.727,1.636,8.644,8.644,0,0,1-1.745-.178,9.013,9.013,0,0,1-3.586-1.62,9.442,9.442,0,0,1-3.447-5.688,1.065,1.065,0,0,0-.086-.261,1.123,1.123,0,0,0-1.014-.643,1.092,1.092,0,0,0-.242.027c-2.4.533-4.718.993-6.908,1.369l-.557.094-.116.019-.321.053-.117.019a18.777,18.777,0,0,0-7.266,2.4c-.146.081-.323.2-.575.365-3.153,2.093-10.536,12.563-16.174,20.979a1.117,1.117,0,0,0-.085,1.1q.143.306.29.612c.086.18.172.359.261.539s.172.352.261.528a77.478,77.478,0,0,0,10.486,15.848q.181.214.365.426c.123.141.244.281.368.422q.66.751,1.338,1.484a1.122,1.122,0,0,0,.822.359h.037a1.118,1.118,0,0,0,.833-.413c.322-.4.642-.8.951-1.208q.182-.238.361-.48a17.472,17.472,0,0,0,.919,3.729c.214.646.417,1.256.587,1.944a4.109,4.109,0,0,1,.078,1.005c.026.739.075,2.111.216,4.778.022.415.072,1.329.173,3.154l0,.039c.163,2.954.36,6.379.586,10.181a1.122,1.122,0,0,0,1.117,1.053h1.639l21.015.016,20.037.016h2.619a1.119,1.119,0,0,0,1.071-.792c.538-1.755,1.045-3.618,1.507-5.539.177-.734.641-2.73,1.124-5.4a.033.033,0,0,1,0-.009c.008-.047.182-1.063.648-4.552h.034l.076-.006.48-.057c.185-.023.37-.048.555-.075a44.341,44.341,0,0,0,16.083-5.971q.271-.157.544-.318t.541-.323q.424-.254.853-.521A1.118,1.118,0,0,0,3248.695,1751.159Zm-19.8,6.617c-.278-.058-.539-.116-.772-.177-.643,4.917-.869,6.223-.869,6.223-.512,2.821-1,4.865-1.111,5.334-.5,2.075-1.011,3.915-1.488,5.473h-2.373l-41.033-.031h-1.9c-.28-4.7-.466-7.987-.585-10.176-.1-1.849-.153-2.773-.175-3.19-.3-5.655-.181-5.4-.324-5.991-.547-2.227-1.445-3.731-1.555-6.509a14.049,14.049,0,0,1,.137-2.588q-.248.392-.512.793c-.582.884-1.219,1.786-1.914,2.7q-.446.584-.892,1.134l-.037.047h0q-.37-.4-.742-.813-.25-.279-.5-.564l-.053-.059-.368-.423c-.121-.139-.242-.281-.365-.424q-.5-.583-1-1.2-.162-.2-.324-.4c-.109-.134-.216-.268-.325-.4-.055-.067-.109-.137-.163-.2-.164-.206-.326-.414-.49-.625s-.348-.452-.523-.683q-.393-.519-.787-1.057t-.787-1.1q-.261-.372-.523-.753t-.522-.771q-.263-.39-.52-.788c-.042-.066-.086-.134-.13-.2l-.13-.2c-.127-.2-.251-.393-.374-.59q-.277-.441-.544-.877-.177-.29-.351-.58-.258-.434-.509-.864-.166-.286-.328-.569l-.2-.359c-.077-.137-.154-.275-.229-.412-.015-.025-.029-.051-.044-.077-.07-.127-.139-.253-.208-.38-.083-.15-.164-.3-.244-.45l-.151-.283c-.024-.044-.048-.089-.071-.135l-.218-.413q-.146-.279-.287-.555c-.089-.175-.178-.349-.264-.523l-.006-.011c-.084-.168-.167-.337-.249-.5-.042-.085-.083-.169-.124-.253l-.062-.126c-.021-.042-.041-.084-.06-.126l-.021-.042q-.189-.392-.369-.778l.345-.515.2-.3q.3-.442.636-.941c.036-.054.072-.106.109-.161.291-.43.6-.889.931-1.369l.249-.364c.041-.061.084-.123.127-.186l.1-.148.417-.608.256-.37.03-.044q.089-.131.182-.262c1.061-1.532,2.226-3.19,3.413-4.834l.293-.4c.1-.135.2-.269.293-.4.783-1.074,1.57-2.133,2.337-3.137.116-.152.232-.3.348-.453.143-.186.285-.369.428-.551s.282-.361.422-.537l.35-.44q.343-.427.674-.828l.189-.228c.192-.231.382-.455.568-.67.006-.008.012-.015.019-.023q.177-.2.348-.4.286-.323.556-.617l.177-.19c.091-.1.178-.188.266-.277.06-.063.119-.123.178-.182.037-.036.072-.071.107-.107l.093-.09c.031-.03.061-.06.091-.088s.06-.058.09-.086.06-.057.088-.083l.087-.08c.115-.106.226-.2.333-.293l.08-.065c.027-.023.053-.044.079-.063l.076-.06.075-.057q.112-.083.216-.153l.05-.034c.218-.141.418-.266.466-.294l.01-.007q.375-.228.745-.423c.082-.043.164-.086.246-.127s.162-.082.243-.121l.242-.115c.161-.074.321-.144.481-.211.318-.133.633-.25.945-.357.156-.053.311-.1.465-.149l.139-.041.14-.04.116-.034.123-.033c.07-.019.141-.039.212-.056s.14-.037.211-.053c.16-.04.318-.076.476-.111.2-.046.407-.088.608-.126.073-.016.146-.029.218-.042.219-.041.434-.079.648-.115.143-.025.286-.049.428-.072l.107-.017.523-.087.029,0,.553-.092q.7-.12,1.536-.273.6-.109,1.259-.237l.368-.071q.5-.1,1.025-.205l.54-.11.276-.058.281-.059.237-.05.337-.072q.583-.125,1.2-.263h0c.044.226.121.578.25,1.013v0a10.453,10.453,0,0,0,3.615,5.346,10.111,10.111,0,0,0,4.039,1.826,9.733,9.733,0,0,0,1.971.2,13.969,13.969,0,0,0,6.218-1.75,18.549,18.549,0,0,0,7.339-6.582h0q4.669.707,9.387,1.474,1.238.2,2.471.406a22.13,22.13,0,0,1,6.419,3.1q.652.461,1.249.952c.188.155.372.312.553.472s.365.328.541.494a28.444,28.444,0,0,1,6.531,10.433,75.659,75.659,0,0,1,5.03,23.141q.16,2.183.308,4.295l-.338.208c-.18.111-.36.22-.541.328s-.361.216-.542.323a44.492,44.492,0,0,1-16.105,6.106c-.185.028-.369.053-.555.077-.169.022-.34.042-.51.061-.016-.186-.032-.372-.048-.556Z" transform="translate(-3159.187 -1705.294)" fill="#464149"/>
            </g>
          </g>
        </g>
        <g id="Group_7570" data-name="Group 7570" transform="translate(58.987 28.049)">
          <g id="Group_7569" data-name="Group 7569">
            <path id="Path_13723" data-name="Path 13723" d="M3199.925,1715.442c-3,.656-5.335,1.078-7.015,1.357a18.636,18.636,0,0,0-7.317,2.33s-.26.157-.525.334c-2.8,1.86-9.582,11.44-13.689,17.454a6.572,6.572,0,0,0-.379,6.8c.912,1.71,1.947,3.493,3.121,5.321a76.233,76.233,0,0,0,7.42,9.738l-.038.048a76.661,76.661,0,0,1-13.177-19.572c3.258-4.862,12.471-18.418,15.863-20.669.267-.176.526-.333.526-.333a18.626,18.626,0,0,1,7.316-2.331c1.8-.3,4.346-.76,7.643-1.494Z" transform="translate(-3168.325 -1714.424)" fill="#fff"/>
          </g>
        </g>
        <g id="Group_7571" data-name="Group 7571" transform="translate(126.012 62.531)">
          <path id="Path_13724" data-name="Path 13724" d="M3716.133,2012.965l-.046,0a.519.519,0,0,1-.471-.562,63.429,63.429,0,0,0-.654-16.145.519.519,0,0,1,1.022-.173,64.512,64.512,0,0,1,.664,16.409A.518.518,0,0,1,3716.133,2012.965Z" transform="translate(-3714.955 -1995.652)" fill="#464149"/>
        </g>
        <g id="Group_7572" data-name="Group 7572" transform="translate(74.293 62.531)">
          <path id="Path_13725" data-name="Path 13725" d="M3293.672,2003.674a.472.472,0,0,1-.066,0,.518.518,0,0,1-.449-.579c.3-2.343.68-4.706,1.14-7.022a.518.518,0,0,1,1.017.2c-.456,2.293-.836,4.631-1.129,6.95A.519.519,0,0,1,3293.672,2003.674Z" transform="translate(-3293.152 -1995.651)" fill="#464149"/>
        </g>
        <g id="Group_7573" data-name="Group 7573" transform="translate(16.551 32.229)">
          <path id="Path_13726" data-name="Path 13726" d="M2825.846,1752.66a.517.517,0,0,1-.4-.184c-.162-.193-.328-.384-.494-.57a25.772,25.772,0,0,0-2.545-2.479.518.518,0,0,1,.671-.791,26.772,26.772,0,0,1,2.648,2.579c.173.193.346.393.514.593a.518.518,0,0,1-.4.852Z" transform="translate(-2822.226 -1748.512)" fill="#464149"/>
        </g>
        <g id="Group_7574" data-name="Group 7574" transform="translate(18.203 28.773)">
          <path id="Path_13727" data-name="Path 13727" d="M2839.429,1724.407a.517.517,0,0,1-.379-.165l-.143-.153s-.182-.193-.366-.382a35.553,35.553,0,0,0-2.651-2.467.518.518,0,0,1,.667-.794,36.7,36.7,0,0,1,2.728,2.539c.19.2.376.394.376.394l.147.158a.518.518,0,0,1-.379.871Z" transform="translate(-2835.704 -1720.324)" fill="#464149"/>
        </g>
        <g id="Group_7575" data-name="Group 7575" transform="translate(19.185 29.285)">
          <path id="Path_13728" data-name="Path 13728" d="M2846.006,1735.385a2.7,2.7,0,0,1-1.354-.387,2.293,2.293,0,0,1-.664-.648c-.444-.689-.358-1.779.286-3.645.587-1.7.942-2.728,1.924-3.622a7.012,7.012,0,0,1,1.578-1.05,11.408,11.408,0,0,1,2.312-.821c.877-.248,1.777-.482,2.677-.7a.518.518,0,1,1,.24,1.008c-.886.211-1.772.442-2.635.686a10.21,10.21,0,0,0-2.119.744,6.006,6.006,0,0,0-1.356.9c-.757.689-1.033,1.432-1.642,3.194-.624,1.806-.559,2.49-.394,2.745a1.277,1.277,0,0,0,.338.328l.011.007a1.637,1.637,0,0,0,.918.219c.483-.048.942-1.116,1.311-1.974.5-1.173.98-2.28,1.937-2.312a1.3,1.3,0,0,1,.893.373,5.741,5.741,0,0,0,1.187.725,8.488,8.488,0,0,0,1.1.428.518.518,0,0,1-.307.99,9.515,9.515,0,0,1-1.237-.48,6.741,6.741,0,0,1-1.379-.842,1.64,1.64,0,0,0-.226-.159c-.3.011-.75,1.06-1.02,1.687-.526,1.223-1.069,2.488-2.16,2.6C2846.154,1735.382,2846.079,1735.385,2846.006,1735.385Z" transform="translate(-2843.711 -1724.501)" fill="#464149"/>
        </g>
      </g>
    </g>
    <g id="group-2" data-name="group" transform="translate(24.505 112.46)">
      <g id="Group_7579" data-name="Group 7579" transform="translate(10.362 0)">
        <path id="Path_13729" data-name="Path 13729" d="M2808.918,1938.683s-17.26,15.157-4.214,24.594C2804.7,1963.278,2822.154,1959.67,2808.918,1938.683Z" transform="translate(-2797.506 -1937.083)" fill="#f0bb62"/>
        <g id="Group_7576" data-name="Group 7576" transform="translate(4.866 24.606)">
          <path id="Path_13730" data-name="Path 13730" d="M2823.334,2145.184a.518.518,0,0,1-.5-.374c-.029-.1-2.832-9.872-2.15-18.021a.518.518,0,1,1,1.033.086c-.666,7.955,2.084,17.549,2.112,17.645a.518.518,0,0,1-.5.663Z" transform="translate(-2820.58 -2126.314)" fill="#464149"/>
        </g>
        <g id="Group_7577" data-name="Group 7577">
          <path id="Path_13731" data-name="Path 13731" d="M2786.289,1951.265a.517.517,0,0,1-.3-.1c-3.213-2.324-4.922-5.2-5.08-8.534-.165-3.5,1.348-7.41,4.5-11.617a37.7,37.7,0,0,1,4.757-5.252.519.519,0,0,1,.781.113c4.763,7.553,6.162,13.774,4.156,18.49a11.521,11.521,0,0,1-5.245,5.543,13.8,13.8,0,0,1-3.459,1.345A.5.5,0,0,1,2786.289,1951.265Zm4.105-24.307a38.581,38.581,0,0,0-4.173,4.695c-2.059,2.753-4.473,6.884-4.28,10.932.14,2.941,1.64,5.5,4.459,7.6,1.076-.284,5.855-1.774,7.747-6.234C2795.961,1939.674,2794.7,1933.959,2790.394,1926.958Z" transform="translate(-2780.893 -1925.634)" fill="#464149"/>
        </g>
        <g id="Group_7578" data-name="Group 7578" transform="translate(4.971 8.557)">
          <path id="Path_13732" data-name="Path 13732" d="M2821.958,2012.507h-.024a.518.518,0,0,1-.494-.541c.019-.417.491-10.276,3.072-16.232a.518.518,0,1,1,.951.412c-2.507,5.782-2.983,15.766-2.988,15.867A.518.518,0,0,1,2821.958,2012.507Z" transform="translate(-2821.439 -1995.421)" fill="#464149"/>
        </g>
      </g>
      <g id="Group_7583" data-name="Group 7583" transform="translate(0 15.426)">
        <g id="Group_7580" data-name="Group 7580" transform="translate(2.826 14.545)">
          <path id="Path_13733" data-name="Path 13733" d="M2719.946,2183.508a.519.519,0,0,1-.479-.716,30.683,30.683,0,0,0,1.662-12.182.518.518,0,1,1,1.035-.06,31.12,31.12,0,0,1-1.739,12.636A.518.518,0,0,1,2719.946,2183.508Z" transform="translate(-2719.427 -2170.062)" fill="#464149"/>
        </g>
        <path id="Path_13734" data-name="Path 13734" d="M2704.827,2055.669s10.787,10.44,1.175,15.421c0,0-8.411-1.052-1.469-15.155l.294-.266Z" transform="translate(-2701.125 -2055.151)" fill="#fff"/>
        <g id="Group_7581" data-name="Group 7581">
          <path id="Path_13735" data-name="Path 13735" d="M2701.468,2067.958a.514.514,0,0,1-.114-.013,6.71,6.71,0,0,1-4.379-3.736c-1.322-3.059-.426-7.269,2.664-12.512a.518.518,0,0,1,.818-.1c.238.244,5.805,6.037,5.055,11.251a6.87,6.87,0,0,1-3.789,5.041A.518.518,0,0,1,2701.468,2067.958Zm-1.289-15.123a21.31,21.31,0,0,0-2.6,6.633,7.6,7.6,0,0,0,.349,4.33,5.7,5.7,0,0,0,3.471,3.084,5.807,5.807,0,0,0,3.088-4.178C2705.044,2058.826,2701.483,2054.332,2700.178,2052.835Z" transform="translate(-2696.382 -2051.442)" fill="#464149"/>
        </g>
        <g id="Group_7582" data-name="Group 7582" transform="translate(4.245 6.88)">
          <path id="Path_13736" data-name="Path 13736" d="M2731.845,2117.188a.554.554,0,0,1-.066,0,.519.519,0,0,1-.449-.58,28.871,28.871,0,0,0-.313-8.423.518.518,0,1,1,1.013-.22,29.442,29.442,0,0,1,.33,8.775A.519.519,0,0,1,2731.845,2117.188Z" transform="translate(-2731.004 -2107.552)" fill="#464149"/>
        </g>
      </g>
      <g id="Group_7587" data-name="Group 7587" transform="translate(26.214 11.469)">
        <g id="Group_7584" data-name="Group 7584" transform="translate(4.106 16.68)">
          <path id="Path_13737" data-name="Path 13737" d="M2946.2,2170.473a.519.519,0,0,1-.479-.321,35.6,35.6,0,0,1-1.988-14.458.518.518,0,1,1,1.035.06,35.249,35.249,0,0,0,1.912,14,.519.519,0,0,1-.479.716Z" transform="translate(-2943.667 -2155.205)" fill="#464149"/>
        </g>
        <path id="Path_13738" data-name="Path 13738" d="M2918.609,2023.4s-12.37,11.973-1.348,17.685c0,0,9.646-1.206,1.685-17.38l-.337-.3Z" transform="translate(-2912.381 -2022.879)" fill="#fff"/>
        <g id="Group_7585" data-name="Group 7585">
          <path id="Path_13739" data-name="Path 13739" d="M2914.819,2037.959a.519.519,0,0,1-.255-.067,7.808,7.808,0,0,1-4.308-5.726c-.361-2.514.508-5.446,2.583-8.713a28.041,28.041,0,0,1,3.194-4.126.519.519,0,0,1,.818.1c3.531,5.99,4.557,10.795,3.051,14.28a7.614,7.614,0,0,1-4.969,4.24A.534.534,0,0,1,2914.819,2037.959Zm1.492-17.4c-1.44,1.638-5.684,6.909-5.028,11.458a6.742,6.742,0,0,0,3.606,4.862,6.662,6.662,0,0,0,4.068-3.6,8.813,8.813,0,0,0,.4-5.007A24.7,24.7,0,0,0,2916.311,2020.562Z" transform="translate(-2910.177 -2019.171)" fill="#464149"/>
        </g>
        <g id="Group_7586" data-name="Group 7586" transform="translate(3.914 7.89)">
          <path id="Path_13740" data-name="Path 13740" d="M2942.824,2094.417a.519.519,0,0,1-.513-.453,33.648,33.648,0,0,1,.377-10.037.518.518,0,0,1,1.013.22,33.155,33.155,0,0,0-.361,9.686.519.519,0,0,1-.449.58A.609.609,0,0,1,2942.824,2094.417Z" transform="translate(-2942.096 -2083.519)" fill="#464149"/>
        </g>
      </g>
    </g>
    <g id="group-3" data-name="group" transform="translate(33.806)">
      <rect id="Rectangle_17523" data-name="Rectangle 17523" width="54.432" height="39.198" rx="19.599" transform="translate(143.834 34.613)" fill="#fff"/>
      <g id="Group_7592" data-name="Group 7592" transform="translate(146.762 35.934)">
        <path id="Path_13741" data-name="Path 13741" d="M4113.417,1328.009a1.665,1.665,0,1,1-1.666-1.665A1.665,1.665,0,0,1,4113.417,1328.009Z" transform="translate(-4092.81 -1323.3)" fill="#fff"/>
        <g id="Group_7591" data-name="Group 7591">
          <path id="Path_13742" data-name="Path 13742" d="M4023.618,1305.26v5.672h-54.432v-5.585a3.834,3.834,0,0,1,3.834-3.834h46.849A3.748,3.748,0,0,1,4023.618,1305.26Z" transform="translate(-3969.186 -1301.512)" fill="#f0bb62"/>
          <g id="Group_7588" data-name="Group 7588" transform="translate(5.23 2.526)">
            <path id="Path_13743" data-name="Path 13743" d="M4014.023,1326.483a2.183,2.183,0,1,1,2.183-2.183A2.186,2.186,0,0,1,4014.023,1326.483Zm0-3.33a1.147,1.147,0,1,0,1.147,1.147A1.148,1.148,0,0,0,4014.023,1323.153Z" transform="translate(-4011.84 -1322.116)" fill="#464149"/>
          </g>
          <g id="Group_7589" data-name="Group 7589" transform="translate(10.994 2.526)">
            <circle id="Ellipse_262" data-name="Ellipse 262" cx="1.665" cy="1.665" r="1.665" transform="translate(0.18 3.421) rotate(-76.718)" fill="#f0bb62"/>
            <path id="Path_13744" data-name="Path 13744" d="M4061.031,1326.483a2.183,2.183,0,1,1,2.183-2.183A2.186,2.186,0,0,1,4061.031,1326.483Zm0-3.33a1.147,1.147,0,1,0,1.147,1.147A1.148,1.148,0,0,0,4061.031,1323.153Z" transform="translate(-4058.848 -1322.116)" fill="#464149"/>
          </g>
          <g id="Group_7590" data-name="Group 7590" transform="translate(16.758 2.526)">
            <path id="Path_13745" data-name="Path 13745" d="M4113.417,1328.009a1.665,1.665,0,1,1-1.666-1.665A1.665,1.665,0,0,1,4113.417,1328.009Z" transform="translate(-4109.567 -1325.826)" fill="#fff"/>
            <path id="Path_13746" data-name="Path 13746" d="M4108.041,1326.483a2.183,2.183,0,1,1,2.184-2.183A2.186,2.186,0,0,1,4108.041,1326.483Zm0-3.33a1.147,1.147,0,1,0,1.147,1.147A1.148,1.148,0,0,0,4108.041,1323.153Z" transform="translate(-4105.858 -1322.116)" fill="#464149"/>
          </g>
        </g>
      </g>
      <g id="Group_7593" data-name="Group 7593" transform="translate(143.315 34.095)">
        <path id="Path_13747" data-name="Path 13747" d="M3992.063,1326.746h-46.5a4.487,4.487,0,0,1-4.482-4.482v-31.271a4.487,4.487,0,0,1,4.482-4.482h46.5a4.487,4.487,0,0,1,4.482,4.482v31.271A4.487,4.487,0,0,1,3992.063,1326.746Zm-46.5-39.2a3.449,3.449,0,0,0-3.445,3.445v31.271a3.449,3.449,0,0,0,3.445,3.445h46.5a3.449,3.449,0,0,0,3.445-3.445v-31.271a3.449,3.449,0,0,0-3.445-3.445Z" transform="translate(-3941.077 -1286.511)" fill="#464149"/>
      </g>
      <g id="Group_7594" data-name="Group 7594" transform="translate(143.315 43.198)">
        <path id="Path_13748" data-name="Path 13748" d="M3996.027,1361.792H3941.6a.518.518,0,1,1,0-1.037h54.432a.518.518,0,1,1,0,1.037Z" transform="translate(-3941.077 -1360.755)" fill="#464149"/>
      </g>
      <g id="Group_7595" data-name="Group 7595" transform="translate(147.952 48.668)">
        <path id="Path_13749" data-name="Path 13749" d="M3989.212,1426.011a10.322,10.322,0,1,1,10.323-10.322A10.334,10.334,0,0,1,3989.212,1426.011Zm0-19.608a9.286,9.286,0,1,0,9.286,9.286A9.3,9.3,0,0,0,3989.212,1406.4Z" transform="translate(-3978.89 -1405.366)" fill="#464149"/>
      </g>
      <g id="Group_7596" data-name="Group 7596" transform="translate(153.445 52.96)">
        <path id="Path_13750" data-name="Path 13750" d="M4028.52,1452.256a.518.518,0,0,1-.366-.152l-4.31-4.306a.518.518,0,1,1,.732-.733l3.736,3.732,3.684-10.089a.518.518,0,1,1,.973.356l-3.962,10.852a.518.518,0,0,1-.375.328A.512.512,0,0,1,4028.52,1452.256Z" transform="translate(-4023.691 -1440.368)" fill="#464149"/>
      </g>
      <g id="Group_7597" data-name="Group 7597" transform="translate(172.828 52.96)">
        <path id="Path_13751" data-name="Path 13751" d="M4200.893,1441.406h-18.6a.518.518,0,0,1,0-1.036h18.6a.518.518,0,0,1,0,1.036Z" transform="translate(-4181.771 -1440.369)" fill="#464149"/>
      </g>
      <g id="Group_7598" data-name="Group 7598" transform="translate(172.828 58.386)">
        <path id="Path_13752" data-name="Path 13752" d="M4200.893,1485.658h-18.6a.518.518,0,0,1,0-1.037h18.6a.518.518,0,0,1,0,1.037Z" transform="translate(-4181.771 -1484.621)" fill="#464149"/>
      </g>
      <g id="Group_7599" data-name="Group 7599" transform="translate(172.828 63.812)">
        <path id="Path_13753" data-name="Path 13753" d="M4200.893,1529.911h-18.6a.518.518,0,0,1,0-1.037h18.6a.518.518,0,0,1,0,1.037Z" transform="translate(-4181.771 -1528.874)" fill="#464149"/>
      </g>
      <g id="Group_7615" data-name="Group 7615" transform="translate(0)">
        <path id="Path_13754" data-name="Path 13754" d="M2846.3,1018.46v25.272a5.792,5.792,0,0,1-5.792,5.791h-58.247c-3.2,0-5.791-2.593-5.791-6.48v-25.272c0-2.51,2.593-5.1,5.791-5.1h58.247A5.792,5.792,0,0,1,2846.3,1018.46Z" transform="translate(-2775.952 -1012.151)" fill="#fff"/>
        <g id="Group_7602" data-name="Group 7602" transform="translate(4.739 1.207)">
          <path id="Path_13755" data-name="Path 13755" d="M2880.718,1024.079v2.3h-69.829v-2.986c0-2.51,2.593-5.1,5.791-5.1h58.247A5.792,5.792,0,0,1,2880.718,1024.079Z" transform="translate(-2810.888 -1018.288)" fill="#f0bb62"/>
          <g id="Group_7600" data-name="Group 7600" transform="translate(2.705 2.432)">
            <path id="Path_13756" data-name="Path 13756" d="M2835.133,1042.486a2.183,2.183,0,1,1,2.183-2.183A2.186,2.186,0,0,1,2835.133,1042.486Zm0-3.33a1.147,1.147,0,1,0,1.147,1.147A1.148,1.148,0,0,0,2835.133,1039.156Z" transform="translate(-2832.949 -1038.119)" fill="#464149"/>
          </g>
          <g id="Group_7601" data-name="Group 7601" transform="translate(8.469 2.432)">
            <circle id="Ellipse_263" data-name="Ellipse 263" cx="1.665" cy="1.665" r="1.665" transform="translate(0.18 3.421) rotate(-76.718)" fill="#f0bb62"/>
            <path id="Path_13757" data-name="Path 13757" d="M2882.143,1042.486a2.183,2.183,0,1,1,2.184-2.183A2.186,2.186,0,0,1,2882.143,1042.486Zm0-3.33a1.147,1.147,0,1,0,1.147,1.147A1.148,1.148,0,0,0,2882.143,1039.156Z" transform="translate(-2879.959 -1038.119)" fill="#464149"/>
          </g>
          <circle id="Ellipse_264" data-name="Ellipse 264" cx="1.665" cy="1.665" r="1.665" transform="translate(14.062 4.615) rotate(-45)" fill="#fff"/>
        </g>
        <g id="Group_7614" data-name="Group 7614">
          <g id="Group_7603" data-name="Group 7603" transform="translate(0)">
            <path id="Path_13758" data-name="Path 13758" d="M2816.951,1046.333h-38.4a6.026,6.026,0,0,1-4.476-1.949,7.374,7.374,0,0,1-1.834-5.05v-25.272a5.383,5.383,0,0,1,1.864-3.874,6.567,6.567,0,0,1,4.445-1.746H2836.8a6.316,6.316,0,0,1,6.309,6.31v25.272a6.3,6.3,0,0,1-4.311,5.986.518.518,0,0,1-.328-.983,5.266,5.266,0,0,0,3.6-5v-25.272a5.279,5.279,0,0,0-5.272-5.273h-58.247a5.533,5.533,0,0,0-3.745,1.473,4.35,4.35,0,0,0-1.528,3.11v25.272c0,3.454,2.218,5.962,5.273,5.962h38.4a.518.518,0,0,1,0,1.037Z" transform="translate(-2772.242 -1008.442)" fill="#464149"/>
          </g>
          <g id="Group_7604" data-name="Group 7604" transform="translate(0 8.778)">
            <path id="Path_13759" data-name="Path 13759" d="M2842.588,1081.067h-69.829a.518.518,0,0,1,0-1.037h69.829a.518.518,0,0,1,0,1.037Z" transform="translate(-2772.24 -1080.03)" fill="#464149"/>
          </g>
          <g id="Group_7605" data-name="Group 7605" transform="translate(18.972 3.639)">
            <path id="Path_13760" data-name="Path 13760" d="M2929.153,1042.486a2.183,2.183,0,1,1,2.183-2.183A2.186,2.186,0,0,1,2929.153,1042.486Zm0-3.33a1.147,1.147,0,1,0,1.146,1.147A1.148,1.148,0,0,0,2929.153,1039.156Z" transform="translate(-2926.969 -1038.119)" fill="#464149"/>
          </g>
          <path id="Path_13761" data-name="Path 13761" d="M3200.416,1282.154l4.273-.376,2.371,11.175,5.845-.635-2.619-11.179,3.951-.416-9.061-11.173Z" transform="translate(-3147.915 -1237.535)" fill="#f0bb62"/>
          <g id="Group_7606" data-name="Group 7606" transform="translate(50.176 30.291)">
            <path id="Path_13762" data-name="Path 13762" d="M3188.622,1279.929a.518.518,0,0,1-.506-.411l-2.275-10.726-3.816.336a.518.518,0,0,1-.531-.7l4.759-12.6a.518.518,0,0,1,.888-.143l9.061,11.173a.518.518,0,0,1-.348.842l-3.367.354,2.484,10.607a.518.518,0,0,1-.449.633l-5.844.635A.522.522,0,0,1,3188.622,1279.929Zm-2.37-12.212a.519.519,0,0,1,.507.411l2.273,10.717,4.8-.521-2.485-10.608a.519.519,0,0,1,.45-.634l3-.316-7.891-9.73-4.149,10.988,3.451-.3Z" transform="translate(-3181.46 -1255.489)" fill="#464149"/>
          </g>
          <g id="Group_7607" data-name="Group 7607" transform="translate(33.207 18.427)">
            <path id="Path_13763" data-name="Path 13763" d="M3072.5,1172.138h-.877a.518.518,0,1,1,0-1.036h.877a1.15,1.15,0,0,0,1.148-1.148v-9.039a1.15,1.15,0,0,0-1.148-1.149h-27.248a1.149,1.149,0,0,0-1.148,1.149v9.039a1.149,1.149,0,0,0,1.148,1.148h15.346a.518.518,0,1,1,0,1.036h-15.346a2.187,2.187,0,0,1-2.185-2.185v-9.039a2.188,2.188,0,0,1,2.185-2.185H3072.5a2.188,2.188,0,0,1,2.185,2.185v9.039A2.187,2.187,0,0,1,3072.5,1172.138Z" transform="translate(-3043.063 -1158.729)" fill="#464149"/>
          </g>
          <g id="Group_7609" data-name="Group 7609" transform="translate(37.952 20.322)">
            <g id="Group_7608" data-name="Group 7608">
              <path id="Path_13764" data-name="Path 13764" d="M3081.764,1183.9v-9.725h3.668a8.856,8.856,0,0,1,1.479.093,2.934,2.934,0,0,1,1.2.454,2.385,2.385,0,0,1,.779.939,3.164,3.164,0,0,1-.494,3.426,3.787,3.787,0,0,1-2.852.859h-2.494v3.954Zm1.287-5.1h2.514a2.665,2.665,0,0,0,1.771-.464,1.653,1.653,0,0,0,.524-1.307,1.758,1.758,0,0,0-.308-1.045,1.441,1.441,0,0,0-.812-.574,5.507,5.507,0,0,0-1.2-.086h-2.488Z" transform="translate(-3081.764 -1174.179)" fill="#464149"/>
              <path id="Path_13765" data-name="Path 13765" d="M3138.731,1183.9l3.735-9.725h1.386l3.98,9.725h-1.466l-1.135-2.945h-4.066l-1.068,2.945Zm2.806-3.994h3.3l-1.015-2.693q-.464-1.227-.69-2.017a12.4,12.4,0,0,1-.524,1.857Z" transform="translate(-3131.746 -1174.179)" fill="#464149"/>
              <path id="Path_13766" data-name="Path 13766" d="M3208.645,1183.9v-4.119l-3.748-5.605h1.566l1.917,2.932q.531.823.989,1.645.438-.763,1.061-1.718l1.884-2.859h1.5l-3.881,5.605v4.119Z" transform="translate(-3189.799 -1174.179)" fill="#464149"/>
            </g>
          </g>
          <g id="Group_7610" data-name="Group 7610" transform="translate(5.239 14.117)">
            <path id="Path_13767" data-name="Path 13767" d="M2835.836,1124.616h-20.348a.518.518,0,1,1,0-1.037h20.348a.518.518,0,0,1,0,1.037Z" transform="translate(-2814.969 -1123.579)" fill="#464149"/>
          </g>
          <g id="Group_7611" data-name="Group 7611" transform="translate(5.239 19.457)">
            <path id="Path_13768" data-name="Path 13768" d="M2835.836,1168.166h-20.348a.518.518,0,1,1,0-1.037h20.348a.518.518,0,0,1,0,1.037Z" transform="translate(-2814.969 -1167.129)" fill="#464149"/>
          </g>
          <g id="Group_7612" data-name="Group 7612" transform="translate(5.239 24.797)">
            <path id="Path_13769" data-name="Path 13769" d="M2835.836,1211.716h-20.348a.518.518,0,1,1,0-1.037h20.348a.518.518,0,0,1,0,1.037Z" transform="translate(-2814.969 -1210.679)" fill="#464149"/>
          </g>
          <g id="Group_7613" data-name="Group 7613" transform="translate(5.239 30.137)">
            <path id="Path_13770" data-name="Path 13770" d="M2835.836,1255.266h-20.348a.518.518,0,1,1,0-1.037h20.348a.518.518,0,1,1,0,1.037Z" transform="translate(-2814.969 -1254.229)" fill="#464149"/>
          </g>
        </g>
      </g>
    </g>
    <g id="group-4" data-name="group" transform="translate(0 4.498)">
      <circle id="Ellipse_265" data-name="Ellipse 265" cx="2.043" cy="2.043" r="2.043" transform="translate(201.054 108.484) rotate(-76.717)" fill="#464149"/>
      <path id="Path_13771" data-name="Path 13771" d="M4141.689,1803.065a2.043,2.043,0,1,1-2.044,2.043A2.043,2.043,0,0,1,4141.689,1803.065Z" transform="translate(-3938.176 -1710.132)" fill="#464149"/>
      <path id="Path_13772" data-name="Path 13772" d="M4141.689,1705.294a2.043,2.043,0,1,1-2.044,2.044A2.043,2.043,0,0,1,4141.689,1705.294Z" transform="translate(-3938.176 -1624.349)" fill="#464149"/>
      <path id="Path_13773" data-name="Path 13773" d="M4247.237,1900.836a2.043,2.043,0,1,1-2.043,2.044A2.043,2.043,0,0,1,4247.237,1900.836Z" transform="translate(-4030.783 -1795.915)" fill="#464149"/>
      <path id="Path_13774" data-name="Path 13774" d="M4247.237,1803.065a2.043,2.043,0,1,1-2.043,2.043A2.043,2.043,0,0,1,4247.237,1803.065Z" transform="translate(-4030.783 -1710.132)" fill="#464149"/>
      <path id="Path_13775" data-name="Path 13775" d="M4247.237,1705.294a2.043,2.043,0,1,1-2.043,2.044A2.043,2.043,0,0,1,4247.237,1705.294Z" transform="translate(-4030.783 -1624.349)" fill="#464149"/>
      <circle id="Ellipse_266" data-name="Ellipse 266" cx="2.043" cy="2.043" r="2.043" transform="translate(226.506 106.965) rotate(-45)" fill="#464149"/>
      <path id="Path_13776" data-name="Path 13776" d="M4352.786,1803.065a2.043,2.043,0,1,1-2.043,2.043A2.043,2.043,0,0,1,4352.786,1803.065Z" transform="translate(-4123.391 -1710.132)" fill="#464149"/>
      <path id="Path_13777" data-name="Path 13777" d="M4352.786,1705.294a2.043,2.043,0,1,1-2.043,2.044A2.043,2.043,0,0,1,4352.786,1705.294Z" transform="translate(-4123.391 -1624.349)" fill="#464149"/>
      <g id="Group_7621" data-name="Group 7621" transform="translate(0 0)">
        <g id="Group_7619" data-name="Group 7619" transform="translate(0 10.652)">
          <g id="Group_7616" data-name="Group 7616" transform="translate(9.254 55.637)">
            <path id="Path_13778" data-name="Path 13778" d="M2573.793,1588.335a.518.518,0,0,1-.387-.173c-.021-.023-.516-.579-1.3-1.551a.518.518,0,1,1,.809-.648c.76.948,1.255,1.5,1.26,1.508a.519.519,0,0,1-.386.864Z" transform="translate(-2571.996 -1585.769)" fill="#464149"/>
          </g>
          <g id="Group_7617" data-name="Group 7617" transform="translate(0 1.911)">
            <path id="Path_13779" data-name="Path 13779" d="M2503.889,1199.145a.518.518,0,0,1-.425-.22c-.8-1.133-1.542-2.273-2.217-3.39a.518.518,0,0,1,.887-.536c.662,1.1,1.4,2.217,2.177,3.33a.519.519,0,0,1-.424.817Zm-4.127-6.879a.519.519,0,0,1-.466-.29,33.709,33.709,0,0,1-1.582-3.757.518.518,0,1,1,.98-.34,32.536,32.536,0,0,0,1.533,3.64.519.519,0,0,1-.465.747Zm11.2-4.649a10.912,10.912,0,0,1-1.378-.089.518.518,0,1,1,.131-1.028,9.864,9.864,0,0,0,1.247.081,8.642,8.642,0,0,0,2.507-.363.518.518,0,0,1,.3.992A9.68,9.68,0,0,1,2510.965,1187.617Zm-5.093-1.334a.516.516,0,0,1-.278-.081,8.675,8.675,0,0,1-2.862-3.1.518.518,0,0,1,.9-.511,7.65,7.65,0,0,0,2.517,2.739.519.519,0,0,1-.279.956Zm11.2-1.036a.519.519,0,0,1-.352-.9,9.529,9.529,0,0,0,2.2-3.074.518.518,0,0,1,.945.425,10.569,10.569,0,0,1-2.439,3.411A.515.515,0,0,1,2517.069,1185.247Zm-19.85-.564a.519.519,0,0,1-.512-.442,15.674,15.674,0,0,1-.18-2.318,12.612,12.612,0,0,1,.13-1.832.518.518,0,0,1,1.026.151,11.6,11.6,0,0,0-.119,1.681,14.7,14.7,0,0,0,.169,2.165.519.519,0,0,1-.513.6Zm4.586-5.073a.518.518,0,0,1-.506-.408,21.4,21.4,0,0,1-.458-4.082.518.518,0,0,1,1.037-.022,20.355,20.355,0,0,0,.435,3.883.519.519,0,0,1-.4.617A.528.528,0,0,1,2501.8,1179.61Zm18.473-1.491h-.01a.518.518,0,0,1-.509-.528c0-.051,0-.1,0-.154a7.156,7.156,0,0,0-.837-3.45.518.518,0,0,1,.908-.5,8.193,8.193,0,0,1,.966,3.951c0,.057,0,.115,0,.172A.519.519,0,0,1,2520.277,1178.119Zm-21.755-1.179a.518.518,0,0,1-.439-.793,10.916,10.916,0,0,1,2.883-3.031.518.518,0,0,1,.609.839,9.882,9.882,0,0,0-2.613,2.741A.518.518,0,0,1,2498.522,1176.94Zm6.279-4.767a.519.519,0,0,1-.189-1,24.624,24.624,0,0,1,2.836-.9c.368-.095.735-.18,1.091-.254a.518.518,0,0,1,.211,1.015c-.34.071-.691.152-1.045.243a23.673,23.673,0,0,0-2.716.865A.513.513,0,0,1,2504.8,1172.173Zm-3.228-.551a.538.538,0,0,1-.064,0,.519.519,0,0,1-.451-.578,33.763,33.763,0,0,1,.745-4.006.518.518,0,1,1,1.006.25,32.8,32.8,0,0,0-.722,3.883A.519.519,0,0,1,2501.572,1171.622Zm14.935-.078a.514.514,0,0,1-.229-.054,8.935,8.935,0,0,0-3.667-.838.518.518,0,0,1,.034-1.036,9.951,9.951,0,0,1,4.091.944.518.518,0,0,1-.229.983Zm-13.018-7.7a.519.519,0,0,1-.485-.7,35.516,35.516,0,0,1,1.635-3.729.518.518,0,0,1,.924.471,34.534,34.534,0,0,0-1.587,3.62A.519.519,0,0,1,2503.49,1163.844Zm3.648-7.131a.519.519,0,0,1-.428-.809,29.028,29.028,0,0,1,2.52-3.215.518.518,0,0,1,.768.7,28.019,28.019,0,0,0-2.429,3.1A.518.518,0,0,1,2507.137,1156.713Zm5.4-5.9a.518.518,0,0,1-.322-.925,21.786,21.786,0,0,1,3.439-2.239.518.518,0,0,1,.479.92,20.714,20.714,0,0,0-3.275,2.132A.515.515,0,0,1,2512.535,1150.812Z" transform="translate(-2496.526 -1147.59)" fill="#464149"/>
          </g>
          <g id="Group_7618" data-name="Group 7618" transform="translate(22.595)">
            <path id="Path_13780" data-name="Path 13780" d="M2681.326,1133.473a.518.518,0,0,1-.138-1.018,19.485,19.485,0,0,1,2-.442.518.518,0,0,1,.17,1.023,18.377,18.377,0,0,0-1.893.418A.523.523,0,0,1,2681.326,1133.473Z" transform="translate(-2680.808 -1132.007)" fill="#464149"/>
          </g>
        </g>
        <g id="Group_7620" data-name="Group 7620" transform="translate(115.014)">
          <path id="Path_13781" data-name="Path 13781" d="M3493.933,1071.582a13.267,13.267,0,0,1-3.209-.409.518.518,0,0,1,.252-1.006,11.844,11.844,0,0,0,3.786.346.518.518,0,0,1,.082,1.034C3494.545,1071.57,3494.239,1071.582,3493.933,1071.582Zm4.666-1.146a.518.518,0,0,1-.255-.97,6.492,6.492,0,0,0,2.573-2.577.518.518,0,0,1,.915.488,7.528,7.528,0,0,1-2.979,2.993A.518.518,0,0,1,3498.6,1070.436Zm-11.452-.7a.516.516,0,0,1-.244-.062,21.579,21.579,0,0,1-3.39-2.27.518.518,0,0,1,.653-.805,20.526,20.526,0,0,0,3.225,2.162.519.519,0,0,1-.245.976Zm38.874-4.247a.516.516,0,0,1-.346-.133c-.982-.88-2-1.734-3.029-2.537a.518.518,0,0,1,.638-.817c1.046.818,2.083,1.687,3.082,2.583a.518.518,0,0,1-.346.9Zm-45.034-.744a.517.517,0,0,1-.4-.189,10.073,10.073,0,0,1-2.015-3.654.518.518,0,0,1,1-.275,9.069,9.069,0,0,0,1.816,3.272.518.518,0,0,1-.4.847Zm21.127-.953a.518.518,0,0,1-.515-.47,9.161,9.161,0,0,0-1.163-3.56.518.518,0,1,1,.907-.5,10.162,10.162,0,0,1,1.287,3.965.518.518,0,0,1-.468.564Zm17.627-3.208a.515.515,0,0,1-.289-.089c-1.092-.737-2.219-1.441-3.35-2.091a.518.518,0,0,1,.517-.9c1.152.663,2.3,1.379,3.414,2.13a.518.518,0,0,1-.291.948Zm-40.337-3.178a.518.518,0,0,1-.463-.75,7.936,7.936,0,0,1,2.9-3.053.518.518,0,1,1,.562.871,6.926,6.926,0,0,0-2.535,2.645A.517.517,0,0,1,3479.4,1057.408Zm19.1-.559a.516.516,0,0,1-.375-.161,23.469,23.469,0,0,0-2.927-2.57.518.518,0,0,1,.621-.83,24.5,24.5,0,0,1,3.056,2.685.518.518,0,0,1-.375.876Zm14.326-.232a.516.516,0,0,1-.224-.051c-1.189-.571-2.407-1.1-3.62-1.57a.518.518,0,1,1,.375-.967c1.238.481,2.48,1.02,3.694,1.6a.519.519,0,0,1-.225.986Zm-77.768-.831a.518.518,0,0,1-.268-.963c.053-.032,1.323-.795,3.57-1.9a.518.518,0,0,1,.457.931c-2.2,1.08-3.479,1.846-3.492,1.854A.517.517,0,0,1,3435.064,1055.786Zm70.341-2.049a.512.512,0,0,1-.148-.022c-1.269-.379-2.555-.7-3.822-.966a.518.518,0,1,1,.21-1.015c1.295.268,2.61.6,3.907.988a.518.518,0,0,1-.147,1.015Zm-19.658-.8a.519.519,0,0,1-.151-1.014,23.721,23.721,0,0,1,3.987-.829.518.518,0,1,1,.128,1.029,22.69,22.69,0,0,0-3.812.792A.516.516,0,0,1,3485.748,1052.933Zm-43.525-.687a.518.518,0,0,1-.2-.995c1.224-.525,2.478-1.028,3.727-1.494a.518.518,0,0,1,.363.971c-1.234.46-2.473.957-3.682,1.475A.513.513,0,0,1,3442.223,1052.246Zm55.382-.115a.548.548,0,0,1-.058,0,37.321,37.321,0,0,0-3.924-.233.518.518,0,0,1,0-1.036h0a38.277,38.277,0,0,1,4.033.239.518.518,0,0,1-.057,1.034Zm-5.421-.1a.518.518,0,0,1-.26-.07c-.929-.539-1.931-1.067-2.976-1.571q-.259-.125-.519-.245a.518.518,0,1,1,.437-.94q.266.123.531.251c1.069.515,2.094,1.056,3.046,1.608a.518.518,0,0,1-.26.967Zm-42.486-2.576a.518.518,0,0,1-.157-1.012c1.283-.408,2.581-.785,3.857-1.119a.518.518,0,1,1,.263,1c-1.26.33-2.54.7-3.805,1.1A.515.515,0,0,1,3449.7,1049.459Zm35.26-.765a.517.517,0,0,1-.173-.03c-1.226-.432-2.494-.813-3.77-1.133a.518.518,0,1,1,.252-1.006c1.307.328,2.607.718,3.863,1.161a.519.519,0,0,1-.172,1.008Zm-27.544-1.252a.518.518,0,0,1-.1-1.026c1.326-.27,2.658-.5,3.961-.685a.518.518,0,0,1,.146,1.026c-1.282.182-2.594.409-3.9.675A.494.494,0,0,1,3457.414,1047.442Zm19.822-.688a.563.563,0,0,1-.081-.006c-1.277-.2-2.595-.352-3.917-.449a.518.518,0,1,1,.076-1.034c1.35.1,2.7.253,4,.458a.518.518,0,0,1-.08,1.031Zm-11.927-.425a.518.518,0,0,1-.039-1.035c1.351-.1,2.7-.158,4.02-.164a.518.518,0,0,1,0,1.037c-1.292.006-2.62.06-3.947.161Z" transform="translate(-3434.545 -1045.13)" fill="#464149"/>
        </g>
      </g>
    </g>
    <g id="group-5" data-name="group" transform="translate(19.901 113.604)">
      <g id="Group_7624" data-name="Group 7624" transform="translate(166.628 23.027)">
        <path id="Rectangle_17524" data-name="Rectangle 17524" d="M3.256,0H10.6a3.256,3.256,0,0,1,3.256,3.256V11.3a6.928,6.928,0,0,1-6.928,6.928h0A6.928,6.928,0,0,1,0,11.3V3.256A3.256,3.256,0,0,1,3.256,0Z" transform="translate(2.833 0.478)" fill="#f0bb62"/>
        <g id="Group_7622" data-name="Group 7622">
          <path id="Path_13782" data-name="Path 13782" d="M4027.125,2141.95h-3.839a5.494,5.494,0,0,1-5.487-5.488V2125.6a2.836,2.836,0,0,1,2.832-2.833h9.149a2.836,2.836,0,0,1,2.833,2.833v10.863A5.494,5.494,0,0,1,4027.125,2141.95Zm-6.494-18.226a1.878,1.878,0,0,0-1.875,1.876v10.863a4.536,4.536,0,0,0,4.531,4.531h3.839a4.536,4.536,0,0,0,4.531-4.531V2125.6a1.878,1.878,0,0,0-1.875-1.876Z" transform="translate(-4017.8 -2122.766)" fill="#464149"/>
        </g>
        <g id="Group_7623" data-name="Group 7623" transform="translate(13.857 3.079)">
          <path id="Path_13783" data-name="Path 13783" d="M4131.46,2159.343h-.648V2147.88h.648a5.652,5.652,0,0,1,5.646,5.646v.17A5.653,5.653,0,0,1,4131.46,2159.343Zm.31-10.5v9.529a4.7,4.7,0,0,0,4.38-4.679v-.17A4.7,4.7,0,0,0,4131.77,2148.847Z" transform="translate(-4130.812 -2147.88)" fill="#464149"/>
        </g>
      </g>
      <path id="Path_13784" data-name="Path 13784" d="M4075.177,1961.324s-3.974-4.594-1.217-9.761,2.756-6.89,2.182-9.187a10.773,10.773,0,0,1,.3,9.474C4074.074,1956.73,4074.1,1960.061,4075.177,1961.324Z" transform="translate(-3899.591 -1941.467)" fill="#f0bb62"/>
      <g id="Group_7625" data-name="Group 7625" transform="translate(171.37)">
        <path id="Path_13785" data-name="Path 13785" d="M4059.132,1954.866a.477.477,0,0,1-.362-.166,10.628,10.628,0,0,1-1.73-3.093,8.67,8.67,0,0,1,.452-7.206c2.671-5.007,2.7-6.609,2.14-8.846a.479.479,0,0,1,.878-.357,11.152,11.152,0,0,1,1.1,3.048,10.627,10.627,0,0,1-.775,6.875c-2.231,4.594-2.291,7.783-1.357,8.927l.016.02.006.008a.478.478,0,0,1-.364.789Zm1.619-15.964a21.339,21.339,0,0,1-2.415,5.95,7.634,7.634,0,0,0-.408,6.4l.034.093a18.021,18.021,0,0,1,2.007-6.64A9.522,9.522,0,0,0,4060.752,1938.9Z" transform="translate(-4056.467 -1934.961)" fill="#464149"/>
      </g>
      <g id="Group_7626" data-name="Group 7626" transform="translate(0 41.335)">
        <rect id="Rectangle_17525" data-name="Rectangle 17525" width="207.33" height="0.957" fill="#464149"/>
      </g>
    </g>
  </g>
</svg>
