<svg id="No_Wallet_Found" data-name="No Wallet Found" xmlns="http://www.w3.org/2000/svg" xmlns:xlink="http://www.w3.org/1999/xlink" width="235" height="235" viewBox="0 0 235 235">
  <defs>
    <clipPath id="clip-path">
      <path id="Path_13824" data-name="Path 13824" d="M2113.639,1135.7l-65.915-5.252a4.054,4.054,0,0,1-3.719-4.363l3.776-47.381a4.054,4.054,0,0,1,4.363-3.719l65.915,5.252a4.053,4.053,0,0,1,3.719,4.363l-3.775,47.38A4.054,4.054,0,0,1,2113.639,1135.7Z" transform="translate(-2043.992 -1074.969)" fill="#ecf3fe"/>
    </clipPath>
  </defs>
  <rect id="Square" width="235" height="235" fill="none"/>
  <g id="Image" transform="translate(0 18.184)">
    <path id="Path_13786" data-name="Path 13786" d="M2148.072,1525.9h64.7a70,70,0,1,0-64.7,0Z" transform="translate(-2015.42 -1337.112)" fill="#ecf3fe"/>
    <ellipse id="Ellipse_267" data-name="Ellipse 267" cx="92.146" cy="12.716" rx="92.146" ry="12.716" transform="translate(34.521 173.202)" fill="#d7e4f9"/>
    <circle id="Ellipse_268" data-name="Ellipse 268" cx="69.999" cy="69.999" r="69.999" transform="translate(42.455)" fill="#ecf3fe"/>
    <g id="Group_7627" data-name="Group 7627" transform="translate(0 78.721)">
      <path id="Path_13787" data-name="Path 13787" d="M822.97,1822.422s-38.763-80.672-63.562-92.211a2.892,2.892,0,0,0-4.087,2.233c-.662,4.95,2.371,16.849,26.925,43.452C818.838,1815.54,822.97,1822.422,822.97,1822.422Z" transform="translate(-749.038 -1729.938)" fill="#c4d7f2"/>
      <path id="Path_13788" data-name="Path 13788" d="M735.579,2300.59s-49.788-59.061-72.517-62.637a2.167,2.167,0,0,0-2.509,2.187c.1,3.923,4.287,13.159,31.514,30.725C730.7,2295.791,735.579,2300.59,735.579,2300.59Z" transform="translate(-660.552 -2204.641)" fill="#c4d7f2"/>
      <path id="Path_13789" data-name="Path 13789" d="M1463.942,2031.327s-3.844-66.3-17.646-80.468a1.863,1.863,0,0,0-2.854.213c-1.953,2.751-3.828,11.266,5.863,37.381C1463.059,2025.512,1463.942,2031.327,1463.942,2031.327Z" transform="translate(-1390.676 -1935.854)" fill="#c4d7f2"/>
    </g>
    <path id="Path_13790" data-name="Path 13790" d="M3306.578,1249.93c-1.871-6.536-8.333-8.23-4.5-14.23,3.784-5.916,9.218-21.575-.907-28.094a.78.78,0,0,0-.347-.118,24.635,24.635,0,0,1-1.206-2.194l-1.135.5.14-3.064.008-1a1.357,1.357,0,0,0,.268.1.694.694,0,0,0,.25.017,5.3,5.3,0,0,0,2.383-1.959,7.231,7.231,0,0,0,1.591-3.714c.228-2.89.542-6.6-2.2-8.789s-7.731-3.938-10.775-2.76.81,4.046.322,4.326a3.552,3.552,0,0,0-1.395,2.276.56.56,0,0,0,.12.3,7.607,7.607,0,0,0,.535.593l-.065.081c-.256.324-.572.72-.909,1.148-.024.027-.045.054-.067.082-1.242,1.566-2.881,3.376-3.288,3.752-.722.669,2.209,2.31,2.227,2.784.018.4.076,5.767,3.4,5.858l.057,2.909.007.329-1.5.666-.559,2.936q-.188.207-.4.45l-7.97,3.8-9.947,1.9a1.678,1.678,0,0,1-1.6-.527l-12.143-13.012-.59.486-.437-.459c-.014-.015-.028-.032-.041-.048a1.116,1.116,0,0,1-.258-.766l.094-2.4a1.147,1.147,0,0,0-.72-1.13l-2.458-.979a1.51,1.51,0,0,0-1.88.787l-1.439,3a1.345,1.345,0,0,0,.475,1.76l2.362,1.423.335.2a1.515,1.515,0,0,1,.446.406l.5.685-.453.372,5.7,7.031-5.191-3.062-.452.615-.552-.319c-.018-.01-.036-.023-.053-.034a1.083,1.083,0,0,1-.457-.655l-.545-2.293a1.14,1.14,0,0,0-1.009-.878l-2.678-.275a1.544,1.544,0,0,0-1.64,1.241l-.618,3.217a1.305,1.305,0,0,0,.936,1.538l2.7.72.384.1a1.558,1.558,0,0,1,.547.266l.676.514-.346.472,17.737,12.2a3.216,3.216,0,0,0,2.864.427l11.217-3.518.7-.03c-.684,2.888-1.662,6.2-2.654,9.3-.623,1.951-1.253,3.817-1.817,5.443-.991,2.844-1.787,4.946-2.014,5.458-.475,1.068-.589,1.984.231,2.78l-.331,1.5-14.823,67.39.846.135-.564,2.124-.361-.11a7.33,7.33,0,0,1-5.2,2.784c-4,.286-6.153.531-6.988,2.684-.7,1.815,12.589,3.061,16.781,3.407a1.309,1.309,0,0,0,1.381-1.153l.618-5.712-.406-.124.655-2.953.849.136,6.485-19.965,1.663,4.939,4.876,14.478.73-.221.475,2.044-.384.075a7.367,7.367,0,0,1-3.461,4.8c-3.54,2.114-5.4,3.328-5.155,5.548.207,1.872,13-3.285,17.008-4.95a1.275,1.275,0,0,0,.726-1.626l-2.117-5.144-.431.085-.733-2.624.624-.189c-.872-10.57-5.953-22.3-7.531-25.731-.294-.642-.467-.993-.467-.993l5.884-25.75a17.242,17.242,0,0,0,4.522-7.375q.195-.6.364-1.245a5.791,5.791,0,0,0,2.309.51c3.686.089,6.334,7.768,6.334,7.768h0C3300.777,1263.421,3308.448,1256.461,3306.578,1249.93Z" transform="translate(-3076.023 -1141.287)" fill="#003889" opacity="0.18" style="mix-blend-mode: multiply;isolation: isolate"/>
    <path id="Path_13791" data-name="Path 13791" d="M1886.34,1086.618l-77.9-2.638a6.327,6.327,0,0,1-6.11-6.538l4.607-136.052a6.328,6.328,0,0,1,6.538-6.11l77.9,2.638a6.328,6.328,0,0,1,6.11,6.538l-4.607,136.052A6.327,6.327,0,0,1,1886.34,1086.618Z" transform="translate(-1727.512 -908.625)" fill="#003889" opacity="0.18" style="mix-blend-mode: multiply;isolation: isolate"/>
    <path id="Path_13792" data-name="Path 13792" d="M2065.406,1026.518l-77.9-2.638a6.328,6.328,0,0,1-6.11-6.538L1986,881.29a6.328,6.328,0,0,1,6.538-6.11l77.9,2.638a6.328,6.328,0,0,1,6.11,6.538l-4.607,136.052A6.328,6.328,0,0,1,2065.406,1026.518Z" transform="translate(-1894.844 -852.462)" fill="#f0bb62"/>
    <path id="Path_13793" data-name="Path 13793" d="M1905.215,1065.37l-77.7-6.192a6.328,6.328,0,0,1-5.805-6.81l10.813-135.7a6.328,6.328,0,0,1,6.81-5.805l77.7,6.191a6.328,6.328,0,0,1,5.805,6.81l-10.813,135.7A6.328,6.328,0,0,1,1905.215,1065.37Z" transform="translate(-1745.607 -885.792)" fill="#fff"/>
    <g id="Group_7634" data-name="Group 7634" transform="translate(90.648 35.805)">
      <path id="Path_13794" data-name="Path 13794" d="M3111.788,1559.374l-.383,3.217a1.416,1.416,0,0,0,1.047,1.538l2.754.72.391.1a1.686,1.686,0,0,1,.566.265l1.938,1.4,2.156-3.306-1.875-1.039c-.018-.01-.038-.023-.055-.034a1.193,1.193,0,0,1-.5-.656l-.713-2.293a1.254,1.254,0,0,0-1.073-.878l-2.7-.275A1.416,1.416,0,0,0,3111.788,1559.374Z" transform="translate(-3041.455 -1526.467)" fill="#fdc8aa"/>
      <path id="Path_13795" data-name="Path 13795" d="M3169.566,1623.436l.391.1a1.692,1.692,0,0,1,.566.266l1.938,1.4,2.156-3.306-1.876-1.039c-.019-.01-.038-.023-.055-.034C3172,1621.395,3170.489,1622.662,3169.566,1623.436Z" transform="translate(-3095.814 -1585.055)" fill="#efa37d"/>
      <path id="Path_13796" data-name="Path 13796" d="M3233.966,1607.879l-22.153,7.11a3.315,3.315,0,0,1-2.9-.427l-18.625-12.2,2.8-4.231,16.067,9.086a1.779,1.779,0,0,0,1.715.076l21.193-10.472S3238.692,1600.793,3233.966,1607.879Z" transform="translate(-3115.182 -1562.63)" fill="#002f35"/>
      <path id="Path_13797" data-name="Path 13797" d="M3799.281,1438.568l.282,3.053.314,3.4,6.969-2.617-.184-6.79-.14-2.151Z" transform="translate(-3684.267 -1409.97)" fill="#fdc8aa"/>
      <path id="Path_13798" data-name="Path 13798" d="M3799.281,1438.569l.282,3.053c2.431-.58,5.851-4.659,7.1-6.011l-.14-2.151Z" transform="translate(-3684.267 -1409.97)" fill="#efa37d"/>
      <path id="Path_13799" data-name="Path 13799" d="M3704.991,1289.886c.057.477.689,8.088,6.165,5.214a21.765,21.765,0,0,0,4.212-2.815c.257-.223.5-.447.728-.675a10.727,10.727,0,0,0,1.964-2.584,6,6,0,0,0,.749-3.463c-.175-1.624-2.658-3.416-5.37-4.381l-.013,0c-2.445-.872-5.075-1.069-6.355.139-.075.07-.3.373-.608.8-.233.324-.52.72-.826,1.148-.021.027-.041.054-.061.082a45.312,45.312,0,0,1-3.014,3.752C3701.888,1287.771,3704.939,1289.411,3704.991,1289.886Z" transform="translate(-3593.795 -1267.001)" fill="#fdc8aa"/>
      <path id="Path_13800" data-name="Path 13800" d="M3760.716,1196.18a6.728,6.728,0,0,1-1.32,3.714,4.773,4.773,0,0,1-2.24,1.959.7.7,0,0,1-.251-.017,7.925,7.925,0,0,1-2.842-2.435,2.932,2.932,0,0,1-.42-.645.391.391,0,0,1,.057-.316,1.547,1.547,0,0,1,.089-.145c.463-.674,1.765-1.775,1.691-3.438-.092-2.117-3.238-.191-3.238-.191-.239-.062-.467-.125-.688-.192h0a11.587,11.587,0,0,1-4.281-2.13,7.963,7.963,0,0,1-.823-.81.606.606,0,0,1-.143-.3,3.245,3.245,0,0,1,1.229-2.276c.468-.28-3.595-3.146-.637-4.326s8.073.572,10.976,2.76S3760.733,1193.29,3760.716,1196.18Z" transform="translate(-3634.299 -1177.092)" fill="#002f35"/>
      <path id="Path_13801" data-name="Path 13801" d="M3842.325,2026.193s-3.208-7.679-6.9-7.768a5.64,5.64,0,0,1-5-3l3.718-14.923s12.178,10.113,10.606,16.645S3842.325,2026.193,3842.325,2026.193Z" transform="translate(-3713.366 -1939.856)" fill="#49444c"/>
      <path id="Path_13802" data-name="Path 13802" d="M3794.4,3161.745l2.147,6.093-6.2,1L3788.87,3164Z" transform="translate(-3674.539 -3025.011)" fill="#fff"/>
      <path id="Path_13803" data-name="Path 13803" d="M3681.817,3252.019c-.406-2.22,1.364-3.435,4.75-5.549a6.71,6.71,0,0,0,3.112-4.8l6.9-1.376,2.492,5.144a1.2,1.2,0,0,1-.608,1.626C3694.574,3248.734,3682.16,3253.891,3681.817,3252.019Z" transform="translate(-3574.447 -3098.418)" fill="#002f35"/>
      <path id="Path_13804" data-name="Path 13804" d="M3645.6,2317.756l-4.956,36.365,3.721,9.084,5.932,14.478,7.123-2.206c-1.643-10.57-7.579-22.3-9.408-25.73-.341-.642-.539-.993-.539-.993l4.807-30.89Z" transform="translate(-3536.026 -2236.324)" fill="#002f35"/>
      <path id="Path_13805" data-name="Path 13805" d="M3645.6,2317.756l-4.956,36.365,3.721,9.084c.913-3.378,2.273-8.42,3.647-13.458-.341-.642-.539-.993-.539-.993l4.807-30.89Z" transform="translate(-3536.026 -2236.324)" fill="#131014"/>
      <path id="Path_13806" data-name="Path 13806" d="M3483.994,3191.534l-.951,6.39-5.952-2.018.955-4.963Z" transform="translate(-3383.188 -3052.296)" fill="#fff"/>
      <path id="Path_13807" data-name="Path 13807" d="M3293.272,3260.372c.678-2.153,2.812-2.4,6.793-2.684a6.707,6.707,0,0,0,4.993-2.784l6.744,2.01-.2,5.712a1.2,1.2,0,0,1-1.3,1.153C3306.085,3263.433,3292.7,3262.187,3293.272,3260.372Z" transform="translate(-3211.398 -3112.066)" fill="#002f35"/>
      <path id="Path_13808" data-name="Path 13808" d="M3472.215,2213.662l7.7,1.218,13.838-54.927a14.889,14.889,0,0,0,4.314-7.675,20.693,20.693,0,0,0,.516-2.9c.042-.374.073-.761.1-1.157a25.357,25.357,0,0,0,0-2.733l-16.069-2.54-.187,1.261-.057.392-.245,1.667Z" transform="translate(-3378.633 -2072.973)" fill="#002f35"/>
      <path id="Path_13809" data-name="Path 13809" d="M3623.475,2164.26c3.234,1.65,12.22,6.371,15.945,6.007a20.691,20.691,0,0,0,.516-2.9q.062-.561.095-1.158l-16.254-4.012-.057.392Z" transform="translate(-3519.981 -2090.962)" fill="#002f35"/>
      <path id="Path_13810" data-name="Path 13810" d="M3617.773,1577.119c1.885.94,16.143,6.554,16.186,3.294a30.882,30.882,0,0,1,1.059-5.809c.093-.377.19-.754.288-1.125.789-2.989,1.629-5.67,1.629-5.67l0-.006.407-1.943,4.881-23.33-5.336-7.74-9.27,4.317a21.977,21.977,0,0,0-6,12.477,107.947,107.947,0,0,1-2.255,11.19c-.48,1.951-.974,3.817-1.42,5.443-.785,2.844-1.427,4.946-1.617,5.459C3615.818,1575.053,3615.887,1576.178,3617.773,1577.119Z" transform="translate(-3513.049 -1504.662)" fill="#fff"/>
      <path id="Path_13811" data-name="Path 13811" d="M3860.767,1990.169c.065.107,2.157,7.319,2.926,9.975.094-.377.19-.754.288-1.124.789-2.989,1.63-5.67,1.63-5.67v-.006l.407-1.943Z" transform="translate(-3741.725 -1930.201)" fill="#c4d7f2"/>
      <path id="Path_13812" data-name="Path 13812" d="M3784.541,1505.369c.019.175,1.53,2.442,1.53,2.442l-11.726,6.183.491-4.18Z" transform="translate(-3660.966 -1477.167)" fill="#d4e6fc"/>
      <path id="Path_13813" data-name="Path 13813" d="M3783.11,1561.968q.269.567.59,1.144c.6,1.081,1.17,2.065,1.7,2.971,6.47,10.978,8.161,10.5,11.283,28.64,0,0,7.174-6.964,4.826-13.5s-8.933-8.23-5.532-14.23c3.353-5.916,7.646-21.575-2.955-28.094a.822.822,0,0,0-.894.018C3789.616,1540.623,3777.335,1549.759,3783.11,1561.968Z" transform="translate(-3667.729 -1508.386)" fill="#002f35"/>
      <path id="Path_13814" data-name="Path 13814" d="M3804.894,1803.537q.268.567.59,1.144c.6,1.081,1.17,2.065,1.7,2.971,1.561-2.057,7.81-10.277,7.911-10.368Z" transform="translate(-3689.513 -1749.956)" fill="#002f35"/>
      <g id="Group_7633" data-name="Group 7633">
        <g id="Group_7632" data-name="Group 7632">
          <path id="Path_13815" data-name="Path 13815" d="M2113.639,1135.7l-65.915-5.252a4.054,4.054,0,0,1-3.719-4.363l3.776-47.381a4.054,4.054,0,0,1,4.363-3.719l65.915,5.252a4.053,4.053,0,0,1,3.719,4.363l-3.775,47.38A4.054,4.054,0,0,1,2113.639,1135.7Z" transform="translate(-2043.992 -1074.969)" fill="#ecf3fe"/>
          <g id="Group_7631" data-name="Group 7631" clip-path="url(#clip-path)">
            <path id="Path_13816" data-name="Path 13816" d="M2701.407,1033.469l2.976-1.344,2.44,10.709a1.9,1.9,0,0,0,2.793,1.254l49.5-22.357a3.083,3.083,0,0,0,1.753-3.307l-7.386-32.41a1.9,1.9,0,0,0-2.792-1.253l-49.5,22.357a3.083,3.083,0,0,0-1.754,3.307l2.441,10.709-2.976,1.344a2.23,2.23,0,0,0-1.268,2.391l1.753,7.694A1.374,1.374,0,0,0,2701.407,1033.469Z" transform="translate(-2654.765 -990.465)" fill="#c89b40"/>
            <ellipse id="Ellipse_269" data-name="Ellipse 269" cx="19.757" cy="19.825" rx="19.757" ry="19.825" transform="matrix(0.528, -0.849, 0.849, 0.528, 9.943, 39.711)" fill="#003889" opacity="0.18" style="mix-blend-mode: multiply;isolation: isolate"/>
            <g id="Group_7629" data-name="Group 7629" transform="translate(11.886 3.146)">
              <ellipse id="Ellipse_270" data-name="Ellipse 270" cx="19.757" cy="19.825" rx="19.757" ry="19.825" transform="matrix(0.528, -0.849, 0.849, 0.528, 0, 33.563)" fill="#f4b545"/>
              <g id="Group_7628" data-name="Group 7628" transform="translate(16.386 16.129)">
                <path id="Path_13817" data-name="Path 13817" d="M2496.8,1379.458l-4.525-1.079a3.618,3.618,0,0,0-1.822-4.215q-2.611-1.623-3.661.067a1.784,1.784,0,0,0-.219,1.443,5.779,5.779,0,0,0,1.7,2.183,25.844,25.844,0,0,1,3.485,3.785,6.337,6.337,0,0,1,1.069,3.3,5.891,5.891,0,0,1-.906,3.5,6.884,6.884,0,0,1-4.692,3.175q-3.113.635-6.968-1.76a10.452,10.452,0,0,1-4.107-4.369,7.331,7.331,0,0,1-.259-5.557l4.651,1.614q-.942,3.05,2.193,5a4.259,4.259,0,0,0,2.618.818,2.035,2.035,0,0,0,1.609-.932,1.708,1.708,0,0,0,.119-1.7,9.6,9.6,0,0,0-2.072-2.468,13.973,13.973,0,0,1-3.86-5.207,5.449,5.449,0,0,1,.806-4.7,6.548,6.548,0,0,1,4.443-3.082,8.16,8.16,0,0,1,6.016,1.358Q2497.953,1374.065,2496.8,1379.458Z" transform="translate(-2475.475 -1369.135)" fill="#fff"/>
              </g>
            </g>
            <path id="Path_13818" data-name="Path 13818" d="M2683.8,1115.693l52.683-7.634a2.4,2.4,0,0,1,2.76,1.963l4.841,32.886a2.387,2.387,0,0,1-2.078,2.664l-52.683,7.634a2.4,2.4,0,0,1-2.76-1.963l-4.841-32.886A2.387,2.387,0,0,1,2683.8,1115.693Z" transform="translate(-2639.914 -1105.866)" fill="#003889" opacity="0.18" style="mix-blend-mode: multiply;isolation: isolate"/>
            <g id="Group_7630" data-name="Group 7630" transform="translate(39.814 -6.864)">
              <path id="Path_13819" data-name="Path 13819" d="M2684.277,981.982l51.929-11.712a2.4,2.4,0,0,1,2.9,1.742l7.386,32.41a2.386,2.386,0,0,1-1.865,2.818l-51.929,11.712a2.4,2.4,0,0,1-2.9-1.742l-7.386-32.41A2.386,2.386,0,0,1,2684.277,981.982Z" transform="translate(-2680.342 -970.207)" fill="#f0bb62"/>
              <path id="Path_13820" data-name="Path 13820" d="M2732.283,1053.458l-.02,0a.245.245,0,0,1-.055-.486h0l.017,0a1.721,1.721,0,0,0,.177-.03l1.049-.236a.245.245,0,1,1,.108.477l-1.05.237A2.194,2.194,0,0,1,2732.283,1053.458Zm2.519-.557a.245.245,0,0,1-.082-.482l1.268-.286a.245.245,0,0,1,.107.477l-1.267.286Zm-3.774.258a.243.243,0,0,1-.165-.04,1.959,1.959,0,0,1-.826-1.19.245.245,0,1,1,.477-.11,1.471,1.471,0,0,0,.622.893.245.245,0,0,1-.108.446Zm6.308-.829a.245.245,0,0,1-.082-.482l1.267-.286a.245.245,0,0,1,.108.477l-1.268.286Zm2.534-.572a.245.245,0,0,1-.082-.482l1.268-.286a.245.245,0,1,1,.107.478l-1.267.286Zm2.535-.572a.245.245,0,0,1-.082-.482l1.267-.286a.245.245,0,1,1,.108.478l-1.267.286Zm2.535-.572a.245.245,0,0,1-.082-.482l1.267-.286a.245.245,0,1,1,.108.477l-1.267.286Zm2.535-.572a.245.245,0,0,1-.082-.482l1.267-.286a.245.245,0,0,1,.108.477l-1.267.286Zm2.534-.572a.245.245,0,0,1-.082-.482l1.268-.286a.245.245,0,0,1,.107.478l-1.267.286Zm2.535-.572a.245.245,0,0,1-.082-.482l1.268-.286a.245.245,0,0,1,.108.477l-1.267.286Zm2.535-.572a.245.245,0,0,1-.082-.482l1.267-.286a.245.245,0,1,1,.108.477l-1.267.286Zm2.535-.572a.245.245,0,0,1-.082-.482l1.267-.286a.245.245,0,1,1,.108.477l-1.267.286Zm-27.6,3.095a.244.244,0,0,1-.266-.189l-.289-1.267a.245.245,0,0,1,.477-.109l.289,1.267a.245.245,0,0,1-.184.293Zm30.133-3.666a.245.245,0,0,1-.082-.482l1.268-.286a.245.245,0,0,1,.107.477l-1.267.286Zm2.534-.572a.245.245,0,0,1-.082-.482l1.268-.286a.245.245,0,0,1,.107.477l-1.267.286Zm2.535-.572a.245.245,0,0,1-.082-.482l1.268-.286a.245.245,0,1,1,.107.477l-1.267.286Zm2.535-.572a.245.245,0,0,1-.082-.482l1.267-.286a.245.245,0,1,1,.108.477l-1.268.286Zm2.535-.572a.245.245,0,0,1-.082-.482l1.267-.286a.245.245,0,1,1,.108.477l-1.268.286Zm2.535-.572a.245.245,0,0,1-.082-.482l1.267-.286a.245.245,0,0,1,.108.478l-1.267.286Zm2.534-.572a.245.245,0,0,1-.082-.482l1.267-.286a.245.245,0,0,1,.108.478l-1.267.286Zm2.535-.572a.245.245,0,0,1-.082-.482l1.267-.286a.245.245,0,1,1,.107.477l-1.267.286Zm2.535-.572a.245.245,0,0,1-.082-.482l.164-.037a1.635,1.635,0,0,0,.842-.48.245.245,0,0,1,.359.333,2.122,2.122,0,0,1-1.093.625l-.164.037Zm-50.987,5.706a.245.245,0,0,1-.267-.189l-.288-1.267a.245.245,0,1,1,.477-.109l.289,1.267a.245.245,0,0,1-.184.293Zm52.6-7.472-.031,0a.244.244,0,0,1-.243-.247,1.528,1.528,0,0,0-.01-.177,1.413,1.413,0,0,0-.027-.155l-.2-.885a.245.245,0,1,1,.477-.109l.2.885a1.864,1.864,0,0,1,.035.207,1.92,1.92,0,0,1,.013.237A.245.245,0,0,1,2782.033,1040.846Zm-53.173,4.939a.244.244,0,0,1-.267-.189l-.289-1.266a.245.245,0,0,1,.477-.109l.288,1.267a.244.244,0,0,1-.184.293Zm52.639-7.479a.244.244,0,0,1-.267-.189l-.289-1.266a.245.245,0,0,1,.477-.109l.289,1.267a.245.245,0,0,1-.185.293Zm-53.217,4.945a.245.245,0,0,1-.266-.189l-.289-1.267a.245.245,0,1,1,.477-.109l.289,1.267a.245.245,0,0,1-.184.293Zm52.639-7.479a.245.245,0,0,1-.267-.189l-.289-1.267a.245.245,0,0,1,.477-.109l.289,1.267a.245.245,0,0,1-.184.293Zm-53.217,4.945a.244.244,0,0,1-.266-.189l-.289-1.267a.245.245,0,0,1,.477-.109l.289,1.267a.245.245,0,0,1-.184.293Zm52.639-7.478a.245.245,0,0,1-.267-.189l-.289-1.267a.245.245,0,1,1,.477-.109l.288,1.267a.244.244,0,0,1-.184.293Zm-53.217,4.945a.245.245,0,0,1-.267-.189l-.289-1.267a.245.245,0,1,1,.477-.109l.289,1.267a.245.245,0,0,1-.184.293Zm52.639-7.479a.244.244,0,0,1-.266-.188l-.289-1.267a.245.245,0,1,1,.477-.109l.289,1.267a.245.245,0,0,1-.184.293Zm-53.216,4.945a.245.245,0,0,1-.267-.189L2726,1034.2a.245.245,0,1,1,.477-.109l.288,1.267a.245.245,0,0,1-.184.293Zm52.639-7.478a.244.244,0,0,1-.267-.189l-.289-1.267a.245.245,0,0,1,.477-.109l.289,1.267a.245.245,0,0,1-.184.293Zm-53.217,4.945a.245.245,0,0,1-.267-.189l-.289-1.267a.245.245,0,1,1,.477-.109l.289,1.266a.245.245,0,0,1-.184.293Zm52.639-7.479a.245.245,0,0,1-.267-.189l-.289-1.267a.245.245,0,1,1,.477-.109l.289,1.267a.245.245,0,0,1-.184.293Zm-53.217,4.945a.244.244,0,0,1-.266-.189l-.289-1.267a.245.245,0,1,1,.477-.109l.289,1.267a.245.245,0,0,1-.184.293Zm52.639-7.479a.244.244,0,0,1-.267-.189l-.289-1.267a.245.245,0,1,1,.477-.109l.289,1.267a.245.245,0,0,1-.184.293Zm-53.217,4.945a.244.244,0,0,1-.267-.189l-.289-1.267a.245.245,0,1,1,.477-.109l.289,1.267a.245.245,0,0,1-.184.293Zm52.639-7.478a.245.245,0,0,1-.266-.189l-.289-1.267a.245.245,0,1,1,.477-.109l.289,1.267a.245.245,0,0,1-.184.293Zm-53.216,4.945a.244.244,0,0,1-.266-.189l-.289-1.267a.245.245,0,1,1,.477-.109l.288,1.267a.244.244,0,0,1-.184.293Zm52.639-7.479a.244.244,0,0,1-.266-.189l-.289-1.267a.245.245,0,0,1,.477-.109l.289,1.267a.245.245,0,0,1-.184.293Zm-53.172,4.939-.03,0a.245.245,0,0,1-.243-.246,1.991,1.991,0,0,1,.54-1.342.245.245,0,1,1,.359.333,1.5,1.5,0,0,0-.408,1.013A.246.246,0,0,1,2723.708,1022.978Zm52.595-7.472a.245.245,0,0,1-.267-.189l-.288-1.267a.245.245,0,1,1,.477-.109l.289,1.267a.245.245,0,0,1-.184.293Zm-50.991,5.7a.245.245,0,0,1-.082-.482l1.268-.286a.245.245,0,1,1,.107.477l-1.267.286Zm2.535-.572a.245.245,0,0,1-.082-.482l1.267-.286a.245.245,0,1,1,.108.477l-1.268.286Zm2.535-.572a.245.245,0,0,1-.082-.482l1.267-.286a.245.245,0,0,1,.107.477l-1.267.286Zm2.534-.572a.245.245,0,0,1-.082-.482l1.267-.286a.245.245,0,1,1,.108.477l-1.268.286Zm2.535-.572a.245.245,0,0,1-.082-.482l1.267-.286a.245.245,0,0,1,.108.477l-1.267.286Zm2.535-.572a.245.245,0,0,1-.082-.482l1.267-.286a.245.245,0,1,1,.108.477l-1.267.286Zm2.535-.572a.245.245,0,0,1-.082-.482l1.267-.286a.245.245,0,0,1,.108.477l-1.267.286Zm2.535-.572a.245.245,0,0,1-.082-.482l1.267-.286a.245.245,0,0,1,.107.477l-1.267.286Zm2.534-.572a.245.245,0,0,1-.082-.482l1.267-.286a.245.245,0,0,1,.108.478l-1.268.286Zm30.137-3.664a.245.245,0,0,1-.267-.189l-.289-1.267a.247.247,0,0,1,.183-.3.242.242,0,0,1,.293.18l-.238.056.24-.049.289,1.268a.245.245,0,0,1-.184.293Zm-27.6,3.092a.245.245,0,0,1-.082-.482l1.267-.286a.245.245,0,0,1,.108.477l-1.267.286Zm2.535-.571a.245.245,0,0,1-.082-.482l1.267-.286a.245.245,0,1,1,.107.477l-1.267.286Zm2.535-.572a.245.245,0,0,1-.082-.482l1.267-.286a.245.245,0,0,1,.108.477l-1.267.286Zm2.534-.572a.245.245,0,0,1-.082-.482l1.267-.286a.245.245,0,1,1,.107.477l-1.267.286Zm2.535-.572a.245.245,0,0,1-.082-.482l1.267-.286a.245.245,0,0,1,.108.477l-1.268.286Zm2.535-.572a.245.245,0,0,1-.082-.482l1.267-.286a.245.245,0,0,1,.108.477l-1.267.286Zm2.535-.572a.245.245,0,0,1-.082-.482l1.267-.286a.245.245,0,1,1,.108.477l-1.267.286Zm2.534-.572a.245.245,0,0,1-.082-.482l1.267-.286a.245.245,0,0,1,.108.477l-1.268.286Zm2.535-.572a.245.245,0,0,1-.082-.482l1.267-.286a.245.245,0,0,1,.108.477l-1.267.286Zm6.309-.832a.244.244,0,0,1-.164-.039,1.621,1.621,0,0,0-1.075-.259.245.245,0,0,1-.055-.486h0a2.113,2.113,0,0,1,1.4.339.245.245,0,0,1-.108.447Zm-3.775.261a.245.245,0,0,1-.082-.482l1.268-.286a.245.245,0,1,1,.107.477l-1.267.286Z" transform="translate(-2718.73 -1007.264)" fill="#fff"/>
              <path id="Path_13821" data-name="Path 13821" d="M2681.2,1351.2l12.225-2.757a1.736,1.736,0,0,1,2.1,1.26l1.753,7.694a1.725,1.725,0,0,1-1.348,2.037l-12.225,2.757a1.735,1.735,0,0,1-2.1-1.26l-1.753-7.694A1.725,1.725,0,0,1,2681.2,1351.2Z" transform="translate(-2677.961 -1323.616)" fill="#003889" opacity="0.18" style="mix-blend-mode: multiply;isolation: isolate"/>
              <path id="Path_13822" data-name="Path 13822" d="M2653.013,1327.125l12.225-2.757a1.735,1.735,0,0,1,2.1,1.26l1.753,7.694a1.726,1.726,0,0,1-1.348,2.038l-12.225,2.757a1.735,1.735,0,0,1-2.1-1.26l-1.753-7.694A1.726,1.726,0,0,1,2653.013,1327.125Z" transform="translate(-2651.624 -1301.119)" fill="#c4d7f2"/>
              <path id="Path_13823" data-name="Path 13823" d="M2771.026,1388.6a2.576,2.576,0,0,1,2.012-3.041,2.646,2.646,0,0,1,2.756,1.028,2.426,2.426,0,0,1,.377.853,2.575,2.575,0,0,1-2.013,3.041,2.723,2.723,0,0,1-1.319-.027A2.515,2.515,0,0,1,2771.026,1388.6Z" transform="translate(-2763.145 -1358.277)" fill="#f0bb62"/>
            </g>
          </g>
        </g>
      </g>
      <path id="Path_13825" data-name="Path 13825" d="M3159.268,1423.879l-1.22,3a1.416,1.416,0,0,0,.6,1.76l2.466,1.423.35.2a1.687,1.687,0,0,1,.475.406l1.5,1.86,2.954-2.618-1.534-1.5c-.016-.015-.031-.032-.044-.048a1.2,1.2,0,0,1-.313-.766l-.081-2.4a1.255,1.255,0,0,0-.8-1.13l-2.529-.979A1.416,1.416,0,0,0,3159.268,1423.879Z" transform="translate(-3084.952 -1400.192)" fill="#fdc8aa"/>
      <path id="Path_13826" data-name="Path 13826" d="M3206.377,1506.644l.35.2a1.686,1.686,0,0,1,.475.406l1.5,1.86,2.954-2.618-1.534-1.5c-.015-.015-.03-.032-.044-.048C3209.264,1505.319,3207.471,1506.142,3206.377,1506.644Z" transform="translate(-3130.213 -1476.773)" fill="#efa37d"/>
      <path id="Path_13827" data-name="Path 13827" d="M3261.558,1525.486l-23.245,1a3.314,3.314,0,0,1-2.679-1.178l-14.737-16.689,3.819-3.34,13.092,13.012a1.778,1.778,0,0,0,1.633.527l23.208-4.494S3267.99,1519.9,3261.558,1525.486Z" transform="translate(-3143.782 -1477.083)" fill="#002f35"/>
    </g>
    <path id="Path_13828" data-name="Path 13828" d="M2350.593,2238.28l-70.564-8.8a2.974,2.974,0,0,0-3.319,2.583l-4.633,37.167a2.974,2.974,0,0,0,2.583,3.319l70.564,8.8a2.974,2.974,0,0,0,3.319-2.583l4.632-37.167A2.974,2.974,0,0,0,2350.593,2238.28Z" transform="translate(-2166.463 -2118.01)" fill="#003889" opacity="0.18" style="mix-blend-mode: multiply;isolation: isolate"/>
    <g id="Group_7637" data-name="Group 7637" transform="translate(103.79 109.618)">
      <path id="Path_13829" data-name="Path 13829" d="M2318.177,2250.425l-70.883-5.678a2.974,2.974,0,0,1-2.727-3.2l2.991-37.335a2.973,2.973,0,0,1,3.2-2.727l70.883,5.678a2.974,2.974,0,0,1,2.727,3.2l-2.99,37.335A2.975,2.975,0,0,1,2318.177,2250.425Z" transform="translate(-2244.558 -2201.473)" fill="#ecf3fe"/>
      <g id="Group_7635" data-name="Group 7635" transform="translate(63.836 9.801)">
        <path id="Path_13830" data-name="Path 13830" d="M3233.186,2351.057l-5.161,3.186,9.75.781Z" transform="translate(-3227.42 -2351.057)" fill="#97b2d3"/>
        <rect id="Rectangle_17526" data-name="Rectangle 17526" width="1.202" height="5.537" transform="translate(2.071 3.748) rotate(4.58)" fill="#97b2d3"/>
        <rect id="Rectangle_17527" data-name="Rectangle 17527" width="1.202" height="5.537" transform="matrix(0.997, 0.08, -0.08, 0.997, 4.845, 3.97)" fill="#97b2d3"/>
        <rect id="Rectangle_17528" data-name="Rectangle 17528" width="1.202" height="5.537" transform="matrix(0.997, 0.08, -0.08, 0.997, 7.619, 4.193)" fill="#97b2d3"/>
        <rect id="Rectangle_17529" data-name="Rectangle 17529" width="9.78" height="1.152" transform="translate(0.092 9.589) rotate(4.58)" fill="#97b2d3"/>
      </g>
      <g id="Group_7636" data-name="Group 7636" transform="translate(7.794 23.066)">
        <path id="Path_13831" data-name="Path 13831" d="M2363.822,2555.1l.07-.869a2.428,2.428,0,0,0,1.5-.745l.718.057-.281,3.514,1.169.094-.062.773-3.421-.274.062-.773,1.281.1.193-2.416A9.391,9.391,0,0,1,2363.822,2555.1Z" transform="translate(-2363.512 -2553.49)" fill="#97b2d3"/>
        <path id="Path_13832" data-name="Path 13832" d="M2423.988,2561.65l-.139.836-3.167-.254.066-.82q.164-.105.54-.327a10.245,10.245,0,0,0,1.347-.918,1.12,1.12,0,0,0,.455-.7.554.554,0,0,0-.125-.417.572.572,0,0,0-.411-.193q-.618-.049-.782.75l-.857-.265a1.546,1.546,0,0,1,1.742-1.264,1.575,1.575,0,0,1,1.118.485,1.271,1.271,0,0,1,.326.969,1.429,1.429,0,0,1-.5.972,7.714,7.714,0,0,1-1.631.987Z" transform="translate(-2416.936 -2557.768)" fill="#97b2d3"/>
        <path id="Path_13833" data-name="Path 13833" d="M2478.728,2564.265l.445.036a.67.67,0,0,0,.529-.117.51.51,0,0,0,.163-.326.5.5,0,0,0-.121-.37.555.555,0,0,0-.407-.189.623.623,0,0,0-.69.489l-.864-.209a1.372,1.372,0,0,1,.589-.767,1.637,1.637,0,0,1,1.051-.238,1.83,1.83,0,0,1,1.048.389.962.962,0,0,1,.368.864.949.949,0,0,1-.8.886.986.986,0,0,1,.771,1.07,1.138,1.138,0,0,1-.508.88,1.833,1.833,0,0,1-1.227.263,1.724,1.724,0,0,1-1.132-.462,1.481,1.481,0,0,1-.442-.956l.907-.058a.713.713,0,0,0,.7.713.7.7,0,0,0,.484-.116.517.517,0,0,0,.214-.4.5.5,0,0,0-.133-.423,1.052,1.052,0,0,0-.622-.187l-.387-.031Z" transform="translate(-2470.032 -2561.972)" fill="#97b2d3"/>
        <path id="Path_13834" data-name="Path 13834" d="M2537.517,2567.382l-.206,2.573.591.048-.059.739-.591-.047-.078.974-.987-.079.078-.974-1.847-.148.059-.739,1.909-2.437Zm-2.294,2.406,1.147.092.115-1.429q.007-.083.022-.2l.02-.173Z" transform="translate(-2523.219 -2566.387)" fill="#97b2d3"/>
        <path id="Path_13835" data-name="Path 13835" d="M2580.718,2578.833l-.627-.051,3.44-5.035.62.05Z" transform="translate(-2565.9 -2572.42)" fill="#97b2d3"/>
        <path id="Path_13836" data-name="Path 13836" d="M2644,2577.548l.07-.869a2.428,2.428,0,0,0,1.5-.746l.718.058-.281,3.514,1.169.094-.062.773-3.421-.274.062-.773,1.281.1.194-2.416A9.449,9.449,0,0,1,2644,2577.548Z" transform="translate(-2625.335 -2574.463)" fill="#97b2d3"/>
        <path id="Path_13837" data-name="Path 13837" d="M2704.17,2584.094l-.138.836-3.167-.254.066-.819q.164-.105.54-.327a10.223,10.223,0,0,0,1.347-.918,1.121,1.121,0,0,0,.455-.7.552.552,0,0,0-.126-.416.571.571,0,0,0-.411-.193q-.619-.049-.782.75l-.857-.265a1.546,1.546,0,0,1,1.742-1.265,1.578,1.578,0,0,1,1.118.485,1.271,1.271,0,0,1,.325.969,1.428,1.428,0,0,1-.5.972,7.718,7.718,0,0,1-1.631.987Z" transform="translate(-2678.76 -2578.741)" fill="#97b2d3"/>
        <path id="Path_13838" data-name="Path 13838" d="M2758.91,2586.708l.446.036a.666.666,0,0,0,.529-.116.508.508,0,0,0,.163-.326.5.5,0,0,0-.121-.37.556.556,0,0,0-.407-.19.624.624,0,0,0-.69.49l-.864-.209a1.374,1.374,0,0,1,.589-.767,1.635,1.635,0,0,1,1.051-.238,1.833,1.833,0,0,1,1.048.389.962.962,0,0,1,.368.865.949.949,0,0,1-.8.886.986.986,0,0,1,.771,1.07,1.137,1.137,0,0,1-.508.88,1.833,1.833,0,0,1-1.228.263,1.725,1.725,0,0,1-1.132-.462,1.485,1.485,0,0,1-.442-.956l.907-.058a.713.713,0,0,0,.7.713.7.7,0,0,0,.484-.116.516.516,0,0,0,.214-.4.5.5,0,0,0-.132-.424,1.054,1.054,0,0,0-.622-.187l-.387-.031Z" transform="translate(-2731.855 -2582.945)" fill="#97b2d3"/>
        <path id="Path_13839" data-name="Path 13839" d="M2817.7,2589.825l-.206,2.574.591.047-.059.739-.591-.048-.078.974-.987-.079.078-.975-1.847-.148.059-.739,1.909-2.437Zm-2.294,2.406,1.147.092.115-1.43c0-.055.012-.122.022-.2l.02-.173Z" transform="translate(-2785.043 -2587.36)" fill="#97b2d3"/>
        <path id="Path_13840" data-name="Path 13840" d="M2860.9,2601.276l-.627-.05,3.441-5.035.62.049Z" transform="translate(-2827.723 -2593.393)" fill="#97b2d3"/>
        <path id="Path_13841" data-name="Path 13841" d="M2974.748,2604.27a1.094,1.094,0,0,1,.7,1.1,1.164,1.164,0,0,1-.524.9,2,2,0,0,1-1.322.265,1.848,1.848,0,0,1-1.167-.435,1.072,1.072,0,0,1-.345-.9.978.978,0,0,1,.83-.881,1.059,1.059,0,0,1-.536-1.01,1.146,1.146,0,0,1,.478-.848,1.651,1.651,0,0,1,1.166-.274,1.783,1.783,0,0,1,1.084.4.97.97,0,0,1,.346.83A.932.932,0,0,1,2974.748,2604.27Zm-1.19.423q-.54.112-.574.545a.485.485,0,0,0,.171.429.956.956,0,0,0,.563.2,1.037,1.037,0,0,0,.532-.074.375.375,0,0,0,.229-.326.452.452,0,0,0-.117-.333A2.567,2.567,0,0,0,2973.557,2604.693Zm.563-.75a.53.53,0,0,0,.47-.5.509.509,0,0,0-.146-.416.759.759,0,0,0-.5-.2.637.637,0,0,0-.431.095.415.415,0,0,0-.178.317.423.423,0,0,0,.123.335A2.221,2.221,0,0,0,2974.121,2603.943Z" transform="translate(-2932.208 -2598.994)" fill="#97b2d3"/>
        <path id="Path_13842" data-name="Path 13842" d="M3031.445,2608.812a1.094,1.094,0,0,1,.7,1.1,1.166,1.166,0,0,1-.524.9,2,2,0,0,1-1.322.265,1.849,1.849,0,0,1-1.167-.435,1.071,1.071,0,0,1-.345-.9.978.978,0,0,1,.83-.881,1.059,1.059,0,0,1-.536-1.01,1.145,1.145,0,0,1,.478-.848,1.648,1.648,0,0,1,1.166-.274,1.781,1.781,0,0,1,1.083.4.968.968,0,0,1,.346.83A.933.933,0,0,1,3031.445,2608.812Zm-1.191.423q-.539.113-.574.546a.485.485,0,0,0,.171.429.959.959,0,0,0,.563.2,1.038,1.038,0,0,0,.532-.074.372.372,0,0,0,.229-.326.45.45,0,0,0-.117-.334A2.567,2.567,0,0,0,3030.254,2609.235Zm.564-.75a.529.529,0,0,0,.469-.5.509.509,0,0,0-.146-.416.757.757,0,0,0-.5-.2.633.633,0,0,0-.431.095.412.412,0,0,0-.177.317.422.422,0,0,0,.122.335A2.224,2.224,0,0,0,3030.818,2608.485Z" transform="translate(-2985.191 -2603.238)" fill="#97b2d3"/>
        <path id="Path_13843" data-name="Path 13843" d="M3088.143,2613.354a1.093,1.093,0,0,1,.7,1.1,1.166,1.166,0,0,1-.523.9,2,2,0,0,1-1.323.265,1.849,1.849,0,0,1-1.167-.435,1.073,1.073,0,0,1-.345-.9.978.978,0,0,1,.83-.88,1.059,1.059,0,0,1-.536-1.01,1.145,1.145,0,0,1,.477-.848,1.645,1.645,0,0,1,1.166-.274,1.777,1.777,0,0,1,1.083.4.97.97,0,0,1,.346.83A.933.933,0,0,1,3088.143,2613.354Zm-1.19.423q-.539.113-.574.545a.484.484,0,0,0,.171.429.961.961,0,0,0,.563.2,1.046,1.046,0,0,0,.532-.074.374.374,0,0,0,.229-.327.451.451,0,0,0-.117-.334A2.564,2.564,0,0,0,3086.952,2613.777Zm.564-.75a.528.528,0,0,0,.469-.5.51.51,0,0,0-.146-.416.758.758,0,0,0-.5-.2.633.633,0,0,0-.431.095.413.413,0,0,0-.178.317.421.421,0,0,0,.122.335A2.214,2.214,0,0,0,3087.516,2613.027Z" transform="translate(-3038.174 -2607.483)" fill="#97b2d3"/>
        <path id="Path_13844" data-name="Path 13844" d="M3144.84,2617.9a1.093,1.093,0,0,1,.7,1.1,1.165,1.165,0,0,1-.524.9,1.994,1.994,0,0,1-1.322.265,1.852,1.852,0,0,1-1.167-.434,1.074,1.074,0,0,1-.345-.9.977.977,0,0,1,.83-.88,1.06,1.06,0,0,1-.536-1.011,1.149,1.149,0,0,1,.478-.849,1.651,1.651,0,0,1,1.166-.274,1.781,1.781,0,0,1,1.084.4.97.97,0,0,1,.346.83A.933.933,0,0,1,3144.84,2617.9Zm-1.191.423q-.539.112-.574.545a.485.485,0,0,0,.171.429.957.957,0,0,0,.563.2,1.032,1.032,0,0,0,.532-.074.374.374,0,0,0,.229-.326.451.451,0,0,0-.118-.334A2.565,2.565,0,0,0,3143.649,2618.319Zm.564-.75a.529.529,0,0,0,.469-.5.508.508,0,0,0-.146-.416.759.759,0,0,0-.5-.2.633.633,0,0,0-.431.094.414.414,0,0,0-.178.317.424.424,0,0,0,.123.335A2.238,2.238,0,0,0,3144.213,2617.569Z" transform="translate(-3091.155 -2611.727)" fill="#97b2d3"/>
      </g>
      <rect id="Rectangle_17530" data-name="Rectangle 17530" width="29.374" height="3.038" transform="matrix(0.997, 0.08, -0.08, 0.997, 7.378, 31.229)" fill="#97b2d3"/>
      <rect id="Rectangle_17531" data-name="Rectangle 17531" width="43.739" height="3.038" transform="translate(6.97 36.325) rotate(4.58)" fill="#97b2d3"/>
    </g>
    <circle id="Ellipse_271" data-name="Ellipse 271" cx="7.836" cy="7.836" r="7.836" transform="matrix(0.996, -0.084, 0.084, 0.996, 150.427, 107.977)" fill="#003889" opacity="0.22" style="mix-blend-mode: multiply;isolation: isolate"/>
    <g id="Group_7638" data-name="Group 7638" transform="translate(149.734 104.871)">
      <circle id="Ellipse_272" data-name="Ellipse 272" cx="7.836" cy="7.836" r="7.836" fill="#33da82"/>
      <path id="Path_13845" data-name="Path 13845" d="M2993.01,2203.105a.961.961,0,0,1-.661-.328l-2.182-2.5a.964.964,0,1,1,1.452-1.268l1.548,1.773,5.3-4.631a.964.964,0,0,1,1.269,1.453l-6.03,5.265A.961.961,0,0,1,2993.01,2203.105Z" transform="translate(-2987.033 -2191.531)" fill="#fff"/>
    </g>
    <ellipse id="Ellipse_273" data-name="Ellipse 273" cx="19.129" cy="19.064" rx="19.129" ry="19.064" transform="translate(47.835 112.504)" fill="#003889" opacity="0.18" style="mix-blend-mode: multiply;isolation: isolate"/>
    <path id="Path_13846" data-name="Path 13846" d="M1319.143,2575.616l-4.618-12.56,3.961-.818a1.8,1.8,0,0,0,1.477-2.385l-3.318-9.023a2.575,2.575,0,0,0-2.9-1.482l-3.961.818-4.618-12.56a3.562,3.562,0,0,0-4.009-2.049l-65.895,13.611a2.488,2.488,0,0,0-2.042,3.3l13.976,38.01a3.562,3.562,0,0,0,4.009,2.049l65.895-13.611A2.488,2.488,0,0,0,1319.143,2575.616Z" transform="translate(-1195.551 -2403.979)" fill="#003889" opacity="0.18" style="mix-blend-mode: multiply;isolation: isolate"/>
    <path id="Path_13847" data-name="Path 13847" d="M2024.127,1472.521a.429.429,0,0,1-.372-.643,23.869,23.869,0,0,1,3.974-4.825,26.567,26.567,0,0,1,12.314-6.733.429.429,0,0,1,.193.837,25.707,25.707,0,0,0-11.913,6.517,23.4,23.4,0,0,0-3.824,4.632A.429.429,0,0,1,2024.127,1472.521Z" transform="translate(-1934.379 -1399.255)" fill="#81a4c1"/>
    <path id="Path_13848" data-name="Path 13848" d="M1564.69,1877.224l-.049,0a.43.43,0,0,1-.379-.475,23.889,23.889,0,0,1,1.729-6.007,26.568,26.568,0,0,1,8.623-11.073.429.429,0,0,1,.51.691,25.706,25.706,0,0,0-8.329,10.687,23.541,23.541,0,0,0-1.679,5.8A.429.429,0,0,1,1564.69,1877.224Z" transform="translate(-1505.046 -1772.366)" fill="#81a4c1"/>
    <path id="Path_13849" data-name="Path 13849" d="M1622.4,1965.427a.429.429,0,0,1-.429-.422,23.883,23.883,0,0,1,.942-6.18,26.566,26.566,0,0,1,7.127-12.09.429.429,0,0,1,.594.62,25.707,25.707,0,0,0-6.893,11.7,23.41,23.41,0,0,0-.911,5.936.429.429,0,0,1-.422.436Z" transform="translate(-1558.972 -1853.697)" fill="#81a4c1"/>
    <path id="Path_13850" data-name="Path 13850" d="M2035.329,1392.643a.429.429,0,0,1-.335-.7,23.876,23.876,0,0,1,4.668-4.157,26.566,26.566,0,0,1,13.2-4.762.429.429,0,1,1,.062.856,25.708,25.708,0,0,0-12.747,4.592,23.533,23.533,0,0,0-4.515,4.007A.429.429,0,0,1,2035.329,1392.643Z" transform="translate(-1944.847 -1327.035)" fill="#81a4c1"/>
    <path id="Path_13851" data-name="Path 13851" d="M1660.219,1725.651a60.03,60.03,0,0,0-7.564-3.355c-11.438-4.182-21.893-4.356-23.35-.389l-2.046,5.566a3.37,3.37,0,0,0,.11,2.387c1.475,3.9,8.6,8.944,17.96,12.368,11.438,4.182,21.893,4.356,23.35.389l2.046-5.567C1671.834,1734.034,1667.424,1729.493,1660.219,1725.651Z" transform="translate(-1563.757 -1641.034)" fill="#003889" opacity="0.18" style="mix-blend-mode: multiply;isolation: isolate"/>
    <g id="Group_7641" data-name="Group 7641" transform="translate(62.304 72.997)">
      <path id="Path_13852" data-name="Path 13852" d="M1655.639,1709.252l-1.552,5.725c-1.105,4.08-11.535,4.819-23.3,1.653-9.628-2.593-17.162-7-18.972-10.752a3.37,3.37,0,0,1-.318-2.368l1.552-5.723,7.837,2.11q1.054-.014,2.186.038a51.35,51.35,0,0,1,7.457.932q1.643.32,3.342.75c.3.077.613.158.92.241a57.58,57.58,0,0,1,9.7,3.527q.7.334,1.362.678c.682.353,1.331.715,1.941,1.08Z" transform="translate(-1611.406 -1694.169)" fill="#e59d29"/>
      <g id="Group_7640" data-name="Group 7640" transform="translate(1.552)">
        <path id="Path_13853" data-name="Path 13853" d="M1677.773,1657.663c-1.107,4.079-11.535,4.819-23.3,1.652a59.876,59.876,0,0,1-7.612-2.591c-7.638-3.208-12.529-7.4-11.679-10.528,1.105-4.08,11.535-4.819,23.295-1.653a60.048,60.048,0,0,1,7.828,2.682C1673.823,1650.424,1678.614,1654.563,1677.773,1657.663Z" transform="translate(-1635.092 -1642.579)" fill="#f4b545"/>
        <g id="Group_7639" data-name="Group 7639" transform="translate(9.846 4.446)">
          <path id="Path_13854" data-name="Path 13854" d="M1808.407,1717.88a2.22,2.22,0,0,0-.646-1.249,5.667,5.667,0,0,0-.888-.759,15.114,15.114,0,0,0-4.8-2.1,12.69,12.69,0,0,0-4.631-.573,5.11,5.11,0,0,0-2.978,1.454,2.82,2.82,0,0,1-1.3.795,3.488,3.488,0,0,1-1.591-.132,4.211,4.211,0,0,1-1.573-.75,1.02,1.02,0,0,1-.442-1.113q.349-1.288,3.541-.732l-.014-.039-.626-1.93a12.838,12.838,0,0,0-4.922-.145,2.847,2.847,0,0,0-1.909,1.143,1.676,1.676,0,0,0-.2.458q-.43,1.583,1.555,2.981a15.717,15.717,0,0,0,5,2.212,15.377,15.377,0,0,0,3.583.562,6.321,6.321,0,0,0,2.51-.317,6.217,6.217,0,0,0,1.857-1.355,1.984,1.984,0,0,1,1.21-.646,4.129,4.129,0,0,1,1.407.163q2.007.541,1.717,1.613-.274,1.006-3,.6l.683,1.242.384.7q5.411.759,6.029-1.512A1.509,1.509,0,0,0,1808.407,1717.88Z" transform="translate(-1785.35 -1710.432)" fill="#fff"/>
        </g>
      </g>
    </g>
    <g id="Group_7645" data-name="Group 7645" transform="translate(34.521 107.632)">
      <path id="Path_13855" data-name="Path 13855" d="M1256.34,2183.572l-3.333,2.126-4.868-12.956a2.318,2.318,0,0,0-3.582-1.134l-55.441,35.375a3.841,3.841,0,0,0-1.509,4.383l14.733,39.208a2.319,2.319,0,0,0,3.582,1.134l55.441-35.375a3.841,3.841,0,0,0,1.509-4.383L1258,2198.995l3.333-2.126a2.778,2.778,0,0,0,1.091-3.169l-3.5-9.308A1.676,1.676,0,0,0,1256.34,2183.572Z" transform="translate(-1187.403 -2171.165)" fill="#c89b40"/>
      <g id="Group_7643" data-name="Group 7643" transform="translate(16.621 0)">
        <ellipse id="Ellipse_274" data-name="Ellipse 274" cx="19.129" cy="19.064" rx="19.129" ry="19.064" fill="#f4b545"/>
        <g id="Group_7642" data-name="Group 7642" transform="translate(10.394 8.089)">
          <path id="Path_13856" data-name="Path 13856" d="M1616.594,2299.623l-4.258,1.42a3.491,3.491,0,0,0-3.639-2.527q-2.967,0-2.967,1.919a1.722,1.722,0,0,0,.555,1.295,5.58,5.58,0,0,0,2.509.922,24.97,24.97,0,0,1,4.783,1.327,6.114,6.114,0,0,1,2.556,2.16,5.683,5.683,0,0,1,1.04,3.33,6.641,6.641,0,0,1-2.229,4.991q-2.229,2.106-6.608,2.106a10.089,10.089,0,0,1-5.591-1.49,7.075,7.075,0,0,1-3.042-4.423l4.633-1.045q.781,2.98,4.343,2.979a4.109,4.109,0,0,0,2.562-.663,1.964,1.964,0,0,0,.844-1.583,1.65,1.65,0,0,0-.766-1.451,9.262,9.262,0,0,0-2.954-.968,13.484,13.484,0,0,1-5.815-2.3,5.258,5.258,0,0,1-1.735-4.266,6.319,6.319,0,0,1,2.072-4.789,7.874,7.874,0,0,1,5.622-1.95Q1614.795,2294.615,1616.594,2299.623Z" transform="translate(-1599.703 -2294.615)" fill="#fff"/>
        </g>
      </g>
      <g id="Group_7644" data-name="Group 7644" transform="translate(0.292 14.461)">
        <path id="Path_13857" data-name="Path 13857" d="M1270.859,2436.782l-60.28,22.5a2.958,2.958,0,0,1-3.8-1.725l-14.733-39.208a2.942,2.942,0,0,1,1.731-3.791l60.28-22.5a2.958,2.958,0,0,1,3.8,1.725l14.733,39.208A2.942,2.942,0,0,1,1270.859,2436.782Z" transform="translate(-1191.854 -2391.87)" fill="#f0bb62"/>
        <path id="Path_13858" data-name="Path 13858" d="M1262.1,2505.529a2.538,2.538,0,0,1-1.16-.282.3.3,0,1,1,.277-.537,1.935,1.935,0,0,0,1.361.155.3.3,0,1,1,.151.585A2.515,2.515,0,0,1,1262.1,2505.529Zm2.075-.625a.3.3,0,0,1-.105-.585l1.518-.567a.3.3,0,1,1,.211.566l-1.518.567A.3.3,0,0,1,1264.178,2504.9Zm-4.152-.806a.3.3,0,0,1-.283-.2l.283-.105-.284.1-.572-1.521a.3.3,0,0,1,.565-.212l.573,1.525a.3.3,0,0,1-.283.407Zm7.189-.328a.3.3,0,0,1-.106-.585l1.518-.567a.3.3,0,0,1,.211.566l-1.518.567A.315.315,0,0,1,1267.215,2503.771Zm3.037-1.133a.3.3,0,0,1-.105-.585l1.518-.567a.3.3,0,1,1,.211.566l-1.518.567A.3.3,0,0,1,1270.252,2502.638Zm3.037-1.134a.3.3,0,0,1-.106-.585l1.518-.567a.3.3,0,0,1,.211.566l-1.518.567A.314.314,0,0,1,1273.289,2501.5Zm-14.405-.447a.3.3,0,0,1-.283-.2l-.57-1.517a.3.3,0,1,1,.565-.212l.57,1.517a.3.3,0,0,1-.283.408Zm17.442-.686a.3.3,0,0,1-.106-.585l1.518-.567a.3.3,0,0,1,.211.566l-1.518.567A.3.3,0,0,1,1276.325,2500.372Zm3.037-1.134a.3.3,0,0,1-.105-.585l1.518-.567a.3.3,0,0,1,.211.566l-1.518.567A.312.312,0,0,1,1279.362,2499.238Zm3.037-1.133a.3.3,0,0,1-.106-.585l1.519-.567a.3.3,0,0,1,.211.566l-1.518.566A.3.3,0,0,1,1282.4,2498.1Zm-24.655-.081a.3.3,0,0,1-.283-.2l-.57-1.517a.3.3,0,1,1,.565-.213l.57,1.517a.3.3,0,0,1-.176.389A.307.307,0,0,1,1257.743,2498.024Zm27.692-1.052a.3.3,0,0,1-.106-.585l1.518-.567a.3.3,0,1,1,.211.566l-1.518.567A.3.3,0,0,1,1285.435,2496.971Zm3.037-1.133a.3.3,0,0,1-.105-.585l1.518-.567a.3.3,0,0,1,.211.566l-1.518.567A.3.3,0,0,1,1288.472,2495.838Zm-31.869-.849a.3.3,0,0,1-.283-.2l-.57-1.517a.3.3,0,1,1,.566-.212l.57,1.517a.3.3,0,0,1-.283.408Zm34.905-.285a.3.3,0,0,1-.105-.585l1.518-.567a.3.3,0,0,1,.211.566l-1.518.567A.3.3,0,0,1,1291.509,2494.7Zm3.037-1.133a.3.3,0,0,1-.106-.585l1.518-.567a.3.3,0,0,1,.211.566l-1.518.567A.3.3,0,0,1,1294.546,2493.572Zm3.037-1.134a.3.3,0,0,1-.106-.585l1.518-.567a.3.3,0,0,1,.211.566l-1.519.567A.3.3,0,0,1,1297.582,2492.438Zm-42.119-.483a.3.3,0,0,1-.283-.2l-.57-1.517a.3.3,0,0,1,.565-.212l.57,1.517a.3.3,0,0,1-.176.389A.3.3,0,0,1,1255.463,2491.955Zm45.156-.65a.3.3,0,0,1-.106-.585l1.518-.567a.3.3,0,0,1,.211.566l-1.518.567A.3.3,0,0,1,1300.619,2491.305Zm3.037-1.134a.3.3,0,0,1-.106-.585l1.518-.567a.3.3,0,0,1,.211.566l-1.518.567A.3.3,0,0,1,1303.656,2490.172Zm3.037-1.133a.3.3,0,0,1-.106-.585l1.519-.566a.3.3,0,1,1,.211.566l-1.518.566A.3.3,0,0,1,1306.693,2489.039Zm-52.37-.117a.3.3,0,0,1-.283-.2l-.57-1.517a.3.3,0,1,1,.565-.213l.57,1.517a.3.3,0,0,1-.283.408Zm55.406-1.016a.3.3,0,0,1-.106-.586l1.518-.566a.3.3,0,0,1,.211.566l-1.519.567A.307.307,0,0,1,1309.729,2487.906Zm3.036-1.134a.3.3,0,0,1-.105-.585l1.518-.566a.3.3,0,1,1,.211.566l-1.518.566A.3.3,0,0,1,1312.766,2486.772Zm-59.583-.885a.3.3,0,0,1-.283-.2l-.57-1.517a.3.3,0,1,1,.565-.212l.57,1.517a.3.3,0,0,1-.176.389A.308.308,0,0,1,1253.183,2485.887Zm62.62-.248a.3.3,0,0,1-.106-.585l1.518-.567a.3.3,0,1,1,.211.566l-1.518.567A.3.3,0,0,1,1315.8,2485.639Zm3.036-1.137a.3.3,0,0,1-.121-.579,1.91,1.91,0,0,0,.974-.961.3.3,0,1,1,.55.25,2.511,2.511,0,0,1-1.281,1.264A.3.3,0,0,1,1318.838,2484.5Zm-66.8-1.649a.3.3,0,0,1-.283-.2l-.57-1.517a.3.3,0,0,1,.565-.213l.57,1.517a.3.3,0,0,1-.283.408Zm68.017-1.045a.3.3,0,0,1-.288-.21c-.01-.031-.02-.062-.032-.093l-.53-1.411a.3.3,0,1,1,.565-.212l.53,1.411c.015.04.029.081.042.122a.3.3,0,0,1-.288.394Zm-69.157-1.989a.3.3,0,0,1-.283-.2l-.57-1.517a.3.3,0,0,1,.565-.212l.57,1.517a.3.3,0,0,1-.177.389A.291.291,0,0,1,1250.9,2479.819Zm68.02-1.046a.3.3,0,0,1-.283-.2l-.57-1.517a.3.3,0,1,1,.565-.213l.57,1.517a.3.3,0,0,1-.176.389A.306.306,0,0,1,1318.922,2478.772Zm-69.16-1.988a.3.3,0,0,1-.283-.2l-.57-1.517a.3.3,0,0,1,.565-.212l.57,1.517a.3.3,0,0,1-.283.408Zm68.02-1.046a.3.3,0,0,1-.283-.2l-.57-1.517a.3.3,0,1,1,.565-.213l.57,1.517a.3.3,0,0,1-.283.409Zm-69.16-1.988a.3.3,0,0,1-.283-.2l-.57-1.517a.3.3,0,1,1,.565-.212l.57,1.517a.3.3,0,0,1-.283.409Zm68.02-1.046a.3.3,0,0,1-.283-.2l-.57-1.517a.3.3,0,1,1,.565-.212l.57,1.517a.3.3,0,0,1-.283.408Zm-69.16-1.988a.3.3,0,0,1-.283-.2l-.529-1.407c-.016-.042-.03-.084-.043-.126a.3.3,0,0,1,.576-.182c.01.032.021.063.033.1l.529,1.408a.3.3,0,0,1-.177.389A.308.308,0,0,1,1247.482,2470.716Zm68.02-1.046a.3.3,0,0,1-.283-.2l-.57-1.517a.3.3,0,0,1,.565-.213l.57,1.517a.3.3,0,0,1-.283.408Zm-68.491-2.053a.3.3,0,0,1-.275-.427,2.517,2.517,0,0,1,1.284-1.262.3.3,0,1,1,.241.553,1.912,1.912,0,0,0-.976.96A.3.3,0,0,1,1247.011,2467.617Zm67.351-.981a.3.3,0,0,1-.283-.2l-.57-1.517a.3.3,0,1,1,.565-.212l.57,1.517a.3.3,0,0,1-.282.408Zm-64.7-.7a.3.3,0,0,1-.106-.585l1.518-.567a.3.3,0,1,1,.211.566l-1.518.567A.3.3,0,0,1,1249.658,2465.937Zm3.037-1.134a.3.3,0,0,1-.106-.585l1.518-.567a.3.3,0,1,1,.211.566l-1.518.567A.3.3,0,0,1,1252.695,2464.8Zm3.037-1.133a.3.3,0,0,1-.106-.585l1.518-.567a.3.3,0,0,1,.211.566l-1.518.567A.3.3,0,0,1,1255.732,2463.67Zm57.49-.068a.3.3,0,0,1-.283-.2l-.57-1.517a.3.3,0,1,1,.565-.213l.57,1.517a.3.3,0,0,1-.283.408Zm-54.453-1.066a.3.3,0,0,1-.106-.585l1.519-.566a.3.3,0,1,1,.211.566l-1.518.567A.313.313,0,0,1,1258.768,2462.536Zm3.037-1.133a.3.3,0,0,1-.106-.585l1.518-.567a.3.3,0,0,1,.211.566l-1.518.567A.3.3,0,0,1,1261.805,2461.4Zm50.276-.835a.3.3,0,0,1-.283-.2l-.57-1.518a.3.3,0,1,1,.565-.212l.57,1.517a.3.3,0,0,1-.177.389A.3.3,0,0,1,1312.082,2460.568Zm-47.24-.3a.3.3,0,0,1-.105-.585l1.518-.567a.3.3,0,1,1,.211.566l-1.518.567A.3.3,0,0,1,1264.842,2460.27Zm3.037-1.133a.3.3,0,0,1-.105-.585l1.518-.566a.3.3,0,1,1,.211.565l-1.518.567A.313.313,0,0,1,1267.878,2459.137Zm3.037-1.134a.3.3,0,0,1-.106-.585l1.518-.567a.3.3,0,1,1,.211.566l-1.518.567A.3.3,0,0,1,1270.915,2458Zm40.026-.47a.3.3,0,0,1-.283-.2l-.57-1.517a.3.3,0,0,1,.565-.213l.57,1.518a.3.3,0,0,1-.177.389A.306.306,0,0,1,1310.941,2457.533Zm-36.989-.663a.3.3,0,0,1-.106-.585l1.518-.567a.3.3,0,0,1,.211.566l-1.519.566A.3.3,0,0,1,1273.952,2456.87Zm3.037-1.134a.3.3,0,0,1-.105-.585l1.518-.567a.3.3,0,0,1,.211.566l-1.518.567A.314.314,0,0,1,1276.989,2455.737Zm3.037-1.133a.3.3,0,0,1-.105-.585l1.518-.566a.3.3,0,1,1,.211.566l-1.518.567A.308.308,0,0,1,1280.025,2454.6Zm29.776-.1a.3.3,0,0,1-.283-.2l-.57-1.517a.3.3,0,1,1,.565-.212l.57,1.517a.3.3,0,0,1-.176.389A.291.291,0,0,1,1309.8,2454.5Zm-26.739-1.029a.3.3,0,0,1-.106-.585l1.518-.567a.3.3,0,0,1,.211.566l-1.518.567A.309.309,0,0,1,1283.062,2453.47Zm3.037-1.134a.3.3,0,0,1-.106-.585l1.519-.566a.3.3,0,1,1,.211.566l-1.518.566A.3.3,0,0,1,1286.1,2452.337Zm22.562-.872a.3.3,0,0,1-.283-.2l-.57-1.517a.3.3,0,1,1,.565-.213l.57,1.517a.3.3,0,0,1-.176.389A.308.308,0,0,1,1308.661,2451.465Zm-19.525-.262a.3.3,0,0,1-.106-.585l1.518-.567a.3.3,0,0,1,.211.566l-1.518.567A.3.3,0,0,1,1289.136,2451.2Zm3.037-1.133a.3.3,0,0,1-.105-.585l1.518-.566a.3.3,0,1,1,.211.566l-1.518.567A.307.307,0,0,1,1292.172,2450.07Zm3.037-1.134a.3.3,0,0,1-.106-.585l1.519-.567a.3.3,0,1,1,.211.566l-1.518.567A.3.3,0,0,1,1295.209,2448.937Zm12.312-.506a.3.3,0,0,1-.283-.2l-.569-1.514a.3.3,0,0,1,.563-.217l0,.008.567,1.51a.3.3,0,0,1-.282.409Zm-9.275-.627a.3.3,0,0,1-.106-.585l1.519-.567a.3.3,0,0,1,.211.566l-1.518.567A.31.31,0,0,1,1298.246,2447.8Zm3.037-1.134a.3.3,0,0,1-.106-.585l1.518-.567a.3.3,0,0,1,.211.566l-1.518.567A.3.3,0,0,1,1301.282,2446.67Zm4.615-.94a.3.3,0,0,1-.139-.033,1.937,1.937,0,0,0-1.361-.157.3.3,0,1,1-.15-.585,2.548,2.548,0,0,1,1.788.205.3.3,0,0,1-.139.57Z" transform="translate(-1243.025 -2441.404)" fill="#fff"/>
        <path id="Path_13859" data-name="Path 13859" d="M2089.258,2641.438l-14.191,5.3a2.14,2.14,0,0,1-2.751-1.248l-3.5-9.308a2.128,2.128,0,0,1,1.252-2.741l14.191-5.3a2.139,2.139,0,0,1,2.751,1.248l3.5,9.307A2.128,2.128,0,0,1,2089.258,2641.438Z" transform="translate(-2011.229 -2612.532)" fill="#003889" opacity="0.18" style="mix-blend-mode: multiply;isolation: isolate"/>
        <path id="Path_13860" data-name="Path 13860" d="M2111.593,2609.517l-14.191,5.3a2.14,2.14,0,0,1-2.751-1.248l-3.5-9.308a2.128,2.128,0,0,1,1.252-2.741l14.191-5.3a2.139,2.139,0,0,1,2.751,1.248l3.5,9.308A2.127,2.127,0,0,1,2111.593,2609.517Z" transform="translate(-2032.1 -2582.704)" fill="#fff"/>
        <path id="Path_13861" data-name="Path 13861" d="M2186,2704.815a3.193,3.193,0,1,1-2.515-2.029A3.176,3.176,0,0,1,2186,2704.815Z" transform="translate(-2115.088 -2682.381)" fill="#f0bb62"/>
      </g>
    </g>
    <circle id="Ellipse_275" data-name="Ellipse 275" cx="5.427" cy="5.427" r="5.427" transform="translate(61.966 35.249)" fill="#fff"/>
    <circle id="Ellipse_276" data-name="Ellipse 276" cx="4.078" cy="4.078" r="4.078" transform="translate(20.79 57.405)" fill="#c4d7f2"/>
    <circle id="Ellipse_277" data-name="Ellipse 277" cx="6.712" cy="6.712" r="6.712" transform="translate(199.318 8.541)" fill="#c4d7f2"/>
    <g id="Group_7648" data-name="Group 7648" transform="translate(91.157 179.717)">
      <path id="Path_13862" data-name="Path 13862" d="M2078.1,3330.588l-.127-3.2-4.367.173a30.745,30.745,0,0,0-15,.594l-4.367.174.127,3.2c.09,2.281,5.475,3.919,12.028,3.659S2078.194,3332.869,2078.1,3330.588Z" transform="translate(-2054.084 -3323.258)" fill="#9fbad6"/>
      <g id="Group_7647" data-name="Group 7647" transform="translate(0 0)">
        <ellipse id="Ellipse_278" data-name="Ellipse 278" cx="11.874" cy="4.133" rx="11.874" ry="4.133" transform="translate(0 0.941) rotate(-2.271)" fill="#c4d7f2"/>
        <g id="Group_7646" data-name="Group 7646" transform="translate(5.632 2.951)">
          <path id="Path_13863" data-name="Path 13863" d="M2147.641,3319.5l-.861-.828q1.465-.232,1.443-.793-.024-.6-1.142-.555a2.211,2.211,0,0,0-.75.142,1.067,1.067,0,0,0-.517.529,2.595,2.595,0,0,1-1.973,1.563,8.269,8.269,0,0,1-1.932.287,8.444,8.444,0,0,1-2.926-.335q-1.245-.4-1.28-1.287-.026-.664.823-1.165a6.892,6.892,0,0,1,2.552-.717l.646.912q-1.73.227-1.7.947a.553.553,0,0,0,.407.5,2.269,2.269,0,0,0,.929.134,1.881,1.881,0,0,0,.839-.188,1.52,1.52,0,0,0,.54-.619,2.757,2.757,0,0,1,1.294-1.229,6.81,6.81,0,0,1,2.472-.449,8.122,8.122,0,0,1,2.807.308q1.152.374,1.181,1.091Q2150.544,3319.018,2147.641,3319.5Z" transform="translate(-2137.703 -3316.338)" fill="#fff"/>
        </g>
      </g>
    </g>
    <g id="Group_7651" data-name="Group 7651" transform="translate(110.083 175.759)">
      <path id="Path_13864" data-name="Path 13864" d="M2366.49,3281.083l.846-3.09-4.216-1.154a30.744,30.744,0,0,0-14.474-3.962l-4.215-1.154-.846,3.089c-.6,2.2,4.036,5.39,10.361,7.122S2365.888,3283.284,2366.49,3281.083Z" transform="translate(-2343.341 -3267.737)" fill="#9fbad6"/>
      <g id="Group_7650" data-name="Group 7650" transform="translate(0 0)">
        <ellipse id="Ellipse_279" data-name="Ellipse 279" cx="4.133" cy="11.874" rx="4.133" ry="11.874" transform="translate(0 7.972) rotate(-74.69)" fill="#c4d7f2"/>
        <g id="Group_7649" data-name="Group 7649" transform="translate(6.334 4.458)">
          <path id="Path_13865" data-name="Path 13865" d="M2446.394,3284.1l-.571-1.049q1.467.221,1.616-.321.159-.579-.921-.875a2.224,2.224,0,0,0-.758-.091,1.065,1.065,0,0,0-.652.347,2.6,2.6,0,0,1-2.353.895,8.239,8.239,0,0,1-1.928-.31,8.444,8.444,0,0,1-2.688-1.2q-1.065-.76-.831-1.614.175-.641,1.136-.861a6.879,6.879,0,0,1,2.65.087l.341,1.064q-1.718-.306-1.908.388a.553.553,0,0,0,.236.6,2.276,2.276,0,0,0,.846.408,1.878,1.878,0,0,0,.857.074,1.523,1.523,0,0,0,.7-.427,2.756,2.756,0,0,1,1.605-.78,6.813,6.813,0,0,1,2.492.318,8.129,8.129,0,0,1,2.583,1.142q.985.7.8,1.4Q2449.307,3284.522,2446.394,3284.1Z" transform="translate(-2437.265 -3278.929)" fill="#fff"/>
        </g>
      </g>
    </g>
    <g id="Group_7654" data-name="Group 7654" transform="translate(82.282 182.01)">
      <path id="Path_13866" data-name="Path 13866" d="M1951.722,3371.452l-.583-3.149-4.3.8a30.739,30.739,0,0,0-14.756,2.732l-4.3.8.583,3.15c.416,2.244,5.979,3.1,12.428,1.9S1952.137,3373.7,1951.722,3371.452Z" transform="translate(-1927.036 -3364.239)" fill="#9fbad6"/>
      <g id="Group_7653" data-name="Group 7653" transform="translate(0 0)">
        <ellipse id="Ellipse_280" data-name="Ellipse 280" cx="11.874" cy="4.133" rx="11.874" ry="4.133" transform="translate(0 4.323) rotate(-10.488)" fill="#c4d7f2"/>
        <g id="Group_7652" data-name="Group 7652" transform="translate(6.115 4.08)">
          <path id="Path_13867" data-name="Path 13867" d="M2019.664,3371.684l-.971-.7q1.417-.439,1.315-.992-.109-.59-1.209-.387a2.227,2.227,0,0,0-.722.248,1.067,1.067,0,0,0-.436.6,2.593,2.593,0,0,1-1.73,1.83,8.249,8.249,0,0,1-1.871.561,8.451,8.451,0,0,1-2.944.086q-1.289-.219-1.451-1.09a1.339,1.339,0,0,1,.648-1.27,6.885,6.885,0,0,1,2.424-1.074l.77.811q-1.68.472-1.549,1.18a.553.553,0,0,0,.475.439,2.266,2.266,0,0,0,.939,0,1.877,1.877,0,0,0,.8-.306,1.52,1.52,0,0,0,.446-.69,2.757,2.757,0,0,1,1.105-1.4,6.815,6.815,0,0,1,2.382-.8,8.129,8.129,0,0,1,2.822-.1q1.194.205,1.325.911Q2022.469,3370.8,2019.664,3371.684Z" transform="translate(-2009.63 -3368.551)" fill="#fff"/>
        </g>
      </g>
    </g>
  </g>
</svg>
