<svg xmlns="http://www.w3.org/2000/svg" width="24" height="24" viewBox="0 0 24 24">
  <g id="wishlist_active" transform="translate(-903 -3466)">
    <rect id="Rectangle_273" data-name="Rectangle 273" width="24" height="24" transform="translate(903 3466)" fill="none"/>
    <path id="Path_674" data-name="Path 674" d="M126.11,55.021a5.635,5.635,0,0,0-.879-2.055q-.471-.035-.951-.035a12.717,12.717,0,0,0-12.714,12.457q.543.57,1.116,1.114a12.027,12.027,0,0,0,2.007,1.557,2.146,2.146,0,0,0,2.419-.005,11.973,11.973,0,0,0,1.968-1.525,37.805,37.805,0,0,0,4.439-5.091,26.77,26.77,0,0,0,1.9-2.688,5.151,5.151,0,0,0,.7-3.729" transform="translate(799.102 3418.284)" fill="#f0bb62"/>
    <path id="Path_675" data-name="Path 675" d="M23.437,4.008a7.27,7.27,0,0,0-.507-.954A6.4,6.4,0,0,0,15.479.314,7.016,7.016,0,0,0,12.8,1.935a1.134,1.134,0,0,1-1.6,0c-.115-.1-.23-.206-.344-.309A6.553,6.553,0,0,0,3.326.851,6.823,6.823,0,0,0,.665,9.664a15.794,15.794,0,0,0,1.6,2.477,40.606,40.606,0,0,0,5.443,6.388c.056.051.111.1.168.151a11.271,11.271,0,0,0,2.571,1.79,3.378,3.378,0,0,0,3.139-.02,10.256,10.256,0,0,0,1.932-1.265,31.114,31.114,0,0,0,4.529-4.793c.832-1.038,1.592-2.127,2.376-3.2A7.756,7.756,0,0,0,24,6.591a6.62,6.62,0,0,0-.564-2.584M21.514,9.457a26.773,26.773,0,0,1-1.9,2.688,37.806,37.806,0,0,1-4.439,5.091,11.972,11.972,0,0,1-1.968,1.525,2.146,2.146,0,0,1-2.419.005,12.026,12.026,0,0,1-2.007-1.557q-.573-.542-1.116-1.114a40.812,40.812,0,0,1-2.916-3.447c-.764-1-1.538-2-2.208-3.066a5.484,5.484,0,0,1-.874-2.971A5.048,5.048,0,0,1,5.7,1.77,4.134,4.134,0,0,1,6.521,1.7a4.931,4.931,0,0,1,3.374,1.36,2.889,2.889,0,0,0,4.19.019,4.824,4.824,0,0,1,7.249.6,5.634,5.634,0,0,1,.878,2.055,5.151,5.151,0,0,1-.7,3.729" transform="translate(903 3467.577)" fill="#002f35"/>
    <path id="Path_676" data-name="Path 676" d="M217.541,73.391a1.6,1.6,0,0,1-1.641,1.615,1.641,1.641,0,0,1-1.653-1.648,1.688,1.688,0,0,1,1.648-1.646,1.633,1.633,0,0,1,1.646,1.68" transform="translate(703.48 3400.795)" fill="#002f35"/>
  </g>
</svg>
