<svg xmlns="http://www.w3.org/2000/svg" width="20" height="20" viewBox="0 0 20 20">
  <g id="building-line" transform="translate(-5 -4.91)">
    <rect id="Rectangle_259" data-name="Rectangle 259" width="20" height="20" transform="translate(5 4.91)" fill="none"/>
    <path id="Path_637" data-name="Path 637" d="M19.182,17.545H21v1.818H1V17.545H2.818V3.909A.909.909,0,0,1,3.727,3h9.091a.909.909,0,0,1,.909.909V17.545h3.636V10.273H15.545V8.455h2.727a.909.909,0,0,1,.909.909ZM4.636,4.818V17.545h7.273V4.818Zm1.818,5.455h3.636v1.818H6.455Zm0-3.636h3.636V8.455H6.455Z" transform="translate(4 3.818)" fill="#1c7d88"/>
  </g>
</svg>
